M48
; DRILL file {KiCad 9.0.7} date 2026-04-09T22:42:37-0400
; FORMAT={-:-/ absolute / inch / decimal}
; #@! TF.CreationDate,2026-04-09T22:42:37-04:00
; #@! TF.GenerationSoftware,Kicad,Pcbnew,9.0.7
; #@! TF.FileFunction,Plated,1,2,PTH
FMAT,2
INCH
; #@! TA.AperFunction,Plated,PTH,ViaDrill
T1C0.0118
; #@! TA.AperFunction,Plated,PTH,ComponentDrill
T2C0.0315
; #@! TA.AperFunction,Plated,PTH,ComponentDrill
T3C0.0591
%
G90
G05
T1
X1.1831Y-2.2618
X1.8346Y-2.8898
X2.0713Y-2.8445
X2.7543Y-2.8898
X2.8307Y-2.9429
X3.04Y-2.1156
X4.9409Y-2.9429
X4.9705Y-4.4685
X5.1585Y-2.1939
X5.75Y-2.8031
X5.9413Y-2.8445
X6.2539Y-2.1453
X6.3091Y-2.628
X6.4287Y-2.1915
X6.437Y-2.9429
X6.4559Y-2.3327
X6.4961Y-4.4213
X6.752Y-2.9823
X6.8909Y-2.0732
X6.9484Y-4.3681
X6.9724Y-2.3386
X7.062Y-2.7077
X7.0945Y-3.9232
X7.1291Y-4.4654
X7.1421Y-4.326
X7.2098Y-2.9941
X7.4173Y-2.9429
X7.7567Y-2.1917
X7.9118Y-4.4209
X8.435Y-2.9921
X8.6461Y-4.4043
X8.8543Y-4.378
X9.1929Y-2.9921
X9.2514Y-4.414
X9.439Y-2.9429
X9.439Y-4.4587
X9.837Y-4.3768
X10.1547Y-3.6193
X10.4154Y-4.4587
X11.5386Y-2.9421
X13.1524Y-3.6449
T2
X6.4378Y-1.7024
X6.4378Y-2.0024
X6.5378Y-1.7024
X6.5378Y-2.0024
X6.6378Y-1.7024
X6.6378Y-2.0024
X6.7378Y-1.7024
X6.7378Y-2.0024
X6.8378Y-1.7024
X6.8378Y-2.0024
X6.9378Y-1.7024
X6.9378Y-2.0024
X7.0378Y-1.7024
X7.0378Y-2.0024
X7.1378Y-1.7024
X7.1378Y-2.0024
T3
X1.3125Y-2.4394
X1.3125Y-3.9375
X1.5Y-4.6875
X1.5625Y-2.3394
X1.5625Y-3.8375
X1.6875Y-3.1875
X1.75Y-4.5875
X1.9375Y-3.0875
X2.0625Y-2.4394
X2.0625Y-3.9375
X2.3125Y-2.3394
X2.3125Y-3.8375
X2.4375Y-3.1875
X2.4375Y-4.6875
X2.6875Y-3.0875
X2.6875Y-4.5875
X2.8125Y-2.4375
X2.8125Y-3.9375
X3.0625Y-2.3375
X3.0625Y-3.8375
X3.1875Y-3.1875
X3.1875Y-4.6875
X3.4375Y-3.0875
X3.4375Y-4.5875
X3.5625Y-2.4375
X3.5625Y-3.9375
X3.8125Y-2.3375
X3.8125Y-3.8375
X3.9375Y-3.1875
X3.9375Y-4.6875
X4.1875Y-3.0875
X4.1875Y-4.5875
X4.3125Y-2.4375
X4.3125Y-3.9375
X4.5625Y-2.3375
X4.5625Y-3.8375
X4.6875Y-3.1875
X4.6875Y-4.6875
X4.9375Y-3.0875
X4.9375Y-4.5875
X5.0625Y-2.4375
X5.0625Y-3.9375
X5.3125Y-2.3375
X5.3125Y-3.8375
X5.4375Y-3.1875
X5.4375Y-4.6875
X5.6875Y-3.0875
X5.6875Y-4.5875
X5.8125Y-2.4389
X5.8125Y-3.9375
X6.0625Y-2.3389
X6.0625Y-3.8375
X6.1875Y-3.1875
X6.1875Y-4.6875
X6.4375Y-3.0875
X6.4375Y-4.5875
X6.5625Y-2.4394
X6.5625Y-3.9375
X6.5625Y-5.4375
X6.8125Y-2.3394
X6.8125Y-3.8375
X6.8125Y-5.3375
X6.9375Y-3.1875
X6.9375Y-4.6875
X7.1875Y-3.0875
X7.1875Y-4.5875
X7.3125Y-2.4394
X7.3125Y-3.9375
X7.5625Y-2.3394
X7.5625Y-3.8375
X7.6875Y-3.1875
X7.6875Y-4.6875
X7.9375Y-3.0875
X7.9375Y-4.5875
X8.0625Y-3.9375
X8.0626Y-2.4394
X8.3125Y-3.8375
X8.3126Y-2.3394
X8.4375Y-3.1875
X8.4375Y-4.6875
X8.6875Y-3.0875
X8.6875Y-4.5875
X8.8125Y-2.4375
X8.8125Y-3.9375
X9.0625Y-2.3375
X9.0625Y-3.8375
X9.1875Y-3.1875
X9.1875Y-4.6875
X9.4375Y-3.0875
X9.4375Y-4.5875
X9.5625Y-2.4375
X9.5625Y-3.9375
X9.8125Y-2.3375
X9.8125Y-3.8375
X9.9375Y-3.1875
X10.125Y-4.6875
X10.1875Y-3.0875
X10.3125Y-2.4375
X10.375Y-4.5875
X10.5Y-3.9375
X10.5625Y-2.3375
X10.6875Y-3.1875
X10.75Y-3.8375
X10.9375Y-3.0875
X11.0625Y-2.4375
X11.25Y-5.4375
X11.3125Y-2.3375
X11.5Y-5.3375
X11.9996Y-5.4371
X12.0Y-2.4375
X12.0Y-3.1875
X12.0Y-4.6875
X12.2496Y-5.3371
X12.25Y-2.3375
X12.25Y-3.0875
X12.25Y-4.5875
X12.7496Y-5.4371
X12.75Y-2.4375
X12.75Y-3.1875
X12.9996Y-5.3371
X13.0Y-2.3375
X13.0Y-3.0875
M30
