%TF.GenerationSoftware,KiCad,Pcbnew,9.0.7*%
%TF.CreationDate,2026-04-09T22:42:40-04:00*%
%TF.ProjectId,Orao Keyboard,4f72616f-204b-4657-9962-6f6172642e6b,1.0*%
%TF.SameCoordinates,Original*%
%TF.FileFunction,Legend,Bot*%
%TF.FilePolarity,Positive*%
%FSLAX46Y46*%
G04 Gerber Fmt 4.6, Leading zero omitted, Abs format (unit mm)*
G04 Created by KiCad (PCBNEW 9.0.7) date 2026-04-09 22:42:40*
%MOMM*%
%LPD*%
G01*
G04 APERTURE LIST*
%ADD10C,0.175000*%
%ADD11C,0.100000*%
G04 APERTURE END LIST*
D10*
X94966666Y-106599566D02*
X94966666Y-105199566D01*
X94966666Y-105199566D02*
X94633333Y-105199566D01*
X94633333Y-105199566D02*
X94433333Y-105266233D01*
X94433333Y-105266233D02*
X94300000Y-105399566D01*
X94300000Y-105399566D02*
X94233333Y-105532900D01*
X94233333Y-105532900D02*
X94166666Y-105799566D01*
X94166666Y-105799566D02*
X94166666Y-105999566D01*
X94166666Y-105999566D02*
X94233333Y-106266233D01*
X94233333Y-106266233D02*
X94300000Y-106399566D01*
X94300000Y-106399566D02*
X94433333Y-106532900D01*
X94433333Y-106532900D02*
X94633333Y-106599566D01*
X94633333Y-106599566D02*
X94966666Y-106599566D01*
X132131535Y-66979566D02*
X132398202Y-66979566D01*
X132398202Y-66979566D02*
X132531535Y-67046233D01*
X132531535Y-67046233D02*
X132598202Y-67112900D01*
X132598202Y-67112900D02*
X132731535Y-67312900D01*
X132731535Y-67312900D02*
X132798202Y-67579566D01*
X132798202Y-67579566D02*
X132798202Y-68112900D01*
X132798202Y-68112900D02*
X132731535Y-68246233D01*
X132731535Y-68246233D02*
X132664869Y-68312900D01*
X132664869Y-68312900D02*
X132531535Y-68379566D01*
X132531535Y-68379566D02*
X132264869Y-68379566D01*
X132264869Y-68379566D02*
X132131535Y-68312900D01*
X132131535Y-68312900D02*
X132064869Y-68246233D01*
X132064869Y-68246233D02*
X131998202Y-68112900D01*
X131998202Y-68112900D02*
X131998202Y-67779566D01*
X131998202Y-67779566D02*
X132064869Y-67646233D01*
X132064869Y-67646233D02*
X132131535Y-67579566D01*
X132131535Y-67579566D02*
X132264869Y-67512900D01*
X132264869Y-67512900D02*
X132531535Y-67512900D01*
X132531535Y-67512900D02*
X132664869Y-67579566D01*
X132664869Y-67579566D02*
X132731535Y-67646233D01*
X132731535Y-67646233D02*
X132798202Y-67779566D01*
X94121535Y-67446233D02*
X94121535Y-68379566D01*
X94454869Y-66912900D02*
X94788202Y-67912900D01*
X94788202Y-67912900D02*
X93921535Y-67912900D01*
D11*
X164104977Y-39289925D02*
X164180216Y-39232782D01*
X164180216Y-39232782D02*
X164255454Y-39061354D01*
X164255454Y-39061354D02*
X164255454Y-38947068D01*
X164255454Y-38947068D02*
X164180216Y-38775639D01*
X164180216Y-38775639D02*
X164029739Y-38661354D01*
X164029739Y-38661354D02*
X163879263Y-38604211D01*
X163879263Y-38604211D02*
X163578311Y-38547068D01*
X163578311Y-38547068D02*
X163352596Y-38547068D01*
X163352596Y-38547068D02*
X163051644Y-38604211D01*
X163051644Y-38604211D02*
X162901168Y-38661354D01*
X162901168Y-38661354D02*
X162750692Y-38775639D01*
X162750692Y-38775639D02*
X162675454Y-38947068D01*
X162675454Y-38947068D02*
X162675454Y-39061354D01*
X162675454Y-39061354D02*
X162750692Y-39232782D01*
X162750692Y-39232782D02*
X162825930Y-39289925D01*
X164255454Y-40432782D02*
X164255454Y-39747068D01*
X164255454Y-40089925D02*
X162675454Y-40089925D01*
X162675454Y-40089925D02*
X162901168Y-39975639D01*
X162901168Y-39975639D02*
X163051644Y-39861354D01*
X163051644Y-39861354D02*
X163126882Y-39747068D01*
X162675454Y-41175639D02*
X162675454Y-41289925D01*
X162675454Y-41289925D02*
X162750692Y-41404211D01*
X162750692Y-41404211D02*
X162825930Y-41461354D01*
X162825930Y-41461354D02*
X162976406Y-41518496D01*
X162976406Y-41518496D02*
X163277358Y-41575639D01*
X163277358Y-41575639D02*
X163653549Y-41575639D01*
X163653549Y-41575639D02*
X163954501Y-41518496D01*
X163954501Y-41518496D02*
X164104977Y-41461354D01*
X164104977Y-41461354D02*
X164180216Y-41404211D01*
X164180216Y-41404211D02*
X164255454Y-41289925D01*
X164255454Y-41289925D02*
X164255454Y-41175639D01*
X164255454Y-41175639D02*
X164180216Y-41061354D01*
X164180216Y-41061354D02*
X164104977Y-41004211D01*
X164104977Y-41004211D02*
X163954501Y-40947068D01*
X163954501Y-40947068D02*
X163653549Y-40889925D01*
X163653549Y-40889925D02*
X163277358Y-40889925D01*
X163277358Y-40889925D02*
X162976406Y-40947068D01*
X162976406Y-40947068D02*
X162825930Y-41004211D01*
X162825930Y-41004211D02*
X162750692Y-41061354D01*
X162750692Y-41061354D02*
X162675454Y-41175639D01*
X166648689Y-40432782D02*
X166723928Y-40375639D01*
X166723928Y-40375639D02*
X166799166Y-40204211D01*
X166799166Y-40204211D02*
X166799166Y-40089925D01*
X166799166Y-40089925D02*
X166723928Y-39918496D01*
X166723928Y-39918496D02*
X166573451Y-39804211D01*
X166573451Y-39804211D02*
X166422975Y-39747068D01*
X166422975Y-39747068D02*
X166122023Y-39689925D01*
X166122023Y-39689925D02*
X165896308Y-39689925D01*
X165896308Y-39689925D02*
X165595356Y-39747068D01*
X165595356Y-39747068D02*
X165444880Y-39804211D01*
X165444880Y-39804211D02*
X165294404Y-39918496D01*
X165294404Y-39918496D02*
X165219166Y-40089925D01*
X165219166Y-40089925D02*
X165219166Y-40204211D01*
X165219166Y-40204211D02*
X165294404Y-40375639D01*
X165294404Y-40375639D02*
X165369642Y-40432782D01*
X166799166Y-41004211D02*
X166799166Y-41232782D01*
X166799166Y-41232782D02*
X166723928Y-41347068D01*
X166723928Y-41347068D02*
X166648689Y-41404211D01*
X166648689Y-41404211D02*
X166422975Y-41518496D01*
X166422975Y-41518496D02*
X166122023Y-41575639D01*
X166122023Y-41575639D02*
X165520118Y-41575639D01*
X165520118Y-41575639D02*
X165369642Y-41518496D01*
X165369642Y-41518496D02*
X165294404Y-41461354D01*
X165294404Y-41461354D02*
X165219166Y-41347068D01*
X165219166Y-41347068D02*
X165219166Y-41118496D01*
X165219166Y-41118496D02*
X165294404Y-41004211D01*
X165294404Y-41004211D02*
X165369642Y-40947068D01*
X165369642Y-40947068D02*
X165520118Y-40889925D01*
X165520118Y-40889925D02*
X165896308Y-40889925D01*
X165896308Y-40889925D02*
X166046785Y-40947068D01*
X166046785Y-40947068D02*
X166122023Y-41004211D01*
X166122023Y-41004211D02*
X166197261Y-41118496D01*
X166197261Y-41118496D02*
X166197261Y-41347068D01*
X166197261Y-41347068D02*
X166122023Y-41461354D01*
X166122023Y-41461354D02*
X166046785Y-41518496D01*
X166046785Y-41518496D02*
X165896308Y-41575639D01*
X169192401Y-40432782D02*
X169267640Y-40375639D01*
X169267640Y-40375639D02*
X169342878Y-40204211D01*
X169342878Y-40204211D02*
X169342878Y-40089925D01*
X169342878Y-40089925D02*
X169267640Y-39918496D01*
X169267640Y-39918496D02*
X169117163Y-39804211D01*
X169117163Y-39804211D02*
X168966687Y-39747068D01*
X168966687Y-39747068D02*
X168665735Y-39689925D01*
X168665735Y-39689925D02*
X168440020Y-39689925D01*
X168440020Y-39689925D02*
X168139068Y-39747068D01*
X168139068Y-39747068D02*
X167988592Y-39804211D01*
X167988592Y-39804211D02*
X167838116Y-39918496D01*
X167838116Y-39918496D02*
X167762878Y-40089925D01*
X167762878Y-40089925D02*
X167762878Y-40204211D01*
X167762878Y-40204211D02*
X167838116Y-40375639D01*
X167838116Y-40375639D02*
X167913354Y-40432782D01*
X168440020Y-41118496D02*
X168364782Y-41004211D01*
X168364782Y-41004211D02*
X168289544Y-40947068D01*
X168289544Y-40947068D02*
X168139068Y-40889925D01*
X168139068Y-40889925D02*
X168063830Y-40889925D01*
X168063830Y-40889925D02*
X167913354Y-40947068D01*
X167913354Y-40947068D02*
X167838116Y-41004211D01*
X167838116Y-41004211D02*
X167762878Y-41118496D01*
X167762878Y-41118496D02*
X167762878Y-41347068D01*
X167762878Y-41347068D02*
X167838116Y-41461354D01*
X167838116Y-41461354D02*
X167913354Y-41518496D01*
X167913354Y-41518496D02*
X168063830Y-41575639D01*
X168063830Y-41575639D02*
X168139068Y-41575639D01*
X168139068Y-41575639D02*
X168289544Y-41518496D01*
X168289544Y-41518496D02*
X168364782Y-41461354D01*
X168364782Y-41461354D02*
X168440020Y-41347068D01*
X168440020Y-41347068D02*
X168440020Y-41118496D01*
X168440020Y-41118496D02*
X168515259Y-41004211D01*
X168515259Y-41004211D02*
X168590497Y-40947068D01*
X168590497Y-40947068D02*
X168740973Y-40889925D01*
X168740973Y-40889925D02*
X169041925Y-40889925D01*
X169041925Y-40889925D02*
X169192401Y-40947068D01*
X169192401Y-40947068D02*
X169267640Y-41004211D01*
X169267640Y-41004211D02*
X169342878Y-41118496D01*
X169342878Y-41118496D02*
X169342878Y-41347068D01*
X169342878Y-41347068D02*
X169267640Y-41461354D01*
X169267640Y-41461354D02*
X169192401Y-41518496D01*
X169192401Y-41518496D02*
X169041925Y-41575639D01*
X169041925Y-41575639D02*
X168740973Y-41575639D01*
X168740973Y-41575639D02*
X168590497Y-41518496D01*
X168590497Y-41518496D02*
X168515259Y-41461354D01*
X168515259Y-41461354D02*
X168440020Y-41347068D01*
X171736113Y-40432782D02*
X171811352Y-40375639D01*
X171811352Y-40375639D02*
X171886590Y-40204211D01*
X171886590Y-40204211D02*
X171886590Y-40089925D01*
X171886590Y-40089925D02*
X171811352Y-39918496D01*
X171811352Y-39918496D02*
X171660875Y-39804211D01*
X171660875Y-39804211D02*
X171510399Y-39747068D01*
X171510399Y-39747068D02*
X171209447Y-39689925D01*
X171209447Y-39689925D02*
X170983732Y-39689925D01*
X170983732Y-39689925D02*
X170682780Y-39747068D01*
X170682780Y-39747068D02*
X170532304Y-39804211D01*
X170532304Y-39804211D02*
X170381828Y-39918496D01*
X170381828Y-39918496D02*
X170306590Y-40089925D01*
X170306590Y-40089925D02*
X170306590Y-40204211D01*
X170306590Y-40204211D02*
X170381828Y-40375639D01*
X170381828Y-40375639D02*
X170457066Y-40432782D01*
X170306590Y-40832782D02*
X170306590Y-41632782D01*
X170306590Y-41632782D02*
X171886590Y-41118496D01*
X174279825Y-40432782D02*
X174355064Y-40375639D01*
X174355064Y-40375639D02*
X174430302Y-40204211D01*
X174430302Y-40204211D02*
X174430302Y-40089925D01*
X174430302Y-40089925D02*
X174355064Y-39918496D01*
X174355064Y-39918496D02*
X174204587Y-39804211D01*
X174204587Y-39804211D02*
X174054111Y-39747068D01*
X174054111Y-39747068D02*
X173753159Y-39689925D01*
X173753159Y-39689925D02*
X173527444Y-39689925D01*
X173527444Y-39689925D02*
X173226492Y-39747068D01*
X173226492Y-39747068D02*
X173076016Y-39804211D01*
X173076016Y-39804211D02*
X172925540Y-39918496D01*
X172925540Y-39918496D02*
X172850302Y-40089925D01*
X172850302Y-40089925D02*
X172850302Y-40204211D01*
X172850302Y-40204211D02*
X172925540Y-40375639D01*
X172925540Y-40375639D02*
X173000778Y-40432782D01*
X172850302Y-41461354D02*
X172850302Y-41232782D01*
X172850302Y-41232782D02*
X172925540Y-41118496D01*
X172925540Y-41118496D02*
X173000778Y-41061354D01*
X173000778Y-41061354D02*
X173226492Y-40947068D01*
X173226492Y-40947068D02*
X173527444Y-40889925D01*
X173527444Y-40889925D02*
X174129349Y-40889925D01*
X174129349Y-40889925D02*
X174279825Y-40947068D01*
X174279825Y-40947068D02*
X174355064Y-41004211D01*
X174355064Y-41004211D02*
X174430302Y-41118496D01*
X174430302Y-41118496D02*
X174430302Y-41347068D01*
X174430302Y-41347068D02*
X174355064Y-41461354D01*
X174355064Y-41461354D02*
X174279825Y-41518496D01*
X174279825Y-41518496D02*
X174129349Y-41575639D01*
X174129349Y-41575639D02*
X173753159Y-41575639D01*
X173753159Y-41575639D02*
X173602683Y-41518496D01*
X173602683Y-41518496D02*
X173527444Y-41461354D01*
X173527444Y-41461354D02*
X173452206Y-41347068D01*
X173452206Y-41347068D02*
X173452206Y-41118496D01*
X173452206Y-41118496D02*
X173527444Y-41004211D01*
X173527444Y-41004211D02*
X173602683Y-40947068D01*
X173602683Y-40947068D02*
X173753159Y-40889925D01*
X176823537Y-40432782D02*
X176898776Y-40375639D01*
X176898776Y-40375639D02*
X176974014Y-40204211D01*
X176974014Y-40204211D02*
X176974014Y-40089925D01*
X176974014Y-40089925D02*
X176898776Y-39918496D01*
X176898776Y-39918496D02*
X176748299Y-39804211D01*
X176748299Y-39804211D02*
X176597823Y-39747068D01*
X176597823Y-39747068D02*
X176296871Y-39689925D01*
X176296871Y-39689925D02*
X176071156Y-39689925D01*
X176071156Y-39689925D02*
X175770204Y-39747068D01*
X175770204Y-39747068D02*
X175619728Y-39804211D01*
X175619728Y-39804211D02*
X175469252Y-39918496D01*
X175469252Y-39918496D02*
X175394014Y-40089925D01*
X175394014Y-40089925D02*
X175394014Y-40204211D01*
X175394014Y-40204211D02*
X175469252Y-40375639D01*
X175469252Y-40375639D02*
X175544490Y-40432782D01*
X175394014Y-41518496D02*
X175394014Y-40947068D01*
X175394014Y-40947068D02*
X176146395Y-40889925D01*
X176146395Y-40889925D02*
X176071156Y-40947068D01*
X176071156Y-40947068D02*
X175995918Y-41061354D01*
X175995918Y-41061354D02*
X175995918Y-41347068D01*
X175995918Y-41347068D02*
X176071156Y-41461354D01*
X176071156Y-41461354D02*
X176146395Y-41518496D01*
X176146395Y-41518496D02*
X176296871Y-41575639D01*
X176296871Y-41575639D02*
X176673061Y-41575639D01*
X176673061Y-41575639D02*
X176823537Y-41518496D01*
X176823537Y-41518496D02*
X176898776Y-41461354D01*
X176898776Y-41461354D02*
X176974014Y-41347068D01*
X176974014Y-41347068D02*
X176974014Y-41061354D01*
X176974014Y-41061354D02*
X176898776Y-40947068D01*
X176898776Y-40947068D02*
X176823537Y-40889925D01*
X179367249Y-40432782D02*
X179442488Y-40375639D01*
X179442488Y-40375639D02*
X179517726Y-40204211D01*
X179517726Y-40204211D02*
X179517726Y-40089925D01*
X179517726Y-40089925D02*
X179442488Y-39918496D01*
X179442488Y-39918496D02*
X179292011Y-39804211D01*
X179292011Y-39804211D02*
X179141535Y-39747068D01*
X179141535Y-39747068D02*
X178840583Y-39689925D01*
X178840583Y-39689925D02*
X178614868Y-39689925D01*
X178614868Y-39689925D02*
X178313916Y-39747068D01*
X178313916Y-39747068D02*
X178163440Y-39804211D01*
X178163440Y-39804211D02*
X178012964Y-39918496D01*
X178012964Y-39918496D02*
X177937726Y-40089925D01*
X177937726Y-40089925D02*
X177937726Y-40204211D01*
X177937726Y-40204211D02*
X178012964Y-40375639D01*
X178012964Y-40375639D02*
X178088202Y-40432782D01*
X178464392Y-41461354D02*
X179517726Y-41461354D01*
X177862488Y-41175639D02*
X178991059Y-40889925D01*
X178991059Y-40889925D02*
X178991059Y-41632782D01*
X181910961Y-40432782D02*
X181986200Y-40375639D01*
X181986200Y-40375639D02*
X182061438Y-40204211D01*
X182061438Y-40204211D02*
X182061438Y-40089925D01*
X182061438Y-40089925D02*
X181986200Y-39918496D01*
X181986200Y-39918496D02*
X181835723Y-39804211D01*
X181835723Y-39804211D02*
X181685247Y-39747068D01*
X181685247Y-39747068D02*
X181384295Y-39689925D01*
X181384295Y-39689925D02*
X181158580Y-39689925D01*
X181158580Y-39689925D02*
X180857628Y-39747068D01*
X180857628Y-39747068D02*
X180707152Y-39804211D01*
X180707152Y-39804211D02*
X180556676Y-39918496D01*
X180556676Y-39918496D02*
X180481438Y-40089925D01*
X180481438Y-40089925D02*
X180481438Y-40204211D01*
X180481438Y-40204211D02*
X180556676Y-40375639D01*
X180556676Y-40375639D02*
X180631914Y-40432782D01*
X180481438Y-40832782D02*
X180481438Y-41575639D01*
X180481438Y-41575639D02*
X181083342Y-41175639D01*
X181083342Y-41175639D02*
X181083342Y-41347068D01*
X181083342Y-41347068D02*
X181158580Y-41461354D01*
X181158580Y-41461354D02*
X181233819Y-41518496D01*
X181233819Y-41518496D02*
X181384295Y-41575639D01*
X181384295Y-41575639D02*
X181760485Y-41575639D01*
X181760485Y-41575639D02*
X181910961Y-41518496D01*
X181910961Y-41518496D02*
X181986200Y-41461354D01*
X181986200Y-41461354D02*
X182061438Y-41347068D01*
X182061438Y-41347068D02*
X182061438Y-41004211D01*
X182061438Y-41004211D02*
X181986200Y-40889925D01*
X181986200Y-40889925D02*
X181910961Y-40832782D01*
D10*
X237619999Y-87572900D02*
X237419999Y-87639566D01*
X237419999Y-87639566D02*
X237086666Y-87639566D01*
X237086666Y-87639566D02*
X236953332Y-87572900D01*
X236953332Y-87572900D02*
X236886666Y-87506233D01*
X236886666Y-87506233D02*
X236819999Y-87372900D01*
X236819999Y-87372900D02*
X236819999Y-87239566D01*
X236819999Y-87239566D02*
X236886666Y-87106233D01*
X236886666Y-87106233D02*
X236953332Y-87039566D01*
X236953332Y-87039566D02*
X237086666Y-86972900D01*
X237086666Y-86972900D02*
X237353332Y-86906233D01*
X237353332Y-86906233D02*
X237486666Y-86839566D01*
X237486666Y-86839566D02*
X237553332Y-86772900D01*
X237553332Y-86772900D02*
X237619999Y-86639566D01*
X237619999Y-86639566D02*
X237619999Y-86506233D01*
X237619999Y-86506233D02*
X237553332Y-86372900D01*
X237553332Y-86372900D02*
X237486666Y-86306233D01*
X237486666Y-86306233D02*
X237353332Y-86239566D01*
X237353332Y-86239566D02*
X237019999Y-86239566D01*
X237019999Y-86239566D02*
X236819999Y-86306233D01*
X237486666Y-85706233D02*
X237219999Y-85906233D01*
X237219999Y-85906233D02*
X236953332Y-85706233D01*
X248196666Y-66979566D02*
X248196666Y-67312900D01*
X248530000Y-67179566D02*
X248196666Y-67312900D01*
X248196666Y-67312900D02*
X247863333Y-67179566D01*
X248396666Y-67579566D02*
X248196666Y-67312900D01*
X248196666Y-67312900D02*
X247996666Y-67579566D01*
X246329999Y-66912900D02*
X247529999Y-68712900D01*
X245863332Y-68246233D02*
X245796666Y-68312900D01*
X245796666Y-68312900D02*
X245863332Y-68379566D01*
X245863332Y-68379566D02*
X245929999Y-68312900D01*
X245929999Y-68312900D02*
X245863332Y-68246233D01*
X245863332Y-68246233D02*
X245863332Y-68379566D01*
X245863332Y-67512900D02*
X245796666Y-67579566D01*
X245796666Y-67579566D02*
X245863332Y-67646233D01*
X245863332Y-67646233D02*
X245929999Y-67579566D01*
X245929999Y-67579566D02*
X245863332Y-67512900D01*
X245863332Y-67512900D02*
X245863332Y-67646233D01*
D11*
X164305454Y-53237217D02*
X163553073Y-52837217D01*
X164305454Y-52551503D02*
X162725454Y-52551503D01*
X162725454Y-52551503D02*
X162725454Y-53008646D01*
X162725454Y-53008646D02*
X162800692Y-53122931D01*
X162800692Y-53122931D02*
X162875930Y-53180074D01*
X162875930Y-53180074D02*
X163026406Y-53237217D01*
X163026406Y-53237217D02*
X163252120Y-53237217D01*
X163252120Y-53237217D02*
X163402596Y-53180074D01*
X163402596Y-53180074D02*
X163477835Y-53122931D01*
X163477835Y-53122931D02*
X163553073Y-53008646D01*
X163553073Y-53008646D02*
X163553073Y-52551503D01*
X164305454Y-54380074D02*
X164305454Y-53694360D01*
X164305454Y-54037217D02*
X162725454Y-54037217D01*
X162725454Y-54037217D02*
X162951168Y-53922931D01*
X162951168Y-53922931D02*
X163101644Y-53808646D01*
X163101644Y-53808646D02*
X163176882Y-53694360D01*
X166849166Y-53237217D02*
X166096785Y-52837217D01*
X166849166Y-52551503D02*
X165269166Y-52551503D01*
X165269166Y-52551503D02*
X165269166Y-53008646D01*
X165269166Y-53008646D02*
X165344404Y-53122931D01*
X165344404Y-53122931D02*
X165419642Y-53180074D01*
X165419642Y-53180074D02*
X165570118Y-53237217D01*
X165570118Y-53237217D02*
X165795832Y-53237217D01*
X165795832Y-53237217D02*
X165946308Y-53180074D01*
X165946308Y-53180074D02*
X166021547Y-53122931D01*
X166021547Y-53122931D02*
X166096785Y-53008646D01*
X166096785Y-53008646D02*
X166096785Y-52551503D01*
X165419642Y-53694360D02*
X165344404Y-53751503D01*
X165344404Y-53751503D02*
X165269166Y-53865789D01*
X165269166Y-53865789D02*
X165269166Y-54151503D01*
X165269166Y-54151503D02*
X165344404Y-54265789D01*
X165344404Y-54265789D02*
X165419642Y-54322931D01*
X165419642Y-54322931D02*
X165570118Y-54380074D01*
X165570118Y-54380074D02*
X165720594Y-54380074D01*
X165720594Y-54380074D02*
X165946308Y-54322931D01*
X165946308Y-54322931D02*
X166849166Y-53637217D01*
X166849166Y-53637217D02*
X166849166Y-54380074D01*
X169392878Y-53237217D02*
X168640497Y-52837217D01*
X169392878Y-52551503D02*
X167812878Y-52551503D01*
X167812878Y-52551503D02*
X167812878Y-53008646D01*
X167812878Y-53008646D02*
X167888116Y-53122931D01*
X167888116Y-53122931D02*
X167963354Y-53180074D01*
X167963354Y-53180074D02*
X168113830Y-53237217D01*
X168113830Y-53237217D02*
X168339544Y-53237217D01*
X168339544Y-53237217D02*
X168490020Y-53180074D01*
X168490020Y-53180074D02*
X168565259Y-53122931D01*
X168565259Y-53122931D02*
X168640497Y-53008646D01*
X168640497Y-53008646D02*
X168640497Y-52551503D01*
X167812878Y-53637217D02*
X167812878Y-54380074D01*
X167812878Y-54380074D02*
X168414782Y-53980074D01*
X168414782Y-53980074D02*
X168414782Y-54151503D01*
X168414782Y-54151503D02*
X168490020Y-54265789D01*
X168490020Y-54265789D02*
X168565259Y-54322931D01*
X168565259Y-54322931D02*
X168715735Y-54380074D01*
X168715735Y-54380074D02*
X169091925Y-54380074D01*
X169091925Y-54380074D02*
X169242401Y-54322931D01*
X169242401Y-54322931D02*
X169317640Y-54265789D01*
X169317640Y-54265789D02*
X169392878Y-54151503D01*
X169392878Y-54151503D02*
X169392878Y-53808646D01*
X169392878Y-53808646D02*
X169317640Y-53694360D01*
X169317640Y-53694360D02*
X169242401Y-53637217D01*
X171936590Y-53237217D02*
X171184209Y-52837217D01*
X171936590Y-52551503D02*
X170356590Y-52551503D01*
X170356590Y-52551503D02*
X170356590Y-53008646D01*
X170356590Y-53008646D02*
X170431828Y-53122931D01*
X170431828Y-53122931D02*
X170507066Y-53180074D01*
X170507066Y-53180074D02*
X170657542Y-53237217D01*
X170657542Y-53237217D02*
X170883256Y-53237217D01*
X170883256Y-53237217D02*
X171033732Y-53180074D01*
X171033732Y-53180074D02*
X171108971Y-53122931D01*
X171108971Y-53122931D02*
X171184209Y-53008646D01*
X171184209Y-53008646D02*
X171184209Y-52551503D01*
X170883256Y-54265789D02*
X171936590Y-54265789D01*
X170281352Y-53980074D02*
X171409923Y-53694360D01*
X171409923Y-53694360D02*
X171409923Y-54437217D01*
X174480302Y-53237217D02*
X173727921Y-52837217D01*
X174480302Y-52551503D02*
X172900302Y-52551503D01*
X172900302Y-52551503D02*
X172900302Y-53008646D01*
X172900302Y-53008646D02*
X172975540Y-53122931D01*
X172975540Y-53122931D02*
X173050778Y-53180074D01*
X173050778Y-53180074D02*
X173201254Y-53237217D01*
X173201254Y-53237217D02*
X173426968Y-53237217D01*
X173426968Y-53237217D02*
X173577444Y-53180074D01*
X173577444Y-53180074D02*
X173652683Y-53122931D01*
X173652683Y-53122931D02*
X173727921Y-53008646D01*
X173727921Y-53008646D02*
X173727921Y-52551503D01*
X172900302Y-54322931D02*
X172900302Y-53751503D01*
X172900302Y-53751503D02*
X173652683Y-53694360D01*
X173652683Y-53694360D02*
X173577444Y-53751503D01*
X173577444Y-53751503D02*
X173502206Y-53865789D01*
X173502206Y-53865789D02*
X173502206Y-54151503D01*
X173502206Y-54151503D02*
X173577444Y-54265789D01*
X173577444Y-54265789D02*
X173652683Y-54322931D01*
X173652683Y-54322931D02*
X173803159Y-54380074D01*
X173803159Y-54380074D02*
X174179349Y-54380074D01*
X174179349Y-54380074D02*
X174329825Y-54322931D01*
X174329825Y-54322931D02*
X174405064Y-54265789D01*
X174405064Y-54265789D02*
X174480302Y-54151503D01*
X174480302Y-54151503D02*
X174480302Y-53865789D01*
X174480302Y-53865789D02*
X174405064Y-53751503D01*
X174405064Y-53751503D02*
X174329825Y-53694360D01*
X177024014Y-53237217D02*
X176271633Y-52837217D01*
X177024014Y-52551503D02*
X175444014Y-52551503D01*
X175444014Y-52551503D02*
X175444014Y-53008646D01*
X175444014Y-53008646D02*
X175519252Y-53122931D01*
X175519252Y-53122931D02*
X175594490Y-53180074D01*
X175594490Y-53180074D02*
X175744966Y-53237217D01*
X175744966Y-53237217D02*
X175970680Y-53237217D01*
X175970680Y-53237217D02*
X176121156Y-53180074D01*
X176121156Y-53180074D02*
X176196395Y-53122931D01*
X176196395Y-53122931D02*
X176271633Y-53008646D01*
X176271633Y-53008646D02*
X176271633Y-52551503D01*
X175444014Y-54265789D02*
X175444014Y-54037217D01*
X175444014Y-54037217D02*
X175519252Y-53922931D01*
X175519252Y-53922931D02*
X175594490Y-53865789D01*
X175594490Y-53865789D02*
X175820204Y-53751503D01*
X175820204Y-53751503D02*
X176121156Y-53694360D01*
X176121156Y-53694360D02*
X176723061Y-53694360D01*
X176723061Y-53694360D02*
X176873537Y-53751503D01*
X176873537Y-53751503D02*
X176948776Y-53808646D01*
X176948776Y-53808646D02*
X177024014Y-53922931D01*
X177024014Y-53922931D02*
X177024014Y-54151503D01*
X177024014Y-54151503D02*
X176948776Y-54265789D01*
X176948776Y-54265789D02*
X176873537Y-54322931D01*
X176873537Y-54322931D02*
X176723061Y-54380074D01*
X176723061Y-54380074D02*
X176346871Y-54380074D01*
X176346871Y-54380074D02*
X176196395Y-54322931D01*
X176196395Y-54322931D02*
X176121156Y-54265789D01*
X176121156Y-54265789D02*
X176045918Y-54151503D01*
X176045918Y-54151503D02*
X176045918Y-53922931D01*
X176045918Y-53922931D02*
X176121156Y-53808646D01*
X176121156Y-53808646D02*
X176196395Y-53751503D01*
X176196395Y-53751503D02*
X176346871Y-53694360D01*
X179417249Y-53237217D02*
X179492488Y-53180074D01*
X179492488Y-53180074D02*
X179567726Y-53008646D01*
X179567726Y-53008646D02*
X179567726Y-52894360D01*
X179567726Y-52894360D02*
X179492488Y-52722931D01*
X179492488Y-52722931D02*
X179342011Y-52608646D01*
X179342011Y-52608646D02*
X179191535Y-52551503D01*
X179191535Y-52551503D02*
X178890583Y-52494360D01*
X178890583Y-52494360D02*
X178664868Y-52494360D01*
X178664868Y-52494360D02*
X178363916Y-52551503D01*
X178363916Y-52551503D02*
X178213440Y-52608646D01*
X178213440Y-52608646D02*
X178062964Y-52722931D01*
X178062964Y-52722931D02*
X177987726Y-52894360D01*
X177987726Y-52894360D02*
X177987726Y-53008646D01*
X177987726Y-53008646D02*
X178062964Y-53180074D01*
X178062964Y-53180074D02*
X178138202Y-53237217D01*
X179567726Y-54380074D02*
X179567726Y-53694360D01*
X179567726Y-54037217D02*
X177987726Y-54037217D01*
X177987726Y-54037217D02*
X178213440Y-53922931D01*
X178213440Y-53922931D02*
X178363916Y-53808646D01*
X178363916Y-53808646D02*
X178439154Y-53694360D01*
X181960961Y-53237217D02*
X182036200Y-53180074D01*
X182036200Y-53180074D02*
X182111438Y-53008646D01*
X182111438Y-53008646D02*
X182111438Y-52894360D01*
X182111438Y-52894360D02*
X182036200Y-52722931D01*
X182036200Y-52722931D02*
X181885723Y-52608646D01*
X181885723Y-52608646D02*
X181735247Y-52551503D01*
X181735247Y-52551503D02*
X181434295Y-52494360D01*
X181434295Y-52494360D02*
X181208580Y-52494360D01*
X181208580Y-52494360D02*
X180907628Y-52551503D01*
X180907628Y-52551503D02*
X180757152Y-52608646D01*
X180757152Y-52608646D02*
X180606676Y-52722931D01*
X180606676Y-52722931D02*
X180531438Y-52894360D01*
X180531438Y-52894360D02*
X180531438Y-53008646D01*
X180531438Y-53008646D02*
X180606676Y-53180074D01*
X180606676Y-53180074D02*
X180681914Y-53237217D01*
X180681914Y-53694360D02*
X180606676Y-53751503D01*
X180606676Y-53751503D02*
X180531438Y-53865789D01*
X180531438Y-53865789D02*
X180531438Y-54151503D01*
X180531438Y-54151503D02*
X180606676Y-54265789D01*
X180606676Y-54265789D02*
X180681914Y-54322931D01*
X180681914Y-54322931D02*
X180832390Y-54380074D01*
X180832390Y-54380074D02*
X180982866Y-54380074D01*
X180982866Y-54380074D02*
X181208580Y-54322931D01*
X181208580Y-54322931D02*
X182111438Y-53637217D01*
X182111438Y-53637217D02*
X182111438Y-54380074D01*
D10*
X85326666Y-124159566D02*
X84393332Y-125559566D01*
X84393332Y-124159566D02*
X85326666Y-125559566D01*
X295636666Y-144936233D02*
X295703333Y-145002900D01*
X295703333Y-145002900D02*
X295903333Y-145069566D01*
X295903333Y-145069566D02*
X296036666Y-145069566D01*
X296036666Y-145069566D02*
X296236666Y-145002900D01*
X296236666Y-145002900D02*
X296370000Y-144869566D01*
X296370000Y-144869566D02*
X296436666Y-144736233D01*
X296436666Y-144736233D02*
X296503333Y-144469566D01*
X296503333Y-144469566D02*
X296503333Y-144269566D01*
X296503333Y-144269566D02*
X296436666Y-144002900D01*
X296436666Y-144002900D02*
X296370000Y-143869566D01*
X296370000Y-143869566D02*
X296236666Y-143736233D01*
X296236666Y-143736233D02*
X296036666Y-143669566D01*
X296036666Y-143669566D02*
X295903333Y-143669566D01*
X295903333Y-143669566D02*
X295703333Y-143736233D01*
X295703333Y-143736233D02*
X295636666Y-143802900D01*
X295036666Y-143669566D02*
X295036666Y-144802900D01*
X295036666Y-144802900D02*
X294970000Y-144936233D01*
X294970000Y-144936233D02*
X294903333Y-145002900D01*
X294903333Y-145002900D02*
X294770000Y-145069566D01*
X294770000Y-145069566D02*
X294503333Y-145069566D01*
X294503333Y-145069566D02*
X294370000Y-145002900D01*
X294370000Y-145002900D02*
X294303333Y-144936233D01*
X294303333Y-144936233D02*
X294236666Y-144802900D01*
X294236666Y-144802900D02*
X294236666Y-143669566D01*
X292769999Y-145069566D02*
X293236666Y-144402900D01*
X293569999Y-145069566D02*
X293569999Y-143669566D01*
X293569999Y-143669566D02*
X293036666Y-143669566D01*
X293036666Y-143669566D02*
X292903333Y-143736233D01*
X292903333Y-143736233D02*
X292836666Y-143802900D01*
X292836666Y-143802900D02*
X292769999Y-143936233D01*
X292769999Y-143936233D02*
X292769999Y-144136233D01*
X292769999Y-144136233D02*
X292836666Y-144269566D01*
X292836666Y-144269566D02*
X292903333Y-144336233D01*
X292903333Y-144336233D02*
X293036666Y-144402900D01*
X293036666Y-144402900D02*
X293569999Y-144402900D01*
X292236666Y-145002900D02*
X292036666Y-145069566D01*
X292036666Y-145069566D02*
X291703333Y-145069566D01*
X291703333Y-145069566D02*
X291569999Y-145002900D01*
X291569999Y-145002900D02*
X291503333Y-144936233D01*
X291503333Y-144936233D02*
X291436666Y-144802900D01*
X291436666Y-144802900D02*
X291436666Y-144669566D01*
X291436666Y-144669566D02*
X291503333Y-144536233D01*
X291503333Y-144536233D02*
X291569999Y-144469566D01*
X291569999Y-144469566D02*
X291703333Y-144402900D01*
X291703333Y-144402900D02*
X291969999Y-144336233D01*
X291969999Y-144336233D02*
X292103333Y-144269566D01*
X292103333Y-144269566D02*
X292169999Y-144202900D01*
X292169999Y-144202900D02*
X292236666Y-144069566D01*
X292236666Y-144069566D02*
X292236666Y-143936233D01*
X292236666Y-143936233D02*
X292169999Y-143802900D01*
X292169999Y-143802900D02*
X292103333Y-143736233D01*
X292103333Y-143736233D02*
X291969999Y-143669566D01*
X291969999Y-143669566D02*
X291636666Y-143669566D01*
X291636666Y-143669566D02*
X291436666Y-143736233D01*
X290570000Y-143669566D02*
X290303333Y-143669566D01*
X290303333Y-143669566D02*
X290170000Y-143736233D01*
X290170000Y-143736233D02*
X290036666Y-143869566D01*
X290036666Y-143869566D02*
X289970000Y-144136233D01*
X289970000Y-144136233D02*
X289970000Y-144602900D01*
X289970000Y-144602900D02*
X290036666Y-144869566D01*
X290036666Y-144869566D02*
X290170000Y-145002900D01*
X290170000Y-145002900D02*
X290303333Y-145069566D01*
X290303333Y-145069566D02*
X290570000Y-145069566D01*
X290570000Y-145069566D02*
X290703333Y-145002900D01*
X290703333Y-145002900D02*
X290836666Y-144869566D01*
X290836666Y-144869566D02*
X290903333Y-144602900D01*
X290903333Y-144602900D02*
X290903333Y-144136233D01*
X290903333Y-144136233D02*
X290836666Y-143869566D01*
X290836666Y-143869566D02*
X290703333Y-143736233D01*
X290703333Y-143736233D02*
X290570000Y-143669566D01*
X288569999Y-145069566D02*
X289036666Y-144402900D01*
X289369999Y-145069566D02*
X289369999Y-143669566D01*
X289369999Y-143669566D02*
X288836666Y-143669566D01*
X288836666Y-143669566D02*
X288703333Y-143736233D01*
X288703333Y-143736233D02*
X288636666Y-143802900D01*
X288636666Y-143802900D02*
X288569999Y-143936233D01*
X288569999Y-143936233D02*
X288569999Y-144136233D01*
X288569999Y-144136233D02*
X288636666Y-144269566D01*
X288636666Y-144269566D02*
X288703333Y-144336233D01*
X288703333Y-144336233D02*
X288836666Y-144402900D01*
X288836666Y-144402900D02*
X289369999Y-144402900D01*
X286236666Y-145069566D02*
X286903332Y-145069566D01*
X286903332Y-145069566D02*
X286903332Y-143669566D01*
X285769999Y-144336233D02*
X285303333Y-144336233D01*
X285103333Y-145069566D02*
X285769999Y-145069566D01*
X285769999Y-145069566D02*
X285769999Y-143669566D01*
X285769999Y-143669566D02*
X285103333Y-143669566D01*
X284036666Y-144336233D02*
X284503332Y-144336233D01*
X284503332Y-145069566D02*
X284503332Y-143669566D01*
X284503332Y-143669566D02*
X283836666Y-143669566D01*
X283503332Y-143669566D02*
X282703332Y-143669566D01*
X283103332Y-145069566D02*
X283103332Y-143669566D01*
X328046666Y-67636233D02*
X328513332Y-67636233D01*
X328513332Y-68369566D02*
X328513332Y-66969566D01*
X328513332Y-66969566D02*
X327846666Y-66969566D01*
X327379999Y-67102900D02*
X327313332Y-67036233D01*
X327313332Y-67036233D02*
X327179999Y-66969566D01*
X327179999Y-66969566D02*
X326846666Y-66969566D01*
X326846666Y-66969566D02*
X326713332Y-67036233D01*
X326713332Y-67036233D02*
X326646666Y-67102900D01*
X326646666Y-67102900D02*
X326579999Y-67236233D01*
X326579999Y-67236233D02*
X326579999Y-67369566D01*
X326579999Y-67369566D02*
X326646666Y-67569566D01*
X326646666Y-67569566D02*
X327446666Y-68369566D01*
X327446666Y-68369566D02*
X326579999Y-68369566D01*
X161339999Y-86239566D02*
X161339999Y-87372900D01*
X161339999Y-87372900D02*
X161273333Y-87506233D01*
X161273333Y-87506233D02*
X161206666Y-87572900D01*
X161206666Y-87572900D02*
X161073333Y-87639566D01*
X161073333Y-87639566D02*
X160806666Y-87639566D01*
X160806666Y-87639566D02*
X160673333Y-87572900D01*
X160673333Y-87572900D02*
X160606666Y-87506233D01*
X160606666Y-87506233D02*
X160539999Y-87372900D01*
X160539999Y-87372900D02*
X160539999Y-86239566D01*
X273950000Y-105866233D02*
X273483334Y-105866233D01*
X273283334Y-106599566D02*
X273950000Y-106599566D01*
X273950000Y-106599566D02*
X273950000Y-105199566D01*
X273950000Y-105199566D02*
X273283334Y-105199566D01*
X272683333Y-106599566D02*
X272683333Y-105199566D01*
X272683333Y-105199566D02*
X271883333Y-106599566D01*
X271883333Y-106599566D02*
X271883333Y-105199566D01*
X271416666Y-105199566D02*
X270616666Y-105199566D01*
X271016666Y-106599566D02*
X271016666Y-105199566D01*
X270149999Y-105866233D02*
X269683333Y-105866233D01*
X269483333Y-106599566D02*
X270149999Y-106599566D01*
X270149999Y-106599566D02*
X270149999Y-105199566D01*
X270149999Y-105199566D02*
X269483333Y-105199566D01*
X268083332Y-106599566D02*
X268549999Y-105932900D01*
X268883332Y-106599566D02*
X268883332Y-105199566D01*
X268883332Y-105199566D02*
X268349999Y-105199566D01*
X268349999Y-105199566D02*
X268216666Y-105266233D01*
X268216666Y-105266233D02*
X268149999Y-105332900D01*
X268149999Y-105332900D02*
X268083332Y-105466233D01*
X268083332Y-105466233D02*
X268083332Y-105666233D01*
X268083332Y-105666233D02*
X268149999Y-105799566D01*
X268149999Y-105799566D02*
X268216666Y-105866233D01*
X268216666Y-105866233D02*
X268349999Y-105932900D01*
X268349999Y-105932900D02*
X268883332Y-105932900D01*
X113500000Y-105866233D02*
X113966666Y-105866233D01*
X113966666Y-106599566D02*
X113966666Y-105199566D01*
X113966666Y-105199566D02*
X113300000Y-105199566D01*
X56438202Y-67112900D02*
X56371535Y-67046233D01*
X56371535Y-67046233D02*
X56238202Y-66979566D01*
X56238202Y-66979566D02*
X55904869Y-66979566D01*
X55904869Y-66979566D02*
X55771535Y-67046233D01*
X55771535Y-67046233D02*
X55704869Y-67112900D01*
X55704869Y-67112900D02*
X55638202Y-67246233D01*
X55638202Y-67246233D02*
X55638202Y-67379566D01*
X55638202Y-67379566D02*
X55704869Y-67579566D01*
X55704869Y-67579566D02*
X56504869Y-68379566D01*
X56504869Y-68379566D02*
X55638202Y-68379566D01*
X113234869Y-66979566D02*
X113901535Y-66979566D01*
X113901535Y-66979566D02*
X113968202Y-67646233D01*
X113968202Y-67646233D02*
X113901535Y-67579566D01*
X113901535Y-67579566D02*
X113768202Y-67512900D01*
X113768202Y-67512900D02*
X113434869Y-67512900D01*
X113434869Y-67512900D02*
X113301535Y-67579566D01*
X113301535Y-67579566D02*
X113234869Y-67646233D01*
X113234869Y-67646233D02*
X113168202Y-67779566D01*
X113168202Y-67779566D02*
X113168202Y-68112900D01*
X113168202Y-68112900D02*
X113234869Y-68246233D01*
X113234869Y-68246233D02*
X113301535Y-68312900D01*
X113301535Y-68312900D02*
X113434869Y-68379566D01*
X113434869Y-68379566D02*
X113768202Y-68379566D01*
X113768202Y-68379566D02*
X113901535Y-68312900D01*
X113901535Y-68312900D02*
X113968202Y-68246233D01*
X315470000Y-145086233D02*
X315536667Y-145152900D01*
X315536667Y-145152900D02*
X315736667Y-145219566D01*
X315736667Y-145219566D02*
X315870000Y-145219566D01*
X315870000Y-145219566D02*
X316070000Y-145152900D01*
X316070000Y-145152900D02*
X316203334Y-145019566D01*
X316203334Y-145019566D02*
X316270000Y-144886233D01*
X316270000Y-144886233D02*
X316336667Y-144619566D01*
X316336667Y-144619566D02*
X316336667Y-144419566D01*
X316336667Y-144419566D02*
X316270000Y-144152900D01*
X316270000Y-144152900D02*
X316203334Y-144019566D01*
X316203334Y-144019566D02*
X316070000Y-143886233D01*
X316070000Y-143886233D02*
X315870000Y-143819566D01*
X315870000Y-143819566D02*
X315736667Y-143819566D01*
X315736667Y-143819566D02*
X315536667Y-143886233D01*
X315536667Y-143886233D02*
X315470000Y-143952900D01*
X314870000Y-143819566D02*
X314870000Y-144952900D01*
X314870000Y-144952900D02*
X314803334Y-145086233D01*
X314803334Y-145086233D02*
X314736667Y-145152900D01*
X314736667Y-145152900D02*
X314603334Y-145219566D01*
X314603334Y-145219566D02*
X314336667Y-145219566D01*
X314336667Y-145219566D02*
X314203334Y-145152900D01*
X314203334Y-145152900D02*
X314136667Y-145086233D01*
X314136667Y-145086233D02*
X314070000Y-144952900D01*
X314070000Y-144952900D02*
X314070000Y-143819566D01*
X312603333Y-145219566D02*
X313070000Y-144552900D01*
X313403333Y-145219566D02*
X313403333Y-143819566D01*
X313403333Y-143819566D02*
X312870000Y-143819566D01*
X312870000Y-143819566D02*
X312736667Y-143886233D01*
X312736667Y-143886233D02*
X312670000Y-143952900D01*
X312670000Y-143952900D02*
X312603333Y-144086233D01*
X312603333Y-144086233D02*
X312603333Y-144286233D01*
X312603333Y-144286233D02*
X312670000Y-144419566D01*
X312670000Y-144419566D02*
X312736667Y-144486233D01*
X312736667Y-144486233D02*
X312870000Y-144552900D01*
X312870000Y-144552900D02*
X313403333Y-144552900D01*
X312070000Y-145152900D02*
X311870000Y-145219566D01*
X311870000Y-145219566D02*
X311536667Y-145219566D01*
X311536667Y-145219566D02*
X311403333Y-145152900D01*
X311403333Y-145152900D02*
X311336667Y-145086233D01*
X311336667Y-145086233D02*
X311270000Y-144952900D01*
X311270000Y-144952900D02*
X311270000Y-144819566D01*
X311270000Y-144819566D02*
X311336667Y-144686233D01*
X311336667Y-144686233D02*
X311403333Y-144619566D01*
X311403333Y-144619566D02*
X311536667Y-144552900D01*
X311536667Y-144552900D02*
X311803333Y-144486233D01*
X311803333Y-144486233D02*
X311936667Y-144419566D01*
X311936667Y-144419566D02*
X312003333Y-144352900D01*
X312003333Y-144352900D02*
X312070000Y-144219566D01*
X312070000Y-144219566D02*
X312070000Y-144086233D01*
X312070000Y-144086233D02*
X312003333Y-143952900D01*
X312003333Y-143952900D02*
X311936667Y-143886233D01*
X311936667Y-143886233D02*
X311803333Y-143819566D01*
X311803333Y-143819566D02*
X311470000Y-143819566D01*
X311470000Y-143819566D02*
X311270000Y-143886233D01*
X310403334Y-143819566D02*
X310136667Y-143819566D01*
X310136667Y-143819566D02*
X310003334Y-143886233D01*
X310003334Y-143886233D02*
X309870000Y-144019566D01*
X309870000Y-144019566D02*
X309803334Y-144286233D01*
X309803334Y-144286233D02*
X309803334Y-144752900D01*
X309803334Y-144752900D02*
X309870000Y-145019566D01*
X309870000Y-145019566D02*
X310003334Y-145152900D01*
X310003334Y-145152900D02*
X310136667Y-145219566D01*
X310136667Y-145219566D02*
X310403334Y-145219566D01*
X310403334Y-145219566D02*
X310536667Y-145152900D01*
X310536667Y-145152900D02*
X310670000Y-145019566D01*
X310670000Y-145019566D02*
X310736667Y-144752900D01*
X310736667Y-144752900D02*
X310736667Y-144286233D01*
X310736667Y-144286233D02*
X310670000Y-144019566D01*
X310670000Y-144019566D02*
X310536667Y-143886233D01*
X310536667Y-143886233D02*
X310403334Y-143819566D01*
X308403333Y-145219566D02*
X308870000Y-144552900D01*
X309203333Y-145219566D02*
X309203333Y-143819566D01*
X309203333Y-143819566D02*
X308670000Y-143819566D01*
X308670000Y-143819566D02*
X308536667Y-143886233D01*
X308536667Y-143886233D02*
X308470000Y-143952900D01*
X308470000Y-143952900D02*
X308403333Y-144086233D01*
X308403333Y-144086233D02*
X308403333Y-144286233D01*
X308403333Y-144286233D02*
X308470000Y-144419566D01*
X308470000Y-144419566D02*
X308536667Y-144486233D01*
X308536667Y-144486233D02*
X308670000Y-144552900D01*
X308670000Y-144552900D02*
X309203333Y-144552900D01*
X306736666Y-145219566D02*
X306736666Y-143819566D01*
X306736666Y-143819566D02*
X306403333Y-143819566D01*
X306403333Y-143819566D02*
X306203333Y-143886233D01*
X306203333Y-143886233D02*
X306070000Y-144019566D01*
X306070000Y-144019566D02*
X306003333Y-144152900D01*
X306003333Y-144152900D02*
X305936666Y-144419566D01*
X305936666Y-144419566D02*
X305936666Y-144619566D01*
X305936666Y-144619566D02*
X306003333Y-144886233D01*
X306003333Y-144886233D02*
X306070000Y-145019566D01*
X306070000Y-145019566D02*
X306203333Y-145152900D01*
X306203333Y-145152900D02*
X306403333Y-145219566D01*
X306403333Y-145219566D02*
X306736666Y-145219566D01*
X305070000Y-143819566D02*
X304803333Y-143819566D01*
X304803333Y-143819566D02*
X304670000Y-143886233D01*
X304670000Y-143886233D02*
X304536666Y-144019566D01*
X304536666Y-144019566D02*
X304470000Y-144286233D01*
X304470000Y-144286233D02*
X304470000Y-144752900D01*
X304470000Y-144752900D02*
X304536666Y-145019566D01*
X304536666Y-145019566D02*
X304670000Y-145152900D01*
X304670000Y-145152900D02*
X304803333Y-145219566D01*
X304803333Y-145219566D02*
X305070000Y-145219566D01*
X305070000Y-145219566D02*
X305203333Y-145152900D01*
X305203333Y-145152900D02*
X305336666Y-145019566D01*
X305336666Y-145019566D02*
X305403333Y-144752900D01*
X305403333Y-144752900D02*
X305403333Y-144286233D01*
X305403333Y-144286233D02*
X305336666Y-144019566D01*
X305336666Y-144019566D02*
X305203333Y-143886233D01*
X305203333Y-143886233D02*
X305070000Y-143819566D01*
X304003333Y-143819566D02*
X303669999Y-145219566D01*
X303669999Y-145219566D02*
X303403333Y-144219566D01*
X303403333Y-144219566D02*
X303136666Y-145219566D01*
X303136666Y-145219566D02*
X302803333Y-143819566D01*
X302269999Y-145219566D02*
X302269999Y-143819566D01*
X302269999Y-143819566D02*
X301469999Y-145219566D01*
X301469999Y-145219566D02*
X301469999Y-143819566D01*
X198833333Y-125492900D02*
X198833333Y-125559566D01*
X198833333Y-125559566D02*
X198899999Y-125692900D01*
X198899999Y-125692900D02*
X198966666Y-125759566D01*
X66196666Y-124149566D02*
X65263332Y-124149566D01*
X65263332Y-124149566D02*
X66196666Y-125549566D01*
X66196666Y-125549566D02*
X65263332Y-125549566D01*
X208846666Y-66979566D02*
X208713332Y-66979566D01*
X208713332Y-66979566D02*
X208579999Y-67046233D01*
X208579999Y-67046233D02*
X208513332Y-67112900D01*
X208513332Y-67112900D02*
X208446666Y-67246233D01*
X208446666Y-67246233D02*
X208379999Y-67512900D01*
X208379999Y-67512900D02*
X208379999Y-67846233D01*
X208379999Y-67846233D02*
X208446666Y-68112900D01*
X208446666Y-68112900D02*
X208513332Y-68246233D01*
X208513332Y-68246233D02*
X208579999Y-68312900D01*
X208579999Y-68312900D02*
X208713332Y-68379566D01*
X208713332Y-68379566D02*
X208846666Y-68379566D01*
X208846666Y-68379566D02*
X208979999Y-68312900D01*
X208979999Y-68312900D02*
X209046666Y-68246233D01*
X209046666Y-68246233D02*
X209113332Y-68112900D01*
X209113332Y-68112900D02*
X209179999Y-67846233D01*
X209179999Y-67846233D02*
X209179999Y-67512900D01*
X209179999Y-67512900D02*
X209113332Y-67246233D01*
X209113332Y-67246233D02*
X209046666Y-67112900D01*
X209046666Y-67112900D02*
X208979999Y-67046233D01*
X208979999Y-67046233D02*
X208846666Y-66979566D01*
X264269999Y-125559566D02*
X264736666Y-124892900D01*
X265069999Y-125559566D02*
X265069999Y-124159566D01*
X265069999Y-124159566D02*
X264536666Y-124159566D01*
X264536666Y-124159566D02*
X264403333Y-124226233D01*
X264403333Y-124226233D02*
X264336666Y-124292900D01*
X264336666Y-124292900D02*
X264269999Y-124426233D01*
X264269999Y-124426233D02*
X264269999Y-124626233D01*
X264269999Y-124626233D02*
X264336666Y-124759566D01*
X264336666Y-124759566D02*
X264403333Y-124826233D01*
X264403333Y-124826233D02*
X264536666Y-124892900D01*
X264536666Y-124892900D02*
X265069999Y-124892900D01*
X263669999Y-125026233D02*
X262603333Y-125026233D01*
X262003333Y-125492900D02*
X261803333Y-125559566D01*
X261803333Y-125559566D02*
X261470000Y-125559566D01*
X261470000Y-125559566D02*
X261336666Y-125492900D01*
X261336666Y-125492900D02*
X261270000Y-125426233D01*
X261270000Y-125426233D02*
X261203333Y-125292900D01*
X261203333Y-125292900D02*
X261203333Y-125159566D01*
X261203333Y-125159566D02*
X261270000Y-125026233D01*
X261270000Y-125026233D02*
X261336666Y-124959566D01*
X261336666Y-124959566D02*
X261470000Y-124892900D01*
X261470000Y-124892900D02*
X261736666Y-124826233D01*
X261736666Y-124826233D02*
X261870000Y-124759566D01*
X261870000Y-124759566D02*
X261936666Y-124692900D01*
X261936666Y-124692900D02*
X262003333Y-124559566D01*
X262003333Y-124559566D02*
X262003333Y-124426233D01*
X262003333Y-124426233D02*
X261936666Y-124292900D01*
X261936666Y-124292900D02*
X261870000Y-124226233D01*
X261870000Y-124226233D02*
X261736666Y-124159566D01*
X261736666Y-124159566D02*
X261403333Y-124159566D01*
X261403333Y-124159566D02*
X261203333Y-124226233D01*
X260603333Y-125559566D02*
X260603333Y-124159566D01*
X260603333Y-124826233D02*
X259803333Y-124826233D01*
X259803333Y-125559566D02*
X259803333Y-124159566D01*
X259136666Y-125559566D02*
X259136666Y-124159566D01*
X258003333Y-124826233D02*
X258469999Y-124826233D01*
X258469999Y-125559566D02*
X258469999Y-124159566D01*
X258469999Y-124159566D02*
X257803333Y-124159566D01*
X257469999Y-124159566D02*
X256669999Y-124159566D01*
X257069999Y-125559566D02*
X257069999Y-124159566D01*
X309186666Y-86786233D02*
X309653332Y-86786233D01*
X309653332Y-87519566D02*
X309653332Y-86119566D01*
X309653332Y-86119566D02*
X308986666Y-86119566D01*
X308586666Y-86119566D02*
X307719999Y-86119566D01*
X307719999Y-86119566D02*
X308186666Y-86652900D01*
X308186666Y-86652900D02*
X307986666Y-86652900D01*
X307986666Y-86652900D02*
X307853332Y-86719566D01*
X307853332Y-86719566D02*
X307786666Y-86786233D01*
X307786666Y-86786233D02*
X307719999Y-86919566D01*
X307719999Y-86919566D02*
X307719999Y-87252900D01*
X307719999Y-87252900D02*
X307786666Y-87386233D01*
X307786666Y-87386233D02*
X307853332Y-87452900D01*
X307853332Y-87452900D02*
X307986666Y-87519566D01*
X307986666Y-87519566D02*
X308386666Y-87519566D01*
X308386666Y-87519566D02*
X308519999Y-87452900D01*
X308519999Y-87452900D02*
X308586666Y-87386233D01*
X75889999Y-106532900D02*
X75689999Y-106599566D01*
X75689999Y-106599566D02*
X75356666Y-106599566D01*
X75356666Y-106599566D02*
X75223332Y-106532900D01*
X75223332Y-106532900D02*
X75156666Y-106466233D01*
X75156666Y-106466233D02*
X75089999Y-106332900D01*
X75089999Y-106332900D02*
X75089999Y-106199566D01*
X75089999Y-106199566D02*
X75156666Y-106066233D01*
X75156666Y-106066233D02*
X75223332Y-105999566D01*
X75223332Y-105999566D02*
X75356666Y-105932900D01*
X75356666Y-105932900D02*
X75623332Y-105866233D01*
X75623332Y-105866233D02*
X75756666Y-105799566D01*
X75756666Y-105799566D02*
X75823332Y-105732900D01*
X75823332Y-105732900D02*
X75889999Y-105599566D01*
X75889999Y-105599566D02*
X75889999Y-105466233D01*
X75889999Y-105466233D02*
X75823332Y-105332900D01*
X75823332Y-105332900D02*
X75756666Y-105266233D01*
X75756666Y-105266233D02*
X75623332Y-105199566D01*
X75623332Y-105199566D02*
X75289999Y-105199566D01*
X75289999Y-105199566D02*
X75089999Y-105266233D01*
X41186666Y-106466233D02*
X41253333Y-106532900D01*
X41253333Y-106532900D02*
X41453333Y-106599566D01*
X41453333Y-106599566D02*
X41586666Y-106599566D01*
X41586666Y-106599566D02*
X41786666Y-106532900D01*
X41786666Y-106532900D02*
X41920000Y-106399566D01*
X41920000Y-106399566D02*
X41986666Y-106266233D01*
X41986666Y-106266233D02*
X42053333Y-105999566D01*
X42053333Y-105999566D02*
X42053333Y-105799566D01*
X42053333Y-105799566D02*
X41986666Y-105532900D01*
X41986666Y-105532900D02*
X41920000Y-105399566D01*
X41920000Y-105399566D02*
X41786666Y-105266233D01*
X41786666Y-105266233D02*
X41586666Y-105199566D01*
X41586666Y-105199566D02*
X41453333Y-105199566D01*
X41453333Y-105199566D02*
X41253333Y-105266233D01*
X41253333Y-105266233D02*
X41186666Y-105332900D01*
X40320000Y-105199566D02*
X40053333Y-105199566D01*
X40053333Y-105199566D02*
X39920000Y-105266233D01*
X39920000Y-105266233D02*
X39786666Y-105399566D01*
X39786666Y-105399566D02*
X39720000Y-105666233D01*
X39720000Y-105666233D02*
X39720000Y-106132900D01*
X39720000Y-106132900D02*
X39786666Y-106399566D01*
X39786666Y-106399566D02*
X39920000Y-106532900D01*
X39920000Y-106532900D02*
X40053333Y-106599566D01*
X40053333Y-106599566D02*
X40320000Y-106599566D01*
X40320000Y-106599566D02*
X40453333Y-106532900D01*
X40453333Y-106532900D02*
X40586666Y-106399566D01*
X40586666Y-106399566D02*
X40653333Y-106132900D01*
X40653333Y-106132900D02*
X40653333Y-105666233D01*
X40653333Y-105666233D02*
X40586666Y-105399566D01*
X40586666Y-105399566D02*
X40453333Y-105266233D01*
X40453333Y-105266233D02*
X40320000Y-105199566D01*
X39119999Y-106599566D02*
X39119999Y-105199566D01*
X39119999Y-105199566D02*
X38319999Y-106599566D01*
X38319999Y-106599566D02*
X38319999Y-105199566D01*
X37853332Y-105199566D02*
X37053332Y-105199566D01*
X37453332Y-106599566D02*
X37453332Y-105199566D01*
X35786665Y-106599566D02*
X36253332Y-105932900D01*
X36586665Y-106599566D02*
X36586665Y-105199566D01*
X36586665Y-105199566D02*
X36053332Y-105199566D01*
X36053332Y-105199566D02*
X35919999Y-105266233D01*
X35919999Y-105266233D02*
X35853332Y-105332900D01*
X35853332Y-105332900D02*
X35786665Y-105466233D01*
X35786665Y-105466233D02*
X35786665Y-105666233D01*
X35786665Y-105666233D02*
X35853332Y-105799566D01*
X35853332Y-105799566D02*
X35919999Y-105866233D01*
X35919999Y-105866233D02*
X36053332Y-105932900D01*
X36053332Y-105932900D02*
X36586665Y-105932900D01*
X34919999Y-105199566D02*
X34653332Y-105199566D01*
X34653332Y-105199566D02*
X34519999Y-105266233D01*
X34519999Y-105266233D02*
X34386665Y-105399566D01*
X34386665Y-105399566D02*
X34319999Y-105666233D01*
X34319999Y-105666233D02*
X34319999Y-106132900D01*
X34319999Y-106132900D02*
X34386665Y-106399566D01*
X34386665Y-106399566D02*
X34519999Y-106532900D01*
X34519999Y-106532900D02*
X34653332Y-106599566D01*
X34653332Y-106599566D02*
X34919999Y-106599566D01*
X34919999Y-106599566D02*
X35053332Y-106532900D01*
X35053332Y-106532900D02*
X35186665Y-106399566D01*
X35186665Y-106399566D02*
X35253332Y-106132900D01*
X35253332Y-106132900D02*
X35253332Y-105666233D01*
X35253332Y-105666233D02*
X35186665Y-105399566D01*
X35186665Y-105399566D02*
X35053332Y-105266233D01*
X35053332Y-105266233D02*
X34919999Y-105199566D01*
X33053332Y-106599566D02*
X33719998Y-106599566D01*
X33719998Y-106599566D02*
X33719998Y-105199566D01*
X141830000Y-86972900D02*
X141830000Y-87639566D01*
X142296666Y-86239566D02*
X141830000Y-86972900D01*
X141830000Y-86972900D02*
X141363333Y-86239566D01*
X199143333Y-86239566D02*
X198876666Y-86239566D01*
X198876666Y-86239566D02*
X198743333Y-86306233D01*
X198743333Y-86306233D02*
X198609999Y-86439566D01*
X198609999Y-86439566D02*
X198543333Y-86706233D01*
X198543333Y-86706233D02*
X198543333Y-87172900D01*
X198543333Y-87172900D02*
X198609999Y-87439566D01*
X198609999Y-87439566D02*
X198743333Y-87572900D01*
X198743333Y-87572900D02*
X198876666Y-87639566D01*
X198876666Y-87639566D02*
X199143333Y-87639566D01*
X199143333Y-87639566D02*
X199276666Y-87572900D01*
X199276666Y-87572900D02*
X199409999Y-87439566D01*
X199409999Y-87439566D02*
X199476666Y-87172900D01*
X199476666Y-87172900D02*
X199476666Y-86706233D01*
X199476666Y-86706233D02*
X199409999Y-86439566D01*
X199409999Y-86439566D02*
X199276666Y-86306233D01*
X199276666Y-86306233D02*
X199143333Y-86239566D01*
X267839999Y-67846233D02*
X266773333Y-67846233D01*
X267306666Y-68379566D02*
X267306666Y-67312900D01*
X265106666Y-66912900D02*
X266306666Y-68712900D01*
X264573333Y-68312900D02*
X264573333Y-68379566D01*
X264573333Y-68379566D02*
X264639999Y-68512900D01*
X264639999Y-68512900D02*
X264706666Y-68579566D01*
X264639999Y-67512900D02*
X264573333Y-67579566D01*
X264573333Y-67579566D02*
X264639999Y-67646233D01*
X264639999Y-67646233D02*
X264706666Y-67579566D01*
X264706666Y-67579566D02*
X264639999Y-67512900D01*
X264639999Y-67512900D02*
X264639999Y-67646233D01*
X178396666Y-144679566D02*
X178663333Y-144679566D01*
X178663333Y-144679566D02*
X178796666Y-144746233D01*
X178796666Y-144746233D02*
X178863333Y-144812900D01*
X178863333Y-144812900D02*
X178996666Y-145012900D01*
X178996666Y-145012900D02*
X179063333Y-145279566D01*
X179063333Y-145279566D02*
X179063333Y-145812900D01*
X179063333Y-145812900D02*
X178996666Y-145946233D01*
X178996666Y-145946233D02*
X178930000Y-146012900D01*
X178930000Y-146012900D02*
X178796666Y-146079566D01*
X178796666Y-146079566D02*
X178530000Y-146079566D01*
X178530000Y-146079566D02*
X178396666Y-146012900D01*
X178396666Y-146012900D02*
X178330000Y-145946233D01*
X178330000Y-145946233D02*
X178263333Y-145812900D01*
X178263333Y-145812900D02*
X178263333Y-145479566D01*
X178263333Y-145479566D02*
X178330000Y-145346233D01*
X178330000Y-145346233D02*
X178396666Y-145279566D01*
X178396666Y-145279566D02*
X178530000Y-145212900D01*
X178530000Y-145212900D02*
X178796666Y-145212900D01*
X178796666Y-145212900D02*
X178930000Y-145279566D01*
X178930000Y-145279566D02*
X178996666Y-145346233D01*
X178996666Y-145346233D02*
X179063333Y-145479566D01*
X177663333Y-145946233D02*
X177596667Y-146012900D01*
X177596667Y-146012900D02*
X177663333Y-146079566D01*
X177663333Y-146079566D02*
X177730000Y-146012900D01*
X177730000Y-146012900D02*
X177663333Y-145946233D01*
X177663333Y-145946233D02*
X177663333Y-146079566D01*
X177063333Y-144812900D02*
X176996666Y-144746233D01*
X176996666Y-144746233D02*
X176863333Y-144679566D01*
X176863333Y-144679566D02*
X176530000Y-144679566D01*
X176530000Y-144679566D02*
X176396666Y-144746233D01*
X176396666Y-144746233D02*
X176330000Y-144812900D01*
X176330000Y-144812900D02*
X176263333Y-144946233D01*
X176263333Y-144946233D02*
X176263333Y-145079566D01*
X176263333Y-145079566D02*
X176330000Y-145279566D01*
X176330000Y-145279566D02*
X177130000Y-146079566D01*
X177130000Y-146079566D02*
X176263333Y-146079566D01*
X174996667Y-144679566D02*
X175663333Y-144679566D01*
X175663333Y-144679566D02*
X175730000Y-145346233D01*
X175730000Y-145346233D02*
X175663333Y-145279566D01*
X175663333Y-145279566D02*
X175530000Y-145212900D01*
X175530000Y-145212900D02*
X175196667Y-145212900D01*
X175196667Y-145212900D02*
X175063333Y-145279566D01*
X175063333Y-145279566D02*
X174996667Y-145346233D01*
X174996667Y-145346233D02*
X174930000Y-145479566D01*
X174930000Y-145479566D02*
X174930000Y-145812900D01*
X174930000Y-145812900D02*
X174996667Y-145946233D01*
X174996667Y-145946233D02*
X175063333Y-146012900D01*
X175063333Y-146012900D02*
X175196667Y-146079566D01*
X175196667Y-146079566D02*
X175530000Y-146079566D01*
X175530000Y-146079566D02*
X175663333Y-146012900D01*
X175663333Y-146012900D02*
X175730000Y-145946233D01*
X174330000Y-144679566D02*
X174330000Y-145812900D01*
X174330000Y-145812900D02*
X174263334Y-145946233D01*
X174263334Y-145946233D02*
X174196667Y-146012900D01*
X174196667Y-146012900D02*
X174063334Y-146079566D01*
X174063334Y-146079566D02*
X173796667Y-146079566D01*
X173796667Y-146079566D02*
X173663334Y-146012900D01*
X173663334Y-146012900D02*
X173596667Y-145946233D01*
X173596667Y-145946233D02*
X173530000Y-145812900D01*
X173530000Y-145812900D02*
X173530000Y-144679566D01*
X171863333Y-146012900D02*
X171663333Y-146079566D01*
X171663333Y-146079566D02*
X171330000Y-146079566D01*
X171330000Y-146079566D02*
X171196666Y-146012900D01*
X171196666Y-146012900D02*
X171130000Y-145946233D01*
X171130000Y-145946233D02*
X171063333Y-145812900D01*
X171063333Y-145812900D02*
X171063333Y-145679566D01*
X171063333Y-145679566D02*
X171130000Y-145546233D01*
X171130000Y-145546233D02*
X171196666Y-145479566D01*
X171196666Y-145479566D02*
X171330000Y-145412900D01*
X171330000Y-145412900D02*
X171596666Y-145346233D01*
X171596666Y-145346233D02*
X171730000Y-145279566D01*
X171730000Y-145279566D02*
X171796666Y-145212900D01*
X171796666Y-145212900D02*
X171863333Y-145079566D01*
X171863333Y-145079566D02*
X171863333Y-144946233D01*
X171863333Y-144946233D02*
X171796666Y-144812900D01*
X171796666Y-144812900D02*
X171730000Y-144746233D01*
X171730000Y-144746233D02*
X171596666Y-144679566D01*
X171596666Y-144679566D02*
X171263333Y-144679566D01*
X171263333Y-144679566D02*
X171063333Y-144746233D01*
X170463333Y-146079566D02*
X170463333Y-144679566D01*
X170463333Y-144679566D02*
X169930000Y-144679566D01*
X169930000Y-144679566D02*
X169796667Y-144746233D01*
X169796667Y-144746233D02*
X169730000Y-144812900D01*
X169730000Y-144812900D02*
X169663333Y-144946233D01*
X169663333Y-144946233D02*
X169663333Y-145146233D01*
X169663333Y-145146233D02*
X169730000Y-145279566D01*
X169730000Y-145279566D02*
X169796667Y-145346233D01*
X169796667Y-145346233D02*
X169930000Y-145412900D01*
X169930000Y-145412900D02*
X170463333Y-145412900D01*
X169130000Y-145679566D02*
X168463333Y-145679566D01*
X169263333Y-146079566D02*
X168796667Y-144679566D01*
X168796667Y-144679566D02*
X168330000Y-146079566D01*
X167063333Y-145946233D02*
X167130000Y-146012900D01*
X167130000Y-146012900D02*
X167330000Y-146079566D01*
X167330000Y-146079566D02*
X167463333Y-146079566D01*
X167463333Y-146079566D02*
X167663333Y-146012900D01*
X167663333Y-146012900D02*
X167796667Y-145879566D01*
X167796667Y-145879566D02*
X167863333Y-145746233D01*
X167863333Y-145746233D02*
X167930000Y-145479566D01*
X167930000Y-145479566D02*
X167930000Y-145279566D01*
X167930000Y-145279566D02*
X167863333Y-145012900D01*
X167863333Y-145012900D02*
X167796667Y-144879566D01*
X167796667Y-144879566D02*
X167663333Y-144746233D01*
X167663333Y-144746233D02*
X167463333Y-144679566D01*
X167463333Y-144679566D02*
X167330000Y-144679566D01*
X167330000Y-144679566D02*
X167130000Y-144746233D01*
X167130000Y-144746233D02*
X167063333Y-144812900D01*
X166463333Y-145346233D02*
X165996667Y-145346233D01*
X165796667Y-146079566D02*
X166463333Y-146079566D01*
X166463333Y-146079566D02*
X166463333Y-144679566D01*
X166463333Y-144679566D02*
X165796667Y-144679566D01*
X164730000Y-145346233D02*
X164530000Y-145412900D01*
X164530000Y-145412900D02*
X164463333Y-145479566D01*
X164463333Y-145479566D02*
X164396666Y-145612900D01*
X164396666Y-145612900D02*
X164396666Y-145812900D01*
X164396666Y-145812900D02*
X164463333Y-145946233D01*
X164463333Y-145946233D02*
X164530000Y-146012900D01*
X164530000Y-146012900D02*
X164663333Y-146079566D01*
X164663333Y-146079566D02*
X165196666Y-146079566D01*
X165196666Y-146079566D02*
X165196666Y-144679566D01*
X165196666Y-144679566D02*
X164730000Y-144679566D01*
X164730000Y-144679566D02*
X164596666Y-144746233D01*
X164596666Y-144746233D02*
X164530000Y-144812900D01*
X164530000Y-144812900D02*
X164463333Y-144946233D01*
X164463333Y-144946233D02*
X164463333Y-145079566D01*
X164463333Y-145079566D02*
X164530000Y-145212900D01*
X164530000Y-145212900D02*
X164596666Y-145279566D01*
X164596666Y-145279566D02*
X164730000Y-145346233D01*
X164730000Y-145346233D02*
X165196666Y-145346233D01*
X163863333Y-145679566D02*
X163196666Y-145679566D01*
X163996666Y-146079566D02*
X163530000Y-144679566D01*
X163530000Y-144679566D02*
X163063333Y-146079566D01*
X161796666Y-146079566D02*
X162263333Y-145412900D01*
X162596666Y-146079566D02*
X162596666Y-144679566D01*
X162596666Y-144679566D02*
X162063333Y-144679566D01*
X162063333Y-144679566D02*
X161930000Y-144746233D01*
X161930000Y-144746233D02*
X161863333Y-144812900D01*
X161863333Y-144812900D02*
X161796666Y-144946233D01*
X161796666Y-144946233D02*
X161796666Y-145146233D01*
X161796666Y-145146233D02*
X161863333Y-145279566D01*
X161863333Y-145279566D02*
X161930000Y-145346233D01*
X161930000Y-145346233D02*
X162063333Y-145412900D01*
X162063333Y-145412900D02*
X162596666Y-145412900D01*
X123256666Y-124159566D02*
X122790000Y-125559566D01*
X122790000Y-125559566D02*
X122323333Y-124159566D01*
X285196666Y-66979566D02*
X284263332Y-66979566D01*
X284263332Y-66979566D02*
X285196666Y-68379566D01*
X285196666Y-68379566D02*
X284263332Y-68379566D01*
X123329999Y-86239566D02*
X122529999Y-86239566D01*
X122929999Y-87639566D02*
X122929999Y-86239566D01*
X208186666Y-106599566D02*
X208853332Y-106599566D01*
X208853332Y-106599566D02*
X208853332Y-105199566D01*
X103186666Y-87639566D02*
X103653333Y-86972900D01*
X103986666Y-87639566D02*
X103986666Y-86239566D01*
X103986666Y-86239566D02*
X103453333Y-86239566D01*
X103453333Y-86239566D02*
X103320000Y-86306233D01*
X103320000Y-86306233D02*
X103253333Y-86372900D01*
X103253333Y-86372900D02*
X103186666Y-86506233D01*
X103186666Y-86506233D02*
X103186666Y-86706233D01*
X103186666Y-86706233D02*
X103253333Y-86839566D01*
X103253333Y-86839566D02*
X103320000Y-86906233D01*
X103320000Y-86906233D02*
X103453333Y-86972900D01*
X103453333Y-86972900D02*
X103986666Y-86972900D01*
X180179999Y-87639566D02*
X180179999Y-86239566D01*
X236779999Y-124092900D02*
X237979999Y-125892900D01*
X103186666Y-125426233D02*
X103253333Y-125492900D01*
X103253333Y-125492900D02*
X103453333Y-125559566D01*
X103453333Y-125559566D02*
X103586666Y-125559566D01*
X103586666Y-125559566D02*
X103786666Y-125492900D01*
X103786666Y-125492900D02*
X103920000Y-125359566D01*
X103920000Y-125359566D02*
X103986666Y-125226233D01*
X103986666Y-125226233D02*
X104053333Y-124959566D01*
X104053333Y-124959566D02*
X104053333Y-124759566D01*
X104053333Y-124759566D02*
X103986666Y-124492900D01*
X103986666Y-124492900D02*
X103920000Y-124359566D01*
X103920000Y-124359566D02*
X103786666Y-124226233D01*
X103786666Y-124226233D02*
X103586666Y-124159566D01*
X103586666Y-124159566D02*
X103453333Y-124159566D01*
X103453333Y-124159566D02*
X103253333Y-124226233D01*
X103253333Y-124226233D02*
X103186666Y-124292900D01*
X152174869Y-66979566D02*
X151241535Y-66979566D01*
X151241535Y-66979566D02*
X151841535Y-68379566D01*
X170741535Y-67579566D02*
X170874869Y-67512900D01*
X170874869Y-67512900D02*
X170941535Y-67446233D01*
X170941535Y-67446233D02*
X171008202Y-67312900D01*
X171008202Y-67312900D02*
X171008202Y-67246233D01*
X171008202Y-67246233D02*
X170941535Y-67112900D01*
X170941535Y-67112900D02*
X170874869Y-67046233D01*
X170874869Y-67046233D02*
X170741535Y-66979566D01*
X170741535Y-66979566D02*
X170474869Y-66979566D01*
X170474869Y-66979566D02*
X170341535Y-67046233D01*
X170341535Y-67046233D02*
X170274869Y-67112900D01*
X170274869Y-67112900D02*
X170208202Y-67246233D01*
X170208202Y-67246233D02*
X170208202Y-67312900D01*
X170208202Y-67312900D02*
X170274869Y-67446233D01*
X170274869Y-67446233D02*
X170341535Y-67512900D01*
X170341535Y-67512900D02*
X170474869Y-67579566D01*
X170474869Y-67579566D02*
X170741535Y-67579566D01*
X170741535Y-67579566D02*
X170874869Y-67646233D01*
X170874869Y-67646233D02*
X170941535Y-67712900D01*
X170941535Y-67712900D02*
X171008202Y-67846233D01*
X171008202Y-67846233D02*
X171008202Y-68112900D01*
X171008202Y-68112900D02*
X170941535Y-68246233D01*
X170941535Y-68246233D02*
X170874869Y-68312900D01*
X170874869Y-68312900D02*
X170741535Y-68379566D01*
X170741535Y-68379566D02*
X170474869Y-68379566D01*
X170474869Y-68379566D02*
X170341535Y-68312900D01*
X170341535Y-68312900D02*
X170274869Y-68246233D01*
X170274869Y-68246233D02*
X170208202Y-68112900D01*
X170208202Y-68112900D02*
X170208202Y-67846233D01*
X170208202Y-67846233D02*
X170274869Y-67712900D01*
X170274869Y-67712900D02*
X170341535Y-67646233D01*
X170341535Y-67646233D02*
X170474869Y-67579566D01*
X76094869Y-66979566D02*
X75228202Y-66979566D01*
X75228202Y-66979566D02*
X75694869Y-67512900D01*
X75694869Y-67512900D02*
X75494869Y-67512900D01*
X75494869Y-67512900D02*
X75361535Y-67579566D01*
X75361535Y-67579566D02*
X75294869Y-67646233D01*
X75294869Y-67646233D02*
X75228202Y-67779566D01*
X75228202Y-67779566D02*
X75228202Y-68112900D01*
X75228202Y-68112900D02*
X75294869Y-68246233D01*
X75294869Y-68246233D02*
X75361535Y-68312900D01*
X75361535Y-68312900D02*
X75494869Y-68379566D01*
X75494869Y-68379566D02*
X75894869Y-68379566D01*
X75894869Y-68379566D02*
X76028202Y-68312900D01*
X76028202Y-68312900D02*
X76094869Y-68246233D01*
X217759999Y-125426233D02*
X217693333Y-125492900D01*
X217693333Y-125492900D02*
X217759999Y-125559566D01*
X217759999Y-125559566D02*
X217826666Y-125492900D01*
X217826666Y-125492900D02*
X217759999Y-125426233D01*
X217759999Y-125426233D02*
X217759999Y-125559566D01*
X334233333Y-145396233D02*
X334300000Y-145462900D01*
X334300000Y-145462900D02*
X334500000Y-145529566D01*
X334500000Y-145529566D02*
X334633333Y-145529566D01*
X334633333Y-145529566D02*
X334833333Y-145462900D01*
X334833333Y-145462900D02*
X334966667Y-145329566D01*
X334966667Y-145329566D02*
X335033333Y-145196233D01*
X335033333Y-145196233D02*
X335100000Y-144929566D01*
X335100000Y-144929566D02*
X335100000Y-144729566D01*
X335100000Y-144729566D02*
X335033333Y-144462900D01*
X335033333Y-144462900D02*
X334966667Y-144329566D01*
X334966667Y-144329566D02*
X334833333Y-144196233D01*
X334833333Y-144196233D02*
X334633333Y-144129566D01*
X334633333Y-144129566D02*
X334500000Y-144129566D01*
X334500000Y-144129566D02*
X334300000Y-144196233D01*
X334300000Y-144196233D02*
X334233333Y-144262900D01*
X333633333Y-144129566D02*
X333633333Y-145262900D01*
X333633333Y-145262900D02*
X333566667Y-145396233D01*
X333566667Y-145396233D02*
X333500000Y-145462900D01*
X333500000Y-145462900D02*
X333366667Y-145529566D01*
X333366667Y-145529566D02*
X333100000Y-145529566D01*
X333100000Y-145529566D02*
X332966667Y-145462900D01*
X332966667Y-145462900D02*
X332900000Y-145396233D01*
X332900000Y-145396233D02*
X332833333Y-145262900D01*
X332833333Y-145262900D02*
X332833333Y-144129566D01*
X331366666Y-145529566D02*
X331833333Y-144862900D01*
X332166666Y-145529566D02*
X332166666Y-144129566D01*
X332166666Y-144129566D02*
X331633333Y-144129566D01*
X331633333Y-144129566D02*
X331500000Y-144196233D01*
X331500000Y-144196233D02*
X331433333Y-144262900D01*
X331433333Y-144262900D02*
X331366666Y-144396233D01*
X331366666Y-144396233D02*
X331366666Y-144596233D01*
X331366666Y-144596233D02*
X331433333Y-144729566D01*
X331433333Y-144729566D02*
X331500000Y-144796233D01*
X331500000Y-144796233D02*
X331633333Y-144862900D01*
X331633333Y-144862900D02*
X332166666Y-144862900D01*
X330833333Y-145462900D02*
X330633333Y-145529566D01*
X330633333Y-145529566D02*
X330300000Y-145529566D01*
X330300000Y-145529566D02*
X330166666Y-145462900D01*
X330166666Y-145462900D02*
X330100000Y-145396233D01*
X330100000Y-145396233D02*
X330033333Y-145262900D01*
X330033333Y-145262900D02*
X330033333Y-145129566D01*
X330033333Y-145129566D02*
X330100000Y-144996233D01*
X330100000Y-144996233D02*
X330166666Y-144929566D01*
X330166666Y-144929566D02*
X330300000Y-144862900D01*
X330300000Y-144862900D02*
X330566666Y-144796233D01*
X330566666Y-144796233D02*
X330700000Y-144729566D01*
X330700000Y-144729566D02*
X330766666Y-144662900D01*
X330766666Y-144662900D02*
X330833333Y-144529566D01*
X330833333Y-144529566D02*
X330833333Y-144396233D01*
X330833333Y-144396233D02*
X330766666Y-144262900D01*
X330766666Y-144262900D02*
X330700000Y-144196233D01*
X330700000Y-144196233D02*
X330566666Y-144129566D01*
X330566666Y-144129566D02*
X330233333Y-144129566D01*
X330233333Y-144129566D02*
X330033333Y-144196233D01*
X329166667Y-144129566D02*
X328900000Y-144129566D01*
X328900000Y-144129566D02*
X328766667Y-144196233D01*
X328766667Y-144196233D02*
X328633333Y-144329566D01*
X328633333Y-144329566D02*
X328566667Y-144596233D01*
X328566667Y-144596233D02*
X328566667Y-145062900D01*
X328566667Y-145062900D02*
X328633333Y-145329566D01*
X328633333Y-145329566D02*
X328766667Y-145462900D01*
X328766667Y-145462900D02*
X328900000Y-145529566D01*
X328900000Y-145529566D02*
X329166667Y-145529566D01*
X329166667Y-145529566D02*
X329300000Y-145462900D01*
X329300000Y-145462900D02*
X329433333Y-145329566D01*
X329433333Y-145329566D02*
X329500000Y-145062900D01*
X329500000Y-145062900D02*
X329500000Y-144596233D01*
X329500000Y-144596233D02*
X329433333Y-144329566D01*
X329433333Y-144329566D02*
X329300000Y-144196233D01*
X329300000Y-144196233D02*
X329166667Y-144129566D01*
X327166666Y-145529566D02*
X327633333Y-144862900D01*
X327966666Y-145529566D02*
X327966666Y-144129566D01*
X327966666Y-144129566D02*
X327433333Y-144129566D01*
X327433333Y-144129566D02*
X327300000Y-144196233D01*
X327300000Y-144196233D02*
X327233333Y-144262900D01*
X327233333Y-144262900D02*
X327166666Y-144396233D01*
X327166666Y-144396233D02*
X327166666Y-144596233D01*
X327166666Y-144596233D02*
X327233333Y-144729566D01*
X327233333Y-144729566D02*
X327300000Y-144796233D01*
X327300000Y-144796233D02*
X327433333Y-144862900D01*
X327433333Y-144862900D02*
X327966666Y-144862900D01*
X324699999Y-145529566D02*
X325166666Y-144862900D01*
X325499999Y-145529566D02*
X325499999Y-144129566D01*
X325499999Y-144129566D02*
X324966666Y-144129566D01*
X324966666Y-144129566D02*
X324833333Y-144196233D01*
X324833333Y-144196233D02*
X324766666Y-144262900D01*
X324766666Y-144262900D02*
X324699999Y-144396233D01*
X324699999Y-144396233D02*
X324699999Y-144596233D01*
X324699999Y-144596233D02*
X324766666Y-144729566D01*
X324766666Y-144729566D02*
X324833333Y-144796233D01*
X324833333Y-144796233D02*
X324966666Y-144862900D01*
X324966666Y-144862900D02*
X325499999Y-144862900D01*
X324099999Y-145529566D02*
X324099999Y-144129566D01*
X322699999Y-144196233D02*
X322833332Y-144129566D01*
X322833332Y-144129566D02*
X323033332Y-144129566D01*
X323033332Y-144129566D02*
X323233332Y-144196233D01*
X323233332Y-144196233D02*
X323366666Y-144329566D01*
X323366666Y-144329566D02*
X323433332Y-144462900D01*
X323433332Y-144462900D02*
X323499999Y-144729566D01*
X323499999Y-144729566D02*
X323499999Y-144929566D01*
X323499999Y-144929566D02*
X323433332Y-145196233D01*
X323433332Y-145196233D02*
X323366666Y-145329566D01*
X323366666Y-145329566D02*
X323233332Y-145462900D01*
X323233332Y-145462900D02*
X323033332Y-145529566D01*
X323033332Y-145529566D02*
X322899999Y-145529566D01*
X322899999Y-145529566D02*
X322699999Y-145462900D01*
X322699999Y-145462900D02*
X322633332Y-145396233D01*
X322633332Y-145396233D02*
X322633332Y-144929566D01*
X322633332Y-144929566D02*
X322899999Y-144929566D01*
X322033332Y-145529566D02*
X322033332Y-144129566D01*
X322033332Y-144796233D02*
X321233332Y-144796233D01*
X321233332Y-145529566D02*
X321233332Y-144129566D01*
X320766665Y-144129566D02*
X319966665Y-144129566D01*
X320366665Y-145529566D02*
X320366665Y-144129566D01*
X161149999Y-125559566D02*
X161149999Y-124159566D01*
X161149999Y-124159566D02*
X160349999Y-125559566D01*
X160349999Y-125559566D02*
X160349999Y-124159566D01*
X180226666Y-125559566D02*
X180226666Y-124159566D01*
X180226666Y-124159566D02*
X179760000Y-125159566D01*
X179760000Y-125159566D02*
X179293333Y-124159566D01*
X179293333Y-124159566D02*
X179293333Y-125559566D01*
X256486666Y-87639566D02*
X256486666Y-86239566D01*
X256486666Y-86239566D02*
X256153333Y-86239566D01*
X256153333Y-86239566D02*
X255953333Y-86306233D01*
X255953333Y-86306233D02*
X255820000Y-86439566D01*
X255820000Y-86439566D02*
X255753333Y-86572900D01*
X255753333Y-86572900D02*
X255686666Y-86839566D01*
X255686666Y-86839566D02*
X255686666Y-87039566D01*
X255686666Y-87039566D02*
X255753333Y-87306233D01*
X255753333Y-87306233D02*
X255820000Y-87439566D01*
X255820000Y-87439566D02*
X255953333Y-87572900D01*
X255953333Y-87572900D02*
X256153333Y-87639566D01*
X256153333Y-87639566D02*
X256486666Y-87639566D01*
X256686666Y-86906233D02*
X256153333Y-86906233D01*
X56723333Y-106199566D02*
X56056666Y-106199566D01*
X56856666Y-106599566D02*
X56390000Y-105199566D01*
X56390000Y-105199566D02*
X55923333Y-106599566D01*
X132233333Y-105266233D02*
X132366666Y-105199566D01*
X132366666Y-105199566D02*
X132566666Y-105199566D01*
X132566666Y-105199566D02*
X132766666Y-105266233D01*
X132766666Y-105266233D02*
X132900000Y-105399566D01*
X132900000Y-105399566D02*
X132966666Y-105532900D01*
X132966666Y-105532900D02*
X133033333Y-105799566D01*
X133033333Y-105799566D02*
X133033333Y-105999566D01*
X133033333Y-105999566D02*
X132966666Y-106266233D01*
X132966666Y-106266233D02*
X132900000Y-106399566D01*
X132900000Y-106399566D02*
X132766666Y-106532900D01*
X132766666Y-106532900D02*
X132566666Y-106599566D01*
X132566666Y-106599566D02*
X132433333Y-106599566D01*
X132433333Y-106599566D02*
X132233333Y-106532900D01*
X132233333Y-106532900D02*
X132166666Y-106466233D01*
X132166666Y-106466233D02*
X132166666Y-105999566D01*
X132166666Y-105999566D02*
X132433333Y-105999566D01*
X328426666Y-86786233D02*
X328893332Y-86786233D01*
X328893332Y-87519566D02*
X328893332Y-86119566D01*
X328893332Y-86119566D02*
X328226666Y-86119566D01*
X327093332Y-86586233D02*
X327093332Y-87519566D01*
X327426666Y-86052900D02*
X327759999Y-87052900D01*
X327759999Y-87052900D02*
X326893332Y-87052900D01*
X246536666Y-106466233D02*
X246603333Y-106532900D01*
X246603333Y-106532900D02*
X246803333Y-106599566D01*
X246803333Y-106599566D02*
X246936666Y-106599566D01*
X246936666Y-106599566D02*
X247136666Y-106532900D01*
X247136666Y-106532900D02*
X247270000Y-106399566D01*
X247270000Y-106399566D02*
X247336666Y-106266233D01*
X247336666Y-106266233D02*
X247403333Y-105999566D01*
X247403333Y-105999566D02*
X247403333Y-105799566D01*
X247403333Y-105799566D02*
X247336666Y-105532900D01*
X247336666Y-105532900D02*
X247270000Y-105399566D01*
X247270000Y-105399566D02*
X247136666Y-105266233D01*
X247136666Y-105266233D02*
X246936666Y-105199566D01*
X246936666Y-105199566D02*
X246803333Y-105199566D01*
X246803333Y-105199566D02*
X246603333Y-105266233D01*
X246603333Y-105266233D02*
X246536666Y-105332900D01*
X247136666Y-104666233D02*
X246870000Y-104866233D01*
X246870000Y-104866233D02*
X246603333Y-104666233D01*
X227356666Y-106466233D02*
X227423333Y-106532900D01*
X227423333Y-106532900D02*
X227623333Y-106599566D01*
X227623333Y-106599566D02*
X227756666Y-106599566D01*
X227756666Y-106599566D02*
X227956666Y-106532900D01*
X227956666Y-106532900D02*
X228090000Y-106399566D01*
X228090000Y-106399566D02*
X228156666Y-106266233D01*
X228156666Y-106266233D02*
X228223333Y-105999566D01*
X228223333Y-105999566D02*
X228223333Y-105799566D01*
X228223333Y-105799566D02*
X228156666Y-105532900D01*
X228156666Y-105532900D02*
X228090000Y-105399566D01*
X228090000Y-105399566D02*
X227956666Y-105266233D01*
X227956666Y-105266233D02*
X227756666Y-105199566D01*
X227756666Y-105199566D02*
X227623333Y-105199566D01*
X227623333Y-105199566D02*
X227423333Y-105266233D01*
X227423333Y-105266233D02*
X227356666Y-105332900D01*
X227556666Y-104666233D02*
X227756666Y-104866233D01*
X44626667Y-125399566D02*
X45293333Y-125399566D01*
X45293333Y-125399566D02*
X45293333Y-123999566D01*
X44160000Y-125266233D02*
X44093334Y-125332900D01*
X44093334Y-125332900D02*
X44160000Y-125399566D01*
X44160000Y-125399566D02*
X44226667Y-125332900D01*
X44226667Y-125332900D02*
X44160000Y-125266233D01*
X44160000Y-125266233D02*
X44160000Y-125399566D01*
X43560000Y-125332900D02*
X43360000Y-125399566D01*
X43360000Y-125399566D02*
X43026667Y-125399566D01*
X43026667Y-125399566D02*
X42893333Y-125332900D01*
X42893333Y-125332900D02*
X42826667Y-125266233D01*
X42826667Y-125266233D02*
X42760000Y-125132900D01*
X42760000Y-125132900D02*
X42760000Y-124999566D01*
X42760000Y-124999566D02*
X42826667Y-124866233D01*
X42826667Y-124866233D02*
X42893333Y-124799566D01*
X42893333Y-124799566D02*
X43026667Y-124732900D01*
X43026667Y-124732900D02*
X43293333Y-124666233D01*
X43293333Y-124666233D02*
X43426667Y-124599566D01*
X43426667Y-124599566D02*
X43493333Y-124532900D01*
X43493333Y-124532900D02*
X43560000Y-124399566D01*
X43560000Y-124399566D02*
X43560000Y-124266233D01*
X43560000Y-124266233D02*
X43493333Y-124132900D01*
X43493333Y-124132900D02*
X43426667Y-124066233D01*
X43426667Y-124066233D02*
X43293333Y-123999566D01*
X43293333Y-123999566D02*
X42960000Y-123999566D01*
X42960000Y-123999566D02*
X42760000Y-124066233D01*
X42160000Y-125399566D02*
X42160000Y-123999566D01*
X42160000Y-124666233D02*
X41360000Y-124666233D01*
X41360000Y-125399566D02*
X41360000Y-123999566D01*
X40693333Y-125399566D02*
X40693333Y-123999566D01*
X39560000Y-124666233D02*
X40026666Y-124666233D01*
X40026666Y-125399566D02*
X40026666Y-123999566D01*
X40026666Y-123999566D02*
X39360000Y-123999566D01*
X39026666Y-123999566D02*
X38226666Y-123999566D01*
X38626666Y-125399566D02*
X38626666Y-123999566D01*
X170409999Y-105199566D02*
X170409999Y-106199566D01*
X170409999Y-106199566D02*
X170476666Y-106399566D01*
X170476666Y-106399566D02*
X170609999Y-106532900D01*
X170609999Y-106532900D02*
X170809999Y-106599566D01*
X170809999Y-106599566D02*
X170943333Y-106599566D01*
X190086666Y-106599566D02*
X190086666Y-105199566D01*
X189286666Y-106599566D02*
X189886666Y-105799566D01*
X189286666Y-105199566D02*
X190086666Y-105999566D01*
X46176666Y-87772900D02*
X46309999Y-87706233D01*
X46309999Y-87706233D02*
X46443333Y-87572900D01*
X46443333Y-87572900D02*
X46643333Y-87372900D01*
X46643333Y-87372900D02*
X46776666Y-87306233D01*
X46776666Y-87306233D02*
X46909999Y-87306233D01*
X46843333Y-87639566D02*
X46976666Y-87572900D01*
X46976666Y-87572900D02*
X47109999Y-87439566D01*
X47109999Y-87439566D02*
X47176666Y-87172900D01*
X47176666Y-87172900D02*
X47176666Y-86706233D01*
X47176666Y-86706233D02*
X47109999Y-86439566D01*
X47109999Y-86439566D02*
X46976666Y-86306233D01*
X46976666Y-86306233D02*
X46843333Y-86239566D01*
X46843333Y-86239566D02*
X46576666Y-86239566D01*
X46576666Y-86239566D02*
X46443333Y-86306233D01*
X46443333Y-86306233D02*
X46309999Y-86439566D01*
X46309999Y-86439566D02*
X46243333Y-86706233D01*
X46243333Y-86706233D02*
X46243333Y-87172900D01*
X46243333Y-87172900D02*
X46309999Y-87439566D01*
X46309999Y-87439566D02*
X46443333Y-87572900D01*
X46443333Y-87572900D02*
X46576666Y-87639566D01*
X46576666Y-87639566D02*
X46843333Y-87639566D01*
X151969999Y-106599566D02*
X151969999Y-105199566D01*
X151969999Y-105866233D02*
X151169999Y-105866233D01*
X151169999Y-106599566D02*
X151169999Y-105199566D01*
X218416666Y-87639566D02*
X218416666Y-86239566D01*
X218416666Y-86239566D02*
X217883333Y-86239566D01*
X217883333Y-86239566D02*
X217750000Y-86306233D01*
X217750000Y-86306233D02*
X217683333Y-86372900D01*
X217683333Y-86372900D02*
X217616666Y-86506233D01*
X217616666Y-86506233D02*
X217616666Y-86706233D01*
X217616666Y-86706233D02*
X217683333Y-86839566D01*
X217683333Y-86839566D02*
X217750000Y-86906233D01*
X217750000Y-86906233D02*
X217883333Y-86972900D01*
X217883333Y-86972900D02*
X218416666Y-86972900D01*
X313626666Y-126816233D02*
X313693333Y-126882900D01*
X313693333Y-126882900D02*
X313893333Y-126949566D01*
X313893333Y-126949566D02*
X314026666Y-126949566D01*
X314026666Y-126949566D02*
X314226666Y-126882900D01*
X314226666Y-126882900D02*
X314360000Y-126749566D01*
X314360000Y-126749566D02*
X314426666Y-126616233D01*
X314426666Y-126616233D02*
X314493333Y-126349566D01*
X314493333Y-126349566D02*
X314493333Y-126149566D01*
X314493333Y-126149566D02*
X314426666Y-125882900D01*
X314426666Y-125882900D02*
X314360000Y-125749566D01*
X314360000Y-125749566D02*
X314226666Y-125616233D01*
X314226666Y-125616233D02*
X314026666Y-125549566D01*
X314026666Y-125549566D02*
X313893333Y-125549566D01*
X313893333Y-125549566D02*
X313693333Y-125616233D01*
X313693333Y-125616233D02*
X313626666Y-125682900D01*
X313026666Y-125549566D02*
X313026666Y-126682900D01*
X313026666Y-126682900D02*
X312960000Y-126816233D01*
X312960000Y-126816233D02*
X312893333Y-126882900D01*
X312893333Y-126882900D02*
X312760000Y-126949566D01*
X312760000Y-126949566D02*
X312493333Y-126949566D01*
X312493333Y-126949566D02*
X312360000Y-126882900D01*
X312360000Y-126882900D02*
X312293333Y-126816233D01*
X312293333Y-126816233D02*
X312226666Y-126682900D01*
X312226666Y-126682900D02*
X312226666Y-125549566D01*
X310759999Y-126949566D02*
X311226666Y-126282900D01*
X311559999Y-126949566D02*
X311559999Y-125549566D01*
X311559999Y-125549566D02*
X311026666Y-125549566D01*
X311026666Y-125549566D02*
X310893333Y-125616233D01*
X310893333Y-125616233D02*
X310826666Y-125682900D01*
X310826666Y-125682900D02*
X310759999Y-125816233D01*
X310759999Y-125816233D02*
X310759999Y-126016233D01*
X310759999Y-126016233D02*
X310826666Y-126149566D01*
X310826666Y-126149566D02*
X310893333Y-126216233D01*
X310893333Y-126216233D02*
X311026666Y-126282900D01*
X311026666Y-126282900D02*
X311559999Y-126282900D01*
X310226666Y-126882900D02*
X310026666Y-126949566D01*
X310026666Y-126949566D02*
X309693333Y-126949566D01*
X309693333Y-126949566D02*
X309559999Y-126882900D01*
X309559999Y-126882900D02*
X309493333Y-126816233D01*
X309493333Y-126816233D02*
X309426666Y-126682900D01*
X309426666Y-126682900D02*
X309426666Y-126549566D01*
X309426666Y-126549566D02*
X309493333Y-126416233D01*
X309493333Y-126416233D02*
X309559999Y-126349566D01*
X309559999Y-126349566D02*
X309693333Y-126282900D01*
X309693333Y-126282900D02*
X309959999Y-126216233D01*
X309959999Y-126216233D02*
X310093333Y-126149566D01*
X310093333Y-126149566D02*
X310159999Y-126082900D01*
X310159999Y-126082900D02*
X310226666Y-125949566D01*
X310226666Y-125949566D02*
X310226666Y-125816233D01*
X310226666Y-125816233D02*
X310159999Y-125682900D01*
X310159999Y-125682900D02*
X310093333Y-125616233D01*
X310093333Y-125616233D02*
X309959999Y-125549566D01*
X309959999Y-125549566D02*
X309626666Y-125549566D01*
X309626666Y-125549566D02*
X309426666Y-125616233D01*
X308560000Y-125549566D02*
X308293333Y-125549566D01*
X308293333Y-125549566D02*
X308160000Y-125616233D01*
X308160000Y-125616233D02*
X308026666Y-125749566D01*
X308026666Y-125749566D02*
X307960000Y-126016233D01*
X307960000Y-126016233D02*
X307960000Y-126482900D01*
X307960000Y-126482900D02*
X308026666Y-126749566D01*
X308026666Y-126749566D02*
X308160000Y-126882900D01*
X308160000Y-126882900D02*
X308293333Y-126949566D01*
X308293333Y-126949566D02*
X308560000Y-126949566D01*
X308560000Y-126949566D02*
X308693333Y-126882900D01*
X308693333Y-126882900D02*
X308826666Y-126749566D01*
X308826666Y-126749566D02*
X308893333Y-126482900D01*
X308893333Y-126482900D02*
X308893333Y-126016233D01*
X308893333Y-126016233D02*
X308826666Y-125749566D01*
X308826666Y-125749566D02*
X308693333Y-125616233D01*
X308693333Y-125616233D02*
X308560000Y-125549566D01*
X306559999Y-126949566D02*
X307026666Y-126282900D01*
X307359999Y-126949566D02*
X307359999Y-125549566D01*
X307359999Y-125549566D02*
X306826666Y-125549566D01*
X306826666Y-125549566D02*
X306693333Y-125616233D01*
X306693333Y-125616233D02*
X306626666Y-125682900D01*
X306626666Y-125682900D02*
X306559999Y-125816233D01*
X306559999Y-125816233D02*
X306559999Y-126016233D01*
X306559999Y-126016233D02*
X306626666Y-126149566D01*
X306626666Y-126149566D02*
X306693333Y-126216233D01*
X306693333Y-126216233D02*
X306826666Y-126282900D01*
X306826666Y-126282900D02*
X307359999Y-126282900D01*
X304893332Y-125549566D02*
X304893332Y-126682900D01*
X304893332Y-126682900D02*
X304826666Y-126816233D01*
X304826666Y-126816233D02*
X304759999Y-126882900D01*
X304759999Y-126882900D02*
X304626666Y-126949566D01*
X304626666Y-126949566D02*
X304359999Y-126949566D01*
X304359999Y-126949566D02*
X304226666Y-126882900D01*
X304226666Y-126882900D02*
X304159999Y-126816233D01*
X304159999Y-126816233D02*
X304093332Y-126682900D01*
X304093332Y-126682900D02*
X304093332Y-125549566D01*
X303426665Y-126949566D02*
X303426665Y-125549566D01*
X303426665Y-125549566D02*
X302893332Y-125549566D01*
X302893332Y-125549566D02*
X302759999Y-125616233D01*
X302759999Y-125616233D02*
X302693332Y-125682900D01*
X302693332Y-125682900D02*
X302626665Y-125816233D01*
X302626665Y-125816233D02*
X302626665Y-126016233D01*
X302626665Y-126016233D02*
X302693332Y-126149566D01*
X302693332Y-126149566D02*
X302759999Y-126216233D01*
X302759999Y-126216233D02*
X302893332Y-126282900D01*
X302893332Y-126282900D02*
X303426665Y-126282900D01*
X141510000Y-124826233D02*
X141310000Y-124892900D01*
X141310000Y-124892900D02*
X141243333Y-124959566D01*
X141243333Y-124959566D02*
X141176666Y-125092900D01*
X141176666Y-125092900D02*
X141176666Y-125292900D01*
X141176666Y-125292900D02*
X141243333Y-125426233D01*
X141243333Y-125426233D02*
X141310000Y-125492900D01*
X141310000Y-125492900D02*
X141443333Y-125559566D01*
X141443333Y-125559566D02*
X141976666Y-125559566D01*
X141976666Y-125559566D02*
X141976666Y-124159566D01*
X141976666Y-124159566D02*
X141510000Y-124159566D01*
X141510000Y-124159566D02*
X141376666Y-124226233D01*
X141376666Y-124226233D02*
X141310000Y-124292900D01*
X141310000Y-124292900D02*
X141243333Y-124426233D01*
X141243333Y-124426233D02*
X141243333Y-124559566D01*
X141243333Y-124559566D02*
X141310000Y-124692900D01*
X141310000Y-124692900D02*
X141376666Y-124759566D01*
X141376666Y-124759566D02*
X141510000Y-124826233D01*
X141510000Y-124826233D02*
X141976666Y-124826233D01*
X85089999Y-86906233D02*
X84623333Y-86906233D01*
X84423333Y-87639566D02*
X85089999Y-87639566D01*
X85089999Y-87639566D02*
X85089999Y-86239566D01*
X85089999Y-86239566D02*
X84423333Y-86239566D01*
X66350000Y-86239566D02*
X66016666Y-87639566D01*
X66016666Y-87639566D02*
X65750000Y-86639566D01*
X65750000Y-86639566D02*
X65483333Y-87639566D01*
X65483333Y-87639566D02*
X65150000Y-86239566D01*
X275426666Y-86372900D02*
X275160000Y-86172900D01*
X275160000Y-86172900D02*
X274893333Y-86372900D01*
X309086666Y-67636233D02*
X309553332Y-67636233D01*
X309553332Y-68369566D02*
X309553332Y-66969566D01*
X309553332Y-66969566D02*
X308886666Y-66969566D01*
X307619999Y-68369566D02*
X308419999Y-68369566D01*
X308019999Y-68369566D02*
X308019999Y-66969566D01*
X308019999Y-66969566D02*
X308153332Y-67169566D01*
X308153332Y-67169566D02*
X308286666Y-67302900D01*
X308286666Y-67302900D02*
X308419999Y-67369566D01*
X36678202Y-68379566D02*
X37478202Y-68379566D01*
X37078202Y-68379566D02*
X37078202Y-66979566D01*
X37078202Y-66979566D02*
X37211535Y-67179566D01*
X37211535Y-67179566D02*
X37344869Y-67312900D01*
X37344869Y-67312900D02*
X37478202Y-67379566D01*
X228153332Y-67846233D02*
X227086666Y-67846233D01*
M02*
