%TF.GenerationSoftware,KiCad,Pcbnew,9.0.7*%
%TF.CreationDate,2026-04-09T22:42:40-04:00*%
%TF.ProjectId,Orao Keyboard,4f72616f-204b-4657-9962-6f6172642e6b,1.0*%
%TF.SameCoordinates,Original*%
%TF.FileFunction,Legend,Top*%
%TF.FilePolarity,Positive*%
%FSLAX46Y46*%
G04 Gerber Fmt 4.6, Leading zero omitted, Abs format (unit mm)*
G04 Created by KiCad (PCBNEW 9.0.7) date 2026-04-09 22:42:40*
%MOMM*%
%LPD*%
G01*
G04 APERTURE LIST*
%ADD10C,0.100000*%
%ADD11C,0.175000*%
%ADD12C,0.250000*%
%ADD13C,0.120000*%
G04 APERTURE END LIST*
D10*
X161808000Y-49970000D02*
X159776000Y-50605000D01*
X159776000Y-49208000D01*
X161808000Y-49970000D01*
G36*
X161808000Y-49970000D02*
G01*
X159776000Y-50605000D01*
X159776000Y-49208000D01*
X161808000Y-49970000D01*
G37*
X159430000Y-38400000D02*
X184770000Y-38400000D01*
X184770000Y-54740000D01*
X159430000Y-54740000D01*
X159430000Y-38400000D01*
D11*
X327574334Y-91669233D02*
X327107667Y-91669233D01*
X327107667Y-92402566D02*
X327107667Y-91002566D01*
X327107667Y-91002566D02*
X327774334Y-91002566D01*
X328907667Y-91469233D02*
X328907667Y-92402566D01*
X328574334Y-90935900D02*
X328241000Y-91935900D01*
X328241000Y-91935900D02*
X329107667Y-91935900D01*
X268117999Y-110719233D02*
X268584666Y-110719233D01*
X268784666Y-111452566D02*
X268117999Y-111452566D01*
X268117999Y-111452566D02*
X268117999Y-110052566D01*
X268117999Y-110052566D02*
X268784666Y-110052566D01*
X269384666Y-111452566D02*
X269384666Y-110052566D01*
X269384666Y-110052566D02*
X270184666Y-111452566D01*
X270184666Y-111452566D02*
X270184666Y-110052566D01*
X270651333Y-110052566D02*
X271451333Y-110052566D01*
X271051333Y-111452566D02*
X271051333Y-110052566D01*
X271918000Y-110719233D02*
X272384667Y-110719233D01*
X272584667Y-111452566D02*
X271918000Y-111452566D01*
X271918000Y-111452566D02*
X271918000Y-110052566D01*
X271918000Y-110052566D02*
X272584667Y-110052566D01*
X273984667Y-111452566D02*
X273518000Y-110785900D01*
X273184667Y-111452566D02*
X273184667Y-110052566D01*
X273184667Y-110052566D02*
X273718000Y-110052566D01*
X273718000Y-110052566D02*
X273851334Y-110119233D01*
X273851334Y-110119233D02*
X273918000Y-110185900D01*
X273918000Y-110185900D02*
X273984667Y-110319233D01*
X273984667Y-110319233D02*
X273984667Y-110519233D01*
X273984667Y-110519233D02*
X273918000Y-110652566D01*
X273918000Y-110652566D02*
X273851334Y-110719233D01*
X273851334Y-110719233D02*
X273718000Y-110785900D01*
X273718000Y-110785900D02*
X273184667Y-110785900D01*
X284394334Y-72079566D02*
X285327667Y-72079566D01*
X285327667Y-72079566D02*
X284394334Y-73479566D01*
X284394334Y-73479566D02*
X285327667Y-73479566D01*
X170761000Y-110052566D02*
X170761000Y-111052566D01*
X170761000Y-111052566D02*
X170694333Y-111252566D01*
X170694333Y-111252566D02*
X170561000Y-111385900D01*
X170561000Y-111385900D02*
X170361000Y-111452566D01*
X170361000Y-111452566D02*
X170227667Y-111452566D01*
X84369334Y-129102566D02*
X85302667Y-130502566D01*
X85302667Y-129102566D02*
X84369334Y-130502566D01*
X132747464Y-71952566D02*
X132480797Y-71952566D01*
X132480797Y-71952566D02*
X132347464Y-72019233D01*
X132347464Y-72019233D02*
X132280797Y-72085900D01*
X132280797Y-72085900D02*
X132147464Y-72285900D01*
X132147464Y-72285900D02*
X132080797Y-72552566D01*
X132080797Y-72552566D02*
X132080797Y-73085900D01*
X132080797Y-73085900D02*
X132147464Y-73219233D01*
X132147464Y-73219233D02*
X132214131Y-73285900D01*
X132214131Y-73285900D02*
X132347464Y-73352566D01*
X132347464Y-73352566D02*
X132614131Y-73352566D01*
X132614131Y-73352566D02*
X132747464Y-73285900D01*
X132747464Y-73285900D02*
X132814131Y-73219233D01*
X132814131Y-73219233D02*
X132880797Y-73085900D01*
X132880797Y-73085900D02*
X132880797Y-72752566D01*
X132880797Y-72752566D02*
X132814131Y-72619233D01*
X132814131Y-72619233D02*
X132747464Y-72552566D01*
X132747464Y-72552566D02*
X132614131Y-72485900D01*
X132614131Y-72485900D02*
X132347464Y-72485900D01*
X132347464Y-72485900D02*
X132214131Y-72552566D01*
X132214131Y-72552566D02*
X132147464Y-72619233D01*
X132147464Y-72619233D02*
X132080797Y-72752566D01*
X141560000Y-129796233D02*
X141760000Y-129862900D01*
X141760000Y-129862900D02*
X141826666Y-129929566D01*
X141826666Y-129929566D02*
X141893333Y-130062900D01*
X141893333Y-130062900D02*
X141893333Y-130262900D01*
X141893333Y-130262900D02*
X141826666Y-130396233D01*
X141826666Y-130396233D02*
X141760000Y-130462900D01*
X141760000Y-130462900D02*
X141626666Y-130529566D01*
X141626666Y-130529566D02*
X141093333Y-130529566D01*
X141093333Y-130529566D02*
X141093333Y-129129566D01*
X141093333Y-129129566D02*
X141560000Y-129129566D01*
X141560000Y-129129566D02*
X141693333Y-129196233D01*
X141693333Y-129196233D02*
X141760000Y-129262900D01*
X141760000Y-129262900D02*
X141826666Y-129396233D01*
X141826666Y-129396233D02*
X141826666Y-129529566D01*
X141826666Y-129529566D02*
X141760000Y-129662900D01*
X141760000Y-129662900D02*
X141693333Y-129729566D01*
X141693333Y-129729566D02*
X141560000Y-129796233D01*
X141560000Y-129796233D02*
X141093333Y-129796233D01*
X151111000Y-111452566D02*
X151111000Y-110052566D01*
X151111000Y-110719233D02*
X151911000Y-110719233D01*
X151911000Y-111452566D02*
X151911000Y-110052566D01*
X132700666Y-110119233D02*
X132567333Y-110052566D01*
X132567333Y-110052566D02*
X132367333Y-110052566D01*
X132367333Y-110052566D02*
X132167333Y-110119233D01*
X132167333Y-110119233D02*
X132034000Y-110252566D01*
X132034000Y-110252566D02*
X131967333Y-110385900D01*
X131967333Y-110385900D02*
X131900666Y-110652566D01*
X131900666Y-110652566D02*
X131900666Y-110852566D01*
X131900666Y-110852566D02*
X131967333Y-111119233D01*
X131967333Y-111119233D02*
X132034000Y-111252566D01*
X132034000Y-111252566D02*
X132167333Y-111385900D01*
X132167333Y-111385900D02*
X132367333Y-111452566D01*
X132367333Y-111452566D02*
X132500666Y-111452566D01*
X132500666Y-111452566D02*
X132700666Y-111385900D01*
X132700666Y-111385900D02*
X132767333Y-111319233D01*
X132767333Y-111319233D02*
X132767333Y-110852566D01*
X132767333Y-110852566D02*
X132500666Y-110852566D01*
X170447464Y-72552566D02*
X170314131Y-72485900D01*
X170314131Y-72485900D02*
X170247464Y-72419233D01*
X170247464Y-72419233D02*
X170180797Y-72285900D01*
X170180797Y-72285900D02*
X170180797Y-72219233D01*
X170180797Y-72219233D02*
X170247464Y-72085900D01*
X170247464Y-72085900D02*
X170314131Y-72019233D01*
X170314131Y-72019233D02*
X170447464Y-71952566D01*
X170447464Y-71952566D02*
X170714131Y-71952566D01*
X170714131Y-71952566D02*
X170847464Y-72019233D01*
X170847464Y-72019233D02*
X170914131Y-72085900D01*
X170914131Y-72085900D02*
X170980797Y-72219233D01*
X170980797Y-72219233D02*
X170980797Y-72285900D01*
X170980797Y-72285900D02*
X170914131Y-72419233D01*
X170914131Y-72419233D02*
X170847464Y-72485900D01*
X170847464Y-72485900D02*
X170714131Y-72552566D01*
X170714131Y-72552566D02*
X170447464Y-72552566D01*
X170447464Y-72552566D02*
X170314131Y-72619233D01*
X170314131Y-72619233D02*
X170247464Y-72685900D01*
X170247464Y-72685900D02*
X170180797Y-72819233D01*
X170180797Y-72819233D02*
X170180797Y-73085900D01*
X170180797Y-73085900D02*
X170247464Y-73219233D01*
X170247464Y-73219233D02*
X170314131Y-73285900D01*
X170314131Y-73285900D02*
X170447464Y-73352566D01*
X170447464Y-73352566D02*
X170714131Y-73352566D01*
X170714131Y-73352566D02*
X170847464Y-73285900D01*
X170847464Y-73285900D02*
X170914131Y-73219233D01*
X170914131Y-73219233D02*
X170980797Y-73085900D01*
X170980797Y-73085900D02*
X170980797Y-72819233D01*
X170980797Y-72819233D02*
X170914131Y-72685900D01*
X170914131Y-72685900D02*
X170847464Y-72619233D01*
X170847464Y-72619233D02*
X170714131Y-72552566D01*
X238217000Y-129035900D02*
X237017000Y-130835900D01*
X321153666Y-149546233D02*
X321086999Y-149612900D01*
X321086999Y-149612900D02*
X320886999Y-149679566D01*
X320886999Y-149679566D02*
X320753666Y-149679566D01*
X320753666Y-149679566D02*
X320553666Y-149612900D01*
X320553666Y-149612900D02*
X320420333Y-149479566D01*
X320420333Y-149479566D02*
X320353666Y-149346233D01*
X320353666Y-149346233D02*
X320286999Y-149079566D01*
X320286999Y-149079566D02*
X320286999Y-148879566D01*
X320286999Y-148879566D02*
X320353666Y-148612900D01*
X320353666Y-148612900D02*
X320420333Y-148479566D01*
X320420333Y-148479566D02*
X320553666Y-148346233D01*
X320553666Y-148346233D02*
X320753666Y-148279566D01*
X320753666Y-148279566D02*
X320886999Y-148279566D01*
X320886999Y-148279566D02*
X321086999Y-148346233D01*
X321086999Y-148346233D02*
X321153666Y-148412900D01*
X321753666Y-148279566D02*
X321753666Y-149412900D01*
X321753666Y-149412900D02*
X321820333Y-149546233D01*
X321820333Y-149546233D02*
X321886999Y-149612900D01*
X321886999Y-149612900D02*
X322020333Y-149679566D01*
X322020333Y-149679566D02*
X322286999Y-149679566D01*
X322286999Y-149679566D02*
X322420333Y-149612900D01*
X322420333Y-149612900D02*
X322486999Y-149546233D01*
X322486999Y-149546233D02*
X322553666Y-149412900D01*
X322553666Y-149412900D02*
X322553666Y-148279566D01*
X324020333Y-149679566D02*
X323553666Y-149012900D01*
X323220333Y-149679566D02*
X323220333Y-148279566D01*
X323220333Y-148279566D02*
X323753666Y-148279566D01*
X323753666Y-148279566D02*
X323887000Y-148346233D01*
X323887000Y-148346233D02*
X323953666Y-148412900D01*
X323953666Y-148412900D02*
X324020333Y-148546233D01*
X324020333Y-148546233D02*
X324020333Y-148746233D01*
X324020333Y-148746233D02*
X323953666Y-148879566D01*
X323953666Y-148879566D02*
X323887000Y-148946233D01*
X323887000Y-148946233D02*
X323753666Y-149012900D01*
X323753666Y-149012900D02*
X323220333Y-149012900D01*
X324553666Y-149612900D02*
X324753666Y-149679566D01*
X324753666Y-149679566D02*
X325087000Y-149679566D01*
X325087000Y-149679566D02*
X325220333Y-149612900D01*
X325220333Y-149612900D02*
X325287000Y-149546233D01*
X325287000Y-149546233D02*
X325353666Y-149412900D01*
X325353666Y-149412900D02*
X325353666Y-149279566D01*
X325353666Y-149279566D02*
X325287000Y-149146233D01*
X325287000Y-149146233D02*
X325220333Y-149079566D01*
X325220333Y-149079566D02*
X325087000Y-149012900D01*
X325087000Y-149012900D02*
X324820333Y-148946233D01*
X324820333Y-148946233D02*
X324687000Y-148879566D01*
X324687000Y-148879566D02*
X324620333Y-148812900D01*
X324620333Y-148812900D02*
X324553666Y-148679566D01*
X324553666Y-148679566D02*
X324553666Y-148546233D01*
X324553666Y-148546233D02*
X324620333Y-148412900D01*
X324620333Y-148412900D02*
X324687000Y-148346233D01*
X324687000Y-148346233D02*
X324820333Y-148279566D01*
X324820333Y-148279566D02*
X325153666Y-148279566D01*
X325153666Y-148279566D02*
X325353666Y-148346233D01*
X326220333Y-148279566D02*
X326486999Y-148279566D01*
X326486999Y-148279566D02*
X326620333Y-148346233D01*
X326620333Y-148346233D02*
X326753666Y-148479566D01*
X326753666Y-148479566D02*
X326820333Y-148746233D01*
X326820333Y-148746233D02*
X326820333Y-149212900D01*
X326820333Y-149212900D02*
X326753666Y-149479566D01*
X326753666Y-149479566D02*
X326620333Y-149612900D01*
X326620333Y-149612900D02*
X326486999Y-149679566D01*
X326486999Y-149679566D02*
X326220333Y-149679566D01*
X326220333Y-149679566D02*
X326086999Y-149612900D01*
X326086999Y-149612900D02*
X325953666Y-149479566D01*
X325953666Y-149479566D02*
X325886999Y-149212900D01*
X325886999Y-149212900D02*
X325886999Y-148746233D01*
X325886999Y-148746233D02*
X325953666Y-148479566D01*
X325953666Y-148479566D02*
X326086999Y-148346233D01*
X326086999Y-148346233D02*
X326220333Y-148279566D01*
X328220333Y-149679566D02*
X327753666Y-149012900D01*
X327420333Y-149679566D02*
X327420333Y-148279566D01*
X327420333Y-148279566D02*
X327953666Y-148279566D01*
X327953666Y-148279566D02*
X328087000Y-148346233D01*
X328087000Y-148346233D02*
X328153666Y-148412900D01*
X328153666Y-148412900D02*
X328220333Y-148546233D01*
X328220333Y-148546233D02*
X328220333Y-148746233D01*
X328220333Y-148746233D02*
X328153666Y-148879566D01*
X328153666Y-148879566D02*
X328087000Y-148946233D01*
X328087000Y-148946233D02*
X327953666Y-149012900D01*
X327953666Y-149012900D02*
X327420333Y-149012900D01*
X330687000Y-149679566D02*
X330220333Y-149012900D01*
X329887000Y-149679566D02*
X329887000Y-148279566D01*
X329887000Y-148279566D02*
X330420333Y-148279566D01*
X330420333Y-148279566D02*
X330553667Y-148346233D01*
X330553667Y-148346233D02*
X330620333Y-148412900D01*
X330620333Y-148412900D02*
X330687000Y-148546233D01*
X330687000Y-148546233D02*
X330687000Y-148746233D01*
X330687000Y-148746233D02*
X330620333Y-148879566D01*
X330620333Y-148879566D02*
X330553667Y-148946233D01*
X330553667Y-148946233D02*
X330420333Y-149012900D01*
X330420333Y-149012900D02*
X329887000Y-149012900D01*
X331287000Y-149679566D02*
X331287000Y-148279566D01*
X332687000Y-148346233D02*
X332553667Y-148279566D01*
X332553667Y-148279566D02*
X332353667Y-148279566D01*
X332353667Y-148279566D02*
X332153667Y-148346233D01*
X332153667Y-148346233D02*
X332020334Y-148479566D01*
X332020334Y-148479566D02*
X331953667Y-148612900D01*
X331953667Y-148612900D02*
X331887000Y-148879566D01*
X331887000Y-148879566D02*
X331887000Y-149079566D01*
X331887000Y-149079566D02*
X331953667Y-149346233D01*
X331953667Y-149346233D02*
X332020334Y-149479566D01*
X332020334Y-149479566D02*
X332153667Y-149612900D01*
X332153667Y-149612900D02*
X332353667Y-149679566D01*
X332353667Y-149679566D02*
X332487000Y-149679566D01*
X332487000Y-149679566D02*
X332687000Y-149612900D01*
X332687000Y-149612900D02*
X332753667Y-149546233D01*
X332753667Y-149546233D02*
X332753667Y-149079566D01*
X332753667Y-149079566D02*
X332487000Y-149079566D01*
X333353667Y-149679566D02*
X333353667Y-148279566D01*
X333353667Y-148946233D02*
X334153667Y-148946233D01*
X334153667Y-149679566D02*
X334153667Y-148279566D01*
X334620334Y-148279566D02*
X335420334Y-148279566D01*
X335020334Y-149679566D02*
X335020334Y-148279566D01*
X264211000Y-72946233D02*
X265277667Y-72946233D01*
X264744333Y-73479566D02*
X264744333Y-72412900D01*
X266944333Y-72012900D02*
X265744333Y-73812900D01*
X267477667Y-73412900D02*
X267477667Y-73479566D01*
X267477667Y-73479566D02*
X267411000Y-73612900D01*
X267411000Y-73612900D02*
X267344333Y-73679566D01*
X267411000Y-72612900D02*
X267477667Y-72679566D01*
X267477667Y-72679566D02*
X267411000Y-72746233D01*
X267411000Y-72746233D02*
X267344333Y-72679566D01*
X267344333Y-72679566D02*
X267411000Y-72612900D01*
X267411000Y-72612900D02*
X267411000Y-72746233D01*
X47269333Y-92535900D02*
X47136000Y-92469233D01*
X47136000Y-92469233D02*
X47002667Y-92335900D01*
X47002667Y-92335900D02*
X46802667Y-92135900D01*
X46802667Y-92135900D02*
X46669333Y-92069233D01*
X46669333Y-92069233D02*
X46536000Y-92069233D01*
X46602667Y-92402566D02*
X46469333Y-92335900D01*
X46469333Y-92335900D02*
X46336000Y-92202566D01*
X46336000Y-92202566D02*
X46269333Y-91935900D01*
X46269333Y-91935900D02*
X46269333Y-91469233D01*
X46269333Y-91469233D02*
X46336000Y-91202566D01*
X46336000Y-91202566D02*
X46469333Y-91069233D01*
X46469333Y-91069233D02*
X46602667Y-91002566D01*
X46602667Y-91002566D02*
X46869333Y-91002566D01*
X46869333Y-91002566D02*
X47002667Y-91069233D01*
X47002667Y-91069233D02*
X47136000Y-91202566D01*
X47136000Y-91202566D02*
X47202667Y-91469233D01*
X47202667Y-91469233D02*
X47202667Y-91935900D01*
X47202667Y-91935900D02*
X47136000Y-92202566D01*
X47136000Y-92202566D02*
X47002667Y-92335900D01*
X47002667Y-92335900D02*
X46869333Y-92402566D01*
X46869333Y-92402566D02*
X46602667Y-92402566D01*
X199002667Y-91002566D02*
X199269333Y-91002566D01*
X199269333Y-91002566D02*
X199402667Y-91069233D01*
X199402667Y-91069233D02*
X199536000Y-91202566D01*
X199536000Y-91202566D02*
X199602667Y-91469233D01*
X199602667Y-91469233D02*
X199602667Y-91935900D01*
X199602667Y-91935900D02*
X199536000Y-92202566D01*
X199536000Y-92202566D02*
X199402667Y-92335900D01*
X199402667Y-92335900D02*
X199269333Y-92402566D01*
X199269333Y-92402566D02*
X199002667Y-92402566D01*
X199002667Y-92402566D02*
X198869333Y-92335900D01*
X198869333Y-92335900D02*
X198736000Y-92202566D01*
X198736000Y-92202566D02*
X198669333Y-91935900D01*
X198669333Y-91935900D02*
X198669333Y-91469233D01*
X198669333Y-91469233D02*
X198736000Y-91202566D01*
X198736000Y-91202566D02*
X198869333Y-91069233D01*
X198869333Y-91069233D02*
X199002667Y-91002566D01*
X180086000Y-92402566D02*
X180086000Y-91002566D01*
X104192333Y-92529566D02*
X103725666Y-91862900D01*
X103392333Y-92529566D02*
X103392333Y-91129566D01*
X103392333Y-91129566D02*
X103925666Y-91129566D01*
X103925666Y-91129566D02*
X104059000Y-91196233D01*
X104059000Y-91196233D02*
X104125666Y-91262900D01*
X104125666Y-91262900D02*
X104192333Y-91396233D01*
X104192333Y-91396233D02*
X104192333Y-91596233D01*
X104192333Y-91596233D02*
X104125666Y-91729566D01*
X104125666Y-91729566D02*
X104059000Y-91796233D01*
X104059000Y-91796233D02*
X103925666Y-91862900D01*
X103925666Y-91862900D02*
X103392333Y-91862900D01*
X37630797Y-73479566D02*
X36830797Y-73479566D01*
X37230797Y-73479566D02*
X37230797Y-72079566D01*
X37230797Y-72079566D02*
X37097464Y-72279566D01*
X37097464Y-72279566D02*
X36964131Y-72412900D01*
X36964131Y-72412900D02*
X36830797Y-72479566D01*
X189645131Y-68379566D02*
X189911797Y-68379566D01*
X189911797Y-68379566D02*
X190045131Y-68312900D01*
X190045131Y-68312900D02*
X190111797Y-68246233D01*
X190111797Y-68246233D02*
X190245131Y-68046233D01*
X190245131Y-68046233D02*
X190311797Y-67779566D01*
X190311797Y-67779566D02*
X190311797Y-67246233D01*
X190311797Y-67246233D02*
X190245131Y-67112900D01*
X190245131Y-67112900D02*
X190178464Y-67046233D01*
X190178464Y-67046233D02*
X190045131Y-66979566D01*
X190045131Y-66979566D02*
X189778464Y-66979566D01*
X189778464Y-66979566D02*
X189645131Y-67046233D01*
X189645131Y-67046233D02*
X189578464Y-67112900D01*
X189578464Y-67112900D02*
X189511797Y-67246233D01*
X189511797Y-67246233D02*
X189511797Y-67579566D01*
X189511797Y-67579566D02*
X189578464Y-67712900D01*
X189578464Y-67712900D02*
X189645131Y-67779566D01*
X189645131Y-67779566D02*
X189778464Y-67846233D01*
X189778464Y-67846233D02*
X190045131Y-67846233D01*
X190045131Y-67846233D02*
X190178464Y-67779566D01*
X190178464Y-67779566D02*
X190245131Y-67712900D01*
X190245131Y-67712900D02*
X190311797Y-67579566D01*
X199075667Y-130562900D02*
X199075667Y-130629566D01*
X199075667Y-130629566D02*
X199009000Y-130762900D01*
X199009000Y-130762900D02*
X198942333Y-130829566D01*
X65186000Y-91129566D02*
X65519333Y-92529566D01*
X65519333Y-92529566D02*
X65786000Y-91529566D01*
X65786000Y-91529566D02*
X66052666Y-92529566D01*
X66052666Y-92529566D02*
X66386000Y-91129566D01*
D10*
X164134977Y-40945639D02*
X164210216Y-40988496D01*
X164210216Y-40988496D02*
X164285454Y-41117068D01*
X164285454Y-41117068D02*
X164285454Y-41202782D01*
X164285454Y-41202782D02*
X164210216Y-41331353D01*
X164210216Y-41331353D02*
X164059739Y-41417068D01*
X164059739Y-41417068D02*
X163909263Y-41459925D01*
X163909263Y-41459925D02*
X163608311Y-41502782D01*
X163608311Y-41502782D02*
X163382596Y-41502782D01*
X163382596Y-41502782D02*
X163081644Y-41459925D01*
X163081644Y-41459925D02*
X162931168Y-41417068D01*
X162931168Y-41417068D02*
X162780692Y-41331353D01*
X162780692Y-41331353D02*
X162705454Y-41202782D01*
X162705454Y-41202782D02*
X162705454Y-41117068D01*
X162705454Y-41117068D02*
X162780692Y-40988496D01*
X162780692Y-40988496D02*
X162855930Y-40945639D01*
X164285454Y-40088496D02*
X164285454Y-40602782D01*
X164285454Y-40345639D02*
X162705454Y-40345639D01*
X162705454Y-40345639D02*
X162931168Y-40431353D01*
X162931168Y-40431353D02*
X163081644Y-40517068D01*
X163081644Y-40517068D02*
X163156882Y-40602782D01*
X162705454Y-39531353D02*
X162705454Y-39445639D01*
X162705454Y-39445639D02*
X162780692Y-39359925D01*
X162780692Y-39359925D02*
X162855930Y-39317068D01*
X162855930Y-39317068D02*
X163006406Y-39274210D01*
X163006406Y-39274210D02*
X163307358Y-39231353D01*
X163307358Y-39231353D02*
X163683549Y-39231353D01*
X163683549Y-39231353D02*
X163984501Y-39274210D01*
X163984501Y-39274210D02*
X164134977Y-39317068D01*
X164134977Y-39317068D02*
X164210216Y-39359925D01*
X164210216Y-39359925D02*
X164285454Y-39445639D01*
X164285454Y-39445639D02*
X164285454Y-39531353D01*
X164285454Y-39531353D02*
X164210216Y-39617068D01*
X164210216Y-39617068D02*
X164134977Y-39659925D01*
X164134977Y-39659925D02*
X163984501Y-39702782D01*
X163984501Y-39702782D02*
X163683549Y-39745639D01*
X163683549Y-39745639D02*
X163307358Y-39745639D01*
X163307358Y-39745639D02*
X163006406Y-39702782D01*
X163006406Y-39702782D02*
X162855930Y-39659925D01*
X162855930Y-39659925D02*
X162780692Y-39617068D01*
X162780692Y-39617068D02*
X162705454Y-39531353D01*
X166678689Y-40945639D02*
X166753928Y-40988496D01*
X166753928Y-40988496D02*
X166829166Y-41117068D01*
X166829166Y-41117068D02*
X166829166Y-41202782D01*
X166829166Y-41202782D02*
X166753928Y-41331353D01*
X166753928Y-41331353D02*
X166603451Y-41417068D01*
X166603451Y-41417068D02*
X166452975Y-41459925D01*
X166452975Y-41459925D02*
X166152023Y-41502782D01*
X166152023Y-41502782D02*
X165926308Y-41502782D01*
X165926308Y-41502782D02*
X165625356Y-41459925D01*
X165625356Y-41459925D02*
X165474880Y-41417068D01*
X165474880Y-41417068D02*
X165324404Y-41331353D01*
X165324404Y-41331353D02*
X165249166Y-41202782D01*
X165249166Y-41202782D02*
X165249166Y-41117068D01*
X165249166Y-41117068D02*
X165324404Y-40988496D01*
X165324404Y-40988496D02*
X165399642Y-40945639D01*
X166829166Y-40517068D02*
X166829166Y-40345639D01*
X166829166Y-40345639D02*
X166753928Y-40259925D01*
X166753928Y-40259925D02*
X166678689Y-40217068D01*
X166678689Y-40217068D02*
X166452975Y-40131353D01*
X166452975Y-40131353D02*
X166152023Y-40088496D01*
X166152023Y-40088496D02*
X165550118Y-40088496D01*
X165550118Y-40088496D02*
X165399642Y-40131353D01*
X165399642Y-40131353D02*
X165324404Y-40174211D01*
X165324404Y-40174211D02*
X165249166Y-40259925D01*
X165249166Y-40259925D02*
X165249166Y-40431353D01*
X165249166Y-40431353D02*
X165324404Y-40517068D01*
X165324404Y-40517068D02*
X165399642Y-40559925D01*
X165399642Y-40559925D02*
X165550118Y-40602782D01*
X165550118Y-40602782D02*
X165926308Y-40602782D01*
X165926308Y-40602782D02*
X166076785Y-40559925D01*
X166076785Y-40559925D02*
X166152023Y-40517068D01*
X166152023Y-40517068D02*
X166227261Y-40431353D01*
X166227261Y-40431353D02*
X166227261Y-40259925D01*
X166227261Y-40259925D02*
X166152023Y-40174211D01*
X166152023Y-40174211D02*
X166076785Y-40131353D01*
X166076785Y-40131353D02*
X165926308Y-40088496D01*
X169222401Y-40945639D02*
X169297640Y-40988496D01*
X169297640Y-40988496D02*
X169372878Y-41117068D01*
X169372878Y-41117068D02*
X169372878Y-41202782D01*
X169372878Y-41202782D02*
X169297640Y-41331353D01*
X169297640Y-41331353D02*
X169147163Y-41417068D01*
X169147163Y-41417068D02*
X168996687Y-41459925D01*
X168996687Y-41459925D02*
X168695735Y-41502782D01*
X168695735Y-41502782D02*
X168470020Y-41502782D01*
X168470020Y-41502782D02*
X168169068Y-41459925D01*
X168169068Y-41459925D02*
X168018592Y-41417068D01*
X168018592Y-41417068D02*
X167868116Y-41331353D01*
X167868116Y-41331353D02*
X167792878Y-41202782D01*
X167792878Y-41202782D02*
X167792878Y-41117068D01*
X167792878Y-41117068D02*
X167868116Y-40988496D01*
X167868116Y-40988496D02*
X167943354Y-40945639D01*
X168470020Y-40431353D02*
X168394782Y-40517068D01*
X168394782Y-40517068D02*
X168319544Y-40559925D01*
X168319544Y-40559925D02*
X168169068Y-40602782D01*
X168169068Y-40602782D02*
X168093830Y-40602782D01*
X168093830Y-40602782D02*
X167943354Y-40559925D01*
X167943354Y-40559925D02*
X167868116Y-40517068D01*
X167868116Y-40517068D02*
X167792878Y-40431353D01*
X167792878Y-40431353D02*
X167792878Y-40259925D01*
X167792878Y-40259925D02*
X167868116Y-40174211D01*
X167868116Y-40174211D02*
X167943354Y-40131353D01*
X167943354Y-40131353D02*
X168093830Y-40088496D01*
X168093830Y-40088496D02*
X168169068Y-40088496D01*
X168169068Y-40088496D02*
X168319544Y-40131353D01*
X168319544Y-40131353D02*
X168394782Y-40174211D01*
X168394782Y-40174211D02*
X168470020Y-40259925D01*
X168470020Y-40259925D02*
X168470020Y-40431353D01*
X168470020Y-40431353D02*
X168545259Y-40517068D01*
X168545259Y-40517068D02*
X168620497Y-40559925D01*
X168620497Y-40559925D02*
X168770973Y-40602782D01*
X168770973Y-40602782D02*
X169071925Y-40602782D01*
X169071925Y-40602782D02*
X169222401Y-40559925D01*
X169222401Y-40559925D02*
X169297640Y-40517068D01*
X169297640Y-40517068D02*
X169372878Y-40431353D01*
X169372878Y-40431353D02*
X169372878Y-40259925D01*
X169372878Y-40259925D02*
X169297640Y-40174211D01*
X169297640Y-40174211D02*
X169222401Y-40131353D01*
X169222401Y-40131353D02*
X169071925Y-40088496D01*
X169071925Y-40088496D02*
X168770973Y-40088496D01*
X168770973Y-40088496D02*
X168620497Y-40131353D01*
X168620497Y-40131353D02*
X168545259Y-40174211D01*
X168545259Y-40174211D02*
X168470020Y-40259925D01*
X171766113Y-40945639D02*
X171841352Y-40988496D01*
X171841352Y-40988496D02*
X171916590Y-41117068D01*
X171916590Y-41117068D02*
X171916590Y-41202782D01*
X171916590Y-41202782D02*
X171841352Y-41331353D01*
X171841352Y-41331353D02*
X171690875Y-41417068D01*
X171690875Y-41417068D02*
X171540399Y-41459925D01*
X171540399Y-41459925D02*
X171239447Y-41502782D01*
X171239447Y-41502782D02*
X171013732Y-41502782D01*
X171013732Y-41502782D02*
X170712780Y-41459925D01*
X170712780Y-41459925D02*
X170562304Y-41417068D01*
X170562304Y-41417068D02*
X170411828Y-41331353D01*
X170411828Y-41331353D02*
X170336590Y-41202782D01*
X170336590Y-41202782D02*
X170336590Y-41117068D01*
X170336590Y-41117068D02*
X170411828Y-40988496D01*
X170411828Y-40988496D02*
X170487066Y-40945639D01*
X170336590Y-40645639D02*
X170336590Y-40045639D01*
X170336590Y-40045639D02*
X171916590Y-40431353D01*
X174309825Y-40945639D02*
X174385064Y-40988496D01*
X174385064Y-40988496D02*
X174460302Y-41117068D01*
X174460302Y-41117068D02*
X174460302Y-41202782D01*
X174460302Y-41202782D02*
X174385064Y-41331353D01*
X174385064Y-41331353D02*
X174234587Y-41417068D01*
X174234587Y-41417068D02*
X174084111Y-41459925D01*
X174084111Y-41459925D02*
X173783159Y-41502782D01*
X173783159Y-41502782D02*
X173557444Y-41502782D01*
X173557444Y-41502782D02*
X173256492Y-41459925D01*
X173256492Y-41459925D02*
X173106016Y-41417068D01*
X173106016Y-41417068D02*
X172955540Y-41331353D01*
X172955540Y-41331353D02*
X172880302Y-41202782D01*
X172880302Y-41202782D02*
X172880302Y-41117068D01*
X172880302Y-41117068D02*
X172955540Y-40988496D01*
X172955540Y-40988496D02*
X173030778Y-40945639D01*
X172880302Y-40174211D02*
X172880302Y-40345639D01*
X172880302Y-40345639D02*
X172955540Y-40431353D01*
X172955540Y-40431353D02*
X173030778Y-40474211D01*
X173030778Y-40474211D02*
X173256492Y-40559925D01*
X173256492Y-40559925D02*
X173557444Y-40602782D01*
X173557444Y-40602782D02*
X174159349Y-40602782D01*
X174159349Y-40602782D02*
X174309825Y-40559925D01*
X174309825Y-40559925D02*
X174385064Y-40517068D01*
X174385064Y-40517068D02*
X174460302Y-40431353D01*
X174460302Y-40431353D02*
X174460302Y-40259925D01*
X174460302Y-40259925D02*
X174385064Y-40174211D01*
X174385064Y-40174211D02*
X174309825Y-40131353D01*
X174309825Y-40131353D02*
X174159349Y-40088496D01*
X174159349Y-40088496D02*
X173783159Y-40088496D01*
X173783159Y-40088496D02*
X173632683Y-40131353D01*
X173632683Y-40131353D02*
X173557444Y-40174211D01*
X173557444Y-40174211D02*
X173482206Y-40259925D01*
X173482206Y-40259925D02*
X173482206Y-40431353D01*
X173482206Y-40431353D02*
X173557444Y-40517068D01*
X173557444Y-40517068D02*
X173632683Y-40559925D01*
X173632683Y-40559925D02*
X173783159Y-40602782D01*
X176853537Y-40945639D02*
X176928776Y-40988496D01*
X176928776Y-40988496D02*
X177004014Y-41117068D01*
X177004014Y-41117068D02*
X177004014Y-41202782D01*
X177004014Y-41202782D02*
X176928776Y-41331353D01*
X176928776Y-41331353D02*
X176778299Y-41417068D01*
X176778299Y-41417068D02*
X176627823Y-41459925D01*
X176627823Y-41459925D02*
X176326871Y-41502782D01*
X176326871Y-41502782D02*
X176101156Y-41502782D01*
X176101156Y-41502782D02*
X175800204Y-41459925D01*
X175800204Y-41459925D02*
X175649728Y-41417068D01*
X175649728Y-41417068D02*
X175499252Y-41331353D01*
X175499252Y-41331353D02*
X175424014Y-41202782D01*
X175424014Y-41202782D02*
X175424014Y-41117068D01*
X175424014Y-41117068D02*
X175499252Y-40988496D01*
X175499252Y-40988496D02*
X175574490Y-40945639D01*
X175424014Y-40131353D02*
X175424014Y-40559925D01*
X175424014Y-40559925D02*
X176176395Y-40602782D01*
X176176395Y-40602782D02*
X176101156Y-40559925D01*
X176101156Y-40559925D02*
X176025918Y-40474211D01*
X176025918Y-40474211D02*
X176025918Y-40259925D01*
X176025918Y-40259925D02*
X176101156Y-40174211D01*
X176101156Y-40174211D02*
X176176395Y-40131353D01*
X176176395Y-40131353D02*
X176326871Y-40088496D01*
X176326871Y-40088496D02*
X176703061Y-40088496D01*
X176703061Y-40088496D02*
X176853537Y-40131353D01*
X176853537Y-40131353D02*
X176928776Y-40174211D01*
X176928776Y-40174211D02*
X177004014Y-40259925D01*
X177004014Y-40259925D02*
X177004014Y-40474211D01*
X177004014Y-40474211D02*
X176928776Y-40559925D01*
X176928776Y-40559925D02*
X176853537Y-40602782D01*
X179397249Y-40945639D02*
X179472488Y-40988496D01*
X179472488Y-40988496D02*
X179547726Y-41117068D01*
X179547726Y-41117068D02*
X179547726Y-41202782D01*
X179547726Y-41202782D02*
X179472488Y-41331353D01*
X179472488Y-41331353D02*
X179322011Y-41417068D01*
X179322011Y-41417068D02*
X179171535Y-41459925D01*
X179171535Y-41459925D02*
X178870583Y-41502782D01*
X178870583Y-41502782D02*
X178644868Y-41502782D01*
X178644868Y-41502782D02*
X178343916Y-41459925D01*
X178343916Y-41459925D02*
X178193440Y-41417068D01*
X178193440Y-41417068D02*
X178042964Y-41331353D01*
X178042964Y-41331353D02*
X177967726Y-41202782D01*
X177967726Y-41202782D02*
X177967726Y-41117068D01*
X177967726Y-41117068D02*
X178042964Y-40988496D01*
X178042964Y-40988496D02*
X178118202Y-40945639D01*
X178494392Y-40174211D02*
X179547726Y-40174211D01*
X177892488Y-40388496D02*
X179021059Y-40602782D01*
X179021059Y-40602782D02*
X179021059Y-40045639D01*
X181940961Y-40945639D02*
X182016200Y-40988496D01*
X182016200Y-40988496D02*
X182091438Y-41117068D01*
X182091438Y-41117068D02*
X182091438Y-41202782D01*
X182091438Y-41202782D02*
X182016200Y-41331353D01*
X182016200Y-41331353D02*
X181865723Y-41417068D01*
X181865723Y-41417068D02*
X181715247Y-41459925D01*
X181715247Y-41459925D02*
X181414295Y-41502782D01*
X181414295Y-41502782D02*
X181188580Y-41502782D01*
X181188580Y-41502782D02*
X180887628Y-41459925D01*
X180887628Y-41459925D02*
X180737152Y-41417068D01*
X180737152Y-41417068D02*
X180586676Y-41331353D01*
X180586676Y-41331353D02*
X180511438Y-41202782D01*
X180511438Y-41202782D02*
X180511438Y-41117068D01*
X180511438Y-41117068D02*
X180586676Y-40988496D01*
X180586676Y-40988496D02*
X180661914Y-40945639D01*
X180511438Y-40645639D02*
X180511438Y-40088496D01*
X180511438Y-40088496D02*
X181113342Y-40388496D01*
X181113342Y-40388496D02*
X181113342Y-40259925D01*
X181113342Y-40259925D02*
X181188580Y-40174211D01*
X181188580Y-40174211D02*
X181263819Y-40131353D01*
X181263819Y-40131353D02*
X181414295Y-40088496D01*
X181414295Y-40088496D02*
X181790485Y-40088496D01*
X181790485Y-40088496D02*
X181940961Y-40131353D01*
X181940961Y-40131353D02*
X182016200Y-40174211D01*
X182016200Y-40174211D02*
X182091438Y-40259925D01*
X182091438Y-40259925D02*
X182091438Y-40517068D01*
X182091438Y-40517068D02*
X182016200Y-40602782D01*
X182016200Y-40602782D02*
X181940961Y-40645639D01*
D11*
X64684334Y-129102566D02*
X65617667Y-129102566D01*
X65617667Y-129102566D02*
X64684334Y-130502566D01*
X64684334Y-130502566D02*
X65617667Y-130502566D01*
X84536000Y-91796233D02*
X85002667Y-91796233D01*
X85202667Y-92529566D02*
X84536000Y-92529566D01*
X84536000Y-92529566D02*
X84536000Y-91129566D01*
X84536000Y-91129566D02*
X85202667Y-91129566D01*
X217805000Y-130369233D02*
X217871667Y-130435900D01*
X217871667Y-130435900D02*
X217805000Y-130502566D01*
X217805000Y-130502566D02*
X217738333Y-130435900D01*
X217738333Y-130435900D02*
X217805000Y-130369233D01*
X217805000Y-130369233D02*
X217805000Y-130502566D01*
X308270334Y-91669233D02*
X307803667Y-91669233D01*
X307803667Y-92402566D02*
X307803667Y-91002566D01*
X307803667Y-91002566D02*
X308470334Y-91002566D01*
X308870334Y-91002566D02*
X309737000Y-91002566D01*
X309737000Y-91002566D02*
X309270334Y-91535900D01*
X309270334Y-91535900D02*
X309470334Y-91535900D01*
X309470334Y-91535900D02*
X309603667Y-91602566D01*
X309603667Y-91602566D02*
X309670334Y-91669233D01*
X309670334Y-91669233D02*
X309737000Y-91802566D01*
X309737000Y-91802566D02*
X309737000Y-92135900D01*
X309737000Y-92135900D02*
X309670334Y-92269233D01*
X309670334Y-92269233D02*
X309603667Y-92335900D01*
X309603667Y-92335900D02*
X309470334Y-92402566D01*
X309470334Y-92402566D02*
X309070334Y-92402566D01*
X309070334Y-92402566D02*
X308937000Y-92335900D01*
X308937000Y-92335900D02*
X308870334Y-92269233D01*
X209094334Y-111452566D02*
X208427667Y-111452566D01*
X208427667Y-111452566D02*
X208427667Y-110052566D01*
X93994333Y-111579566D02*
X93994333Y-110179566D01*
X93994333Y-110179566D02*
X94327666Y-110179566D01*
X94327666Y-110179566D02*
X94527666Y-110246233D01*
X94527666Y-110246233D02*
X94661000Y-110379566D01*
X94661000Y-110379566D02*
X94727666Y-110512900D01*
X94727666Y-110512900D02*
X94794333Y-110779566D01*
X94794333Y-110779566D02*
X94794333Y-110979566D01*
X94794333Y-110979566D02*
X94727666Y-111246233D01*
X94727666Y-111246233D02*
X94661000Y-111379566D01*
X94661000Y-111379566D02*
X94527666Y-111512900D01*
X94527666Y-111512900D02*
X94327666Y-111579566D01*
X94327666Y-111579566D02*
X93994333Y-111579566D01*
X94647464Y-72419233D02*
X94647464Y-73352566D01*
X94314131Y-71885900D02*
X93980797Y-72885900D01*
X93980797Y-72885900D02*
X94847464Y-72885900D01*
X302136999Y-149419233D02*
X302070332Y-149485900D01*
X302070332Y-149485900D02*
X301870332Y-149552566D01*
X301870332Y-149552566D02*
X301736999Y-149552566D01*
X301736999Y-149552566D02*
X301536999Y-149485900D01*
X301536999Y-149485900D02*
X301403666Y-149352566D01*
X301403666Y-149352566D02*
X301336999Y-149219233D01*
X301336999Y-149219233D02*
X301270332Y-148952566D01*
X301270332Y-148952566D02*
X301270332Y-148752566D01*
X301270332Y-148752566D02*
X301336999Y-148485900D01*
X301336999Y-148485900D02*
X301403666Y-148352566D01*
X301403666Y-148352566D02*
X301536999Y-148219233D01*
X301536999Y-148219233D02*
X301736999Y-148152566D01*
X301736999Y-148152566D02*
X301870332Y-148152566D01*
X301870332Y-148152566D02*
X302070332Y-148219233D01*
X302070332Y-148219233D02*
X302136999Y-148285900D01*
X302736999Y-148152566D02*
X302736999Y-149285900D01*
X302736999Y-149285900D02*
X302803666Y-149419233D01*
X302803666Y-149419233D02*
X302870332Y-149485900D01*
X302870332Y-149485900D02*
X303003666Y-149552566D01*
X303003666Y-149552566D02*
X303270332Y-149552566D01*
X303270332Y-149552566D02*
X303403666Y-149485900D01*
X303403666Y-149485900D02*
X303470332Y-149419233D01*
X303470332Y-149419233D02*
X303536999Y-149285900D01*
X303536999Y-149285900D02*
X303536999Y-148152566D01*
X305003666Y-149552566D02*
X304536999Y-148885900D01*
X304203666Y-149552566D02*
X304203666Y-148152566D01*
X304203666Y-148152566D02*
X304736999Y-148152566D01*
X304736999Y-148152566D02*
X304870333Y-148219233D01*
X304870333Y-148219233D02*
X304936999Y-148285900D01*
X304936999Y-148285900D02*
X305003666Y-148419233D01*
X305003666Y-148419233D02*
X305003666Y-148619233D01*
X305003666Y-148619233D02*
X304936999Y-148752566D01*
X304936999Y-148752566D02*
X304870333Y-148819233D01*
X304870333Y-148819233D02*
X304736999Y-148885900D01*
X304736999Y-148885900D02*
X304203666Y-148885900D01*
X305536999Y-149485900D02*
X305736999Y-149552566D01*
X305736999Y-149552566D02*
X306070333Y-149552566D01*
X306070333Y-149552566D02*
X306203666Y-149485900D01*
X306203666Y-149485900D02*
X306270333Y-149419233D01*
X306270333Y-149419233D02*
X306336999Y-149285900D01*
X306336999Y-149285900D02*
X306336999Y-149152566D01*
X306336999Y-149152566D02*
X306270333Y-149019233D01*
X306270333Y-149019233D02*
X306203666Y-148952566D01*
X306203666Y-148952566D02*
X306070333Y-148885900D01*
X306070333Y-148885900D02*
X305803666Y-148819233D01*
X305803666Y-148819233D02*
X305670333Y-148752566D01*
X305670333Y-148752566D02*
X305603666Y-148685900D01*
X305603666Y-148685900D02*
X305536999Y-148552566D01*
X305536999Y-148552566D02*
X305536999Y-148419233D01*
X305536999Y-148419233D02*
X305603666Y-148285900D01*
X305603666Y-148285900D02*
X305670333Y-148219233D01*
X305670333Y-148219233D02*
X305803666Y-148152566D01*
X305803666Y-148152566D02*
X306136999Y-148152566D01*
X306136999Y-148152566D02*
X306336999Y-148219233D01*
X307203666Y-148152566D02*
X307470332Y-148152566D01*
X307470332Y-148152566D02*
X307603666Y-148219233D01*
X307603666Y-148219233D02*
X307736999Y-148352566D01*
X307736999Y-148352566D02*
X307803666Y-148619233D01*
X307803666Y-148619233D02*
X307803666Y-149085900D01*
X307803666Y-149085900D02*
X307736999Y-149352566D01*
X307736999Y-149352566D02*
X307603666Y-149485900D01*
X307603666Y-149485900D02*
X307470332Y-149552566D01*
X307470332Y-149552566D02*
X307203666Y-149552566D01*
X307203666Y-149552566D02*
X307070332Y-149485900D01*
X307070332Y-149485900D02*
X306936999Y-149352566D01*
X306936999Y-149352566D02*
X306870332Y-149085900D01*
X306870332Y-149085900D02*
X306870332Y-148619233D01*
X306870332Y-148619233D02*
X306936999Y-148352566D01*
X306936999Y-148352566D02*
X307070332Y-148219233D01*
X307070332Y-148219233D02*
X307203666Y-148152566D01*
X309203666Y-149552566D02*
X308736999Y-148885900D01*
X308403666Y-149552566D02*
X308403666Y-148152566D01*
X308403666Y-148152566D02*
X308936999Y-148152566D01*
X308936999Y-148152566D02*
X309070333Y-148219233D01*
X309070333Y-148219233D02*
X309136999Y-148285900D01*
X309136999Y-148285900D02*
X309203666Y-148419233D01*
X309203666Y-148419233D02*
X309203666Y-148619233D01*
X309203666Y-148619233D02*
X309136999Y-148752566D01*
X309136999Y-148752566D02*
X309070333Y-148819233D01*
X309070333Y-148819233D02*
X308936999Y-148885900D01*
X308936999Y-148885900D02*
X308403666Y-148885900D01*
X310870333Y-149552566D02*
X310870333Y-148152566D01*
X310870333Y-148152566D02*
X311203666Y-148152566D01*
X311203666Y-148152566D02*
X311403666Y-148219233D01*
X311403666Y-148219233D02*
X311537000Y-148352566D01*
X311537000Y-148352566D02*
X311603666Y-148485900D01*
X311603666Y-148485900D02*
X311670333Y-148752566D01*
X311670333Y-148752566D02*
X311670333Y-148952566D01*
X311670333Y-148952566D02*
X311603666Y-149219233D01*
X311603666Y-149219233D02*
X311537000Y-149352566D01*
X311537000Y-149352566D02*
X311403666Y-149485900D01*
X311403666Y-149485900D02*
X311203666Y-149552566D01*
X311203666Y-149552566D02*
X310870333Y-149552566D01*
X312537000Y-148152566D02*
X312803666Y-148152566D01*
X312803666Y-148152566D02*
X312937000Y-148219233D01*
X312937000Y-148219233D02*
X313070333Y-148352566D01*
X313070333Y-148352566D02*
X313137000Y-148619233D01*
X313137000Y-148619233D02*
X313137000Y-149085900D01*
X313137000Y-149085900D02*
X313070333Y-149352566D01*
X313070333Y-149352566D02*
X312937000Y-149485900D01*
X312937000Y-149485900D02*
X312803666Y-149552566D01*
X312803666Y-149552566D02*
X312537000Y-149552566D01*
X312537000Y-149552566D02*
X312403666Y-149485900D01*
X312403666Y-149485900D02*
X312270333Y-149352566D01*
X312270333Y-149352566D02*
X312203666Y-149085900D01*
X312203666Y-149085900D02*
X312203666Y-148619233D01*
X312203666Y-148619233D02*
X312270333Y-148352566D01*
X312270333Y-148352566D02*
X312403666Y-148219233D01*
X312403666Y-148219233D02*
X312537000Y-148152566D01*
X313603667Y-148152566D02*
X313937000Y-149552566D01*
X313937000Y-149552566D02*
X314203667Y-148552566D01*
X314203667Y-148552566D02*
X314470333Y-149552566D01*
X314470333Y-149552566D02*
X314803667Y-148152566D01*
X315337000Y-149552566D02*
X315337000Y-148152566D01*
X315337000Y-148152566D02*
X316137000Y-149552566D01*
X316137000Y-149552566D02*
X316137000Y-148152566D01*
X151445131Y-72079566D02*
X152378464Y-72079566D01*
X152378464Y-72079566D02*
X151778464Y-73479566D01*
X189364131Y-73479566D02*
X189630797Y-73479566D01*
X189630797Y-73479566D02*
X189764131Y-73412900D01*
X189764131Y-73412900D02*
X189830797Y-73346233D01*
X189830797Y-73346233D02*
X189964131Y-73146233D01*
X189964131Y-73146233D02*
X190030797Y-72879566D01*
X190030797Y-72879566D02*
X190030797Y-72346233D01*
X190030797Y-72346233D02*
X189964131Y-72212900D01*
X189964131Y-72212900D02*
X189897464Y-72146233D01*
X189897464Y-72146233D02*
X189764131Y-72079566D01*
X189764131Y-72079566D02*
X189497464Y-72079566D01*
X189497464Y-72079566D02*
X189364131Y-72146233D01*
X189364131Y-72146233D02*
X189297464Y-72212900D01*
X189297464Y-72212900D02*
X189230797Y-72346233D01*
X189230797Y-72346233D02*
X189230797Y-72679566D01*
X189230797Y-72679566D02*
X189297464Y-72812900D01*
X189297464Y-72812900D02*
X189364131Y-72879566D01*
X189364131Y-72879566D02*
X189497464Y-72946233D01*
X189497464Y-72946233D02*
X189764131Y-72946233D01*
X189764131Y-72946233D02*
X189897464Y-72879566D01*
X189897464Y-72879566D02*
X189964131Y-72812900D01*
X189964131Y-72812900D02*
X190030797Y-72679566D01*
D10*
X164315454Y-53652782D02*
X163563073Y-54052782D01*
X164315454Y-54338496D02*
X162735454Y-54338496D01*
X162735454Y-54338496D02*
X162735454Y-53881353D01*
X162735454Y-53881353D02*
X162810692Y-53767068D01*
X162810692Y-53767068D02*
X162885930Y-53709925D01*
X162885930Y-53709925D02*
X163036406Y-53652782D01*
X163036406Y-53652782D02*
X163262120Y-53652782D01*
X163262120Y-53652782D02*
X163412596Y-53709925D01*
X163412596Y-53709925D02*
X163487835Y-53767068D01*
X163487835Y-53767068D02*
X163563073Y-53881353D01*
X163563073Y-53881353D02*
X163563073Y-54338496D01*
X164315454Y-52509925D02*
X164315454Y-53195639D01*
X164315454Y-52852782D02*
X162735454Y-52852782D01*
X162735454Y-52852782D02*
X162961168Y-52967068D01*
X162961168Y-52967068D02*
X163111644Y-53081353D01*
X163111644Y-53081353D02*
X163186882Y-53195639D01*
X166859166Y-53652782D02*
X166106785Y-54052782D01*
X166859166Y-54338496D02*
X165279166Y-54338496D01*
X165279166Y-54338496D02*
X165279166Y-53881353D01*
X165279166Y-53881353D02*
X165354404Y-53767068D01*
X165354404Y-53767068D02*
X165429642Y-53709925D01*
X165429642Y-53709925D02*
X165580118Y-53652782D01*
X165580118Y-53652782D02*
X165805832Y-53652782D01*
X165805832Y-53652782D02*
X165956308Y-53709925D01*
X165956308Y-53709925D02*
X166031547Y-53767068D01*
X166031547Y-53767068D02*
X166106785Y-53881353D01*
X166106785Y-53881353D02*
X166106785Y-54338496D01*
X165429642Y-53195639D02*
X165354404Y-53138496D01*
X165354404Y-53138496D02*
X165279166Y-53024211D01*
X165279166Y-53024211D02*
X165279166Y-52738496D01*
X165279166Y-52738496D02*
X165354404Y-52624211D01*
X165354404Y-52624211D02*
X165429642Y-52567068D01*
X165429642Y-52567068D02*
X165580118Y-52509925D01*
X165580118Y-52509925D02*
X165730594Y-52509925D01*
X165730594Y-52509925D02*
X165956308Y-52567068D01*
X165956308Y-52567068D02*
X166859166Y-53252782D01*
X166859166Y-53252782D02*
X166859166Y-52509925D01*
X169402878Y-53652782D02*
X168650497Y-54052782D01*
X169402878Y-54338496D02*
X167822878Y-54338496D01*
X167822878Y-54338496D02*
X167822878Y-53881353D01*
X167822878Y-53881353D02*
X167898116Y-53767068D01*
X167898116Y-53767068D02*
X167973354Y-53709925D01*
X167973354Y-53709925D02*
X168123830Y-53652782D01*
X168123830Y-53652782D02*
X168349544Y-53652782D01*
X168349544Y-53652782D02*
X168500020Y-53709925D01*
X168500020Y-53709925D02*
X168575259Y-53767068D01*
X168575259Y-53767068D02*
X168650497Y-53881353D01*
X168650497Y-53881353D02*
X168650497Y-54338496D01*
X167822878Y-53252782D02*
X167822878Y-52509925D01*
X167822878Y-52509925D02*
X168424782Y-52909925D01*
X168424782Y-52909925D02*
X168424782Y-52738496D01*
X168424782Y-52738496D02*
X168500020Y-52624211D01*
X168500020Y-52624211D02*
X168575259Y-52567068D01*
X168575259Y-52567068D02*
X168725735Y-52509925D01*
X168725735Y-52509925D02*
X169101925Y-52509925D01*
X169101925Y-52509925D02*
X169252401Y-52567068D01*
X169252401Y-52567068D02*
X169327640Y-52624211D01*
X169327640Y-52624211D02*
X169402878Y-52738496D01*
X169402878Y-52738496D02*
X169402878Y-53081353D01*
X169402878Y-53081353D02*
X169327640Y-53195639D01*
X169327640Y-53195639D02*
X169252401Y-53252782D01*
X171946590Y-53652782D02*
X171194209Y-54052782D01*
X171946590Y-54338496D02*
X170366590Y-54338496D01*
X170366590Y-54338496D02*
X170366590Y-53881353D01*
X170366590Y-53881353D02*
X170441828Y-53767068D01*
X170441828Y-53767068D02*
X170517066Y-53709925D01*
X170517066Y-53709925D02*
X170667542Y-53652782D01*
X170667542Y-53652782D02*
X170893256Y-53652782D01*
X170893256Y-53652782D02*
X171043732Y-53709925D01*
X171043732Y-53709925D02*
X171118971Y-53767068D01*
X171118971Y-53767068D02*
X171194209Y-53881353D01*
X171194209Y-53881353D02*
X171194209Y-54338496D01*
X170893256Y-52624211D02*
X171946590Y-52624211D01*
X170291352Y-52909925D02*
X171419923Y-53195639D01*
X171419923Y-53195639D02*
X171419923Y-52452782D01*
X174490302Y-53652782D02*
X173737921Y-54052782D01*
X174490302Y-54338496D02*
X172910302Y-54338496D01*
X172910302Y-54338496D02*
X172910302Y-53881353D01*
X172910302Y-53881353D02*
X172985540Y-53767068D01*
X172985540Y-53767068D02*
X173060778Y-53709925D01*
X173060778Y-53709925D02*
X173211254Y-53652782D01*
X173211254Y-53652782D02*
X173436968Y-53652782D01*
X173436968Y-53652782D02*
X173587444Y-53709925D01*
X173587444Y-53709925D02*
X173662683Y-53767068D01*
X173662683Y-53767068D02*
X173737921Y-53881353D01*
X173737921Y-53881353D02*
X173737921Y-54338496D01*
X172910302Y-52567068D02*
X172910302Y-53138496D01*
X172910302Y-53138496D02*
X173662683Y-53195639D01*
X173662683Y-53195639D02*
X173587444Y-53138496D01*
X173587444Y-53138496D02*
X173512206Y-53024211D01*
X173512206Y-53024211D02*
X173512206Y-52738496D01*
X173512206Y-52738496D02*
X173587444Y-52624211D01*
X173587444Y-52624211D02*
X173662683Y-52567068D01*
X173662683Y-52567068D02*
X173813159Y-52509925D01*
X173813159Y-52509925D02*
X174189349Y-52509925D01*
X174189349Y-52509925D02*
X174339825Y-52567068D01*
X174339825Y-52567068D02*
X174415064Y-52624211D01*
X174415064Y-52624211D02*
X174490302Y-52738496D01*
X174490302Y-52738496D02*
X174490302Y-53024211D01*
X174490302Y-53024211D02*
X174415064Y-53138496D01*
X174415064Y-53138496D02*
X174339825Y-53195639D01*
X177034014Y-53652782D02*
X176281633Y-54052782D01*
X177034014Y-54338496D02*
X175454014Y-54338496D01*
X175454014Y-54338496D02*
X175454014Y-53881353D01*
X175454014Y-53881353D02*
X175529252Y-53767068D01*
X175529252Y-53767068D02*
X175604490Y-53709925D01*
X175604490Y-53709925D02*
X175754966Y-53652782D01*
X175754966Y-53652782D02*
X175980680Y-53652782D01*
X175980680Y-53652782D02*
X176131156Y-53709925D01*
X176131156Y-53709925D02*
X176206395Y-53767068D01*
X176206395Y-53767068D02*
X176281633Y-53881353D01*
X176281633Y-53881353D02*
X176281633Y-54338496D01*
X175454014Y-52624211D02*
X175454014Y-52852782D01*
X175454014Y-52852782D02*
X175529252Y-52967068D01*
X175529252Y-52967068D02*
X175604490Y-53024211D01*
X175604490Y-53024211D02*
X175830204Y-53138496D01*
X175830204Y-53138496D02*
X176131156Y-53195639D01*
X176131156Y-53195639D02*
X176733061Y-53195639D01*
X176733061Y-53195639D02*
X176883537Y-53138496D01*
X176883537Y-53138496D02*
X176958776Y-53081353D01*
X176958776Y-53081353D02*
X177034014Y-52967068D01*
X177034014Y-52967068D02*
X177034014Y-52738496D01*
X177034014Y-52738496D02*
X176958776Y-52624211D01*
X176958776Y-52624211D02*
X176883537Y-52567068D01*
X176883537Y-52567068D02*
X176733061Y-52509925D01*
X176733061Y-52509925D02*
X176356871Y-52509925D01*
X176356871Y-52509925D02*
X176206395Y-52567068D01*
X176206395Y-52567068D02*
X176131156Y-52624211D01*
X176131156Y-52624211D02*
X176055918Y-52738496D01*
X176055918Y-52738496D02*
X176055918Y-52967068D01*
X176055918Y-52967068D02*
X176131156Y-53081353D01*
X176131156Y-53081353D02*
X176206395Y-53138496D01*
X176206395Y-53138496D02*
X176356871Y-53195639D01*
X179427249Y-53652782D02*
X179502488Y-53709925D01*
X179502488Y-53709925D02*
X179577726Y-53881353D01*
X179577726Y-53881353D02*
X179577726Y-53995639D01*
X179577726Y-53995639D02*
X179502488Y-54167068D01*
X179502488Y-54167068D02*
X179352011Y-54281353D01*
X179352011Y-54281353D02*
X179201535Y-54338496D01*
X179201535Y-54338496D02*
X178900583Y-54395639D01*
X178900583Y-54395639D02*
X178674868Y-54395639D01*
X178674868Y-54395639D02*
X178373916Y-54338496D01*
X178373916Y-54338496D02*
X178223440Y-54281353D01*
X178223440Y-54281353D02*
X178072964Y-54167068D01*
X178072964Y-54167068D02*
X177997726Y-53995639D01*
X177997726Y-53995639D02*
X177997726Y-53881353D01*
X177997726Y-53881353D02*
X178072964Y-53709925D01*
X178072964Y-53709925D02*
X178148202Y-53652782D01*
X179577726Y-52509925D02*
X179577726Y-53195639D01*
X179577726Y-52852782D02*
X177997726Y-52852782D01*
X177997726Y-52852782D02*
X178223440Y-52967068D01*
X178223440Y-52967068D02*
X178373916Y-53081353D01*
X178373916Y-53081353D02*
X178449154Y-53195639D01*
X181970961Y-53652782D02*
X182046200Y-53709925D01*
X182046200Y-53709925D02*
X182121438Y-53881353D01*
X182121438Y-53881353D02*
X182121438Y-53995639D01*
X182121438Y-53995639D02*
X182046200Y-54167068D01*
X182046200Y-54167068D02*
X181895723Y-54281353D01*
X181895723Y-54281353D02*
X181745247Y-54338496D01*
X181745247Y-54338496D02*
X181444295Y-54395639D01*
X181444295Y-54395639D02*
X181218580Y-54395639D01*
X181218580Y-54395639D02*
X180917628Y-54338496D01*
X180917628Y-54338496D02*
X180767152Y-54281353D01*
X180767152Y-54281353D02*
X180616676Y-54167068D01*
X180616676Y-54167068D02*
X180541438Y-53995639D01*
X180541438Y-53995639D02*
X180541438Y-53881353D01*
X180541438Y-53881353D02*
X180616676Y-53709925D01*
X180616676Y-53709925D02*
X180691914Y-53652782D01*
X180691914Y-53195639D02*
X180616676Y-53138496D01*
X180616676Y-53138496D02*
X180541438Y-53024211D01*
X180541438Y-53024211D02*
X180541438Y-52738496D01*
X180541438Y-52738496D02*
X180616676Y-52624211D01*
X180616676Y-52624211D02*
X180691914Y-52567068D01*
X180691914Y-52567068D02*
X180842390Y-52509925D01*
X180842390Y-52509925D02*
X180992866Y-52509925D01*
X180992866Y-52509925D02*
X181218580Y-52567068D01*
X181218580Y-52567068D02*
X182121438Y-53252782D01*
X182121438Y-53252782D02*
X182121438Y-52509925D01*
D11*
X114018131Y-72079566D02*
X113351464Y-72079566D01*
X113351464Y-72079566D02*
X113284797Y-72746233D01*
X113284797Y-72746233D02*
X113351464Y-72679566D01*
X113351464Y-72679566D02*
X113484797Y-72612900D01*
X113484797Y-72612900D02*
X113818131Y-72612900D01*
X113818131Y-72612900D02*
X113951464Y-72679566D01*
X113951464Y-72679566D02*
X114018131Y-72746233D01*
X114018131Y-72746233D02*
X114084797Y-72879566D01*
X114084797Y-72879566D02*
X114084797Y-73212900D01*
X114084797Y-73212900D02*
X114018131Y-73346233D01*
X114018131Y-73346233D02*
X113951464Y-73412900D01*
X113951464Y-73412900D02*
X113818131Y-73479566D01*
X113818131Y-73479566D02*
X113484797Y-73479566D01*
X113484797Y-73479566D02*
X113351464Y-73412900D01*
X113351464Y-73412900D02*
X113284797Y-73346233D01*
X122536000Y-91129566D02*
X123336000Y-91129566D01*
X122936000Y-92529566D02*
X122936000Y-91129566D01*
X217819333Y-92529566D02*
X217819333Y-91129566D01*
X217819333Y-91129566D02*
X218352666Y-91129566D01*
X218352666Y-91129566D02*
X218486000Y-91196233D01*
X218486000Y-91196233D02*
X218552666Y-91262900D01*
X218552666Y-91262900D02*
X218619333Y-91396233D01*
X218619333Y-91396233D02*
X218619333Y-91596233D01*
X218619333Y-91596233D02*
X218552666Y-91729566D01*
X218552666Y-91729566D02*
X218486000Y-91796233D01*
X218486000Y-91796233D02*
X218352666Y-91862900D01*
X218352666Y-91862900D02*
X217819333Y-91862900D01*
X33644333Y-111319233D02*
X33577666Y-111385900D01*
X33577666Y-111385900D02*
X33377666Y-111452566D01*
X33377666Y-111452566D02*
X33244333Y-111452566D01*
X33244333Y-111452566D02*
X33044333Y-111385900D01*
X33044333Y-111385900D02*
X32911000Y-111252566D01*
X32911000Y-111252566D02*
X32844333Y-111119233D01*
X32844333Y-111119233D02*
X32777666Y-110852566D01*
X32777666Y-110852566D02*
X32777666Y-110652566D01*
X32777666Y-110652566D02*
X32844333Y-110385900D01*
X32844333Y-110385900D02*
X32911000Y-110252566D01*
X32911000Y-110252566D02*
X33044333Y-110119233D01*
X33044333Y-110119233D02*
X33244333Y-110052566D01*
X33244333Y-110052566D02*
X33377666Y-110052566D01*
X33377666Y-110052566D02*
X33577666Y-110119233D01*
X33577666Y-110119233D02*
X33644333Y-110185900D01*
X34511000Y-110052566D02*
X34777666Y-110052566D01*
X34777666Y-110052566D02*
X34911000Y-110119233D01*
X34911000Y-110119233D02*
X35044333Y-110252566D01*
X35044333Y-110252566D02*
X35111000Y-110519233D01*
X35111000Y-110519233D02*
X35111000Y-110985900D01*
X35111000Y-110985900D02*
X35044333Y-111252566D01*
X35044333Y-111252566D02*
X34911000Y-111385900D01*
X34911000Y-111385900D02*
X34777666Y-111452566D01*
X34777666Y-111452566D02*
X34511000Y-111452566D01*
X34511000Y-111452566D02*
X34377666Y-111385900D01*
X34377666Y-111385900D02*
X34244333Y-111252566D01*
X34244333Y-111252566D02*
X34177666Y-110985900D01*
X34177666Y-110985900D02*
X34177666Y-110519233D01*
X34177666Y-110519233D02*
X34244333Y-110252566D01*
X34244333Y-110252566D02*
X34377666Y-110119233D01*
X34377666Y-110119233D02*
X34511000Y-110052566D01*
X35711000Y-111452566D02*
X35711000Y-110052566D01*
X35711000Y-110052566D02*
X36511000Y-111452566D01*
X36511000Y-111452566D02*
X36511000Y-110052566D01*
X36977667Y-110052566D02*
X37777667Y-110052566D01*
X37377667Y-111452566D02*
X37377667Y-110052566D01*
X39044334Y-111452566D02*
X38577667Y-110785900D01*
X38244334Y-111452566D02*
X38244334Y-110052566D01*
X38244334Y-110052566D02*
X38777667Y-110052566D01*
X38777667Y-110052566D02*
X38911001Y-110119233D01*
X38911001Y-110119233D02*
X38977667Y-110185900D01*
X38977667Y-110185900D02*
X39044334Y-110319233D01*
X39044334Y-110319233D02*
X39044334Y-110519233D01*
X39044334Y-110519233D02*
X38977667Y-110652566D01*
X38977667Y-110652566D02*
X38911001Y-110719233D01*
X38911001Y-110719233D02*
X38777667Y-110785900D01*
X38777667Y-110785900D02*
X38244334Y-110785900D01*
X39911001Y-110052566D02*
X40177667Y-110052566D01*
X40177667Y-110052566D02*
X40311001Y-110119233D01*
X40311001Y-110119233D02*
X40444334Y-110252566D01*
X40444334Y-110252566D02*
X40511001Y-110519233D01*
X40511001Y-110519233D02*
X40511001Y-110985900D01*
X40511001Y-110985900D02*
X40444334Y-111252566D01*
X40444334Y-111252566D02*
X40311001Y-111385900D01*
X40311001Y-111385900D02*
X40177667Y-111452566D01*
X40177667Y-111452566D02*
X39911001Y-111452566D01*
X39911001Y-111452566D02*
X39777667Y-111385900D01*
X39777667Y-111385900D02*
X39644334Y-111252566D01*
X39644334Y-111252566D02*
X39577667Y-110985900D01*
X39577667Y-110985900D02*
X39577667Y-110519233D01*
X39577667Y-110519233D02*
X39644334Y-110252566D01*
X39644334Y-110252566D02*
X39777667Y-110119233D01*
X39777667Y-110119233D02*
X39911001Y-110052566D01*
X41777668Y-111452566D02*
X41111001Y-111452566D01*
X41111001Y-111452566D02*
X41111001Y-110052566D01*
X162594333Y-148279566D02*
X162327666Y-148279566D01*
X162327666Y-148279566D02*
X162194333Y-148346233D01*
X162194333Y-148346233D02*
X162127666Y-148412900D01*
X162127666Y-148412900D02*
X161994333Y-148612900D01*
X161994333Y-148612900D02*
X161927666Y-148879566D01*
X161927666Y-148879566D02*
X161927666Y-149412900D01*
X161927666Y-149412900D02*
X161994333Y-149546233D01*
X161994333Y-149546233D02*
X162061000Y-149612900D01*
X162061000Y-149612900D02*
X162194333Y-149679566D01*
X162194333Y-149679566D02*
X162461000Y-149679566D01*
X162461000Y-149679566D02*
X162594333Y-149612900D01*
X162594333Y-149612900D02*
X162661000Y-149546233D01*
X162661000Y-149546233D02*
X162727666Y-149412900D01*
X162727666Y-149412900D02*
X162727666Y-149079566D01*
X162727666Y-149079566D02*
X162661000Y-148946233D01*
X162661000Y-148946233D02*
X162594333Y-148879566D01*
X162594333Y-148879566D02*
X162461000Y-148812900D01*
X162461000Y-148812900D02*
X162194333Y-148812900D01*
X162194333Y-148812900D02*
X162061000Y-148879566D01*
X162061000Y-148879566D02*
X161994333Y-148946233D01*
X161994333Y-148946233D02*
X161927666Y-149079566D01*
X163327666Y-149546233D02*
X163394333Y-149612900D01*
X163394333Y-149612900D02*
X163327666Y-149679566D01*
X163327666Y-149679566D02*
X163260999Y-149612900D01*
X163260999Y-149612900D02*
X163327666Y-149546233D01*
X163327666Y-149546233D02*
X163327666Y-149679566D01*
X163927666Y-148412900D02*
X163994333Y-148346233D01*
X163994333Y-148346233D02*
X164127666Y-148279566D01*
X164127666Y-148279566D02*
X164461000Y-148279566D01*
X164461000Y-148279566D02*
X164594333Y-148346233D01*
X164594333Y-148346233D02*
X164661000Y-148412900D01*
X164661000Y-148412900D02*
X164727666Y-148546233D01*
X164727666Y-148546233D02*
X164727666Y-148679566D01*
X164727666Y-148679566D02*
X164661000Y-148879566D01*
X164661000Y-148879566D02*
X163861000Y-149679566D01*
X163861000Y-149679566D02*
X164727666Y-149679566D01*
X165994333Y-148279566D02*
X165327666Y-148279566D01*
X165327666Y-148279566D02*
X165260999Y-148946233D01*
X165260999Y-148946233D02*
X165327666Y-148879566D01*
X165327666Y-148879566D02*
X165460999Y-148812900D01*
X165460999Y-148812900D02*
X165794333Y-148812900D01*
X165794333Y-148812900D02*
X165927666Y-148879566D01*
X165927666Y-148879566D02*
X165994333Y-148946233D01*
X165994333Y-148946233D02*
X166060999Y-149079566D01*
X166060999Y-149079566D02*
X166060999Y-149412900D01*
X166060999Y-149412900D02*
X165994333Y-149546233D01*
X165994333Y-149546233D02*
X165927666Y-149612900D01*
X165927666Y-149612900D02*
X165794333Y-149679566D01*
X165794333Y-149679566D02*
X165460999Y-149679566D01*
X165460999Y-149679566D02*
X165327666Y-149612900D01*
X165327666Y-149612900D02*
X165260999Y-149546233D01*
X166660999Y-148279566D02*
X166660999Y-149412900D01*
X166660999Y-149412900D02*
X166727666Y-149546233D01*
X166727666Y-149546233D02*
X166794332Y-149612900D01*
X166794332Y-149612900D02*
X166927666Y-149679566D01*
X166927666Y-149679566D02*
X167194332Y-149679566D01*
X167194332Y-149679566D02*
X167327666Y-149612900D01*
X167327666Y-149612900D02*
X167394332Y-149546233D01*
X167394332Y-149546233D02*
X167460999Y-149412900D01*
X167460999Y-149412900D02*
X167460999Y-148279566D01*
X169127666Y-149612900D02*
X169327666Y-149679566D01*
X169327666Y-149679566D02*
X169661000Y-149679566D01*
X169661000Y-149679566D02*
X169794333Y-149612900D01*
X169794333Y-149612900D02*
X169861000Y-149546233D01*
X169861000Y-149546233D02*
X169927666Y-149412900D01*
X169927666Y-149412900D02*
X169927666Y-149279566D01*
X169927666Y-149279566D02*
X169861000Y-149146233D01*
X169861000Y-149146233D02*
X169794333Y-149079566D01*
X169794333Y-149079566D02*
X169661000Y-149012900D01*
X169661000Y-149012900D02*
X169394333Y-148946233D01*
X169394333Y-148946233D02*
X169261000Y-148879566D01*
X169261000Y-148879566D02*
X169194333Y-148812900D01*
X169194333Y-148812900D02*
X169127666Y-148679566D01*
X169127666Y-148679566D02*
X169127666Y-148546233D01*
X169127666Y-148546233D02*
X169194333Y-148412900D01*
X169194333Y-148412900D02*
X169261000Y-148346233D01*
X169261000Y-148346233D02*
X169394333Y-148279566D01*
X169394333Y-148279566D02*
X169727666Y-148279566D01*
X169727666Y-148279566D02*
X169927666Y-148346233D01*
X170527666Y-149679566D02*
X170527666Y-148279566D01*
X170527666Y-148279566D02*
X171060999Y-148279566D01*
X171060999Y-148279566D02*
X171194333Y-148346233D01*
X171194333Y-148346233D02*
X171260999Y-148412900D01*
X171260999Y-148412900D02*
X171327666Y-148546233D01*
X171327666Y-148546233D02*
X171327666Y-148746233D01*
X171327666Y-148746233D02*
X171260999Y-148879566D01*
X171260999Y-148879566D02*
X171194333Y-148946233D01*
X171194333Y-148946233D02*
X171060999Y-149012900D01*
X171060999Y-149012900D02*
X170527666Y-149012900D01*
X171860999Y-149279566D02*
X172527666Y-149279566D01*
X171727666Y-149679566D02*
X172194333Y-148279566D01*
X172194333Y-148279566D02*
X172660999Y-149679566D01*
X173927666Y-149546233D02*
X173860999Y-149612900D01*
X173860999Y-149612900D02*
X173660999Y-149679566D01*
X173660999Y-149679566D02*
X173527666Y-149679566D01*
X173527666Y-149679566D02*
X173327666Y-149612900D01*
X173327666Y-149612900D02*
X173194333Y-149479566D01*
X173194333Y-149479566D02*
X173127666Y-149346233D01*
X173127666Y-149346233D02*
X173060999Y-149079566D01*
X173060999Y-149079566D02*
X173060999Y-148879566D01*
X173060999Y-148879566D02*
X173127666Y-148612900D01*
X173127666Y-148612900D02*
X173194333Y-148479566D01*
X173194333Y-148479566D02*
X173327666Y-148346233D01*
X173327666Y-148346233D02*
X173527666Y-148279566D01*
X173527666Y-148279566D02*
X173660999Y-148279566D01*
X173660999Y-148279566D02*
X173860999Y-148346233D01*
X173860999Y-148346233D02*
X173927666Y-148412900D01*
X174527666Y-148946233D02*
X174994333Y-148946233D01*
X175194333Y-149679566D02*
X174527666Y-149679566D01*
X174527666Y-149679566D02*
X174527666Y-148279566D01*
X174527666Y-148279566D02*
X175194333Y-148279566D01*
X176261000Y-148946233D02*
X176461000Y-149012900D01*
X176461000Y-149012900D02*
X176527666Y-149079566D01*
X176527666Y-149079566D02*
X176594333Y-149212900D01*
X176594333Y-149212900D02*
X176594333Y-149412900D01*
X176594333Y-149412900D02*
X176527666Y-149546233D01*
X176527666Y-149546233D02*
X176461000Y-149612900D01*
X176461000Y-149612900D02*
X176327666Y-149679566D01*
X176327666Y-149679566D02*
X175794333Y-149679566D01*
X175794333Y-149679566D02*
X175794333Y-148279566D01*
X175794333Y-148279566D02*
X176261000Y-148279566D01*
X176261000Y-148279566D02*
X176394333Y-148346233D01*
X176394333Y-148346233D02*
X176461000Y-148412900D01*
X176461000Y-148412900D02*
X176527666Y-148546233D01*
X176527666Y-148546233D02*
X176527666Y-148679566D01*
X176527666Y-148679566D02*
X176461000Y-148812900D01*
X176461000Y-148812900D02*
X176394333Y-148879566D01*
X176394333Y-148879566D02*
X176261000Y-148946233D01*
X176261000Y-148946233D02*
X175794333Y-148946233D01*
X177127666Y-149279566D02*
X177794333Y-149279566D01*
X176994333Y-149679566D02*
X177461000Y-148279566D01*
X177461000Y-148279566D02*
X177927666Y-149679566D01*
X179194333Y-149679566D02*
X178727666Y-149012900D01*
X178394333Y-149679566D02*
X178394333Y-148279566D01*
X178394333Y-148279566D02*
X178927666Y-148279566D01*
X178927666Y-148279566D02*
X179061000Y-148346233D01*
X179061000Y-148346233D02*
X179127666Y-148412900D01*
X179127666Y-148412900D02*
X179194333Y-148546233D01*
X179194333Y-148546233D02*
X179194333Y-148746233D01*
X179194333Y-148746233D02*
X179127666Y-148879566D01*
X179127666Y-148879566D02*
X179061000Y-148946233D01*
X179061000Y-148946233D02*
X178927666Y-149012900D01*
X178927666Y-149012900D02*
X178394333Y-149012900D01*
X113611000Y-110719233D02*
X113144333Y-110719233D01*
X113144333Y-111452566D02*
X113144333Y-110052566D01*
X113144333Y-110052566D02*
X113811000Y-110052566D01*
X75626131Y-72079566D02*
X76492797Y-72079566D01*
X76492797Y-72079566D02*
X76026131Y-72612900D01*
X76026131Y-72612900D02*
X76226131Y-72612900D01*
X76226131Y-72612900D02*
X76359464Y-72679566D01*
X76359464Y-72679566D02*
X76426131Y-72746233D01*
X76426131Y-72746233D02*
X76492797Y-72879566D01*
X76492797Y-72879566D02*
X76492797Y-73212900D01*
X76492797Y-73212900D02*
X76426131Y-73346233D01*
X76426131Y-73346233D02*
X76359464Y-73412900D01*
X76359464Y-73412900D02*
X76226131Y-73479566D01*
X76226131Y-73479566D02*
X75826131Y-73479566D01*
X75826131Y-73479566D02*
X75692797Y-73412900D01*
X75692797Y-73412900D02*
X75626131Y-73346233D01*
X179413333Y-130499566D02*
X179413333Y-129099566D01*
X179413333Y-129099566D02*
X179880000Y-130099566D01*
X179880000Y-130099566D02*
X180346666Y-129099566D01*
X180346666Y-129099566D02*
X180346666Y-130499566D01*
X39016333Y-130629566D02*
X38349666Y-130629566D01*
X38349666Y-130629566D02*
X38349666Y-129229566D01*
X39482999Y-130496233D02*
X39549666Y-130562900D01*
X39549666Y-130562900D02*
X39482999Y-130629566D01*
X39482999Y-130629566D02*
X39416332Y-130562900D01*
X39416332Y-130562900D02*
X39482999Y-130496233D01*
X39482999Y-130496233D02*
X39482999Y-130629566D01*
X40082999Y-130562900D02*
X40282999Y-130629566D01*
X40282999Y-130629566D02*
X40616333Y-130629566D01*
X40616333Y-130629566D02*
X40749666Y-130562900D01*
X40749666Y-130562900D02*
X40816333Y-130496233D01*
X40816333Y-130496233D02*
X40882999Y-130362900D01*
X40882999Y-130362900D02*
X40882999Y-130229566D01*
X40882999Y-130229566D02*
X40816333Y-130096233D01*
X40816333Y-130096233D02*
X40749666Y-130029566D01*
X40749666Y-130029566D02*
X40616333Y-129962900D01*
X40616333Y-129962900D02*
X40349666Y-129896233D01*
X40349666Y-129896233D02*
X40216333Y-129829566D01*
X40216333Y-129829566D02*
X40149666Y-129762900D01*
X40149666Y-129762900D02*
X40082999Y-129629566D01*
X40082999Y-129629566D02*
X40082999Y-129496233D01*
X40082999Y-129496233D02*
X40149666Y-129362900D01*
X40149666Y-129362900D02*
X40216333Y-129296233D01*
X40216333Y-129296233D02*
X40349666Y-129229566D01*
X40349666Y-129229566D02*
X40682999Y-129229566D01*
X40682999Y-129229566D02*
X40882999Y-129296233D01*
X41482999Y-130629566D02*
X41482999Y-129229566D01*
X41482999Y-129896233D02*
X42282999Y-129896233D01*
X42282999Y-130629566D02*
X42282999Y-129229566D01*
X42949666Y-130629566D02*
X42949666Y-129229566D01*
X44083000Y-129896233D02*
X43616333Y-129896233D01*
X43616333Y-130629566D02*
X43616333Y-129229566D01*
X43616333Y-129229566D02*
X44283000Y-129229566D01*
X44616333Y-129229566D02*
X45416333Y-129229566D01*
X45016333Y-130629566D02*
X45016333Y-129229566D01*
X55927666Y-111052566D02*
X56594333Y-111052566D01*
X55794333Y-111452566D02*
X56261000Y-110052566D01*
X56261000Y-110052566D02*
X56727666Y-111452566D01*
X189244333Y-111452566D02*
X189244333Y-110052566D01*
X190044333Y-111452566D02*
X189444333Y-110652566D01*
X190044333Y-110052566D02*
X189244333Y-110852566D01*
D12*
X36271615Y-143402350D02*
X36652568Y-143402350D01*
X36652568Y-143402350D02*
X36843044Y-143497588D01*
X36843044Y-143497588D02*
X37033520Y-143688064D01*
X37033520Y-143688064D02*
X37128758Y-144069016D01*
X37128758Y-144069016D02*
X37128758Y-144735683D01*
X37128758Y-144735683D02*
X37033520Y-145116635D01*
X37033520Y-145116635D02*
X36843044Y-145307112D01*
X36843044Y-145307112D02*
X36652568Y-145402350D01*
X36652568Y-145402350D02*
X36271615Y-145402350D01*
X36271615Y-145402350D02*
X36081139Y-145307112D01*
X36081139Y-145307112D02*
X35890663Y-145116635D01*
X35890663Y-145116635D02*
X35795425Y-144735683D01*
X35795425Y-144735683D02*
X35795425Y-144069016D01*
X35795425Y-144069016D02*
X35890663Y-143688064D01*
X35890663Y-143688064D02*
X36081139Y-143497588D01*
X36081139Y-143497588D02*
X36271615Y-143402350D01*
X39128758Y-145402350D02*
X38462091Y-144449969D01*
X37985901Y-145402350D02*
X37985901Y-143402350D01*
X37985901Y-143402350D02*
X38747806Y-143402350D01*
X38747806Y-143402350D02*
X38938282Y-143497588D01*
X38938282Y-143497588D02*
X39033520Y-143592826D01*
X39033520Y-143592826D02*
X39128758Y-143783302D01*
X39128758Y-143783302D02*
X39128758Y-144069016D01*
X39128758Y-144069016D02*
X39033520Y-144259492D01*
X39033520Y-144259492D02*
X38938282Y-144354731D01*
X38938282Y-144354731D02*
X38747806Y-144449969D01*
X38747806Y-144449969D02*
X37985901Y-144449969D01*
X39890663Y-144830921D02*
X40843044Y-144830921D01*
X39700187Y-145402350D02*
X40366853Y-143402350D01*
X40366853Y-143402350D02*
X41033520Y-145402350D01*
X42081139Y-143402350D02*
X42462092Y-143402350D01*
X42462092Y-143402350D02*
X42652568Y-143497588D01*
X42652568Y-143497588D02*
X42843044Y-143688064D01*
X42843044Y-143688064D02*
X42938282Y-144069016D01*
X42938282Y-144069016D02*
X42938282Y-144735683D01*
X42938282Y-144735683D02*
X42843044Y-145116635D01*
X42843044Y-145116635D02*
X42652568Y-145307112D01*
X42652568Y-145307112D02*
X42462092Y-145402350D01*
X42462092Y-145402350D02*
X42081139Y-145402350D01*
X42081139Y-145402350D02*
X41890663Y-145307112D01*
X41890663Y-145307112D02*
X41700187Y-145116635D01*
X41700187Y-145116635D02*
X41604949Y-144735683D01*
X41604949Y-144735683D02*
X41604949Y-144069016D01*
X41604949Y-144069016D02*
X41700187Y-143688064D01*
X41700187Y-143688064D02*
X41890663Y-143497588D01*
X41890663Y-143497588D02*
X42081139Y-143402350D01*
X45223997Y-143592826D02*
X45319235Y-143497588D01*
X45319235Y-143497588D02*
X45509711Y-143402350D01*
X45509711Y-143402350D02*
X45985902Y-143402350D01*
X45985902Y-143402350D02*
X46176378Y-143497588D01*
X46176378Y-143497588D02*
X46271616Y-143592826D01*
X46271616Y-143592826D02*
X46366854Y-143783302D01*
X46366854Y-143783302D02*
X46366854Y-143973778D01*
X46366854Y-143973778D02*
X46271616Y-144259492D01*
X46271616Y-144259492D02*
X45128759Y-145402350D01*
X45128759Y-145402350D02*
X46366854Y-145402350D01*
X47604949Y-143402350D02*
X47795426Y-143402350D01*
X47795426Y-143402350D02*
X47985902Y-143497588D01*
X47985902Y-143497588D02*
X48081140Y-143592826D01*
X48081140Y-143592826D02*
X48176378Y-143783302D01*
X48176378Y-143783302D02*
X48271616Y-144164254D01*
X48271616Y-144164254D02*
X48271616Y-144640445D01*
X48271616Y-144640445D02*
X48176378Y-145021397D01*
X48176378Y-145021397D02*
X48081140Y-145211873D01*
X48081140Y-145211873D02*
X47985902Y-145307112D01*
X47985902Y-145307112D02*
X47795426Y-145402350D01*
X47795426Y-145402350D02*
X47604949Y-145402350D01*
X47604949Y-145402350D02*
X47414473Y-145307112D01*
X47414473Y-145307112D02*
X47319235Y-145211873D01*
X47319235Y-145211873D02*
X47223997Y-145021397D01*
X47223997Y-145021397D02*
X47128759Y-144640445D01*
X47128759Y-144640445D02*
X47128759Y-144164254D01*
X47128759Y-144164254D02*
X47223997Y-143783302D01*
X47223997Y-143783302D02*
X47319235Y-143592826D01*
X47319235Y-143592826D02*
X47414473Y-143497588D01*
X47414473Y-143497588D02*
X47604949Y-143402350D01*
X49509711Y-143402350D02*
X49700188Y-143402350D01*
X49700188Y-143402350D02*
X49890664Y-143497588D01*
X49890664Y-143497588D02*
X49985902Y-143592826D01*
X49985902Y-143592826D02*
X50081140Y-143783302D01*
X50081140Y-143783302D02*
X50176378Y-144164254D01*
X50176378Y-144164254D02*
X50176378Y-144640445D01*
X50176378Y-144640445D02*
X50081140Y-145021397D01*
X50081140Y-145021397D02*
X49985902Y-145211873D01*
X49985902Y-145211873D02*
X49890664Y-145307112D01*
X49890664Y-145307112D02*
X49700188Y-145402350D01*
X49700188Y-145402350D02*
X49509711Y-145402350D01*
X49509711Y-145402350D02*
X49319235Y-145307112D01*
X49319235Y-145307112D02*
X49223997Y-145211873D01*
X49223997Y-145211873D02*
X49128759Y-145021397D01*
X49128759Y-145021397D02*
X49033521Y-144640445D01*
X49033521Y-144640445D02*
X49033521Y-144164254D01*
X49033521Y-144164254D02*
X49128759Y-143783302D01*
X49128759Y-143783302D02*
X49223997Y-143592826D01*
X49223997Y-143592826D02*
X49319235Y-143497588D01*
X49319235Y-143497588D02*
X49509711Y-143402350D01*
X50843045Y-143402350D02*
X52176378Y-143402350D01*
X52176378Y-143402350D02*
X51319235Y-145402350D01*
X55604950Y-145211873D02*
X55509712Y-145307112D01*
X55509712Y-145307112D02*
X55223998Y-145402350D01*
X55223998Y-145402350D02*
X55033522Y-145402350D01*
X55033522Y-145402350D02*
X54747807Y-145307112D01*
X54747807Y-145307112D02*
X54557331Y-145116635D01*
X54557331Y-145116635D02*
X54462093Y-144926159D01*
X54462093Y-144926159D02*
X54366855Y-144545207D01*
X54366855Y-144545207D02*
X54366855Y-144259492D01*
X54366855Y-144259492D02*
X54462093Y-143878540D01*
X54462093Y-143878540D02*
X54557331Y-143688064D01*
X54557331Y-143688064D02*
X54747807Y-143497588D01*
X54747807Y-143497588D02*
X55033522Y-143402350D01*
X55033522Y-143402350D02*
X55223998Y-143402350D01*
X55223998Y-143402350D02*
X55509712Y-143497588D01*
X55509712Y-143497588D02*
X55604950Y-143592826D01*
X56747807Y-145402350D02*
X56557331Y-145307112D01*
X56557331Y-145307112D02*
X56462093Y-145211873D01*
X56462093Y-145211873D02*
X56366855Y-145021397D01*
X56366855Y-145021397D02*
X56366855Y-144449969D01*
X56366855Y-144449969D02*
X56462093Y-144259492D01*
X56462093Y-144259492D02*
X56557331Y-144164254D01*
X56557331Y-144164254D02*
X56747807Y-144069016D01*
X56747807Y-144069016D02*
X57033522Y-144069016D01*
X57033522Y-144069016D02*
X57223998Y-144164254D01*
X57223998Y-144164254D02*
X57319236Y-144259492D01*
X57319236Y-144259492D02*
X57414474Y-144449969D01*
X57414474Y-144449969D02*
X57414474Y-145021397D01*
X57414474Y-145021397D02*
X57319236Y-145211873D01*
X57319236Y-145211873D02*
X57223998Y-145307112D01*
X57223998Y-145307112D02*
X57033522Y-145402350D01*
X57033522Y-145402350D02*
X56747807Y-145402350D01*
X58271617Y-145402350D02*
X58271617Y-144069016D01*
X58271617Y-144259492D02*
X58366855Y-144164254D01*
X58366855Y-144164254D02*
X58557331Y-144069016D01*
X58557331Y-144069016D02*
X58843046Y-144069016D01*
X58843046Y-144069016D02*
X59033522Y-144164254D01*
X59033522Y-144164254D02*
X59128760Y-144354731D01*
X59128760Y-144354731D02*
X59128760Y-145402350D01*
X59128760Y-144354731D02*
X59223998Y-144164254D01*
X59223998Y-144164254D02*
X59414474Y-144069016D01*
X59414474Y-144069016D02*
X59700188Y-144069016D01*
X59700188Y-144069016D02*
X59890665Y-144164254D01*
X59890665Y-144164254D02*
X59985903Y-144354731D01*
X59985903Y-144354731D02*
X59985903Y-145402350D01*
X60938284Y-144069016D02*
X60938284Y-146069016D01*
X60938284Y-144164254D02*
X61128760Y-144069016D01*
X61128760Y-144069016D02*
X61509713Y-144069016D01*
X61509713Y-144069016D02*
X61700189Y-144164254D01*
X61700189Y-144164254D02*
X61795427Y-144259492D01*
X61795427Y-144259492D02*
X61890665Y-144449969D01*
X61890665Y-144449969D02*
X61890665Y-145021397D01*
X61890665Y-145021397D02*
X61795427Y-145211873D01*
X61795427Y-145211873D02*
X61700189Y-145307112D01*
X61700189Y-145307112D02*
X61509713Y-145402350D01*
X61509713Y-145402350D02*
X61128760Y-145402350D01*
X61128760Y-145402350D02*
X60938284Y-145307112D01*
X63604951Y-144069016D02*
X63604951Y-145402350D01*
X62747808Y-144069016D02*
X62747808Y-145116635D01*
X62747808Y-145116635D02*
X62843046Y-145307112D01*
X62843046Y-145307112D02*
X63033522Y-145402350D01*
X63033522Y-145402350D02*
X63319237Y-145402350D01*
X63319237Y-145402350D02*
X63509713Y-145307112D01*
X63509713Y-145307112D02*
X63604951Y-145211873D01*
X64271618Y-144069016D02*
X65033522Y-144069016D01*
X64557332Y-143402350D02*
X64557332Y-145116635D01*
X64557332Y-145116635D02*
X64652570Y-145307112D01*
X64652570Y-145307112D02*
X64843046Y-145402350D01*
X64843046Y-145402350D02*
X65033522Y-145402350D01*
X66462094Y-145307112D02*
X66271618Y-145402350D01*
X66271618Y-145402350D02*
X65890665Y-145402350D01*
X65890665Y-145402350D02*
X65700189Y-145307112D01*
X65700189Y-145307112D02*
X65604951Y-145116635D01*
X65604951Y-145116635D02*
X65604951Y-144354731D01*
X65604951Y-144354731D02*
X65700189Y-144164254D01*
X65700189Y-144164254D02*
X65890665Y-144069016D01*
X65890665Y-144069016D02*
X66271618Y-144069016D01*
X66271618Y-144069016D02*
X66462094Y-144164254D01*
X66462094Y-144164254D02*
X66557332Y-144354731D01*
X66557332Y-144354731D02*
X66557332Y-144545207D01*
X66557332Y-144545207D02*
X65604951Y-144735683D01*
X67414475Y-145402350D02*
X67414475Y-144069016D01*
X67414475Y-144449969D02*
X67509713Y-144259492D01*
X67509713Y-144259492D02*
X67604951Y-144164254D01*
X67604951Y-144164254D02*
X67795427Y-144069016D01*
X67795427Y-144069016D02*
X67985904Y-144069016D01*
X70176380Y-145402350D02*
X70176380Y-143402350D01*
X71319237Y-145402350D02*
X70462094Y-144259492D01*
X71319237Y-143402350D02*
X70176380Y-144545207D01*
X72938285Y-145307112D02*
X72747809Y-145402350D01*
X72747809Y-145402350D02*
X72366856Y-145402350D01*
X72366856Y-145402350D02*
X72176380Y-145307112D01*
X72176380Y-145307112D02*
X72081142Y-145116635D01*
X72081142Y-145116635D02*
X72081142Y-144354731D01*
X72081142Y-144354731D02*
X72176380Y-144164254D01*
X72176380Y-144164254D02*
X72366856Y-144069016D01*
X72366856Y-144069016D02*
X72747809Y-144069016D01*
X72747809Y-144069016D02*
X72938285Y-144164254D01*
X72938285Y-144164254D02*
X73033523Y-144354731D01*
X73033523Y-144354731D02*
X73033523Y-144545207D01*
X73033523Y-144545207D02*
X72081142Y-144735683D01*
X73700190Y-144069016D02*
X74176380Y-145402350D01*
X74652571Y-144069016D02*
X74176380Y-145402350D01*
X74176380Y-145402350D02*
X73985904Y-145878540D01*
X73985904Y-145878540D02*
X73890666Y-145973778D01*
X73890666Y-145973778D02*
X73700190Y-146069016D01*
X75414476Y-145402350D02*
X75414476Y-143402350D01*
X75414476Y-144164254D02*
X75604952Y-144069016D01*
X75604952Y-144069016D02*
X75985905Y-144069016D01*
X75985905Y-144069016D02*
X76176381Y-144164254D01*
X76176381Y-144164254D02*
X76271619Y-144259492D01*
X76271619Y-144259492D02*
X76366857Y-144449969D01*
X76366857Y-144449969D02*
X76366857Y-145021397D01*
X76366857Y-145021397D02*
X76271619Y-145211873D01*
X76271619Y-145211873D02*
X76176381Y-145307112D01*
X76176381Y-145307112D02*
X75985905Y-145402350D01*
X75985905Y-145402350D02*
X75604952Y-145402350D01*
X75604952Y-145402350D02*
X75414476Y-145307112D01*
X77509714Y-145402350D02*
X77319238Y-145307112D01*
X77319238Y-145307112D02*
X77224000Y-145211873D01*
X77224000Y-145211873D02*
X77128762Y-145021397D01*
X77128762Y-145021397D02*
X77128762Y-144449969D01*
X77128762Y-144449969D02*
X77224000Y-144259492D01*
X77224000Y-144259492D02*
X77319238Y-144164254D01*
X77319238Y-144164254D02*
X77509714Y-144069016D01*
X77509714Y-144069016D02*
X77795429Y-144069016D01*
X77795429Y-144069016D02*
X77985905Y-144164254D01*
X77985905Y-144164254D02*
X78081143Y-144259492D01*
X78081143Y-144259492D02*
X78176381Y-144449969D01*
X78176381Y-144449969D02*
X78176381Y-145021397D01*
X78176381Y-145021397D02*
X78081143Y-145211873D01*
X78081143Y-145211873D02*
X77985905Y-145307112D01*
X77985905Y-145307112D02*
X77795429Y-145402350D01*
X77795429Y-145402350D02*
X77509714Y-145402350D01*
X79890667Y-145402350D02*
X79890667Y-144354731D01*
X79890667Y-144354731D02*
X79795429Y-144164254D01*
X79795429Y-144164254D02*
X79604953Y-144069016D01*
X79604953Y-144069016D02*
X79224000Y-144069016D01*
X79224000Y-144069016D02*
X79033524Y-144164254D01*
X79890667Y-145307112D02*
X79700191Y-145402350D01*
X79700191Y-145402350D02*
X79224000Y-145402350D01*
X79224000Y-145402350D02*
X79033524Y-145307112D01*
X79033524Y-145307112D02*
X78938286Y-145116635D01*
X78938286Y-145116635D02*
X78938286Y-144926159D01*
X78938286Y-144926159D02*
X79033524Y-144735683D01*
X79033524Y-144735683D02*
X79224000Y-144640445D01*
X79224000Y-144640445D02*
X79700191Y-144640445D01*
X79700191Y-144640445D02*
X79890667Y-144545207D01*
X80843048Y-145402350D02*
X80843048Y-144069016D01*
X80843048Y-144449969D02*
X80938286Y-144259492D01*
X80938286Y-144259492D02*
X81033524Y-144164254D01*
X81033524Y-144164254D02*
X81224000Y-144069016D01*
X81224000Y-144069016D02*
X81414477Y-144069016D01*
X82938286Y-145402350D02*
X82938286Y-143402350D01*
X82938286Y-145307112D02*
X82747810Y-145402350D01*
X82747810Y-145402350D02*
X82366857Y-145402350D01*
X82366857Y-145402350D02*
X82176381Y-145307112D01*
X82176381Y-145307112D02*
X82081143Y-145211873D01*
X82081143Y-145211873D02*
X81985905Y-145021397D01*
X81985905Y-145021397D02*
X81985905Y-144449969D01*
X81985905Y-144449969D02*
X82081143Y-144259492D01*
X82081143Y-144259492D02*
X82176381Y-144164254D01*
X82176381Y-144164254D02*
X82366857Y-144069016D01*
X82366857Y-144069016D02*
X82747810Y-144069016D01*
X82747810Y-144069016D02*
X82938286Y-144164254D01*
X35890663Y-148622238D02*
X35890663Y-146622238D01*
X35890663Y-147384142D02*
X36081139Y-147288904D01*
X36081139Y-147288904D02*
X36462092Y-147288904D01*
X36462092Y-147288904D02*
X36652568Y-147384142D01*
X36652568Y-147384142D02*
X36747806Y-147479380D01*
X36747806Y-147479380D02*
X36843044Y-147669857D01*
X36843044Y-147669857D02*
X36843044Y-148241285D01*
X36843044Y-148241285D02*
X36747806Y-148431761D01*
X36747806Y-148431761D02*
X36652568Y-148527000D01*
X36652568Y-148527000D02*
X36462092Y-148622238D01*
X36462092Y-148622238D02*
X36081139Y-148622238D01*
X36081139Y-148622238D02*
X35890663Y-148527000D01*
X37509711Y-147288904D02*
X37985901Y-148622238D01*
X38462092Y-147288904D02*
X37985901Y-148622238D01*
X37985901Y-148622238D02*
X37795425Y-149098428D01*
X37795425Y-149098428D02*
X37700187Y-149193666D01*
X37700187Y-149193666D02*
X37509711Y-149288904D01*
X40557331Y-146622238D02*
X41033521Y-148622238D01*
X41033521Y-148622238D02*
X41414474Y-147193666D01*
X41414474Y-147193666D02*
X41795426Y-148622238D01*
X41795426Y-148622238D02*
X42271617Y-146622238D01*
X43890664Y-148622238D02*
X43890664Y-147574619D01*
X43890664Y-147574619D02*
X43795426Y-147384142D01*
X43795426Y-147384142D02*
X43604950Y-147288904D01*
X43604950Y-147288904D02*
X43223997Y-147288904D01*
X43223997Y-147288904D02*
X43033521Y-147384142D01*
X43890664Y-148527000D02*
X43700188Y-148622238D01*
X43700188Y-148622238D02*
X43223997Y-148622238D01*
X43223997Y-148622238D02*
X43033521Y-148527000D01*
X43033521Y-148527000D02*
X42938283Y-148336523D01*
X42938283Y-148336523D02*
X42938283Y-148146047D01*
X42938283Y-148146047D02*
X43033521Y-147955571D01*
X43033521Y-147955571D02*
X43223997Y-147860333D01*
X43223997Y-147860333D02*
X43700188Y-147860333D01*
X43700188Y-147860333D02*
X43890664Y-147765095D01*
X45128759Y-148622238D02*
X44938283Y-148527000D01*
X44938283Y-148527000D02*
X44843045Y-148336523D01*
X44843045Y-148336523D02*
X44843045Y-146622238D01*
X45604950Y-147288904D02*
X46366854Y-147288904D01*
X45890664Y-146622238D02*
X45890664Y-148336523D01*
X45890664Y-148336523D02*
X45985902Y-148527000D01*
X45985902Y-148527000D02*
X46176378Y-148622238D01*
X46176378Y-148622238D02*
X46366854Y-148622238D01*
X47795426Y-148527000D02*
X47604950Y-148622238D01*
X47604950Y-148622238D02*
X47223997Y-148622238D01*
X47223997Y-148622238D02*
X47033521Y-148527000D01*
X47033521Y-148527000D02*
X46938283Y-148336523D01*
X46938283Y-148336523D02*
X46938283Y-147574619D01*
X46938283Y-147574619D02*
X47033521Y-147384142D01*
X47033521Y-147384142D02*
X47223997Y-147288904D01*
X47223997Y-147288904D02*
X47604950Y-147288904D01*
X47604950Y-147288904D02*
X47795426Y-147384142D01*
X47795426Y-147384142D02*
X47890664Y-147574619D01*
X47890664Y-147574619D02*
X47890664Y-147765095D01*
X47890664Y-147765095D02*
X46938283Y-147955571D01*
X48747807Y-148622238D02*
X48747807Y-147288904D01*
X48747807Y-147669857D02*
X48843045Y-147479380D01*
X48843045Y-147479380D02*
X48938283Y-147384142D01*
X48938283Y-147384142D02*
X49128759Y-147288904D01*
X49128759Y-147288904D02*
X49319236Y-147288904D01*
X51509712Y-148622238D02*
X51509712Y-146622238D01*
X51509712Y-146622238D02*
X52176379Y-148050809D01*
X52176379Y-148050809D02*
X52843045Y-146622238D01*
X52843045Y-146622238D02*
X52843045Y-148622238D01*
X53795426Y-148622238D02*
X53795426Y-147288904D01*
X53795426Y-146622238D02*
X53700188Y-146717476D01*
X53700188Y-146717476D02*
X53795426Y-146812714D01*
X53795426Y-146812714D02*
X53890664Y-146717476D01*
X53890664Y-146717476D02*
X53795426Y-146622238D01*
X53795426Y-146622238D02*
X53795426Y-146812714D01*
X54747807Y-148622238D02*
X54747807Y-147288904D01*
X54747807Y-147669857D02*
X54843045Y-147479380D01*
X54843045Y-147479380D02*
X54938283Y-147384142D01*
X54938283Y-147384142D02*
X55128759Y-147288904D01*
X55128759Y-147288904D02*
X55319236Y-147288904D01*
X56843045Y-148622238D02*
X56843045Y-147574619D01*
X56843045Y-147574619D02*
X56747807Y-147384142D01*
X56747807Y-147384142D02*
X56557331Y-147288904D01*
X56557331Y-147288904D02*
X56176378Y-147288904D01*
X56176378Y-147288904D02*
X55985902Y-147384142D01*
X56843045Y-148527000D02*
X56652569Y-148622238D01*
X56652569Y-148622238D02*
X56176378Y-148622238D01*
X56176378Y-148622238D02*
X55985902Y-148527000D01*
X55985902Y-148527000D02*
X55890664Y-148336523D01*
X55890664Y-148336523D02*
X55890664Y-148146047D01*
X55890664Y-148146047D02*
X55985902Y-147955571D01*
X55985902Y-147955571D02*
X56176378Y-147860333D01*
X56176378Y-147860333D02*
X56652569Y-147860333D01*
X56652569Y-147860333D02*
X56843045Y-147765095D01*
X58652569Y-147288904D02*
X58652569Y-148907952D01*
X58652569Y-148907952D02*
X58557331Y-149098428D01*
X58557331Y-149098428D02*
X58462093Y-149193666D01*
X58462093Y-149193666D02*
X58271616Y-149288904D01*
X58271616Y-149288904D02*
X57985902Y-149288904D01*
X57985902Y-149288904D02*
X57795426Y-149193666D01*
X58652569Y-148527000D02*
X58462093Y-148622238D01*
X58462093Y-148622238D02*
X58081140Y-148622238D01*
X58081140Y-148622238D02*
X57890664Y-148527000D01*
X57890664Y-148527000D02*
X57795426Y-148431761D01*
X57795426Y-148431761D02*
X57700188Y-148241285D01*
X57700188Y-148241285D02*
X57700188Y-147669857D01*
X57700188Y-147669857D02*
X57795426Y-147479380D01*
X57795426Y-147479380D02*
X57890664Y-147384142D01*
X57890664Y-147384142D02*
X58081140Y-147288904D01*
X58081140Y-147288904D02*
X58462093Y-147288904D01*
X58462093Y-147288904D02*
X58652569Y-147384142D01*
X59890664Y-148622238D02*
X59700188Y-148527000D01*
X59700188Y-148527000D02*
X59604950Y-148336523D01*
X59604950Y-148336523D02*
X59604950Y-146622238D01*
X60652569Y-148622238D02*
X60652569Y-147288904D01*
X60652569Y-146622238D02*
X60557331Y-146717476D01*
X60557331Y-146717476D02*
X60652569Y-146812714D01*
X60652569Y-146812714D02*
X60747807Y-146717476D01*
X60747807Y-146717476D02*
X60652569Y-146622238D01*
X60652569Y-146622238D02*
X60652569Y-146812714D01*
X62462093Y-148622238D02*
X62462093Y-147574619D01*
X62462093Y-147574619D02*
X62366855Y-147384142D01*
X62366855Y-147384142D02*
X62176379Y-147288904D01*
X62176379Y-147288904D02*
X61795426Y-147288904D01*
X61795426Y-147288904D02*
X61604950Y-147384142D01*
X62462093Y-148527000D02*
X62271617Y-148622238D01*
X62271617Y-148622238D02*
X61795426Y-148622238D01*
X61795426Y-148622238D02*
X61604950Y-148527000D01*
X61604950Y-148527000D02*
X61509712Y-148336523D01*
X61509712Y-148336523D02*
X61509712Y-148146047D01*
X61509712Y-148146047D02*
X61604950Y-147955571D01*
X61604950Y-147955571D02*
X61795426Y-147860333D01*
X61795426Y-147860333D02*
X62271617Y-147860333D01*
X62271617Y-147860333D02*
X62462093Y-147765095D01*
X65795427Y-148622238D02*
X65795427Y-147574619D01*
X65795427Y-147574619D02*
X65700189Y-147384142D01*
X65700189Y-147384142D02*
X65509713Y-147288904D01*
X65509713Y-147288904D02*
X65128760Y-147288904D01*
X65128760Y-147288904D02*
X64938284Y-147384142D01*
X65795427Y-148527000D02*
X65604951Y-148622238D01*
X65604951Y-148622238D02*
X65128760Y-148622238D01*
X65128760Y-148622238D02*
X64938284Y-148527000D01*
X64938284Y-148527000D02*
X64843046Y-148336523D01*
X64843046Y-148336523D02*
X64843046Y-148146047D01*
X64843046Y-148146047D02*
X64938284Y-147955571D01*
X64938284Y-147955571D02*
X65128760Y-147860333D01*
X65128760Y-147860333D02*
X65604951Y-147860333D01*
X65604951Y-147860333D02*
X65795427Y-147765095D01*
X66747808Y-147288904D02*
X66747808Y-148622238D01*
X66747808Y-147479380D02*
X66843046Y-147384142D01*
X66843046Y-147384142D02*
X67033522Y-147288904D01*
X67033522Y-147288904D02*
X67319237Y-147288904D01*
X67319237Y-147288904D02*
X67509713Y-147384142D01*
X67509713Y-147384142D02*
X67604951Y-147574619D01*
X67604951Y-147574619D02*
X67604951Y-148622238D01*
X69414475Y-148622238D02*
X69414475Y-146622238D01*
X69414475Y-148527000D02*
X69223999Y-148622238D01*
X69223999Y-148622238D02*
X68843046Y-148622238D01*
X68843046Y-148622238D02*
X68652570Y-148527000D01*
X68652570Y-148527000D02*
X68557332Y-148431761D01*
X68557332Y-148431761D02*
X68462094Y-148241285D01*
X68462094Y-148241285D02*
X68462094Y-147669857D01*
X68462094Y-147669857D02*
X68557332Y-147479380D01*
X68557332Y-147479380D02*
X68652570Y-147384142D01*
X68652570Y-147384142D02*
X68843046Y-147288904D01*
X68843046Y-147288904D02*
X69223999Y-147288904D01*
X69223999Y-147288904D02*
X69414475Y-147384142D01*
X71795428Y-148527000D02*
X72081142Y-148622238D01*
X72081142Y-148622238D02*
X72557333Y-148622238D01*
X72557333Y-148622238D02*
X72747809Y-148527000D01*
X72747809Y-148527000D02*
X72843047Y-148431761D01*
X72843047Y-148431761D02*
X72938285Y-148241285D01*
X72938285Y-148241285D02*
X72938285Y-148050809D01*
X72938285Y-148050809D02*
X72843047Y-147860333D01*
X72843047Y-147860333D02*
X72747809Y-147765095D01*
X72747809Y-147765095D02*
X72557333Y-147669857D01*
X72557333Y-147669857D02*
X72176380Y-147574619D01*
X72176380Y-147574619D02*
X71985904Y-147479380D01*
X71985904Y-147479380D02*
X71890666Y-147384142D01*
X71890666Y-147384142D02*
X71795428Y-147193666D01*
X71795428Y-147193666D02*
X71795428Y-147003190D01*
X71795428Y-147003190D02*
X71890666Y-146812714D01*
X71890666Y-146812714D02*
X71985904Y-146717476D01*
X71985904Y-146717476D02*
X72176380Y-146622238D01*
X72176380Y-146622238D02*
X72652571Y-146622238D01*
X72652571Y-146622238D02*
X72938285Y-146717476D01*
X73509714Y-147288904D02*
X74271618Y-147288904D01*
X73795428Y-146622238D02*
X73795428Y-148336523D01*
X73795428Y-148336523D02*
X73890666Y-148527000D01*
X73890666Y-148527000D02*
X74081142Y-148622238D01*
X74081142Y-148622238D02*
X74271618Y-148622238D01*
X75700190Y-148527000D02*
X75509714Y-148622238D01*
X75509714Y-148622238D02*
X75128761Y-148622238D01*
X75128761Y-148622238D02*
X74938285Y-148527000D01*
X74938285Y-148527000D02*
X74843047Y-148336523D01*
X74843047Y-148336523D02*
X74843047Y-147574619D01*
X74843047Y-147574619D02*
X74938285Y-147384142D01*
X74938285Y-147384142D02*
X75128761Y-147288904D01*
X75128761Y-147288904D02*
X75509714Y-147288904D01*
X75509714Y-147288904D02*
X75700190Y-147384142D01*
X75700190Y-147384142D02*
X75795428Y-147574619D01*
X75795428Y-147574619D02*
X75795428Y-147765095D01*
X75795428Y-147765095D02*
X74843047Y-147955571D01*
X76462095Y-147288904D02*
X76938285Y-148622238D01*
X76938285Y-148622238D02*
X77414476Y-147288904D01*
X78938286Y-148527000D02*
X78747810Y-148622238D01*
X78747810Y-148622238D02*
X78366857Y-148622238D01*
X78366857Y-148622238D02*
X78176381Y-148527000D01*
X78176381Y-148527000D02*
X78081143Y-148336523D01*
X78081143Y-148336523D02*
X78081143Y-147574619D01*
X78081143Y-147574619D02*
X78176381Y-147384142D01*
X78176381Y-147384142D02*
X78366857Y-147288904D01*
X78366857Y-147288904D02*
X78747810Y-147288904D01*
X78747810Y-147288904D02*
X78938286Y-147384142D01*
X78938286Y-147384142D02*
X79033524Y-147574619D01*
X79033524Y-147574619D02*
X79033524Y-147765095D01*
X79033524Y-147765095D02*
X78081143Y-147955571D01*
X82462096Y-146717476D02*
X82271620Y-146622238D01*
X82271620Y-146622238D02*
X81985906Y-146622238D01*
X81985906Y-146622238D02*
X81700191Y-146717476D01*
X81700191Y-146717476D02*
X81509715Y-146907952D01*
X81509715Y-146907952D02*
X81414477Y-147098428D01*
X81414477Y-147098428D02*
X81319239Y-147479380D01*
X81319239Y-147479380D02*
X81319239Y-147765095D01*
X81319239Y-147765095D02*
X81414477Y-148146047D01*
X81414477Y-148146047D02*
X81509715Y-148336523D01*
X81509715Y-148336523D02*
X81700191Y-148527000D01*
X81700191Y-148527000D02*
X81985906Y-148622238D01*
X81985906Y-148622238D02*
X82176382Y-148622238D01*
X82176382Y-148622238D02*
X82462096Y-148527000D01*
X82462096Y-148527000D02*
X82557334Y-148431761D01*
X82557334Y-148431761D02*
X82557334Y-147765095D01*
X82557334Y-147765095D02*
X82176382Y-147765095D01*
X83414477Y-148622238D02*
X83414477Y-147288904D01*
X83414477Y-147669857D02*
X83509715Y-147479380D01*
X83509715Y-147479380D02*
X83604953Y-147384142D01*
X83604953Y-147384142D02*
X83795429Y-147288904D01*
X83795429Y-147288904D02*
X83985906Y-147288904D01*
X85509715Y-148622238D02*
X85509715Y-147574619D01*
X85509715Y-147574619D02*
X85414477Y-147384142D01*
X85414477Y-147384142D02*
X85224001Y-147288904D01*
X85224001Y-147288904D02*
X84843048Y-147288904D01*
X84843048Y-147288904D02*
X84652572Y-147384142D01*
X85509715Y-148527000D02*
X85319239Y-148622238D01*
X85319239Y-148622238D02*
X84843048Y-148622238D01*
X84843048Y-148622238D02*
X84652572Y-148527000D01*
X84652572Y-148527000D02*
X84557334Y-148336523D01*
X84557334Y-148336523D02*
X84557334Y-148146047D01*
X84557334Y-148146047D02*
X84652572Y-147955571D01*
X84652572Y-147955571D02*
X84843048Y-147860333D01*
X84843048Y-147860333D02*
X85319239Y-147860333D01*
X85319239Y-147860333D02*
X85509715Y-147765095D01*
X86271620Y-147288904D02*
X86747810Y-148622238D01*
X87224001Y-147288904D02*
X86747810Y-148622238D01*
X86747810Y-148622238D02*
X86557334Y-149098428D01*
X86557334Y-149098428D02*
X86462096Y-149193666D01*
X86462096Y-149193666D02*
X86271620Y-149288904D01*
X89414478Y-146812714D02*
X89509716Y-146717476D01*
X89509716Y-146717476D02*
X89700192Y-146622238D01*
X89700192Y-146622238D02*
X90176383Y-146622238D01*
X90176383Y-146622238D02*
X90366859Y-146717476D01*
X90366859Y-146717476D02*
X90462097Y-146812714D01*
X90462097Y-146812714D02*
X90557335Y-147003190D01*
X90557335Y-147003190D02*
X90557335Y-147193666D01*
X90557335Y-147193666D02*
X90462097Y-147479380D01*
X90462097Y-147479380D02*
X89319240Y-148622238D01*
X89319240Y-148622238D02*
X90557335Y-148622238D01*
X91795430Y-146622238D02*
X91985907Y-146622238D01*
X91985907Y-146622238D02*
X92176383Y-146717476D01*
X92176383Y-146717476D02*
X92271621Y-146812714D01*
X92271621Y-146812714D02*
X92366859Y-147003190D01*
X92366859Y-147003190D02*
X92462097Y-147384142D01*
X92462097Y-147384142D02*
X92462097Y-147860333D01*
X92462097Y-147860333D02*
X92366859Y-148241285D01*
X92366859Y-148241285D02*
X92271621Y-148431761D01*
X92271621Y-148431761D02*
X92176383Y-148527000D01*
X92176383Y-148527000D02*
X91985907Y-148622238D01*
X91985907Y-148622238D02*
X91795430Y-148622238D01*
X91795430Y-148622238D02*
X91604954Y-148527000D01*
X91604954Y-148527000D02*
X91509716Y-148431761D01*
X91509716Y-148431761D02*
X91414478Y-148241285D01*
X91414478Y-148241285D02*
X91319240Y-147860333D01*
X91319240Y-147860333D02*
X91319240Y-147384142D01*
X91319240Y-147384142D02*
X91414478Y-147003190D01*
X91414478Y-147003190D02*
X91509716Y-146812714D01*
X91509716Y-146812714D02*
X91604954Y-146717476D01*
X91604954Y-146717476D02*
X91795430Y-146622238D01*
X93224002Y-146812714D02*
X93319240Y-146717476D01*
X93319240Y-146717476D02*
X93509716Y-146622238D01*
X93509716Y-146622238D02*
X93985907Y-146622238D01*
X93985907Y-146622238D02*
X94176383Y-146717476D01*
X94176383Y-146717476D02*
X94271621Y-146812714D01*
X94271621Y-146812714D02*
X94366859Y-147003190D01*
X94366859Y-147003190D02*
X94366859Y-147193666D01*
X94366859Y-147193666D02*
X94271621Y-147479380D01*
X94271621Y-147479380D02*
X93128764Y-148622238D01*
X93128764Y-148622238D02*
X94366859Y-148622238D01*
X96081145Y-146622238D02*
X95700192Y-146622238D01*
X95700192Y-146622238D02*
X95509716Y-146717476D01*
X95509716Y-146717476D02*
X95414478Y-146812714D01*
X95414478Y-146812714D02*
X95224002Y-147098428D01*
X95224002Y-147098428D02*
X95128764Y-147479380D01*
X95128764Y-147479380D02*
X95128764Y-148241285D01*
X95128764Y-148241285D02*
X95224002Y-148431761D01*
X95224002Y-148431761D02*
X95319240Y-148527000D01*
X95319240Y-148527000D02*
X95509716Y-148622238D01*
X95509716Y-148622238D02*
X95890669Y-148622238D01*
X95890669Y-148622238D02*
X96081145Y-148527000D01*
X96081145Y-148527000D02*
X96176383Y-148431761D01*
X96176383Y-148431761D02*
X96271621Y-148241285D01*
X96271621Y-148241285D02*
X96271621Y-147765095D01*
X96271621Y-147765095D02*
X96176383Y-147574619D01*
X96176383Y-147574619D02*
X96081145Y-147479380D01*
X96081145Y-147479380D02*
X95890669Y-147384142D01*
X95890669Y-147384142D02*
X95509716Y-147384142D01*
X95509716Y-147384142D02*
X95319240Y-147479380D01*
X95319240Y-147479380D02*
X95224002Y-147574619D01*
X95224002Y-147574619D02*
X95128764Y-147765095D01*
D11*
X245694333Y-72206566D02*
X245694333Y-72539900D01*
X245361000Y-72406566D02*
X245694333Y-72539900D01*
X245694333Y-72539900D02*
X246027666Y-72406566D01*
X245494333Y-72806566D02*
X245694333Y-72539900D01*
X245694333Y-72539900D02*
X245894333Y-72806566D01*
X247561000Y-72139900D02*
X246361000Y-73939900D01*
X248027667Y-73473233D02*
X248094334Y-73539900D01*
X248094334Y-73539900D02*
X248027667Y-73606566D01*
X248027667Y-73606566D02*
X247961000Y-73539900D01*
X247961000Y-73539900D02*
X248027667Y-73473233D01*
X248027667Y-73473233D02*
X248027667Y-73606566D01*
X248027667Y-72739900D02*
X248094334Y-72806566D01*
X248094334Y-72806566D02*
X248027667Y-72873233D01*
X248027667Y-72873233D02*
X247961000Y-72806566D01*
X247961000Y-72806566D02*
X248027667Y-72739900D01*
X248027667Y-72739900D02*
X248027667Y-72873233D01*
X208594334Y-71825566D02*
X208727667Y-71825566D01*
X208727667Y-71825566D02*
X208861000Y-71892233D01*
X208861000Y-71892233D02*
X208927667Y-71958900D01*
X208927667Y-71958900D02*
X208994334Y-72092233D01*
X208994334Y-72092233D02*
X209061000Y-72358900D01*
X209061000Y-72358900D02*
X209061000Y-72692233D01*
X209061000Y-72692233D02*
X208994334Y-72958900D01*
X208994334Y-72958900D02*
X208927667Y-73092233D01*
X208927667Y-73092233D02*
X208861000Y-73158900D01*
X208861000Y-73158900D02*
X208727667Y-73225566D01*
X208727667Y-73225566D02*
X208594334Y-73225566D01*
X208594334Y-73225566D02*
X208461000Y-73158900D01*
X208461000Y-73158900D02*
X208394334Y-73092233D01*
X208394334Y-73092233D02*
X208327667Y-72958900D01*
X208327667Y-72958900D02*
X208261000Y-72692233D01*
X208261000Y-72692233D02*
X208261000Y-72358900D01*
X208261000Y-72358900D02*
X208327667Y-72092233D01*
X208327667Y-72092233D02*
X208394334Y-71958900D01*
X208394334Y-71958900D02*
X208461000Y-71892233D01*
X208461000Y-71892233D02*
X208594334Y-71825566D01*
X247194333Y-111700233D02*
X247127666Y-111766900D01*
X247127666Y-111766900D02*
X246927666Y-111833566D01*
X246927666Y-111833566D02*
X246794333Y-111833566D01*
X246794333Y-111833566D02*
X246594333Y-111766900D01*
X246594333Y-111766900D02*
X246461000Y-111633566D01*
X246461000Y-111633566D02*
X246394333Y-111500233D01*
X246394333Y-111500233D02*
X246327666Y-111233566D01*
X246327666Y-111233566D02*
X246327666Y-111033566D01*
X246327666Y-111033566D02*
X246394333Y-110766900D01*
X246394333Y-110766900D02*
X246461000Y-110633566D01*
X246461000Y-110633566D02*
X246594333Y-110500233D01*
X246594333Y-110500233D02*
X246794333Y-110433566D01*
X246794333Y-110433566D02*
X246927666Y-110433566D01*
X246927666Y-110433566D02*
X247127666Y-110500233D01*
X247127666Y-110500233D02*
X247194333Y-110566900D01*
X246594333Y-109900233D02*
X246861000Y-110100233D01*
X246861000Y-110100233D02*
X247127666Y-109900233D01*
X257685000Y-130502566D02*
X257218333Y-129835900D01*
X256885000Y-130502566D02*
X256885000Y-129102566D01*
X256885000Y-129102566D02*
X257418333Y-129102566D01*
X257418333Y-129102566D02*
X257551667Y-129169233D01*
X257551667Y-129169233D02*
X257618333Y-129235900D01*
X257618333Y-129235900D02*
X257685000Y-129369233D01*
X257685000Y-129369233D02*
X257685000Y-129569233D01*
X257685000Y-129569233D02*
X257618333Y-129702566D01*
X257618333Y-129702566D02*
X257551667Y-129769233D01*
X257551667Y-129769233D02*
X257418333Y-129835900D01*
X257418333Y-129835900D02*
X256885000Y-129835900D01*
X258285000Y-129969233D02*
X259351667Y-129969233D01*
X259951666Y-130435900D02*
X260151666Y-130502566D01*
X260151666Y-130502566D02*
X260485000Y-130502566D01*
X260485000Y-130502566D02*
X260618333Y-130435900D01*
X260618333Y-130435900D02*
X260685000Y-130369233D01*
X260685000Y-130369233D02*
X260751666Y-130235900D01*
X260751666Y-130235900D02*
X260751666Y-130102566D01*
X260751666Y-130102566D02*
X260685000Y-129969233D01*
X260685000Y-129969233D02*
X260618333Y-129902566D01*
X260618333Y-129902566D02*
X260485000Y-129835900D01*
X260485000Y-129835900D02*
X260218333Y-129769233D01*
X260218333Y-129769233D02*
X260085000Y-129702566D01*
X260085000Y-129702566D02*
X260018333Y-129635900D01*
X260018333Y-129635900D02*
X259951666Y-129502566D01*
X259951666Y-129502566D02*
X259951666Y-129369233D01*
X259951666Y-129369233D02*
X260018333Y-129235900D01*
X260018333Y-129235900D02*
X260085000Y-129169233D01*
X260085000Y-129169233D02*
X260218333Y-129102566D01*
X260218333Y-129102566D02*
X260551666Y-129102566D01*
X260551666Y-129102566D02*
X260751666Y-129169233D01*
X261351666Y-130502566D02*
X261351666Y-129102566D01*
X261351666Y-129769233D02*
X262151666Y-129769233D01*
X262151666Y-130502566D02*
X262151666Y-129102566D01*
X262818333Y-130502566D02*
X262818333Y-129102566D01*
X263951667Y-129769233D02*
X263485000Y-129769233D01*
X263485000Y-130502566D02*
X263485000Y-129102566D01*
X263485000Y-129102566D02*
X264151667Y-129102566D01*
X264485000Y-129102566D02*
X265285000Y-129102566D01*
X264885000Y-130502566D02*
X264885000Y-129102566D01*
X104203333Y-130326233D02*
X104136666Y-130392900D01*
X104136666Y-130392900D02*
X103936666Y-130459566D01*
X103936666Y-130459566D02*
X103803333Y-130459566D01*
X103803333Y-130459566D02*
X103603333Y-130392900D01*
X103603333Y-130392900D02*
X103470000Y-130259566D01*
X103470000Y-130259566D02*
X103403333Y-130126233D01*
X103403333Y-130126233D02*
X103336666Y-129859566D01*
X103336666Y-129859566D02*
X103336666Y-129659566D01*
X103336666Y-129659566D02*
X103403333Y-129392900D01*
X103403333Y-129392900D02*
X103470000Y-129259566D01*
X103470000Y-129259566D02*
X103603333Y-129126233D01*
X103603333Y-129126233D02*
X103803333Y-129059566D01*
X103803333Y-129059566D02*
X103936666Y-129059566D01*
X103936666Y-129059566D02*
X104136666Y-129126233D01*
X104136666Y-129126233D02*
X104203333Y-129192900D01*
X274815333Y-91262900D02*
X275082000Y-91062900D01*
X275082000Y-91062900D02*
X275348666Y-91262900D01*
X74911000Y-111385900D02*
X75111000Y-111452566D01*
X75111000Y-111452566D02*
X75444334Y-111452566D01*
X75444334Y-111452566D02*
X75577667Y-111385900D01*
X75577667Y-111385900D02*
X75644334Y-111319233D01*
X75644334Y-111319233D02*
X75711000Y-111185900D01*
X75711000Y-111185900D02*
X75711000Y-111052566D01*
X75711000Y-111052566D02*
X75644334Y-110919233D01*
X75644334Y-110919233D02*
X75577667Y-110852566D01*
X75577667Y-110852566D02*
X75444334Y-110785900D01*
X75444334Y-110785900D02*
X75177667Y-110719233D01*
X75177667Y-110719233D02*
X75044334Y-110652566D01*
X75044334Y-110652566D02*
X74977667Y-110585900D01*
X74977667Y-110585900D02*
X74911000Y-110452566D01*
X74911000Y-110452566D02*
X74911000Y-110319233D01*
X74911000Y-110319233D02*
X74977667Y-110185900D01*
X74977667Y-110185900D02*
X75044334Y-110119233D01*
X75044334Y-110119233D02*
X75177667Y-110052566D01*
X75177667Y-110052566D02*
X75511000Y-110052566D01*
X75511000Y-110052566D02*
X75711000Y-110119233D01*
X283466333Y-149419233D02*
X283399666Y-149485900D01*
X283399666Y-149485900D02*
X283199666Y-149552566D01*
X283199666Y-149552566D02*
X283066333Y-149552566D01*
X283066333Y-149552566D02*
X282866333Y-149485900D01*
X282866333Y-149485900D02*
X282733000Y-149352566D01*
X282733000Y-149352566D02*
X282666333Y-149219233D01*
X282666333Y-149219233D02*
X282599666Y-148952566D01*
X282599666Y-148952566D02*
X282599666Y-148752566D01*
X282599666Y-148752566D02*
X282666333Y-148485900D01*
X282666333Y-148485900D02*
X282733000Y-148352566D01*
X282733000Y-148352566D02*
X282866333Y-148219233D01*
X282866333Y-148219233D02*
X283066333Y-148152566D01*
X283066333Y-148152566D02*
X283199666Y-148152566D01*
X283199666Y-148152566D02*
X283399666Y-148219233D01*
X283399666Y-148219233D02*
X283466333Y-148285900D01*
X284066333Y-148152566D02*
X284066333Y-149285900D01*
X284066333Y-149285900D02*
X284133000Y-149419233D01*
X284133000Y-149419233D02*
X284199666Y-149485900D01*
X284199666Y-149485900D02*
X284333000Y-149552566D01*
X284333000Y-149552566D02*
X284599666Y-149552566D01*
X284599666Y-149552566D02*
X284733000Y-149485900D01*
X284733000Y-149485900D02*
X284799666Y-149419233D01*
X284799666Y-149419233D02*
X284866333Y-149285900D01*
X284866333Y-149285900D02*
X284866333Y-148152566D01*
X286333000Y-149552566D02*
X285866333Y-148885900D01*
X285533000Y-149552566D02*
X285533000Y-148152566D01*
X285533000Y-148152566D02*
X286066333Y-148152566D01*
X286066333Y-148152566D02*
X286199667Y-148219233D01*
X286199667Y-148219233D02*
X286266333Y-148285900D01*
X286266333Y-148285900D02*
X286333000Y-148419233D01*
X286333000Y-148419233D02*
X286333000Y-148619233D01*
X286333000Y-148619233D02*
X286266333Y-148752566D01*
X286266333Y-148752566D02*
X286199667Y-148819233D01*
X286199667Y-148819233D02*
X286066333Y-148885900D01*
X286066333Y-148885900D02*
X285533000Y-148885900D01*
X286866333Y-149485900D02*
X287066333Y-149552566D01*
X287066333Y-149552566D02*
X287399667Y-149552566D01*
X287399667Y-149552566D02*
X287533000Y-149485900D01*
X287533000Y-149485900D02*
X287599667Y-149419233D01*
X287599667Y-149419233D02*
X287666333Y-149285900D01*
X287666333Y-149285900D02*
X287666333Y-149152566D01*
X287666333Y-149152566D02*
X287599667Y-149019233D01*
X287599667Y-149019233D02*
X287533000Y-148952566D01*
X287533000Y-148952566D02*
X287399667Y-148885900D01*
X287399667Y-148885900D02*
X287133000Y-148819233D01*
X287133000Y-148819233D02*
X286999667Y-148752566D01*
X286999667Y-148752566D02*
X286933000Y-148685900D01*
X286933000Y-148685900D02*
X286866333Y-148552566D01*
X286866333Y-148552566D02*
X286866333Y-148419233D01*
X286866333Y-148419233D02*
X286933000Y-148285900D01*
X286933000Y-148285900D02*
X286999667Y-148219233D01*
X286999667Y-148219233D02*
X287133000Y-148152566D01*
X287133000Y-148152566D02*
X287466333Y-148152566D01*
X287466333Y-148152566D02*
X287666333Y-148219233D01*
X288533000Y-148152566D02*
X288799666Y-148152566D01*
X288799666Y-148152566D02*
X288933000Y-148219233D01*
X288933000Y-148219233D02*
X289066333Y-148352566D01*
X289066333Y-148352566D02*
X289133000Y-148619233D01*
X289133000Y-148619233D02*
X289133000Y-149085900D01*
X289133000Y-149085900D02*
X289066333Y-149352566D01*
X289066333Y-149352566D02*
X288933000Y-149485900D01*
X288933000Y-149485900D02*
X288799666Y-149552566D01*
X288799666Y-149552566D02*
X288533000Y-149552566D01*
X288533000Y-149552566D02*
X288399666Y-149485900D01*
X288399666Y-149485900D02*
X288266333Y-149352566D01*
X288266333Y-149352566D02*
X288199666Y-149085900D01*
X288199666Y-149085900D02*
X288199666Y-148619233D01*
X288199666Y-148619233D02*
X288266333Y-148352566D01*
X288266333Y-148352566D02*
X288399666Y-148219233D01*
X288399666Y-148219233D02*
X288533000Y-148152566D01*
X290533000Y-149552566D02*
X290066333Y-148885900D01*
X289733000Y-149552566D02*
X289733000Y-148152566D01*
X289733000Y-148152566D02*
X290266333Y-148152566D01*
X290266333Y-148152566D02*
X290399667Y-148219233D01*
X290399667Y-148219233D02*
X290466333Y-148285900D01*
X290466333Y-148285900D02*
X290533000Y-148419233D01*
X290533000Y-148419233D02*
X290533000Y-148619233D01*
X290533000Y-148619233D02*
X290466333Y-148752566D01*
X290466333Y-148752566D02*
X290399667Y-148819233D01*
X290399667Y-148819233D02*
X290266333Y-148885900D01*
X290266333Y-148885900D02*
X289733000Y-148885900D01*
X292866334Y-149552566D02*
X292199667Y-149552566D01*
X292199667Y-149552566D02*
X292199667Y-148152566D01*
X293333000Y-148819233D02*
X293799667Y-148819233D01*
X293999667Y-149552566D02*
X293333000Y-149552566D01*
X293333000Y-149552566D02*
X293333000Y-148152566D01*
X293333000Y-148152566D02*
X293999667Y-148152566D01*
X295066334Y-148819233D02*
X294599667Y-148819233D01*
X294599667Y-149552566D02*
X294599667Y-148152566D01*
X294599667Y-148152566D02*
X295266334Y-148152566D01*
X295599667Y-148152566D02*
X296399667Y-148152566D01*
X295999667Y-149552566D02*
X295999667Y-148152566D01*
X228017333Y-111700233D02*
X227950666Y-111766900D01*
X227950666Y-111766900D02*
X227750666Y-111833566D01*
X227750666Y-111833566D02*
X227617333Y-111833566D01*
X227617333Y-111833566D02*
X227417333Y-111766900D01*
X227417333Y-111766900D02*
X227284000Y-111633566D01*
X227284000Y-111633566D02*
X227217333Y-111500233D01*
X227217333Y-111500233D02*
X227150666Y-111233566D01*
X227150666Y-111233566D02*
X227150666Y-111033566D01*
X227150666Y-111033566D02*
X227217333Y-110766900D01*
X227217333Y-110766900D02*
X227284000Y-110633566D01*
X227284000Y-110633566D02*
X227417333Y-110500233D01*
X227417333Y-110500233D02*
X227617333Y-110433566D01*
X227617333Y-110433566D02*
X227750666Y-110433566D01*
X227750666Y-110433566D02*
X227950666Y-110500233D01*
X227950666Y-110500233D02*
X228017333Y-110566900D01*
X227817333Y-109900233D02*
X227617333Y-110100233D01*
X236836000Y-92716900D02*
X237036000Y-92783566D01*
X237036000Y-92783566D02*
X237369334Y-92783566D01*
X237369334Y-92783566D02*
X237502667Y-92716900D01*
X237502667Y-92716900D02*
X237569334Y-92650233D01*
X237569334Y-92650233D02*
X237636000Y-92516900D01*
X237636000Y-92516900D02*
X237636000Y-92383566D01*
X237636000Y-92383566D02*
X237569334Y-92250233D01*
X237569334Y-92250233D02*
X237502667Y-92183566D01*
X237502667Y-92183566D02*
X237369334Y-92116900D01*
X237369334Y-92116900D02*
X237102667Y-92050233D01*
X237102667Y-92050233D02*
X236969334Y-91983566D01*
X236969334Y-91983566D02*
X236902667Y-91916900D01*
X236902667Y-91916900D02*
X236836000Y-91783566D01*
X236836000Y-91783566D02*
X236836000Y-91650233D01*
X236836000Y-91650233D02*
X236902667Y-91516900D01*
X236902667Y-91516900D02*
X236969334Y-91450233D01*
X236969334Y-91450233D02*
X237102667Y-91383566D01*
X237102667Y-91383566D02*
X237436000Y-91383566D01*
X237436000Y-91383566D02*
X237636000Y-91450233D01*
X236969334Y-90850233D02*
X237236000Y-91050233D01*
X237236000Y-91050233D02*
X237502667Y-90850233D01*
X141986000Y-91735900D02*
X141986000Y-92402566D01*
X141519333Y-91002566D02*
X141986000Y-91735900D01*
X141986000Y-91735900D02*
X142452666Y-91002566D01*
X255792333Y-92402566D02*
X255792333Y-91002566D01*
X255792333Y-91002566D02*
X256125666Y-91002566D01*
X256125666Y-91002566D02*
X256325666Y-91069233D01*
X256325666Y-91069233D02*
X256459000Y-91202566D01*
X256459000Y-91202566D02*
X256525666Y-91335900D01*
X256525666Y-91335900D02*
X256592333Y-91602566D01*
X256592333Y-91602566D02*
X256592333Y-91802566D01*
X256592333Y-91802566D02*
X256525666Y-92069233D01*
X256525666Y-92069233D02*
X256459000Y-92202566D01*
X256459000Y-92202566D02*
X256325666Y-92335900D01*
X256325666Y-92335900D02*
X256125666Y-92402566D01*
X256125666Y-92402566D02*
X255792333Y-92402566D01*
X255592333Y-91669233D02*
X256125666Y-91669233D01*
X308397334Y-72746233D02*
X307930667Y-72746233D01*
X307930667Y-73479566D02*
X307930667Y-72079566D01*
X307930667Y-72079566D02*
X308597334Y-72079566D01*
X309864000Y-73479566D02*
X309064000Y-73479566D01*
X309464000Y-73479566D02*
X309464000Y-72079566D01*
X309464000Y-72079566D02*
X309330667Y-72279566D01*
X309330667Y-72279566D02*
X309197334Y-72412900D01*
X309197334Y-72412900D02*
X309064000Y-72479566D01*
X303543333Y-130750233D02*
X303476666Y-130816900D01*
X303476666Y-130816900D02*
X303276666Y-130883566D01*
X303276666Y-130883566D02*
X303143333Y-130883566D01*
X303143333Y-130883566D02*
X302943333Y-130816900D01*
X302943333Y-130816900D02*
X302810000Y-130683566D01*
X302810000Y-130683566D02*
X302743333Y-130550233D01*
X302743333Y-130550233D02*
X302676666Y-130283566D01*
X302676666Y-130283566D02*
X302676666Y-130083566D01*
X302676666Y-130083566D02*
X302743333Y-129816900D01*
X302743333Y-129816900D02*
X302810000Y-129683566D01*
X302810000Y-129683566D02*
X302943333Y-129550233D01*
X302943333Y-129550233D02*
X303143333Y-129483566D01*
X303143333Y-129483566D02*
X303276666Y-129483566D01*
X303276666Y-129483566D02*
X303476666Y-129550233D01*
X303476666Y-129550233D02*
X303543333Y-129616900D01*
X304143333Y-129483566D02*
X304143333Y-130616900D01*
X304143333Y-130616900D02*
X304210000Y-130750233D01*
X304210000Y-130750233D02*
X304276666Y-130816900D01*
X304276666Y-130816900D02*
X304410000Y-130883566D01*
X304410000Y-130883566D02*
X304676666Y-130883566D01*
X304676666Y-130883566D02*
X304810000Y-130816900D01*
X304810000Y-130816900D02*
X304876666Y-130750233D01*
X304876666Y-130750233D02*
X304943333Y-130616900D01*
X304943333Y-130616900D02*
X304943333Y-129483566D01*
X306410000Y-130883566D02*
X305943333Y-130216900D01*
X305610000Y-130883566D02*
X305610000Y-129483566D01*
X305610000Y-129483566D02*
X306143333Y-129483566D01*
X306143333Y-129483566D02*
X306276667Y-129550233D01*
X306276667Y-129550233D02*
X306343333Y-129616900D01*
X306343333Y-129616900D02*
X306410000Y-129750233D01*
X306410000Y-129750233D02*
X306410000Y-129950233D01*
X306410000Y-129950233D02*
X306343333Y-130083566D01*
X306343333Y-130083566D02*
X306276667Y-130150233D01*
X306276667Y-130150233D02*
X306143333Y-130216900D01*
X306143333Y-130216900D02*
X305610000Y-130216900D01*
X306943333Y-130816900D02*
X307143333Y-130883566D01*
X307143333Y-130883566D02*
X307476667Y-130883566D01*
X307476667Y-130883566D02*
X307610000Y-130816900D01*
X307610000Y-130816900D02*
X307676667Y-130750233D01*
X307676667Y-130750233D02*
X307743333Y-130616900D01*
X307743333Y-130616900D02*
X307743333Y-130483566D01*
X307743333Y-130483566D02*
X307676667Y-130350233D01*
X307676667Y-130350233D02*
X307610000Y-130283566D01*
X307610000Y-130283566D02*
X307476667Y-130216900D01*
X307476667Y-130216900D02*
X307210000Y-130150233D01*
X307210000Y-130150233D02*
X307076667Y-130083566D01*
X307076667Y-130083566D02*
X307010000Y-130016900D01*
X307010000Y-130016900D02*
X306943333Y-129883566D01*
X306943333Y-129883566D02*
X306943333Y-129750233D01*
X306943333Y-129750233D02*
X307010000Y-129616900D01*
X307010000Y-129616900D02*
X307076667Y-129550233D01*
X307076667Y-129550233D02*
X307210000Y-129483566D01*
X307210000Y-129483566D02*
X307543333Y-129483566D01*
X307543333Y-129483566D02*
X307743333Y-129550233D01*
X308610000Y-129483566D02*
X308876666Y-129483566D01*
X308876666Y-129483566D02*
X309010000Y-129550233D01*
X309010000Y-129550233D02*
X309143333Y-129683566D01*
X309143333Y-129683566D02*
X309210000Y-129950233D01*
X309210000Y-129950233D02*
X309210000Y-130416900D01*
X309210000Y-130416900D02*
X309143333Y-130683566D01*
X309143333Y-130683566D02*
X309010000Y-130816900D01*
X309010000Y-130816900D02*
X308876666Y-130883566D01*
X308876666Y-130883566D02*
X308610000Y-130883566D01*
X308610000Y-130883566D02*
X308476666Y-130816900D01*
X308476666Y-130816900D02*
X308343333Y-130683566D01*
X308343333Y-130683566D02*
X308276666Y-130416900D01*
X308276666Y-130416900D02*
X308276666Y-129950233D01*
X308276666Y-129950233D02*
X308343333Y-129683566D01*
X308343333Y-129683566D02*
X308476666Y-129550233D01*
X308476666Y-129550233D02*
X308610000Y-129483566D01*
X310610000Y-130883566D02*
X310143333Y-130216900D01*
X309810000Y-130883566D02*
X309810000Y-129483566D01*
X309810000Y-129483566D02*
X310343333Y-129483566D01*
X310343333Y-129483566D02*
X310476667Y-129550233D01*
X310476667Y-129550233D02*
X310543333Y-129616900D01*
X310543333Y-129616900D02*
X310610000Y-129750233D01*
X310610000Y-129750233D02*
X310610000Y-129950233D01*
X310610000Y-129950233D02*
X310543333Y-130083566D01*
X310543333Y-130083566D02*
X310476667Y-130150233D01*
X310476667Y-130150233D02*
X310343333Y-130216900D01*
X310343333Y-130216900D02*
X309810000Y-130216900D01*
X312276667Y-129483566D02*
X312276667Y-130616900D01*
X312276667Y-130616900D02*
X312343334Y-130750233D01*
X312343334Y-130750233D02*
X312410000Y-130816900D01*
X312410000Y-130816900D02*
X312543334Y-130883566D01*
X312543334Y-130883566D02*
X312810000Y-130883566D01*
X312810000Y-130883566D02*
X312943334Y-130816900D01*
X312943334Y-130816900D02*
X313010000Y-130750233D01*
X313010000Y-130750233D02*
X313076667Y-130616900D01*
X313076667Y-130616900D02*
X313076667Y-129483566D01*
X313743334Y-130883566D02*
X313743334Y-129483566D01*
X313743334Y-129483566D02*
X314276667Y-129483566D01*
X314276667Y-129483566D02*
X314410001Y-129550233D01*
X314410001Y-129550233D02*
X314476667Y-129616900D01*
X314476667Y-129616900D02*
X314543334Y-129750233D01*
X314543334Y-129750233D02*
X314543334Y-129950233D01*
X314543334Y-129950233D02*
X314476667Y-130083566D01*
X314476667Y-130083566D02*
X314410001Y-130150233D01*
X314410001Y-130150233D02*
X314276667Y-130216900D01*
X314276667Y-130216900D02*
X313743334Y-130216900D01*
X160382000Y-130502566D02*
X160382000Y-129102566D01*
X160382000Y-129102566D02*
X161182000Y-130502566D01*
X161182000Y-130502566D02*
X161182000Y-129102566D01*
X327320334Y-72746233D02*
X326853667Y-72746233D01*
X326853667Y-73479566D02*
X326853667Y-72079566D01*
X326853667Y-72079566D02*
X327520334Y-72079566D01*
X327987000Y-72212900D02*
X328053667Y-72146233D01*
X328053667Y-72146233D02*
X328187000Y-72079566D01*
X328187000Y-72079566D02*
X328520334Y-72079566D01*
X328520334Y-72079566D02*
X328653667Y-72146233D01*
X328653667Y-72146233D02*
X328720334Y-72212900D01*
X328720334Y-72212900D02*
X328787000Y-72346233D01*
X328787000Y-72346233D02*
X328787000Y-72479566D01*
X328787000Y-72479566D02*
X328720334Y-72679566D01*
X328720334Y-72679566D02*
X327920334Y-73479566D01*
X327920334Y-73479566D02*
X328787000Y-73479566D01*
X160636000Y-91129566D02*
X160636000Y-92262900D01*
X160636000Y-92262900D02*
X160702667Y-92396233D01*
X160702667Y-92396233D02*
X160769333Y-92462900D01*
X160769333Y-92462900D02*
X160902667Y-92529566D01*
X160902667Y-92529566D02*
X161169333Y-92529566D01*
X161169333Y-92529566D02*
X161302667Y-92462900D01*
X161302667Y-92462900D02*
X161369333Y-92396233D01*
X161369333Y-92396233D02*
X161436000Y-92262900D01*
X161436000Y-92262900D02*
X161436000Y-91129566D01*
X122469333Y-129229566D02*
X122936000Y-130629566D01*
X122936000Y-130629566D02*
X123402666Y-129229566D01*
X55880797Y-72212900D02*
X55947464Y-72146233D01*
X55947464Y-72146233D02*
X56080797Y-72079566D01*
X56080797Y-72079566D02*
X56414131Y-72079566D01*
X56414131Y-72079566D02*
X56547464Y-72146233D01*
X56547464Y-72146233D02*
X56614131Y-72212900D01*
X56614131Y-72212900D02*
X56680797Y-72346233D01*
X56680797Y-72346233D02*
X56680797Y-72479566D01*
X56680797Y-72479566D02*
X56614131Y-72679566D01*
X56614131Y-72679566D02*
X55814131Y-73479566D01*
X55814131Y-73479566D02*
X56680797Y-73479566D01*
X227177667Y-72946233D02*
X228244334Y-72946233D01*
D13*
%TO.C,S28*%
X106247500Y-57352500D02*
X106247500Y-71552500D01*
X106247500Y-71552500D02*
X120447500Y-71552500D01*
X120447500Y-57352500D02*
X106247500Y-57352500D01*
X120447500Y-71552500D02*
X120447500Y-57352500D01*
%TO.C,S23*%
X134822500Y-114502500D02*
X134822500Y-128702500D01*
X134822500Y-128702500D02*
X149022500Y-128702500D01*
X149022500Y-114502500D02*
X134822500Y-114502500D01*
X149022500Y-128702500D02*
X149022500Y-114502500D01*
%TO.C,S35*%
X182447500Y-95452500D02*
X182447500Y-109652500D01*
X182447500Y-109652500D02*
X196647500Y-109652500D01*
X196647500Y-95452500D02*
X182447500Y-95452500D01*
X196647500Y-109652500D02*
X196647500Y-95452500D01*
%TO.C,S39*%
X301510000Y-76402500D02*
X301510000Y-90602500D01*
X301510000Y-90602500D02*
X315710000Y-90602500D01*
X315710000Y-76402500D02*
X301510000Y-76402500D01*
X315710000Y-90602500D02*
X315710000Y-76402500D01*
%TO.C,S45*%
X163397500Y-95452500D02*
X163397500Y-109652500D01*
X163397500Y-109652500D02*
X177597500Y-109652500D01*
X177597500Y-95452500D02*
X163397500Y-95452500D01*
X177597500Y-109652500D02*
X177597500Y-95452500D01*
%TO.C,S14*%
X87197500Y-95452500D02*
X87197500Y-109652500D01*
X87197500Y-109652500D02*
X101397500Y-109652500D01*
X101397500Y-95452500D02*
X87197500Y-95452500D01*
X101397500Y-109652500D02*
X101397500Y-95452500D01*
%TO.C,S33*%
X125297500Y-95452500D02*
X125297500Y-109652500D01*
X125297500Y-109652500D02*
X139497500Y-109652500D01*
X139497500Y-95452500D02*
X125297500Y-95452500D01*
X139497500Y-109652500D02*
X139497500Y-95452500D01*
%TO.C,S29*%
X163397500Y-133552500D02*
X163397500Y-147752500D01*
X163397500Y-147752500D02*
X177597500Y-147752500D01*
X177597500Y-133552500D02*
X163397500Y-133552500D01*
X177597500Y-147752500D02*
X177597500Y-133552500D01*
%TO.C,S43*%
X144347500Y-95452500D02*
X144347500Y-109652500D01*
X144347500Y-109652500D02*
X158547500Y-109652500D01*
X158547500Y-95452500D02*
X144347500Y-95452500D01*
X158547500Y-109652500D02*
X158547500Y-95452500D01*
%TO.C,S1*%
X258647500Y-57352500D02*
X258647500Y-71552500D01*
X258647500Y-71552500D02*
X272847500Y-71552500D01*
X272847500Y-57352500D02*
X258647500Y-57352500D01*
X272847500Y-71552500D02*
X272847500Y-57352500D01*
%TO.C,S48*%
X58622500Y-114502500D02*
X58622500Y-128702500D01*
X58622500Y-128702500D02*
X72822500Y-128702500D01*
X72822500Y-114502500D02*
X58622500Y-114502500D01*
X72822500Y-128702500D02*
X72822500Y-114502500D01*
%TO.C,S61*%
X34810000Y-114502500D02*
X34810000Y-128702500D01*
X34810000Y-128702500D02*
X49010000Y-128702500D01*
X49010000Y-114502500D02*
X34810000Y-114502500D01*
X49010000Y-128702500D02*
X49010000Y-114502500D01*
%TO.C,S22*%
X230072500Y-114502500D02*
X230072500Y-128702500D01*
X230072500Y-128702500D02*
X244272500Y-128702500D01*
X244272500Y-114502500D02*
X230072500Y-114502500D01*
X244272500Y-128702500D02*
X244272500Y-114502500D01*
%TO.C,S4*%
X134822500Y-76402500D02*
X134822500Y-90602500D01*
X134822500Y-90602500D02*
X149022500Y-90602500D01*
X149022500Y-76402500D02*
X134822500Y-76402500D01*
X149022500Y-90602500D02*
X149022500Y-76402500D01*
%TO.C,S21*%
X220547500Y-57352500D02*
X220547500Y-71552500D01*
X220547500Y-71552500D02*
X234747500Y-71552500D01*
X234747500Y-57352500D02*
X220547500Y-57352500D01*
X234747500Y-71552500D02*
X234747500Y-57352500D01*
%TO.C,S20*%
X282460000Y-133552500D02*
X282460000Y-147752500D01*
X282460000Y-147752500D02*
X296660000Y-147752500D01*
X296660000Y-133552500D02*
X282460000Y-133552500D01*
X296660000Y-147752500D02*
X296660000Y-133552500D01*
%TO.C,S59*%
X253885000Y-114502500D02*
X253885000Y-128702500D01*
X253885000Y-128702500D02*
X268085000Y-128702500D01*
X268085000Y-114502500D02*
X253885000Y-114502500D01*
X268085000Y-128702500D02*
X268085000Y-114502500D01*
%TO.C,S10*%
X301500000Y-133542500D02*
X301500000Y-147742500D01*
X301500000Y-147742500D02*
X315700000Y-147742500D01*
X315700000Y-133542500D02*
X301500000Y-133542500D01*
X315700000Y-147742500D02*
X315700000Y-133542500D01*
%TO.C,S58*%
X87197500Y-57352500D02*
X87197500Y-71552500D01*
X87197500Y-71552500D02*
X101397500Y-71552500D01*
X101397500Y-57352500D02*
X87197500Y-57352500D01*
X101397500Y-71552500D02*
X101397500Y-57352500D01*
%TO.C,S51*%
X201500000Y-57400000D02*
X201500000Y-71600000D01*
X201500000Y-71600000D02*
X215700000Y-71600000D01*
X215700000Y-57400000D02*
X201500000Y-57400000D01*
X215700000Y-71600000D02*
X215700000Y-57400000D01*
%TO.C,S11*%
X211022500Y-76402500D02*
X211022500Y-90602500D01*
X211022500Y-90602500D02*
X225222500Y-90602500D01*
X225222500Y-76402500D02*
X211022500Y-76402500D01*
X225222500Y-90602500D02*
X225222500Y-76402500D01*
%TO.C,S42*%
X220547500Y-95452500D02*
X220547500Y-109652500D01*
X220547500Y-109652500D02*
X234747500Y-109652500D01*
X234747500Y-95452500D02*
X220547500Y-95452500D01*
X234747500Y-109652500D02*
X234747500Y-95452500D01*
%TO.C,S32*%
X277697500Y-57352500D02*
X277697500Y-71552500D01*
X277697500Y-71552500D02*
X291897500Y-71552500D01*
X291897500Y-57352500D02*
X277697500Y-57352500D01*
X291897500Y-71552500D02*
X291897500Y-57352500D01*
%TO.C,S40*%
X301510000Y-114502500D02*
X301510000Y-128702500D01*
X301510000Y-128702500D02*
X315710000Y-128702500D01*
X315710000Y-114502500D02*
X301510000Y-114502500D01*
X315710000Y-128702500D02*
X315710000Y-114502500D01*
%TO.C,S13*%
X106247500Y-95452500D02*
X106247500Y-109652500D01*
X106247500Y-109652500D02*
X120447500Y-109652500D01*
X120447500Y-95452500D02*
X106247500Y-95452500D01*
X120447500Y-109652500D02*
X120447500Y-95452500D01*
%TO.C,S44*%
X49097500Y-95452500D02*
X49097500Y-109652500D01*
X49097500Y-109652500D02*
X63297500Y-109652500D01*
X63297500Y-95452500D02*
X49097500Y-95452500D01*
X63297500Y-109652500D02*
X63297500Y-95452500D01*
%TO.C,S55*%
X211022500Y-114502500D02*
X211022500Y-128702500D01*
X211022500Y-128702500D02*
X225222500Y-128702500D01*
X225222500Y-114502500D02*
X211022500Y-114502500D01*
X225222500Y-128702500D02*
X225222500Y-114502500D01*
%TO.C,S41*%
X249122500Y-76402500D02*
X249122500Y-90602500D01*
X249122500Y-90602500D02*
X263322500Y-90602500D01*
X263322500Y-76402500D02*
X249122500Y-76402500D01*
X263322500Y-90602500D02*
X263322500Y-76402500D01*
%TO.C,S38*%
X115772500Y-76402500D02*
X115772500Y-90602500D01*
X115772500Y-90602500D02*
X129972500Y-90602500D01*
X129972500Y-76402500D02*
X115772500Y-76402500D01*
X129972500Y-90602500D02*
X129972500Y-76402500D01*
%TO.C,S53*%
X115772500Y-114502500D02*
X115772500Y-128702500D01*
X115772500Y-128702500D02*
X129972500Y-128702500D01*
X129972500Y-114502500D02*
X115772500Y-114502500D01*
X129972500Y-128702500D02*
X129972500Y-114502500D01*
%TO.C,S57*%
X182447500Y-57400000D02*
X182447500Y-71600000D01*
X182447500Y-71600000D02*
X196647500Y-71600000D01*
X196647500Y-57400000D02*
X182447500Y-57400000D01*
X196647500Y-71600000D02*
X196647500Y-57400000D01*
%TO.C,S12*%
X239597500Y-95452500D02*
X239597500Y-109652500D01*
X239597500Y-109652500D02*
X253797500Y-109652500D01*
X253797500Y-95452500D02*
X239597500Y-95452500D01*
X253797500Y-109652500D02*
X253797500Y-95452500D01*
%TO.C,S47*%
X172922500Y-76402500D02*
X172922500Y-90602500D01*
X172922500Y-90602500D02*
X187122500Y-90602500D01*
X187122500Y-76402500D02*
X172922500Y-76402500D01*
X187122500Y-90602500D02*
X187122500Y-76402500D01*
%TO.C,S27*%
X163397500Y-57400000D02*
X163397500Y-71600000D01*
X163397500Y-71600000D02*
X177597500Y-71600000D01*
X177597500Y-57400000D02*
X163397500Y-57400000D01*
X177597500Y-71600000D02*
X177597500Y-57400000D01*
%TO.C,S5*%
X172922500Y-114502500D02*
X172922500Y-128702500D01*
X172922500Y-128702500D02*
X187122500Y-128702500D01*
X187122500Y-114502500D02*
X172922500Y-114502500D01*
X187122500Y-128702500D02*
X187122500Y-114502500D01*
%TO.C,S37*%
X153872500Y-76402500D02*
X153872500Y-90602500D01*
X153872500Y-90602500D02*
X168072500Y-90602500D01*
X168072500Y-76402500D02*
X153872500Y-76402500D01*
X168072500Y-90602500D02*
X168072500Y-76402500D01*
%TO.C,S18*%
X96722500Y-76402500D02*
X96722500Y-90602500D01*
X96722500Y-90602500D02*
X110922500Y-90602500D01*
X110922500Y-76402500D02*
X96722500Y-76402500D01*
X110922500Y-90602500D02*
X110922500Y-76402500D01*
%TO.C,S34*%
X68147500Y-95452500D02*
X68147500Y-109652500D01*
X68147500Y-109652500D02*
X82347500Y-109652500D01*
X82347500Y-95452500D02*
X68147500Y-95452500D01*
X82347500Y-109652500D02*
X82347500Y-95452500D01*
%TO.C,S46*%
X39572500Y-76402500D02*
X39572500Y-90602500D01*
X39572500Y-90602500D02*
X53772500Y-90602500D01*
X53772500Y-76402500D02*
X39572500Y-76402500D01*
X53772500Y-90602500D02*
X53772500Y-76402500D01*
%TO.C,S54*%
X96722500Y-114502500D02*
X96722500Y-128702500D01*
X96722500Y-128702500D02*
X110922500Y-128702500D01*
X110922500Y-114502500D02*
X96722500Y-114502500D01*
X110922500Y-128702500D02*
X110922500Y-114502500D01*
%TO.C,S3*%
X153872500Y-114502500D02*
X153872500Y-128702500D01*
X153872500Y-128702500D02*
X168072500Y-128702500D01*
X168072500Y-114502500D02*
X153872500Y-114502500D01*
X168072500Y-128702500D02*
X168072500Y-114502500D01*
%TO.C,S52*%
X268172500Y-76402500D02*
X268172500Y-90602500D01*
X268172500Y-90602500D02*
X282372500Y-90602500D01*
X282372500Y-76402500D02*
X268172500Y-76402500D01*
X282372500Y-90602500D02*
X282372500Y-76402500D01*
%TO.C,S19*%
X301510000Y-57352500D02*
X301510000Y-71552500D01*
X301510000Y-71552500D02*
X315710000Y-71552500D01*
X315710000Y-57352500D02*
X301510000Y-57352500D01*
X315710000Y-71552500D02*
X315710000Y-57352500D01*
%TO.C,S17*%
X191972500Y-76402500D02*
X191972500Y-90602500D01*
X191972500Y-90602500D02*
X206172500Y-90602500D01*
X206172500Y-76402500D02*
X191972500Y-76402500D01*
X206172500Y-90602500D02*
X206172500Y-76402500D01*
%TO.C,S50*%
X320550000Y-133542500D02*
X320550000Y-147742500D01*
X320550000Y-147742500D02*
X334750000Y-147742500D01*
X334750000Y-133542500D02*
X320550000Y-133542500D01*
X334750000Y-147742500D02*
X334750000Y-133542500D01*
%TO.C,S9*%
X320560000Y-76402500D02*
X320560000Y-90602500D01*
X320560000Y-90602500D02*
X334760000Y-90602500D01*
X334760000Y-76402500D02*
X320560000Y-76402500D01*
X334760000Y-90602500D02*
X334760000Y-76402500D01*
%TO.C,S25*%
X191972500Y-114502500D02*
X191972500Y-128702500D01*
X191972500Y-128702500D02*
X206172500Y-128702500D01*
X206172500Y-114502500D02*
X191972500Y-114502500D01*
X206172500Y-128702500D02*
X206172500Y-114502500D01*
%TO.C,SW1*%
X162190000Y-44800000D02*
X162190000Y-46050000D01*
X162190000Y-48050000D02*
X162190000Y-49300000D01*
X162190000Y-49300000D02*
X182630000Y-49300000D01*
X182630000Y-44800000D02*
X162190000Y-44800000D01*
X182630000Y-49300000D02*
X182630000Y-44800000D01*
X162190000Y-46050000D02*
G75*
G02*
X162190000Y-48050000I0J-1000000D01*
G01*
%TO.C,S31*%
X230072500Y-76402500D02*
X230072500Y-90602500D01*
X230072500Y-90602500D02*
X244272500Y-90602500D01*
X244272500Y-76402500D02*
X230072500Y-76402500D01*
X244272500Y-90602500D02*
X244272500Y-76402500D01*
%TO.C,S15*%
X201497500Y-95452500D02*
X201497500Y-109652500D01*
X201497500Y-109652500D02*
X215697500Y-109652500D01*
X215697500Y-95452500D02*
X201497500Y-95452500D01*
X215697500Y-109652500D02*
X215697500Y-95452500D01*
%TO.C,S6*%
X30047500Y-57400000D02*
X30047500Y-71600000D01*
X30047500Y-71600000D02*
X44247500Y-71600000D01*
X44247500Y-57400000D02*
X30047500Y-57400000D01*
X44247500Y-71600000D02*
X44247500Y-57400000D01*
%TO.C,S36*%
X58622500Y-76402500D02*
X58622500Y-90602500D01*
X58622500Y-90602500D02*
X72822500Y-90602500D01*
X72822500Y-76402500D02*
X58622500Y-76402500D01*
X72822500Y-90602500D02*
X72822500Y-76402500D01*
%TO.C,S56*%
X68147500Y-57352500D02*
X68147500Y-71552500D01*
X68147500Y-71552500D02*
X82347500Y-71552500D01*
X82347500Y-57352500D02*
X68147500Y-57352500D01*
X82347500Y-71552500D02*
X82347500Y-57352500D01*
%TO.C,S16*%
X77672500Y-76402500D02*
X77672500Y-90602500D01*
X77672500Y-90602500D02*
X91872500Y-90602500D01*
X91872500Y-76402500D02*
X77672500Y-76402500D01*
X91872500Y-90602500D02*
X91872500Y-76402500D01*
%TO.C,S2*%
X239597500Y-57352500D02*
X239597500Y-71552500D01*
X239597500Y-71552500D02*
X253797500Y-71552500D01*
X253797500Y-57352500D02*
X239597500Y-57352500D01*
X253797500Y-71552500D02*
X253797500Y-57352500D01*
%TO.C,S7*%
X144347500Y-57388300D02*
X144347500Y-71588300D01*
X144347500Y-71588300D02*
X158547500Y-71588300D01*
X158547500Y-57388300D02*
X144347500Y-57388300D01*
X158547500Y-71588300D02*
X158547500Y-57388300D01*
%TO.C,S24*%
X77672500Y-114502500D02*
X77672500Y-128702500D01*
X77672500Y-128702500D02*
X91872500Y-128702500D01*
X91872500Y-114502500D02*
X77672500Y-114502500D01*
X91872500Y-128702500D02*
X91872500Y-114502500D01*
%TO.C,S26*%
X49097500Y-57400000D02*
X49097500Y-71600000D01*
X49097500Y-71600000D02*
X63297500Y-71600000D01*
X63297500Y-57400000D02*
X49097500Y-57400000D01*
X63297500Y-71600000D02*
X63297500Y-57400000D01*
%TO.C,S49*%
X320560000Y-57352500D02*
X320560000Y-71552500D01*
X320560000Y-71552500D02*
X334760000Y-71552500D01*
X334760000Y-57352500D02*
X320560000Y-57352500D01*
X334760000Y-71552500D02*
X334760000Y-57352500D01*
%TO.C,S30*%
X263410000Y-95452500D02*
X263410000Y-109652500D01*
X263410000Y-109652500D02*
X277610000Y-109652500D01*
X277610000Y-95452500D02*
X263410000Y-95452500D01*
X277610000Y-109652500D02*
X277610000Y-95452500D01*
%TO.C,S60*%
X30047500Y-95452500D02*
X30047500Y-109652500D01*
X30047500Y-109652500D02*
X44247500Y-109652500D01*
X44247500Y-95452500D02*
X30047500Y-95452500D01*
X44247500Y-109652500D02*
X44247500Y-95452500D01*
%TO.C,S8*%
X125297500Y-57352500D02*
X125297500Y-71552500D01*
X125297500Y-71552500D02*
X139497500Y-71552500D01*
X139497500Y-57352500D02*
X125297500Y-57352500D01*
X139497500Y-71552500D02*
X139497500Y-57352500D01*
%TD*%
M02*
