M48
; DRILL file {KiCad 9.0.7} date 2026-04-09T22:42:37-0400
; FORMAT={-:-/ absolute / inch / decimal}
; #@! TF.CreationDate,2026-04-09T22:42:37-04:00
; #@! TF.GenerationSoftware,Kicad,Pcbnew,9.0.7
; #@! TF.FileFunction,NonPlated,1,2,NPTH
FMAT,2
INCH
; #@! TA.AperFunction,NonPlated,NPTH,ComponentDrill
T1C0.0689
; #@! TA.AperFunction,NonPlated,NPTH,ComponentDrill
T2C0.1200
; #@! TA.AperFunction,NonPlated,NPTH,ComponentDrill
T3C0.1570
; #@! TA.AperFunction,NonPlated,NPTH,ComponentDrill
T4C0.1575
%
G90
G05
T1
X1.2625Y-2.5394
X1.2625Y-4.0375
X1.45Y-4.7875
X1.6375Y-3.2875
X1.6625Y-2.5394
X1.6625Y-4.0375
X1.85Y-4.7875
X2.0125Y-2.5394
X2.0125Y-4.0375
X2.0375Y-3.2875
X2.3875Y-3.2875
X2.3875Y-4.7875
X2.4125Y-2.5394
X2.4125Y-4.0375
X2.7625Y-2.5375
X2.7625Y-4.0375
X2.7875Y-3.2875
X2.7875Y-4.7875
X3.1375Y-3.2875
X3.1375Y-4.7875
X3.1625Y-2.5375
X3.1625Y-4.0375
X3.5125Y-2.5375
X3.5125Y-4.0375
X3.5375Y-3.2875
X3.5375Y-4.7875
X3.8875Y-3.2875
X3.8875Y-4.7875
X3.9125Y-2.5375
X3.9125Y-4.0375
X4.2625Y-2.5375
X4.2625Y-4.0375
X4.2875Y-3.2875
X4.2875Y-4.7875
X4.6375Y-3.2875
X4.6375Y-4.7875
X4.6625Y-2.5375
X4.6625Y-4.0375
X5.0125Y-2.5375
X5.0125Y-4.0375
X5.0375Y-3.2875
X5.0375Y-4.7875
X5.3875Y-3.2875
X5.3875Y-4.7875
X5.4125Y-2.5375
X5.4125Y-4.0375
X5.7625Y-2.5389
X5.7625Y-4.0375
X5.7875Y-3.2875
X5.7875Y-4.7875
X6.1375Y-3.2875
X6.1375Y-4.7875
X6.1625Y-2.5389
X6.1625Y-4.0375
X6.5125Y-2.5394
X6.5125Y-4.0375
X6.5375Y-3.2875
X6.5375Y-4.7875
X6.8875Y-3.2875
X6.8875Y-4.7875
X6.9125Y-2.5394
X6.9125Y-4.0375
X7.2625Y-2.5394
X7.2625Y-4.0375
X7.2875Y-3.2875
X7.2875Y-4.7875
X7.6375Y-3.2875
X7.6375Y-4.7875
X7.6625Y-2.5394
X7.6625Y-4.0375
X8.0125Y-4.0375
X8.0126Y-2.5394
X8.0375Y-3.2875
X8.0375Y-4.7875
X8.3875Y-3.2875
X8.3875Y-4.7875
X8.4125Y-4.0375
X8.4126Y-2.5394
X8.7625Y-2.5375
X8.7625Y-4.0375
X8.7875Y-3.2875
X8.7875Y-4.7875
X9.1375Y-3.2875
X9.1375Y-4.7875
X9.1625Y-2.5375
X9.1625Y-4.0375
X9.5125Y-2.5375
X9.5125Y-4.0375
X9.5375Y-3.2875
X9.5375Y-4.7875
X9.8875Y-3.2875
X9.9125Y-2.5375
X9.9125Y-4.0375
X10.075Y-4.7875
X10.2625Y-2.5375
X10.2875Y-3.2875
X10.45Y-4.0375
X10.475Y-4.7875
X10.6375Y-3.2875
X10.6625Y-2.5375
X10.85Y-4.0375
X11.0125Y-2.5375
X11.0375Y-3.2875
X11.2Y-5.5375
X11.4125Y-2.5375
X11.6Y-5.5375
X11.9496Y-5.5371
X11.95Y-2.5375
X11.95Y-3.2875
X11.95Y-4.7875
X12.3496Y-5.5371
X12.35Y-2.5375
X12.35Y-3.2875
X12.35Y-4.7875
X12.6996Y-5.5371
X12.7Y-2.5375
X12.7Y-3.2875
X13.0996Y-5.5371
X13.1Y-2.5375
X13.1Y-3.2875
T2
X4.7471Y-5.2625
X8.6842Y-5.2625
T3
X4.7471Y-5.8613
X8.6842Y-5.8613
T4
X1.4625Y-2.5394
X1.4625Y-4.0375
X1.65Y-4.7875
X1.8375Y-3.2875
X2.2125Y-2.5394
X2.2125Y-4.0375
X2.5875Y-3.2875
X2.5875Y-4.7875
X2.9625Y-2.5375
X2.9625Y-4.0375
X3.3375Y-3.2875
X3.3375Y-4.7875
X3.7125Y-2.5375
X3.7125Y-4.0375
X4.0875Y-3.2875
X4.0875Y-4.7875
X4.4625Y-2.5375
X4.4625Y-4.0375
X4.8375Y-3.2875
X4.8375Y-4.7875
X5.2125Y-2.5375
X5.2125Y-4.0375
X5.5875Y-3.2875
X5.5875Y-4.7875
X5.9625Y-2.5389
X5.9625Y-4.0375
X6.3375Y-3.2875
X6.3375Y-4.7875
X6.7125Y-2.5394
X6.7125Y-4.0375
X6.7125Y-5.5375
X7.0875Y-3.2875
X7.0875Y-4.7875
X7.4625Y-2.5394
X7.4625Y-4.0375
X7.8375Y-3.2875
X7.8375Y-4.7875
X8.2125Y-4.0375
X8.2126Y-2.5394
X8.5875Y-3.2875
X8.5875Y-4.7875
X8.9625Y-2.5375
X8.9625Y-4.0375
X9.3375Y-3.2875
X9.3375Y-4.7875
X9.7125Y-2.5375
X9.7125Y-4.0375
X10.0875Y-3.2875
X10.275Y-4.7875
X10.4625Y-2.5375
X10.65Y-4.0375
X10.8375Y-3.2875
X11.2125Y-2.5375
X11.4Y-5.5375
X12.1496Y-5.5371
X12.15Y-2.5375
X12.15Y-3.2875
X12.15Y-4.7875
X12.8996Y-5.5371
X12.9Y-2.5375
X12.9Y-3.2875
M30
