%TF.GenerationSoftware,KiCad,Pcbnew,10.0.1*%
%TF.CreationDate,2026-05-02T13:23:26-04:00*%
%TF.ProjectId,Orao Keyboard,4f72616f-204b-4657-9962-6f6172642e6b,1.2*%
%TF.SameCoordinates,Original*%
%TF.FileFunction,Other,User*%
%FSLAX46Y46*%
G04 Gerber Fmt 4.6, Leading zero omitted, Abs format (unit mm)*
G04 Created by KiCad (PCBNEW 10.0.1) date 2026-05-02 13:23:26*
%MOMM*%
%LPD*%
G01*
G04 APERTURE LIST*
%ADD10C,0.050000*%
G04 APERTURE END LIST*
%TO.C,S28*%
D10*
X106097500Y-57202500D02*
X106097500Y-71702500D01*
X106097500Y-71702500D02*
X120597500Y-71702500D01*
X120597500Y-57202500D02*
X106097500Y-57202500D01*
X120597500Y-71702500D02*
X120597500Y-57202500D01*
%TO.C,S23*%
X134672500Y-114352500D02*
X134672500Y-128852500D01*
X134672500Y-128852500D02*
X149172500Y-128852500D01*
X149172500Y-114352500D02*
X134672500Y-114352500D01*
X149172500Y-128852500D02*
X149172500Y-114352500D01*
%TO.C,S35*%
X182297500Y-95302500D02*
X182297500Y-109802500D01*
X182297500Y-109802500D02*
X196797500Y-109802500D01*
X196797500Y-95302500D02*
X182297500Y-95302500D01*
X196797500Y-109802500D02*
X196797500Y-95302500D01*
%TO.C,S39*%
X301360000Y-76252500D02*
X301360000Y-90752500D01*
X301360000Y-90752500D02*
X315860000Y-90752500D01*
X315860000Y-76252500D02*
X301360000Y-76252500D01*
X315860000Y-90752500D02*
X315860000Y-76252500D01*
%TO.C,S45*%
X163247500Y-95302500D02*
X163247500Y-109802500D01*
X163247500Y-109802500D02*
X177747500Y-109802500D01*
X177747500Y-95302500D02*
X163247500Y-95302500D01*
X177747500Y-109802500D02*
X177747500Y-95302500D01*
%TO.C,S14*%
X87047500Y-95302500D02*
X87047500Y-109802500D01*
X87047500Y-109802500D02*
X101547500Y-109802500D01*
X101547500Y-95302500D02*
X87047500Y-95302500D01*
X101547500Y-109802500D02*
X101547500Y-95302500D01*
%TO.C,S33*%
X125147500Y-95302500D02*
X125147500Y-109802500D01*
X125147500Y-109802500D02*
X139647500Y-109802500D01*
X139647500Y-95302500D02*
X125147500Y-95302500D01*
X139647500Y-109802500D02*
X139647500Y-95302500D01*
%TO.C,S29*%
X134630000Y-133390000D02*
X134630000Y-147890000D01*
X134630000Y-147890000D02*
X149130000Y-147890000D01*
X149130000Y-133390000D02*
X134630000Y-133390000D01*
X149130000Y-147890000D02*
X149130000Y-133390000D01*
%TO.C,S43*%
X144197500Y-95302500D02*
X144197500Y-109802500D01*
X144197500Y-109802500D02*
X158697500Y-109802500D01*
X158697500Y-95302500D02*
X144197500Y-95302500D01*
X158697500Y-109802500D02*
X158697500Y-95302500D01*
%TO.C,S1*%
X258497500Y-57202500D02*
X258497500Y-71702500D01*
X258497500Y-71702500D02*
X272997500Y-71702500D01*
X272997500Y-57202500D02*
X258497500Y-57202500D01*
X272997500Y-71702500D02*
X272997500Y-57202500D01*
%TO.C,S48*%
X58472500Y-114352500D02*
X58472500Y-128852500D01*
X58472500Y-128852500D02*
X72972500Y-128852500D01*
X72972500Y-114352500D02*
X58472500Y-114352500D01*
X72972500Y-128852500D02*
X72972500Y-114352500D01*
%TO.C,J1*%
X161719800Y-44051600D02*
X203379800Y-44051600D01*
X203379800Y-47591600D01*
X161719800Y-47591600D01*
X161719800Y-44051600D01*
%TO.C,S61*%
X34660000Y-114352500D02*
X34660000Y-128852500D01*
X34660000Y-128852500D02*
X49160000Y-128852500D01*
X49160000Y-114352500D02*
X34660000Y-114352500D01*
X49160000Y-128852500D02*
X49160000Y-114352500D01*
%TO.C,S22*%
X229922500Y-114352500D02*
X229922500Y-128852500D01*
X229922500Y-128852500D02*
X244422500Y-128852500D01*
X244422500Y-114352500D02*
X229922500Y-114352500D01*
X244422500Y-128852500D02*
X244422500Y-114352500D01*
%TO.C,S4*%
X134672500Y-76252500D02*
X134672500Y-90752500D01*
X134672500Y-90752500D02*
X149172500Y-90752500D01*
X149172500Y-76252500D02*
X134672500Y-76252500D01*
X149172500Y-90752500D02*
X149172500Y-76252500D01*
%TO.C,S21*%
X220397500Y-57202500D02*
X220397500Y-71702500D01*
X220397500Y-71702500D02*
X234897500Y-71702500D01*
X234897500Y-57202500D02*
X220397500Y-57202500D01*
X234897500Y-71702500D02*
X234897500Y-57202500D01*
%TO.C,S20*%
X281750000Y-133750000D02*
X281750000Y-148250000D01*
X281750000Y-148250000D02*
X296250000Y-148250000D01*
X296250000Y-133750000D02*
X281750000Y-133750000D01*
X296250000Y-148250000D02*
X296250000Y-133750000D01*
%TO.C,S59*%
X253735000Y-114352500D02*
X253735000Y-128852500D01*
X253735000Y-128852500D02*
X268235000Y-128852500D01*
X268235000Y-114352500D02*
X253735000Y-114352500D01*
X268235000Y-128852500D02*
X268235000Y-114352500D01*
%TO.C,S10*%
X320750000Y-133750000D02*
X320750000Y-148250000D01*
X320750000Y-148250000D02*
X335250000Y-148250000D01*
X335250000Y-133750000D02*
X320750000Y-133750000D01*
X335250000Y-148250000D02*
X335250000Y-133750000D01*
%TO.C,S58*%
X87047500Y-57202500D02*
X87047500Y-71702500D01*
X87047500Y-71702500D02*
X101547500Y-71702500D01*
X101547500Y-57202500D02*
X87047500Y-57202500D01*
X101547500Y-71702500D02*
X101547500Y-57202500D01*
%TO.C,S51*%
X201350000Y-57250000D02*
X201350000Y-71750000D01*
X201350000Y-71750000D02*
X215850000Y-71750000D01*
X215850000Y-57250000D02*
X201350000Y-57250000D01*
X215850000Y-71750000D02*
X215850000Y-57250000D01*
%TO.C,S11*%
X210872500Y-76252500D02*
X210872500Y-90752500D01*
X210872500Y-90752500D02*
X225372500Y-90752500D01*
X225372500Y-76252500D02*
X210872500Y-76252500D01*
X225372500Y-90752500D02*
X225372500Y-76252500D01*
%TO.C,S42*%
X220397500Y-95302500D02*
X220397500Y-109802500D01*
X220397500Y-109802500D02*
X234897500Y-109802500D01*
X234897500Y-95302500D02*
X220397500Y-95302500D01*
X234897500Y-109802500D02*
X234897500Y-95302500D01*
%TO.C,S32*%
X277547500Y-57202500D02*
X277547500Y-71702500D01*
X277547500Y-71702500D02*
X292047500Y-71702500D01*
X292047500Y-57202500D02*
X277547500Y-57202500D01*
X292047500Y-71702500D02*
X292047500Y-57202500D01*
%TO.C,S40*%
X301360000Y-133750000D02*
X301360000Y-148250000D01*
X301360000Y-148250000D02*
X315860000Y-148250000D01*
X315860000Y-133750000D02*
X301360000Y-133750000D01*
X315860000Y-148250000D02*
X315860000Y-133750000D01*
%TO.C,S13*%
X106097500Y-95302500D02*
X106097500Y-109802500D01*
X106097500Y-109802500D02*
X120597500Y-109802500D01*
X120597500Y-95302500D02*
X106097500Y-95302500D01*
X120597500Y-109802500D02*
X120597500Y-95302500D01*
%TO.C,S44*%
X48947500Y-95302500D02*
X48947500Y-109802500D01*
X48947500Y-109802500D02*
X63447500Y-109802500D01*
X63447500Y-95302500D02*
X48947500Y-95302500D01*
X63447500Y-109802500D02*
X63447500Y-95302500D01*
%TO.C,S55*%
X210872500Y-114352500D02*
X210872500Y-128852500D01*
X210872500Y-128852500D02*
X225372500Y-128852500D01*
X225372500Y-114352500D02*
X210872500Y-114352500D01*
X225372500Y-128852500D02*
X225372500Y-114352500D01*
%TO.C,S41*%
X248972500Y-76252500D02*
X248972500Y-90752500D01*
X248972500Y-90752500D02*
X263472500Y-90752500D01*
X263472500Y-76252500D02*
X248972500Y-76252500D01*
X263472500Y-90752500D02*
X263472500Y-76252500D01*
%TO.C,S38*%
X115622500Y-76252500D02*
X115622500Y-90752500D01*
X115622500Y-90752500D02*
X130122500Y-90752500D01*
X130122500Y-76252500D02*
X115622500Y-76252500D01*
X130122500Y-90752500D02*
X130122500Y-76252500D01*
%TO.C,S53*%
X115622500Y-114352500D02*
X115622500Y-128852500D01*
X115622500Y-128852500D02*
X130122500Y-128852500D01*
X130122500Y-114352500D02*
X115622500Y-114352500D01*
X130122500Y-128852500D02*
X130122500Y-114352500D01*
%TO.C,S57*%
X182297500Y-57250000D02*
X182297500Y-71750000D01*
X182297500Y-71750000D02*
X196797500Y-71750000D01*
X196797500Y-57250000D02*
X182297500Y-57250000D01*
X196797500Y-71750000D02*
X196797500Y-57250000D01*
%TO.C,S12*%
X239447500Y-95302500D02*
X239447500Y-109802500D01*
X239447500Y-109802500D02*
X253947500Y-109802500D01*
X253947500Y-95302500D02*
X239447500Y-95302500D01*
X253947500Y-109802500D02*
X253947500Y-95302500D01*
%TO.C,S47*%
X172772500Y-76252500D02*
X172772500Y-90752500D01*
X172772500Y-90752500D02*
X187272500Y-90752500D01*
X187272500Y-76252500D02*
X172772500Y-76252500D01*
X187272500Y-90752500D02*
X187272500Y-76252500D01*
%TO.C,S27*%
X163247500Y-57250000D02*
X163247500Y-71750000D01*
X163247500Y-71750000D02*
X177747500Y-71750000D01*
X177747500Y-57250000D02*
X163247500Y-57250000D01*
X177747500Y-71750000D02*
X177747500Y-57250000D01*
%TO.C,S5*%
X172772500Y-114352500D02*
X172772500Y-128852500D01*
X172772500Y-128852500D02*
X187272500Y-128852500D01*
X187272500Y-114352500D02*
X172772500Y-114352500D01*
X187272500Y-128852500D02*
X187272500Y-114352500D01*
%TO.C,S37*%
X153722500Y-76252500D02*
X153722500Y-90752500D01*
X153722500Y-90752500D02*
X168222500Y-90752500D01*
X168222500Y-76252500D02*
X153722500Y-76252500D01*
X168222500Y-90752500D02*
X168222500Y-76252500D01*
%TO.C,S18*%
X96572500Y-76252500D02*
X96572500Y-90752500D01*
X96572500Y-90752500D02*
X111072500Y-90752500D01*
X111072500Y-76252500D02*
X96572500Y-76252500D01*
X111072500Y-90752500D02*
X111072500Y-76252500D01*
%TO.C,S34*%
X67997500Y-95302500D02*
X67997500Y-109802500D01*
X67997500Y-109802500D02*
X82497500Y-109802500D01*
X82497500Y-95302500D02*
X67997500Y-95302500D01*
X82497500Y-109802500D02*
X82497500Y-95302500D01*
%TO.C,S46*%
X39422500Y-76252500D02*
X39422500Y-90752500D01*
X39422500Y-90752500D02*
X53922500Y-90752500D01*
X53922500Y-76252500D02*
X39422500Y-76252500D01*
X53922500Y-90752500D02*
X53922500Y-76252500D01*
%TO.C,S54*%
X96572500Y-114352500D02*
X96572500Y-128852500D01*
X96572500Y-128852500D02*
X111072500Y-128852500D01*
X111072500Y-114352500D02*
X96572500Y-114352500D01*
X111072500Y-128852500D02*
X111072500Y-114352500D01*
%TO.C,S3*%
X153722500Y-114352500D02*
X153722500Y-128852500D01*
X153722500Y-128852500D02*
X168222500Y-128852500D01*
X168222500Y-114352500D02*
X153722500Y-114352500D01*
X168222500Y-128852500D02*
X168222500Y-114352500D01*
%TO.C,S52*%
X268022500Y-76252500D02*
X268022500Y-90752500D01*
X268022500Y-90752500D02*
X282522500Y-90752500D01*
X282522500Y-76252500D02*
X268022500Y-76252500D01*
X282522500Y-90752500D02*
X282522500Y-76252500D01*
%TO.C,S19*%
X301360000Y-57202500D02*
X301360000Y-71702500D01*
X301360000Y-71702500D02*
X315860000Y-71702500D01*
X315860000Y-57202500D02*
X301360000Y-57202500D01*
X315860000Y-71702500D02*
X315860000Y-57202500D01*
%TO.C,S17*%
X191822500Y-76252500D02*
X191822500Y-90752500D01*
X191822500Y-90752500D02*
X206322500Y-90752500D01*
X206322500Y-76252500D02*
X191822500Y-76252500D01*
X206322500Y-90752500D02*
X206322500Y-76252500D01*
%TO.C,S50*%
X301360000Y-114250000D02*
X301360000Y-128750000D01*
X301360000Y-128750000D02*
X315860000Y-128750000D01*
X315860000Y-114250000D02*
X301360000Y-114250000D01*
X315860000Y-128750000D02*
X315860000Y-114250000D01*
%TO.C,S9*%
X320410000Y-76252500D02*
X320410000Y-90752500D01*
X320410000Y-90752500D02*
X334910000Y-90752500D01*
X334910000Y-76252500D02*
X320410000Y-76252500D01*
X334910000Y-90752500D02*
X334910000Y-76252500D01*
%TO.C,S25*%
X191822500Y-114352500D02*
X191822500Y-128852500D01*
X191822500Y-128852500D02*
X206322500Y-128852500D01*
X206322500Y-114352500D02*
X191822500Y-114352500D01*
X206322500Y-128852500D02*
X206322500Y-114352500D01*
%TO.C,SW1*%
X162000000Y-41790000D02*
X162000000Y-52310000D01*
X162000000Y-52310000D02*
X182820000Y-52310000D01*
X182820000Y-41790000D02*
X162000000Y-41790000D01*
X182820000Y-52310000D02*
X182820000Y-41790000D01*
%TO.C,S31*%
X229922500Y-76252500D02*
X229922500Y-90752500D01*
X229922500Y-90752500D02*
X244422500Y-90752500D01*
X244422500Y-76252500D02*
X229922500Y-76252500D01*
X244422500Y-90752500D02*
X244422500Y-76252500D01*
%TO.C,S15*%
X201347500Y-95302500D02*
X201347500Y-109802500D01*
X201347500Y-109802500D02*
X215847500Y-109802500D01*
X215847500Y-95302500D02*
X201347500Y-95302500D01*
X215847500Y-109802500D02*
X215847500Y-95302500D01*
%TO.C,S6*%
X29897500Y-57250000D02*
X29897500Y-71750000D01*
X29897500Y-71750000D02*
X44397500Y-71750000D01*
X44397500Y-57250000D02*
X29897500Y-57250000D01*
X44397500Y-71750000D02*
X44397500Y-57250000D01*
%TO.C,S36*%
X58472500Y-76252500D02*
X58472500Y-90752500D01*
X58472500Y-90752500D02*
X72972500Y-90752500D01*
X72972500Y-76252500D02*
X58472500Y-76252500D01*
X72972500Y-90752500D02*
X72972500Y-76252500D01*
%TO.C,S56*%
X67997500Y-57202500D02*
X67997500Y-71702500D01*
X67997500Y-71702500D02*
X82497500Y-71702500D01*
X82497500Y-57202500D02*
X67997500Y-57202500D01*
X82497500Y-71702500D02*
X82497500Y-57202500D01*
%TO.C,S16*%
X77522500Y-76252500D02*
X77522500Y-90752500D01*
X77522500Y-90752500D02*
X92022500Y-90752500D01*
X92022500Y-76252500D02*
X77522500Y-76252500D01*
X92022500Y-90752500D02*
X92022500Y-76252500D01*
%TO.C,S2*%
X239447500Y-57202500D02*
X239447500Y-71702500D01*
X239447500Y-71702500D02*
X253947500Y-71702500D01*
X253947500Y-57202500D02*
X239447500Y-57202500D01*
X253947500Y-71702500D02*
X253947500Y-57202500D01*
%TO.C,S7*%
X144197500Y-57238300D02*
X144197500Y-71738300D01*
X144197500Y-71738300D02*
X158697500Y-71738300D01*
X158697500Y-57238300D02*
X144197500Y-57238300D01*
X158697500Y-71738300D02*
X158697500Y-57238300D01*
%TO.C,S24*%
X77522500Y-114352500D02*
X77522500Y-128852500D01*
X77522500Y-128852500D02*
X92022500Y-128852500D01*
X92022500Y-114352500D02*
X77522500Y-114352500D01*
X92022500Y-128852500D02*
X92022500Y-114352500D01*
%TO.C,S26*%
X48947500Y-57250000D02*
X48947500Y-71750000D01*
X48947500Y-71750000D02*
X63447500Y-71750000D01*
X63447500Y-57250000D02*
X48947500Y-57250000D01*
X63447500Y-71750000D02*
X63447500Y-57250000D01*
%TO.C,S49*%
X320410000Y-57202500D02*
X320410000Y-71702500D01*
X320410000Y-71702500D02*
X334910000Y-71702500D01*
X334910000Y-57202500D02*
X320410000Y-57202500D01*
X334910000Y-71702500D02*
X334910000Y-57202500D01*
%TO.C,S30*%
X263260000Y-95302500D02*
X263260000Y-109802500D01*
X263260000Y-109802500D02*
X277760000Y-109802500D01*
X277760000Y-95302500D02*
X263260000Y-95302500D01*
X277760000Y-109802500D02*
X277760000Y-95302500D01*
%TO.C,S60*%
X29897500Y-95302500D02*
X29897500Y-109802500D01*
X29897500Y-109802500D02*
X44397500Y-109802500D01*
X44397500Y-95302500D02*
X29897500Y-95302500D01*
X44397500Y-109802500D02*
X44397500Y-95302500D01*
%TO.C,S8*%
X125147500Y-57202500D02*
X125147500Y-71702500D01*
X125147500Y-71702500D02*
X139647500Y-71702500D01*
X139647500Y-57202500D02*
X125147500Y-57202500D01*
X139647500Y-71702500D02*
X139647500Y-57202500D01*
%TD*%
M02*
