M48
; DRILL file KiCad 10.0.1 date 2026-05-02T13:23:22
; FORMAT={-:-/ absolute / metric / decimal}
; #@! TF.CreationDate,2026-05-02T13:23:22-04:00
; #@! TF.GenerationSoftware,Kicad,Pcbnew,10.0.1
; #@! TF.FileFunction,Plated,1,2,PTH
FMAT,2
METRIC
; #@! TA.AperFunction,Plated,PTH,ViaDrill
T1C0.300
; #@! TA.AperFunction,Plated,PTH,ComponentDrill
T2C0.800
; #@! TA.AperFunction,Plated,PTH,ComponentDrill
T3C1.000
; #@! TA.AperFunction,Plated,PTH,ComponentDrill
T4C1.500
%
G90
G05
T1
X30.05Y-57.45
X46.6Y-73.4
X52.61Y-72.25
X69.96Y-73.4
X71.9Y-74.75
X77.215Y-53.735
X125.5Y-74.75
X126.25Y-113.5
X131.025Y-55.725
X146.05Y-71.2
X150.91Y-72.25
X158.85Y-54.49
X160.25Y-66.75
X161.81Y-130.51
X163.29Y-55.665
X163.5Y-74.75
X163.98Y-59.25
X165.0Y-112.3
X171.5Y-75.75
X174.95Y-52.58
X176.49Y-110.95
X177.1Y-59.4
X179.375Y-68.775
X180.2Y-99.65
X181.08Y-113.42
X181.41Y-109.88
X183.13Y-76.05
X188.4Y-74.75
X197.02Y-55.67
X200.96Y-112.29
X214.25Y-76.0
X219.61Y-111.87
X224.9Y-111.2
X233.5Y-76.0
X234.985Y-112.115
X239.75Y-74.75
X239.75Y-113.25
X249.86Y-111.17
X257.93Y-91.93
X264.55Y-113.25
X293.08Y-74.73
X335.88Y-90.77
T2
X163.52Y-43.24
X163.52Y-50.86
X166.06Y-43.24
X166.06Y-50.86
X168.6Y-43.24
X168.6Y-50.86
X171.14Y-43.24
X171.14Y-50.86
X173.68Y-43.24
X173.68Y-50.86
X176.22Y-43.24
X176.22Y-50.86
X178.76Y-43.24
X178.76Y-50.86
X181.3Y-43.24
X181.3Y-50.86
T3
X163.5Y-45.822
X166.04Y-45.822
X168.58Y-45.822
X171.12Y-45.822
X173.66Y-45.822
X176.2Y-45.822
X178.74Y-45.822
X181.28Y-45.822
X183.82Y-45.822
X186.36Y-45.822
X188.9Y-45.822
X191.44Y-45.822
X193.98Y-45.822
X196.52Y-45.822
X199.06Y-45.822
X201.6Y-45.822
T4
X33.337Y-61.96
X33.337Y-100.012
X38.1Y-119.062
X39.688Y-59.42
X39.688Y-97.472
X42.862Y-80.962
X44.45Y-116.522
X49.212Y-78.422
X52.387Y-61.96
X52.387Y-100.012
X58.737Y-59.42
X58.737Y-97.472
X61.912Y-80.962
X61.912Y-119.062
X68.263Y-78.422
X68.263Y-116.522
X71.438Y-61.912
X71.438Y-100.012
X77.787Y-59.372
X77.787Y-97.472
X80.962Y-80.962
X80.962Y-119.062
X87.312Y-78.422
X87.312Y-116.522
X90.487Y-61.912
X90.487Y-100.012
X96.837Y-59.372
X96.837Y-97.472
X100.012Y-80.962
X100.012Y-119.062
X106.362Y-78.422
X106.362Y-116.522
X109.537Y-61.912
X109.537Y-100.012
X115.887Y-59.372
X115.887Y-97.472
X119.062Y-80.962
X119.062Y-119.062
X125.412Y-78.422
X125.412Y-116.522
X128.588Y-61.912
X128.588Y-100.012
X134.938Y-59.372
X134.938Y-97.472
X138.07Y-138.1
X138.112Y-80.962
X138.112Y-119.062
X144.42Y-135.56
X144.463Y-78.422
X144.463Y-116.522
X147.637Y-61.948
X147.637Y-100.012
X153.987Y-59.408
X153.987Y-97.472
X157.162Y-80.962
X157.162Y-119.062
X163.512Y-78.422
X163.512Y-116.522
X166.688Y-61.96
X166.688Y-100.012
X173.037Y-59.42
X173.037Y-97.472
X176.213Y-80.962
X176.213Y-119.062
X182.562Y-78.422
X182.562Y-116.522
X185.737Y-61.96
X185.737Y-100.012
X192.087Y-59.42
X192.087Y-97.472
X195.262Y-80.962
X195.262Y-119.062
X201.612Y-78.422
X201.612Y-116.522
X204.787Y-100.012
X204.79Y-61.96
X211.137Y-97.472
X211.14Y-59.42
X214.312Y-80.962
X214.312Y-119.062
X220.662Y-78.422
X220.662Y-116.522
X223.837Y-61.912
X223.837Y-100.012
X230.188Y-59.372
X230.188Y-97.472
X233.362Y-80.962
X233.362Y-119.062
X239.712Y-78.422
X239.712Y-116.522
X242.887Y-61.912
X242.887Y-100.012
X249.237Y-59.372
X249.237Y-97.472
X252.412Y-80.962
X257.175Y-119.062
X258.762Y-78.422
X261.938Y-61.912
X263.525Y-116.522
X266.7Y-100.012
X268.287Y-59.372
X271.462Y-80.962
X273.05Y-97.472
X277.812Y-78.422
X280.988Y-61.912
X285.19Y-138.46
X287.337Y-59.372
X291.54Y-135.92
X304.8Y-61.912
X304.8Y-80.962
X304.8Y-118.96
X304.8Y-138.46
X311.15Y-59.372
X311.15Y-78.422
X311.15Y-116.42
X311.15Y-135.92
X323.85Y-61.912
X323.85Y-80.962
X324.19Y-138.46
X330.2Y-59.372
X330.2Y-78.422
X330.54Y-135.92
M30
