%TF.GenerationSoftware,KiCad,Pcbnew,10.0.1*%
%TF.CreationDate,2026-05-02T13:23:26-04:00*%
%TF.ProjectId,Orao Keyboard,4f72616f-204b-4657-9962-6f6172642e6b,1.2*%
%TF.SameCoordinates,Original*%
%TF.FileFunction,Copper,L2,Bot*%
%TF.FilePolarity,Positive*%
%FSLAX46Y46*%
G04 Gerber Fmt 4.6, Leading zero omitted, Abs format (unit mm)*
G04 Created by KiCad (PCBNEW 10.0.1) date 2026-05-02 13:23:26*
%MOMM*%
%LPD*%
G01*
G04 APERTURE LIST*
%TA.AperFunction,ComponentPad*%
%ADD10C,2.500000*%
%TD*%
%TA.AperFunction,ComponentPad*%
%ADD11R,1.700000X1.700000*%
%TD*%
%TA.AperFunction,ComponentPad*%
%ADD12C,1.700000*%
%TD*%
%TA.AperFunction,ComponentPad*%
%ADD13R,1.600000X2.400000*%
%TD*%
%TA.AperFunction,ComponentPad*%
%ADD14O,1.600000X2.400000*%
%TD*%
%TA.AperFunction,ViaPad*%
%ADD15C,0.600000*%
%TD*%
%TA.AperFunction,Conductor*%
%ADD16C,0.400000*%
%TD*%
G04 APERTURE END LIST*
D10*
%TO.P,S28,1,1_1*%
%TO.N,COL 8*%
X109537500Y-61912500D03*
%TO.P,S28,2,2_2*%
%TO.N,ROW 3*%
X115887500Y-59372500D03*
%TD*%
%TO.P,S23,1,1_1*%
%TO.N,COL 3*%
X138112500Y-119062500D03*
%TO.P,S23,2,2_2*%
%TO.N,ROW 3*%
X144462500Y-116522500D03*
%TD*%
%TO.P,S35,1,1_1*%
%TO.N,COL 5*%
X185737500Y-100012500D03*
%TO.P,S35,2,2_2*%
%TO.N,ROW 4*%
X192087500Y-97472500D03*
%TD*%
%TO.P,S39,1,1_1*%
%TO.N,COL 9*%
X304800000Y-80962500D03*
%TO.P,S39,2,2_2*%
%TO.N,ROW 4*%
X311150000Y-78422500D03*
%TD*%
%TO.P,S45,1,1_1*%
%TO.N,COL 5*%
X166687500Y-100012500D03*
%TO.P,S45,2,2_2*%
%TO.N,ROW 5*%
X173037500Y-97472500D03*
%TD*%
%TO.P,S14,1,1_1*%
%TO.N,COL 4*%
X90487500Y-100012500D03*
%TO.P,S14,2,2_2*%
%TO.N,ROW 2*%
X96837500Y-97472500D03*
%TD*%
%TO.P,S33,1,1_1*%
%TO.N,COL 3*%
X128587500Y-100012500D03*
%TO.P,S33,2,2_2*%
%TO.N,ROW 4*%
X134937500Y-97472500D03*
%TD*%
%TO.P,S29,1,1_1*%
%TO.N,COL 9*%
X138070000Y-138100000D03*
%TO.P,S29,2,2_2*%
%TO.N,ROW 3*%
X144420000Y-135560000D03*
%TD*%
%TO.P,S43,1,1_1*%
%TO.N,COL 3*%
X147637500Y-100012500D03*
%TO.P,S43,2,2_2*%
%TO.N,ROW 5*%
X153987500Y-97472500D03*
%TD*%
%TO.P,S1,1,1_1*%
%TO.N,COL 1*%
X261937500Y-61912500D03*
%TO.P,S1,2,2_2*%
%TO.N,ROW 1*%
X268287500Y-59372500D03*
%TD*%
%TO.P,S48,1,1_1*%
%TO.N,COL 8*%
X61912500Y-119062500D03*
%TO.P,S48,2,2_2*%
%TO.N,ROW 5*%
X68262500Y-116522500D03*
%TD*%
D11*
%TO.P,J1,1,Pin_1_1*%
%TO.N,ROW 1*%
X163499800Y-45821600D03*
D12*
%TO.P,J1,2,Pin_2_2*%
%TO.N,ROW 2*%
X166039800Y-45821600D03*
%TO.P,J1,3,Pin_3_3*%
%TO.N,ROW 3*%
X168579800Y-45821600D03*
%TO.P,J1,4,Pin_4_4*%
%TO.N,ROW 4*%
X171119800Y-45821600D03*
%TO.P,J1,5,Pin_5_5*%
%TO.N,ROW 5*%
X173659800Y-45821600D03*
%TO.P,J1,6,Pin_6_6*%
%TO.N,ROW 6*%
X176199800Y-45821600D03*
%TO.P,J1,7,Pin_7_7*%
%TO.N,COL 1*%
X178739800Y-45821600D03*
%TO.P,J1,8,Pin_8_8*%
%TO.N,COL 2*%
X181279800Y-45821600D03*
%TO.P,J1,9,Pin_9_9*%
%TO.N,COL 3*%
X183819800Y-45821600D03*
%TO.P,J1,10,Pin_10_10*%
%TO.N,COL 4*%
X186359800Y-45821600D03*
%TO.P,J1,11,Pin_11_11*%
%TO.N,COL 5*%
X188899800Y-45821600D03*
%TO.P,J1,12,Pin_12_12*%
%TO.N,COL 6*%
X191439800Y-45821600D03*
%TO.P,J1,13,Pin_13_13*%
%TO.N,COL 7*%
X193979800Y-45821600D03*
%TO.P,J1,14,Pin_14_14*%
%TO.N,COL 8*%
X196519800Y-45821600D03*
%TO.P,J1,15,Pin_15_15*%
%TO.N,COL 9*%
X199059800Y-45821600D03*
%TO.P,J1,16,Pin_16_16*%
%TO.N,COL 10*%
X201599800Y-45821600D03*
%TD*%
D10*
%TO.P,S61,1,1_1*%
%TO.N,COL 9*%
X38100000Y-119062500D03*
%TO.P,S61,2,2_2*%
%TO.N,ROW 6*%
X44450000Y-116522500D03*
%TD*%
%TO.P,S22,1,1_1*%
%TO.N,COL 2*%
X233362500Y-119062500D03*
%TO.P,S22,2,2_2*%
%TO.N,ROW 3*%
X239712500Y-116522500D03*
%TD*%
%TO.P,S4,1,1_1*%
%TO.N,COL 4*%
X138112500Y-80962500D03*
%TO.P,S4,2,2_2*%
%TO.N,ROW 1*%
X144462500Y-78422500D03*
%TD*%
%TO.P,S21,1,1_1*%
%TO.N,COL 1*%
X223837500Y-61912500D03*
%TO.P,S21,2,2_2*%
%TO.N,ROW 3*%
X230187500Y-59372500D03*
%TD*%
%TO.P,S20,1,1_1*%
%TO.N,COL 10*%
X285190000Y-138460000D03*
%TO.P,S20,2,2_2*%
%TO.N,ROW 2*%
X291540000Y-135920000D03*
%TD*%
%TO.P,S59,1,1_1*%
%TO.N,COL 9*%
X257175000Y-119062500D03*
%TO.P,S59,2,2_2*%
%TO.N,ROW 6*%
X263525000Y-116522500D03*
%TD*%
%TO.P,S10,1,1_1*%
%TO.N,COL 10*%
X324190000Y-138460000D03*
%TO.P,S10,2,2_2*%
%TO.N,ROW 1*%
X330540000Y-135920000D03*
%TD*%
%TO.P,S58,1,1_1*%
%TO.N,COL 8*%
X90487500Y-61912500D03*
%TO.P,S58,2,2_2*%
%TO.N,ROW 6*%
X96837500Y-59372500D03*
%TD*%
%TO.P,S51,1,1_1*%
%TO.N,COL 1*%
X204790000Y-61960000D03*
%TO.P,S51,2,2_2*%
%TO.N,ROW 6*%
X211140000Y-59420000D03*
%TD*%
%TO.P,S11,1,1_1*%
%TO.N,COL 1*%
X214312500Y-80962500D03*
%TO.P,S11,2,2_2*%
%TO.N,ROW 2*%
X220662500Y-78422500D03*
%TD*%
%TO.P,S42,1,1_1*%
%TO.N,COL 2*%
X223837500Y-100012500D03*
%TO.P,S42,2,2_2*%
%TO.N,ROW 5*%
X230187500Y-97472500D03*
%TD*%
%TO.P,S32,1,1_1*%
%TO.N,COL 2*%
X280987500Y-61912500D03*
%TO.P,S32,2,2_2*%
%TO.N,ROW 4*%
X287337500Y-59372500D03*
%TD*%
%TO.P,S40,1,1_1*%
%TO.N,COL 10*%
X304800000Y-138460000D03*
%TO.P,S40,2,2_2*%
%TO.N,ROW 4*%
X311150000Y-135920000D03*
%TD*%
%TO.P,S13,1,1_1*%
%TO.N,COL 3*%
X109537500Y-100012500D03*
%TO.P,S13,2,2_2*%
%TO.N,ROW 2*%
X115887500Y-97472500D03*
%TD*%
%TO.P,S44,1,1_1*%
%TO.N,COL 4*%
X52387500Y-100012500D03*
%TO.P,S44,2,2_2*%
%TO.N,ROW 5*%
X58737500Y-97472500D03*
%TD*%
%TO.P,S55,1,1_1*%
%TO.N,COL 5*%
X214312500Y-119062500D03*
%TO.P,S55,2,2_2*%
%TO.N,ROW 6*%
X220662500Y-116522500D03*
%TD*%
%TO.P,S41,1,1_1*%
%TO.N,COL 1*%
X252412500Y-80962500D03*
%TO.P,S41,2,2_2*%
%TO.N,ROW 5*%
X258762500Y-78422500D03*
%TD*%
%TO.P,S38,1,1_1*%
%TO.N,COL 8*%
X119062500Y-80962500D03*
%TO.P,S38,2,2_2*%
%TO.N,ROW 4*%
X125412500Y-78422500D03*
%TD*%
%TO.P,S53,1,1_1*%
%TO.N,COL 3*%
X119062500Y-119062500D03*
%TO.P,S53,2,2_2*%
%TO.N,ROW 6*%
X125412500Y-116522500D03*
%TD*%
%TO.P,S57,1,1_1*%
%TO.N,COL 7*%
X185737500Y-61960000D03*
%TO.P,S57,2,2_2*%
%TO.N,ROW 6*%
X192087500Y-59420000D03*
%TD*%
%TO.P,S12,1,1_1*%
%TO.N,COL 2*%
X242887500Y-100012500D03*
%TO.P,S12,2,2_2*%
%TO.N,ROW 2*%
X249237500Y-97472500D03*
%TD*%
%TO.P,S47,1,1_1*%
%TO.N,COL 7*%
X176212500Y-80962500D03*
%TO.P,S47,2,2_2*%
%TO.N,ROW 5*%
X182562500Y-78422500D03*
%TD*%
%TO.P,S27,1,1_1*%
%TO.N,COL 7*%
X166687500Y-61960000D03*
%TO.P,S27,2,2_2*%
%TO.N,ROW 3*%
X173037500Y-59420000D03*
%TD*%
%TO.P,S5,1,1_1*%
%TO.N,COL 5*%
X176212500Y-119062500D03*
%TO.P,S5,2,2_2*%
%TO.N,ROW 1*%
X182562500Y-116522500D03*
%TD*%
%TO.P,S37,1,1_1*%
%TO.N,COL 7*%
X157162500Y-80962500D03*
%TO.P,S37,2,2_2*%
%TO.N,ROW 4*%
X163512500Y-78422500D03*
%TD*%
%TO.P,S18,1,1_1*%
%TO.N,COL 8*%
X100012500Y-80962500D03*
%TO.P,S18,2,2_2*%
%TO.N,ROW 2*%
X106362500Y-78422500D03*
%TD*%
%TO.P,S34,1,1_1*%
%TO.N,COL 4*%
X71437500Y-100012500D03*
%TO.P,S34,2,2_2*%
%TO.N,ROW 4*%
X77787500Y-97472500D03*
%TD*%
%TO.P,S46,1,1_1*%
%TO.N,COL 6*%
X42862500Y-80962500D03*
%TO.P,S46,2,2_2*%
%TO.N,ROW 5*%
X49212500Y-78422500D03*
%TD*%
%TO.P,S54,1,1_1*%
%TO.N,COL 4*%
X100012500Y-119062500D03*
%TO.P,S54,2,2_2*%
%TO.N,ROW 6*%
X106362500Y-116522500D03*
%TD*%
%TO.P,S3,1,1_1*%
%TO.N,COL 3*%
X157162500Y-119062500D03*
%TO.P,S3,2,2_2*%
%TO.N,ROW 1*%
X163512500Y-116522500D03*
%TD*%
%TO.P,S52,1,1_1*%
%TO.N,COL 2*%
X271462500Y-80962500D03*
%TO.P,S52,2,2_2*%
%TO.N,ROW 6*%
X277812500Y-78422500D03*
%TD*%
%TO.P,S19,1,1_1*%
%TO.N,COL 9*%
X304800000Y-61912500D03*
%TO.P,S19,2,2_2*%
%TO.N,ROW 2*%
X311150000Y-59372500D03*
%TD*%
%TO.P,S17,1,1_1*%
%TO.N,COL 7*%
X195262500Y-80962500D03*
%TO.P,S17,2,2_2*%
%TO.N,ROW 2*%
X201612500Y-78422500D03*
%TD*%
%TO.P,S50,1,1_1*%
%TO.N,COL 10*%
X304800000Y-118960000D03*
%TO.P,S50,2,2_2*%
%TO.N,ROW 5*%
X311150000Y-116420000D03*
%TD*%
%TO.P,S9,1,1_1*%
%TO.N,COL 9*%
X323850000Y-80962500D03*
%TO.P,S9,2,2_2*%
%TO.N,ROW 1*%
X330200000Y-78422500D03*
%TD*%
%TO.P,S25,1,1_1*%
%TO.N,COL 5*%
X195262500Y-119062500D03*
%TO.P,S25,2,2_2*%
%TO.N,ROW 3*%
X201612500Y-116522500D03*
%TD*%
D13*
%TO.P,SW1,1*%
%TO.N,ROW 1*%
X163520000Y-50860000D03*
D14*
%TO.P,SW1,2*%
%TO.N,ROW 2*%
X166060000Y-50860000D03*
%TO.P,SW1,3*%
%TO.N,ROW 3*%
X168600000Y-50860000D03*
%TO.P,SW1,4*%
%TO.N,ROW 4*%
X171140000Y-50860000D03*
%TO.P,SW1,5*%
%TO.N,ROW 5*%
X173680000Y-50860000D03*
%TO.P,SW1,6*%
%TO.N,ROW 6*%
X176220000Y-50860000D03*
%TO.P,SW1,7*%
%TO.N,COL 1*%
X178760000Y-50860000D03*
%TO.P,SW1,8*%
%TO.N,COL 2*%
X181300000Y-50860000D03*
%TO.P,SW1,9*%
%TO.N,COL 3*%
X181300000Y-43240000D03*
%TO.P,SW1,10*%
%TO.N,COL 4*%
X178760000Y-43240000D03*
%TO.P,SW1,11*%
%TO.N,COL 5*%
X176220000Y-43240000D03*
%TO.P,SW1,12*%
%TO.N,COL 6*%
X173680000Y-43240000D03*
%TO.P,SW1,13*%
%TO.N,COL 7*%
X171140000Y-43240000D03*
%TO.P,SW1,14*%
%TO.N,COL 8*%
X168600000Y-43240000D03*
%TO.P,SW1,15*%
%TO.N,COL 9*%
X166060000Y-43240000D03*
%TO.P,SW1,16*%
%TO.N,COL 10*%
X163520000Y-43240000D03*
%TD*%
D10*
%TO.P,S31,1,1_1*%
%TO.N,COL 1*%
X233362500Y-80962500D03*
%TO.P,S31,2,2_2*%
%TO.N,ROW 4*%
X239712500Y-78422500D03*
%TD*%
%TO.P,S15,1,1_1*%
%TO.N,COL 5*%
X204787500Y-100012500D03*
%TO.P,S15,2,2_2*%
%TO.N,ROW 2*%
X211137500Y-97472500D03*
%TD*%
%TO.P,S6,1,1_1*%
%TO.N,COL 6*%
X33337500Y-61960000D03*
%TO.P,S6,2,2_2*%
%TO.N,ROW 1*%
X39687500Y-59420000D03*
%TD*%
%TO.P,S36,1,1_1*%
%TO.N,COL 6*%
X61912500Y-80962500D03*
%TO.P,S36,2,2_2*%
%TO.N,ROW 4*%
X68262500Y-78422500D03*
%TD*%
%TO.P,S56,1,1_1*%
%TO.N,COL 6*%
X71437500Y-61912500D03*
%TO.P,S56,2,2_2*%
%TO.N,ROW 6*%
X77787500Y-59372500D03*
%TD*%
%TO.P,S16,1,1_1*%
%TO.N,COL 6*%
X80962500Y-80962500D03*
%TO.P,S16,2,2_2*%
%TO.N,ROW 2*%
X87312500Y-78422500D03*
%TD*%
%TO.P,S2,1,1_1*%
%TO.N,COL 2*%
X242887500Y-61912500D03*
%TO.P,S2,2,2_2*%
%TO.N,ROW 1*%
X249237500Y-59372500D03*
%TD*%
%TO.P,S7,1,1_1*%
%TO.N,COL 7*%
X147637500Y-61948300D03*
%TO.P,S7,2,2_2*%
%TO.N,ROW 1*%
X153987500Y-59408300D03*
%TD*%
%TO.P,S24,1,1_1*%
%TO.N,COL 4*%
X80962500Y-119062500D03*
%TO.P,S24,2,2_2*%
%TO.N,ROW 3*%
X87312500Y-116522500D03*
%TD*%
%TO.P,S26,1,1_1*%
%TO.N,COL 6*%
X52387500Y-61960000D03*
%TO.P,S26,2,2_2*%
%TO.N,ROW 3*%
X58737500Y-59420000D03*
%TD*%
%TO.P,S49,1,1_1*%
%TO.N,COL 9*%
X323850000Y-61912500D03*
%TO.P,S49,2,2_2*%
%TO.N,ROW 5*%
X330200000Y-59372500D03*
%TD*%
%TO.P,S30,1,1_1*%
%TO.N,COL 10*%
X266700000Y-100012500D03*
%TO.P,S30,2,2_2*%
%TO.N,ROW 3*%
X273050000Y-97472500D03*
%TD*%
%TO.P,S60,1,1_1*%
%TO.N,COL 10*%
X33337500Y-100012500D03*
%TO.P,S60,2,2_2*%
%TO.N,ROW 6*%
X39687500Y-97472500D03*
%TD*%
%TO.P,S8,1,1_1*%
%TO.N,COL 8*%
X128587500Y-61912500D03*
%TO.P,S8,2,2_2*%
%TO.N,ROW 1*%
X134937500Y-59372500D03*
%TD*%
D15*
%TO.N,COL 8*%
X160250000Y-66750000D03*
%TO.N,ROW 3*%
X239750000Y-113250000D03*
X264550000Y-113250000D03*
X165000000Y-112300000D03*
X200960000Y-112290000D03*
X163980000Y-59250000D03*
%TO.N,COL 3*%
X181080000Y-113420000D03*
%TO.N,COL 5*%
X180200000Y-99650000D03*
%TO.N,ROW 4*%
X293080000Y-74730000D03*
X239750000Y-74750000D03*
X71900000Y-74750000D03*
X188400000Y-74750000D03*
X163500000Y-74750000D03*
X125500000Y-74750000D03*
%TO.N,COL 9*%
X161810000Y-130510000D03*
%TO.N,ROW 5*%
X171500000Y-75750000D03*
X335880000Y-90770000D03*
X257930000Y-91930000D03*
%TO.N,COL 4*%
X146050000Y-71200000D03*
X179375000Y-68775000D03*
%TO.N,ROW 2*%
X249860000Y-111170000D03*
X131025000Y-55725000D03*
X197020000Y-55670000D03*
X163290000Y-55665000D03*
X224900000Y-111200000D03*
%TO.N,COL 1*%
X214250000Y-76000000D03*
X183130000Y-76050000D03*
X233500000Y-76000000D03*
%TO.N,ROW 1*%
X150910000Y-72250000D03*
X52610000Y-72250000D03*
%TO.N,ROW 6*%
X176490000Y-110950000D03*
X69960000Y-73400000D03*
X126250000Y-113500000D03*
X219610000Y-111870000D03*
X46600000Y-73400000D03*
X177100000Y-59400000D03*
%TO.N,COL 2*%
X181410000Y-109880000D03*
X234985000Y-112115000D03*
%TO.N,COL 6*%
X77215000Y-53735000D03*
X174949800Y-52579800D03*
%TO.N,COL 10*%
X30050000Y-57450000D03*
X158850000Y-54490000D03*
%TD*%
%TO.N,COL 8*%
D16*
X160060700Y-66939300D02*
X143939300Y-66939300D01*
X100012500Y-80962500D02*
X100565000Y-80410000D01*
X90870000Y-61530000D02*
X90487500Y-61912500D01*
X170800000Y-41040000D02*
X191738200Y-41040000D01*
X109537500Y-61912500D02*
X109155000Y-61530000D01*
X168600000Y-43240000D02*
X170800000Y-41040000D01*
X128587500Y-61912500D02*
X128205000Y-61530000D01*
X128850000Y-61650000D02*
X128587500Y-61912500D01*
X138912500Y-61912500D02*
X138837500Y-61912500D01*
X109920000Y-61530000D02*
X109537500Y-61912500D01*
X160250000Y-66750000D02*
X160060700Y-66939300D01*
X109155000Y-61530000D02*
X90870000Y-61530000D01*
X138837500Y-61912500D02*
X138575000Y-61650000D01*
X191738200Y-41040000D02*
X196519800Y-45821600D01*
X138575000Y-61650000D02*
X128850000Y-61650000D01*
X128205000Y-61530000D02*
X109920000Y-61530000D01*
X118510000Y-80410000D02*
X119062500Y-80962500D01*
X100565000Y-80410000D02*
X118510000Y-80410000D01*
X143939300Y-66939300D02*
X138912500Y-61912500D01*
%TO.N,ROW 3*%
X163250000Y-112250000D02*
X146650000Y-112250000D01*
X115750000Y-56750000D02*
X115887500Y-56887500D01*
X175457500Y-57000000D02*
X227815000Y-57000000D01*
X144400000Y-114500000D02*
X144400000Y-116460000D01*
X163980000Y-59250000D02*
X161480000Y-56750000D01*
X227815000Y-57000000D02*
X230187500Y-59372500D01*
X115887500Y-56887500D02*
X115887500Y-59372500D01*
X200960000Y-112290000D02*
X217040000Y-112290000D01*
X163300000Y-112300000D02*
X163250000Y-112250000D01*
X173037500Y-59420000D02*
X175457500Y-57000000D01*
X87312500Y-116522500D02*
X89335000Y-114500000D01*
X200960000Y-112290000D02*
X200290000Y-112290000D01*
X144400000Y-116460000D02*
X144462500Y-116522500D01*
X89335000Y-114500000D02*
X142440000Y-114500000D01*
X61407500Y-56750000D02*
X58737500Y-59420000D01*
X161480000Y-56750000D02*
X115750000Y-56750000D01*
X218000000Y-113250000D02*
X239750000Y-113250000D01*
X115750000Y-56750000D02*
X61407500Y-56750000D01*
X144462500Y-116437500D02*
X144462500Y-116522500D01*
X165040000Y-112260000D02*
X165000000Y-112300000D01*
X163980000Y-59250000D02*
X164190000Y-59460000D01*
X142440000Y-114500000D02*
X144400000Y-114500000D01*
X200260000Y-112260000D02*
X165040000Y-112260000D01*
X200290000Y-112290000D02*
X200260000Y-112260000D01*
X172997500Y-59460000D02*
X173037500Y-59420000D01*
X165000000Y-112300000D02*
X163300000Y-112300000D01*
X164190000Y-59460000D02*
X172997500Y-59460000D01*
X217040000Y-112290000D02*
X218000000Y-113250000D01*
X239750000Y-113250000D02*
X264550000Y-113250000D01*
X146650000Y-112250000D02*
X144400000Y-114500000D01*
%TO.N,COL 3*%
X157162500Y-118967500D02*
X157162500Y-119062500D01*
X138112500Y-119062500D02*
X138605000Y-118570000D01*
X128587500Y-100012500D02*
X129110000Y-99490000D01*
X109537500Y-100012500D02*
X110060000Y-99490000D01*
X129110000Y-99490000D02*
X147115000Y-99490000D01*
X147115000Y-99490000D02*
X147637500Y-100012500D01*
X156670000Y-118570000D02*
X157162500Y-119062500D01*
X119555000Y-118570000D02*
X137620000Y-118570000D01*
X181040000Y-113460000D02*
X162670000Y-113460000D01*
X162670000Y-113460000D02*
X157162500Y-118967500D01*
X157495000Y-118730000D02*
X157162500Y-119062500D01*
X138605000Y-118570000D02*
X156670000Y-118570000D01*
X110060000Y-99490000D02*
X128065000Y-99490000D01*
X181080000Y-113420000D02*
X181040000Y-113460000D01*
X119062500Y-119062500D02*
X119555000Y-118570000D01*
X128065000Y-99490000D02*
X128587500Y-100012500D01*
X137620000Y-118570000D02*
X138112500Y-119062500D01*
%TO.N,COL 5*%
X185737500Y-100012500D02*
X185375000Y-99650000D01*
X185375000Y-99650000D02*
X180200000Y-99650000D01*
X213820000Y-118570000D02*
X214312500Y-119062500D01*
X194770000Y-118570000D02*
X195262500Y-119062500D01*
X185737500Y-100012500D02*
X186140000Y-99610000D01*
X204385000Y-99610000D02*
X204787500Y-100012500D01*
X186140000Y-99610000D02*
X204385000Y-99610000D01*
X195262500Y-119062500D02*
X195755000Y-118570000D01*
X179747500Y-99610000D02*
X167090000Y-99610000D01*
X176705000Y-118570000D02*
X194770000Y-118570000D01*
X167090000Y-99610000D02*
X166687500Y-100012500D01*
X176212500Y-119062500D02*
X176705000Y-118570000D01*
X195755000Y-118570000D02*
X213820000Y-118570000D01*
X179787500Y-99650000D02*
X179747500Y-99610000D01*
X176240000Y-43050000D02*
X176320000Y-43130000D01*
X180200000Y-99650000D02*
X179787500Y-99650000D01*
%TO.N,ROW 4*%
X163500000Y-74750000D02*
X188400000Y-74750000D01*
X125500000Y-74750000D02*
X71900000Y-74750000D01*
X188400000Y-74750000D02*
X239750000Y-74750000D01*
X163500000Y-74750000D02*
X125500000Y-74750000D01*
X239750000Y-74750000D02*
X293110000Y-74750000D01*
X293110000Y-74750000D02*
X296760000Y-78400000D01*
X311112500Y-78422500D02*
X311150000Y-78422500D01*
X296760000Y-78400000D02*
X311090000Y-78400000D01*
X311090000Y-78400000D02*
X311112500Y-78422500D01*
%TO.N,COL 9*%
X168860000Y-40440000D02*
X193678200Y-40440000D01*
X38500000Y-119462500D02*
X38100000Y-119062500D01*
X46000000Y-130250000D02*
X38500000Y-122750000D01*
X38500000Y-122750000D02*
X38500000Y-119462500D01*
X244750000Y-130500000D02*
X161820000Y-130500000D01*
X193678200Y-40440000D02*
X199059800Y-45821600D01*
X257547500Y-118690000D02*
X257175000Y-119062500D01*
X305262500Y-80500000D02*
X323387500Y-80500000D01*
X166060000Y-43240000D02*
X168860000Y-40440000D01*
X257175000Y-119062500D02*
X256187500Y-119062500D01*
X161810000Y-130510000D02*
X161550000Y-130250000D01*
X161550000Y-130250000D02*
X46000000Y-130250000D01*
X323387500Y-80500000D02*
X323850000Y-80962500D01*
X304800000Y-80962500D02*
X305262500Y-80500000D01*
X256187500Y-119062500D02*
X244750000Y-130500000D01*
%TO.N,ROW 5*%
X232447500Y-97472500D02*
X230187500Y-97472500D01*
X334702000Y-91948000D02*
X334702000Y-96098000D01*
X181760000Y-94750000D02*
X222390000Y-94750000D01*
X171500000Y-75750000D02*
X51885000Y-75750000D01*
X261484000Y-91920000D02*
X257940000Y-91920000D01*
X334702000Y-91948000D02*
X261512000Y-91948000D01*
X311540000Y-116920000D02*
X311500000Y-116880000D01*
X51885000Y-75750000D02*
X49212500Y-78422500D01*
X173037500Y-97472500D02*
X179037500Y-97472500D01*
X179850000Y-75750000D02*
X182522500Y-78422500D01*
X261512000Y-91948000D02*
X261484000Y-91920000D01*
X171500000Y-75750000D02*
X179850000Y-75750000D01*
X179037500Y-97472500D02*
X181760000Y-94750000D01*
X228312500Y-97472500D02*
X230187500Y-97472500D01*
X237990000Y-91930000D02*
X232447500Y-97472500D01*
X222390000Y-94750000D02*
X225590000Y-94750000D01*
X257930000Y-91930000D02*
X237990000Y-91930000D01*
X335880000Y-90770000D02*
X334702000Y-91948000D01*
X311500000Y-116070000D02*
X311150000Y-116420000D01*
X173037500Y-97472500D02*
X153987500Y-97472500D01*
X335880000Y-90770000D02*
X335800000Y-90850000D01*
X257940000Y-91920000D02*
X257930000Y-91930000D01*
X182522500Y-78422500D02*
X182562500Y-78422500D01*
X334702000Y-96098000D02*
X314730000Y-116070000D01*
X314730000Y-116070000D02*
X311500000Y-116070000D01*
X225590000Y-94750000D02*
X228312500Y-97472500D01*
%TO.N,COL 4*%
X95750000Y-94750000D02*
X122050000Y-94750000D01*
X90125000Y-99650000D02*
X90487500Y-100012500D01*
X71035000Y-99610000D02*
X71437500Y-100012500D01*
X71800000Y-99650000D02*
X90125000Y-99650000D01*
X52790000Y-99610000D02*
X71035000Y-99610000D01*
X52387500Y-100012500D02*
X52790000Y-99610000D01*
X179375000Y-68775000D02*
X176950000Y-71200000D01*
X135837500Y-80962500D02*
X138112500Y-80962500D01*
X81375000Y-118650000D02*
X99600000Y-118650000D01*
X90487500Y-100012500D02*
X95750000Y-94750000D01*
X122050000Y-94750000D02*
X135837500Y-80962500D01*
X176950000Y-71200000D02*
X146050000Y-71200000D01*
X99600000Y-118650000D02*
X100012500Y-119062500D01*
X71437500Y-100012500D02*
X71800000Y-99650000D01*
X80962500Y-119062500D02*
X81375000Y-118650000D01*
%TO.N,ROW 2*%
X159835000Y-55665000D02*
X163290000Y-55665000D01*
X106362500Y-78422500D02*
X97000000Y-78422500D01*
X131053000Y-55753000D02*
X131025000Y-55725000D01*
X195590000Y-55670000D02*
X195585000Y-55665000D01*
X159747000Y-55753000D02*
X131053000Y-55753000D01*
X159835000Y-55665000D02*
X159747000Y-55753000D01*
X195585000Y-55665000D02*
X163290000Y-55665000D01*
X96837500Y-97472500D02*
X115887500Y-97472500D01*
X97000000Y-78422500D02*
X87312500Y-78422500D01*
X201612500Y-78422500D02*
X220662500Y-78422500D01*
X197020000Y-55670000D02*
X195590000Y-55670000D01*
X224865000Y-111200000D02*
X249830000Y-111200000D01*
X197060000Y-55710000D02*
X307487500Y-55710000D01*
X197020000Y-55670000D02*
X197060000Y-55710000D01*
X249830000Y-111200000D02*
X249860000Y-111170000D01*
X307487500Y-55710000D02*
X311150000Y-59372500D01*
%TO.N,COL 1*%
X247450000Y-76000000D02*
X252412500Y-80962500D01*
X205260000Y-61490000D02*
X204790000Y-61960000D01*
X223837500Y-61912500D02*
X223415000Y-61490000D01*
X214200000Y-76050000D02*
X214250000Y-76000000D01*
X223415000Y-61490000D02*
X205260000Y-61490000D01*
X214250000Y-76000000D02*
X233500000Y-76000000D01*
X233500000Y-76000000D02*
X247450000Y-76000000D01*
X183130000Y-76050000D02*
X214200000Y-76050000D01*
%TO.N,ROW 1*%
X241377500Y-59372500D02*
X249237500Y-59372500D01*
X150910000Y-72250000D02*
X228500000Y-72250000D01*
X289850000Y-57500000D02*
X305420000Y-73070000D01*
X150910000Y-72250000D02*
X52517500Y-72250000D01*
X163512500Y-116522500D02*
X182562500Y-116522500D01*
X134937500Y-59372500D02*
X153951700Y-59372500D01*
X268287500Y-59372500D02*
X276627500Y-59372500D01*
X324760000Y-73070000D02*
X330112500Y-78422500D01*
X153951700Y-59372500D02*
X153987500Y-59408300D01*
X278500000Y-57500000D02*
X289850000Y-57500000D01*
X249237500Y-59372500D02*
X268287500Y-59372500D01*
X330112500Y-78422500D02*
X330200000Y-78422500D01*
X305420000Y-73070000D02*
X324760000Y-73070000D01*
X276627500Y-59372500D02*
X278500000Y-57500000D01*
X228500000Y-72250000D02*
X241377500Y-59372500D01*
%TO.N,ROW 6*%
X177100000Y-59400000D02*
X177650000Y-59400000D01*
X225480000Y-114750000D02*
X223707500Y-116522500D01*
X177650000Y-59400000D02*
X177670000Y-59420000D01*
X106362500Y-116522500D02*
X125412500Y-116522500D01*
X263525000Y-116522500D02*
X261752500Y-114750000D01*
X126230000Y-113520000D02*
X54280000Y-113520000D01*
X218690000Y-110950000D02*
X219610000Y-111870000D01*
X176490000Y-110950000D02*
X176440000Y-111000000D01*
X176490000Y-110950000D02*
X218690000Y-110950000D01*
X145000000Y-111000000D02*
X142500000Y-113500000D01*
X77787500Y-59372500D02*
X96837500Y-59372500D01*
X46600000Y-73400000D02*
X69960000Y-73400000D01*
X192087500Y-59420000D02*
X211140000Y-59420000D01*
X142500000Y-113500000D02*
X126250000Y-113500000D01*
X223707500Y-116522500D02*
X220662500Y-116522500D01*
X54280000Y-113520000D02*
X51277500Y-116522500D01*
X177670000Y-59420000D02*
X192087500Y-59420000D01*
X126250000Y-113500000D02*
X126230000Y-113520000D01*
X176440000Y-111000000D02*
X145000000Y-111000000D01*
X51277500Y-116522500D02*
X44450000Y-116522500D01*
X261752500Y-114750000D02*
X225480000Y-114750000D01*
%TO.N,COL 2*%
X278527500Y-61912500D02*
X280987500Y-61912500D01*
X242405000Y-99530000D02*
X242887500Y-100012500D01*
X243370000Y-99530000D02*
X242887500Y-100012500D01*
X181410000Y-109880000D02*
X184170000Y-109880000D01*
X223345000Y-112115000D02*
X234985000Y-112115000D01*
X184170000Y-109880000D02*
X184250000Y-109960000D01*
X243680000Y-66020000D02*
X247960000Y-70300000D01*
X184250000Y-109960000D02*
X208780000Y-109960000D01*
X221480000Y-110250000D02*
X223345000Y-112115000D01*
X209070000Y-110250000D02*
X221480000Y-110250000D01*
X224320000Y-99530000D02*
X242405000Y-99530000D01*
X270140000Y-70300000D02*
X278527500Y-61912500D01*
X242887500Y-61912500D02*
X243680000Y-62705000D01*
X247960000Y-70300000D02*
X270140000Y-70300000D01*
X208780000Y-109960000D02*
X209070000Y-110250000D01*
X223837500Y-100012500D02*
X224320000Y-99530000D01*
X243680000Y-62705000D02*
X243680000Y-66020000D01*
%TO.N,COL 6*%
X61912500Y-80962500D02*
X62305000Y-80570000D01*
X174949800Y-52579800D02*
X174949800Y-52740200D01*
X42862500Y-80962500D02*
X43375000Y-80450000D01*
X33727500Y-61570000D02*
X51997500Y-61570000D01*
X52387500Y-61960000D02*
X52817500Y-61530000D01*
X77240000Y-53710000D02*
X77215000Y-53735000D01*
X173980000Y-53710000D02*
X77240000Y-53710000D01*
X52817500Y-61530000D02*
X71055000Y-61530000D01*
X33337500Y-61960000D02*
X33727500Y-61570000D01*
X61400000Y-80450000D02*
X61912500Y-80962500D01*
X51997500Y-61570000D02*
X52387500Y-61960000D01*
X80570000Y-80570000D02*
X80962500Y-80962500D01*
X43375000Y-80450000D02*
X61400000Y-80450000D01*
X71055000Y-61530000D02*
X71437500Y-61912500D01*
X62305000Y-80570000D02*
X80570000Y-80570000D01*
X174949800Y-52740200D02*
X173980000Y-53710000D01*
%TO.N,COL 7*%
X157435000Y-80690000D02*
X175940000Y-80690000D01*
X176212500Y-80962500D02*
X176485000Y-80690000D01*
X166177500Y-61450000D02*
X166687500Y-61960000D01*
X167157500Y-61490000D02*
X185267500Y-61490000D01*
X147637500Y-61948300D02*
X148135800Y-61450000D01*
X194990000Y-80690000D02*
X195262500Y-80962500D01*
X172740000Y-41640000D02*
X189798200Y-41640000D01*
X157162500Y-80962500D02*
X157435000Y-80690000D01*
X176485000Y-80690000D02*
X194990000Y-80690000D01*
X171140000Y-43240000D02*
X172740000Y-41640000D01*
X185267500Y-61490000D02*
X185737500Y-61960000D01*
X148135800Y-61450000D02*
X166177500Y-61450000D01*
X189798200Y-41640000D02*
X193979800Y-45821600D01*
X166687500Y-61960000D02*
X167157500Y-61490000D01*
X175940000Y-80690000D02*
X176212500Y-80962500D01*
%TO.N,COL 10*%
X33060000Y-54490000D02*
X30100000Y-57450000D01*
X304692500Y-119062500D02*
X297570000Y-111940000D01*
X155310000Y-54490000D02*
X33060000Y-54490000D01*
X42130000Y-112430000D02*
X141700000Y-112430000D01*
X304800000Y-118970000D02*
X304800000Y-119062500D01*
X267102500Y-99610000D02*
X266700000Y-100012500D01*
X195618200Y-39840000D02*
X201599800Y-45821600D01*
X304780000Y-138112500D02*
X304790000Y-138102500D01*
X30100000Y-57450000D02*
X30050000Y-57450000D01*
X144130000Y-110000000D02*
X179320000Y-110000000D01*
X304800000Y-138460000D02*
X324190000Y-138460000D01*
X155310000Y-54490000D02*
X158850000Y-54490000D01*
X33337500Y-101007500D02*
X34090000Y-101760000D01*
X254350000Y-111940000D02*
X251590000Y-109180000D01*
X260757500Y-100012500D02*
X266700000Y-100012500D01*
X141700000Y-112430000D02*
X144130000Y-110000000D01*
X33337500Y-100012500D02*
X33337500Y-101007500D01*
X304800000Y-119062500D02*
X304692500Y-119062500D01*
X285690000Y-138460000D02*
X304800000Y-138460000D01*
X34090000Y-101760000D02*
X34090000Y-104390000D01*
X166920000Y-39840000D02*
X195618200Y-39840000D01*
X251590000Y-109180000D02*
X260757500Y-100012500D01*
X180140000Y-109180000D02*
X251390000Y-109180000D01*
X34090000Y-104390000D02*
X42130000Y-112430000D01*
X163520000Y-43240000D02*
X166920000Y-39840000D01*
X297570000Y-111940000D02*
X254350000Y-111940000D01*
X179320000Y-110000000D02*
X180140000Y-109180000D01*
%TD*%
M02*
