M48
; DRILL file KiCad 10.0.1 date 2026-05-02T13:23:22
; FORMAT={-:-/ absolute / metric / decimal}
; #@! TF.CreationDate,2026-05-02T13:23:22-04:00
; #@! TF.GenerationSoftware,Kicad,Pcbnew,10.0.1
; #@! TF.FileFunction,NonPlated,1,2,NPTH
FMAT,2
METRIC
; #@! TA.AperFunction,NonPlated,NPTH,ComponentDrill
T1C1.750
; #@! TA.AperFunction,NonPlated,NPTH,ComponentDrill
T2C3.048
; #@! TA.AperFunction,NonPlated,NPTH,ComponentDrill
T3C3.988
; #@! TA.AperFunction,NonPlated,NPTH,ComponentDrill
T4C4.000
%
G90
G05
T1
X32.067Y-64.5
X32.067Y-102.552
X36.83Y-121.602
X41.593Y-83.502
X42.227Y-64.5
X42.227Y-102.552
X46.99Y-121.602
X51.117Y-64.5
X51.117Y-102.552
X51.752Y-83.502
X60.642Y-83.502
X60.642Y-121.602
X61.277Y-64.5
X61.277Y-102.552
X70.167Y-64.453
X70.167Y-102.552
X70.802Y-83.502
X70.802Y-121.602
X79.692Y-83.502
X79.692Y-121.602
X80.328Y-64.453
X80.328Y-102.552
X89.218Y-64.453
X89.218Y-102.552
X89.852Y-83.502
X89.852Y-121.602
X98.742Y-83.502
X98.742Y-121.602
X99.377Y-64.453
X99.377Y-102.552
X108.267Y-64.453
X108.267Y-102.552
X108.902Y-83.502
X108.902Y-121.602
X117.792Y-83.502
X117.792Y-121.602
X118.427Y-64.453
X118.427Y-102.552
X127.317Y-64.453
X127.317Y-102.552
X127.953Y-83.502
X127.953Y-121.602
X136.8Y-140.64
X136.843Y-83.502
X136.843Y-121.602
X137.477Y-64.453
X137.477Y-102.552
X146.368Y-64.488
X146.368Y-102.552
X146.96Y-140.64
X147.002Y-83.502
X147.002Y-121.602
X155.892Y-83.502
X155.892Y-121.602
X156.528Y-64.488
X156.528Y-102.552
X165.417Y-64.5
X165.417Y-102.552
X166.052Y-83.502
X166.052Y-121.602
X174.942Y-83.502
X174.942Y-121.602
X175.577Y-64.5
X175.577Y-102.552
X184.468Y-64.5
X184.468Y-102.552
X185.102Y-83.502
X185.102Y-121.602
X193.992Y-83.502
X193.992Y-121.602
X194.627Y-64.5
X194.627Y-102.552
X203.517Y-102.552
X203.52Y-64.5
X204.153Y-83.502
X204.153Y-121.602
X213.042Y-83.502
X213.042Y-121.602
X213.677Y-102.552
X213.68Y-64.5
X222.567Y-64.453
X222.567Y-102.552
X223.202Y-83.502
X223.202Y-121.602
X232.093Y-83.502
X232.093Y-121.602
X232.727Y-64.453
X232.727Y-102.552
X241.617Y-64.453
X241.617Y-102.552
X242.252Y-83.502
X242.252Y-121.602
X251.142Y-83.502
X251.777Y-64.453
X251.777Y-102.552
X255.905Y-121.602
X260.667Y-64.453
X261.303Y-83.502
X265.43Y-102.552
X266.065Y-121.602
X270.192Y-83.502
X270.827Y-64.453
X275.59Y-102.552
X279.717Y-64.453
X280.352Y-83.502
X283.92Y-141.0
X289.877Y-64.453
X294.08Y-141.0
X303.53Y-64.453
X303.53Y-83.502
X303.53Y-121.5
X303.53Y-141.0
X313.69Y-64.453
X313.69Y-83.502
X313.69Y-121.5
X313.69Y-141.0
X322.58Y-64.453
X322.58Y-83.502
X322.92Y-141.0
X332.74Y-64.453
X332.74Y-83.502
X333.08Y-141.0
T2
X91.96Y-133.655
X191.96Y-133.655
T3
X91.96Y-148.865
X191.96Y-148.865
T4
X37.148Y-64.5
X37.148Y-102.552
X41.91Y-121.602
X46.672Y-83.502
X56.197Y-64.5
X56.197Y-102.552
X65.722Y-83.502
X65.722Y-121.602
X75.248Y-64.453
X75.248Y-102.552
X84.772Y-83.502
X84.772Y-121.602
X94.297Y-64.453
X94.297Y-102.552
X103.822Y-83.502
X103.822Y-121.602
X113.347Y-64.453
X113.347Y-102.552
X122.872Y-83.502
X122.872Y-121.602
X132.398Y-64.453
X132.398Y-102.552
X141.88Y-140.64
X141.922Y-83.502
X141.922Y-121.602
X151.447Y-64.488
X151.447Y-102.552
X160.972Y-83.502
X160.972Y-121.602
X170.498Y-64.5
X170.498Y-102.552
X180.022Y-83.502
X180.022Y-121.602
X189.547Y-64.5
X189.547Y-102.552
X199.072Y-83.502
X199.072Y-121.602
X208.597Y-102.552
X208.6Y-64.5
X218.123Y-83.502
X218.123Y-121.602
X227.647Y-64.453
X227.647Y-102.552
X237.172Y-83.502
X237.172Y-121.602
X246.697Y-64.453
X246.697Y-102.552
X256.222Y-83.502
X260.985Y-121.602
X265.748Y-64.453
X270.51Y-102.552
X275.272Y-83.502
X284.798Y-64.453
X289.0Y-141.0
X308.61Y-64.453
X308.61Y-83.502
X308.61Y-121.5
X308.61Y-141.0
X327.66Y-64.453
X327.66Y-83.502
X328.0Y-141.0
M30
