%TF.GenerationSoftware,KiCad,Pcbnew,10.0.1*%
%TF.CreationDate,2026-04-30T22:34:29-04:00*%
%TF.ProjectId,Orao Keyboard,4f72616f-204b-4657-9962-6f6172642e6b,1.2*%
%TF.SameCoordinates,Original*%
%TF.FileFunction,Legend,Bot*%
%TF.FilePolarity,Positive*%
%FSLAX46Y46*%
G04 Gerber Fmt 4.6, Leading zero omitted, Abs format (unit mm)*
G04 Created by KiCad (PCBNEW 10.0.1) date 2026-04-30 22:34:29*
%MOMM*%
%LPD*%
G01*
G04 APERTURE LIST*
%ADD10C,0.100000*%
%ADD11C,0.175000*%
G04 APERTURE END LIST*
D10*
X160000000Y-50800000D02*
X161800000Y-50800000D01*
X160000000Y-43100000D02*
X160000000Y-50800000D01*
X160500000Y-43100000D02*
X160000000Y-43100000D01*
X161100000Y-45900000D02*
X161500000Y-45900000D01*
X161100000Y-43100000D02*
X161100000Y-45900000D01*
X161500000Y-43100000D02*
X161100000Y-43100000D01*
X184444977Y-48537217D02*
X184520216Y-48480074D01*
X184520216Y-48480074D02*
X184595454Y-48308646D01*
X184595454Y-48308646D02*
X184595454Y-48194360D01*
X184595454Y-48194360D02*
X184520216Y-48022931D01*
X184520216Y-48022931D02*
X184369739Y-47908646D01*
X184369739Y-47908646D02*
X184219263Y-47851503D01*
X184219263Y-47851503D02*
X183918311Y-47794360D01*
X183918311Y-47794360D02*
X183692596Y-47794360D01*
X183692596Y-47794360D02*
X183391644Y-47851503D01*
X183391644Y-47851503D02*
X183241168Y-47908646D01*
X183241168Y-47908646D02*
X183090692Y-48022931D01*
X183090692Y-48022931D02*
X183015454Y-48194360D01*
X183015454Y-48194360D02*
X183015454Y-48308646D01*
X183015454Y-48308646D02*
X183090692Y-48480074D01*
X183090692Y-48480074D02*
X183165930Y-48537217D01*
X183015454Y-48937217D02*
X183015454Y-49680074D01*
X183015454Y-49680074D02*
X183617358Y-49280074D01*
X183617358Y-49280074D02*
X183617358Y-49451503D01*
X183617358Y-49451503D02*
X183692596Y-49565789D01*
X183692596Y-49565789D02*
X183767835Y-49622931D01*
X183767835Y-49622931D02*
X183918311Y-49680074D01*
X183918311Y-49680074D02*
X184294501Y-49680074D01*
X184294501Y-49680074D02*
X184444977Y-49622931D01*
X184444977Y-49622931D02*
X184520216Y-49565789D01*
X184520216Y-49565789D02*
X184595454Y-49451503D01*
X184595454Y-49451503D02*
X184595454Y-49108646D01*
X184595454Y-49108646D02*
X184520216Y-48994360D01*
X184520216Y-48994360D02*
X184444977Y-48937217D01*
X186988689Y-48537217D02*
X187063928Y-48480074D01*
X187063928Y-48480074D02*
X187139166Y-48308646D01*
X187139166Y-48308646D02*
X187139166Y-48194360D01*
X187139166Y-48194360D02*
X187063928Y-48022931D01*
X187063928Y-48022931D02*
X186913451Y-47908646D01*
X186913451Y-47908646D02*
X186762975Y-47851503D01*
X186762975Y-47851503D02*
X186462023Y-47794360D01*
X186462023Y-47794360D02*
X186236308Y-47794360D01*
X186236308Y-47794360D02*
X185935356Y-47851503D01*
X185935356Y-47851503D02*
X185784880Y-47908646D01*
X185784880Y-47908646D02*
X185634404Y-48022931D01*
X185634404Y-48022931D02*
X185559166Y-48194360D01*
X185559166Y-48194360D02*
X185559166Y-48308646D01*
X185559166Y-48308646D02*
X185634404Y-48480074D01*
X185634404Y-48480074D02*
X185709642Y-48537217D01*
X186085832Y-49565789D02*
X187139166Y-49565789D01*
X185483928Y-49280074D02*
X186612499Y-48994360D01*
X186612499Y-48994360D02*
X186612499Y-49737217D01*
X189532401Y-48537217D02*
X189607640Y-48480074D01*
X189607640Y-48480074D02*
X189682878Y-48308646D01*
X189682878Y-48308646D02*
X189682878Y-48194360D01*
X189682878Y-48194360D02*
X189607640Y-48022931D01*
X189607640Y-48022931D02*
X189457163Y-47908646D01*
X189457163Y-47908646D02*
X189306687Y-47851503D01*
X189306687Y-47851503D02*
X189005735Y-47794360D01*
X189005735Y-47794360D02*
X188780020Y-47794360D01*
X188780020Y-47794360D02*
X188479068Y-47851503D01*
X188479068Y-47851503D02*
X188328592Y-47908646D01*
X188328592Y-47908646D02*
X188178116Y-48022931D01*
X188178116Y-48022931D02*
X188102878Y-48194360D01*
X188102878Y-48194360D02*
X188102878Y-48308646D01*
X188102878Y-48308646D02*
X188178116Y-48480074D01*
X188178116Y-48480074D02*
X188253354Y-48537217D01*
X188102878Y-49622931D02*
X188102878Y-49051503D01*
X188102878Y-49051503D02*
X188855259Y-48994360D01*
X188855259Y-48994360D02*
X188780020Y-49051503D01*
X188780020Y-49051503D02*
X188704782Y-49165789D01*
X188704782Y-49165789D02*
X188704782Y-49451503D01*
X188704782Y-49451503D02*
X188780020Y-49565789D01*
X188780020Y-49565789D02*
X188855259Y-49622931D01*
X188855259Y-49622931D02*
X189005735Y-49680074D01*
X189005735Y-49680074D02*
X189381925Y-49680074D01*
X189381925Y-49680074D02*
X189532401Y-49622931D01*
X189532401Y-49622931D02*
X189607640Y-49565789D01*
X189607640Y-49565789D02*
X189682878Y-49451503D01*
X189682878Y-49451503D02*
X189682878Y-49165789D01*
X189682878Y-49165789D02*
X189607640Y-49051503D01*
X189607640Y-49051503D02*
X189532401Y-48994360D01*
X192076113Y-48537217D02*
X192151352Y-48480074D01*
X192151352Y-48480074D02*
X192226590Y-48308646D01*
X192226590Y-48308646D02*
X192226590Y-48194360D01*
X192226590Y-48194360D02*
X192151352Y-48022931D01*
X192151352Y-48022931D02*
X192000875Y-47908646D01*
X192000875Y-47908646D02*
X191850399Y-47851503D01*
X191850399Y-47851503D02*
X191549447Y-47794360D01*
X191549447Y-47794360D02*
X191323732Y-47794360D01*
X191323732Y-47794360D02*
X191022780Y-47851503D01*
X191022780Y-47851503D02*
X190872304Y-47908646D01*
X190872304Y-47908646D02*
X190721828Y-48022931D01*
X190721828Y-48022931D02*
X190646590Y-48194360D01*
X190646590Y-48194360D02*
X190646590Y-48308646D01*
X190646590Y-48308646D02*
X190721828Y-48480074D01*
X190721828Y-48480074D02*
X190797066Y-48537217D01*
X190646590Y-49565789D02*
X190646590Y-49337217D01*
X190646590Y-49337217D02*
X190721828Y-49222931D01*
X190721828Y-49222931D02*
X190797066Y-49165789D01*
X190797066Y-49165789D02*
X191022780Y-49051503D01*
X191022780Y-49051503D02*
X191323732Y-48994360D01*
X191323732Y-48994360D02*
X191925637Y-48994360D01*
X191925637Y-48994360D02*
X192076113Y-49051503D01*
X192076113Y-49051503D02*
X192151352Y-49108646D01*
X192151352Y-49108646D02*
X192226590Y-49222931D01*
X192226590Y-49222931D02*
X192226590Y-49451503D01*
X192226590Y-49451503D02*
X192151352Y-49565789D01*
X192151352Y-49565789D02*
X192076113Y-49622931D01*
X192076113Y-49622931D02*
X191925637Y-49680074D01*
X191925637Y-49680074D02*
X191549447Y-49680074D01*
X191549447Y-49680074D02*
X191398971Y-49622931D01*
X191398971Y-49622931D02*
X191323732Y-49565789D01*
X191323732Y-49565789D02*
X191248494Y-49451503D01*
X191248494Y-49451503D02*
X191248494Y-49222931D01*
X191248494Y-49222931D02*
X191323732Y-49108646D01*
X191323732Y-49108646D02*
X191398971Y-49051503D01*
X191398971Y-49051503D02*
X191549447Y-48994360D01*
X194619825Y-48537217D02*
X194695064Y-48480074D01*
X194695064Y-48480074D02*
X194770302Y-48308646D01*
X194770302Y-48308646D02*
X194770302Y-48194360D01*
X194770302Y-48194360D02*
X194695064Y-48022931D01*
X194695064Y-48022931D02*
X194544587Y-47908646D01*
X194544587Y-47908646D02*
X194394111Y-47851503D01*
X194394111Y-47851503D02*
X194093159Y-47794360D01*
X194093159Y-47794360D02*
X193867444Y-47794360D01*
X193867444Y-47794360D02*
X193566492Y-47851503D01*
X193566492Y-47851503D02*
X193416016Y-47908646D01*
X193416016Y-47908646D02*
X193265540Y-48022931D01*
X193265540Y-48022931D02*
X193190302Y-48194360D01*
X193190302Y-48194360D02*
X193190302Y-48308646D01*
X193190302Y-48308646D02*
X193265540Y-48480074D01*
X193265540Y-48480074D02*
X193340778Y-48537217D01*
X193190302Y-48937217D02*
X193190302Y-49737217D01*
X193190302Y-49737217D02*
X194770302Y-49222931D01*
X197163537Y-48537217D02*
X197238776Y-48480074D01*
X197238776Y-48480074D02*
X197314014Y-48308646D01*
X197314014Y-48308646D02*
X197314014Y-48194360D01*
X197314014Y-48194360D02*
X197238776Y-48022931D01*
X197238776Y-48022931D02*
X197088299Y-47908646D01*
X197088299Y-47908646D02*
X196937823Y-47851503D01*
X196937823Y-47851503D02*
X196636871Y-47794360D01*
X196636871Y-47794360D02*
X196411156Y-47794360D01*
X196411156Y-47794360D02*
X196110204Y-47851503D01*
X196110204Y-47851503D02*
X195959728Y-47908646D01*
X195959728Y-47908646D02*
X195809252Y-48022931D01*
X195809252Y-48022931D02*
X195734014Y-48194360D01*
X195734014Y-48194360D02*
X195734014Y-48308646D01*
X195734014Y-48308646D02*
X195809252Y-48480074D01*
X195809252Y-48480074D02*
X195884490Y-48537217D01*
X196411156Y-49222931D02*
X196335918Y-49108646D01*
X196335918Y-49108646D02*
X196260680Y-49051503D01*
X196260680Y-49051503D02*
X196110204Y-48994360D01*
X196110204Y-48994360D02*
X196034966Y-48994360D01*
X196034966Y-48994360D02*
X195884490Y-49051503D01*
X195884490Y-49051503D02*
X195809252Y-49108646D01*
X195809252Y-49108646D02*
X195734014Y-49222931D01*
X195734014Y-49222931D02*
X195734014Y-49451503D01*
X195734014Y-49451503D02*
X195809252Y-49565789D01*
X195809252Y-49565789D02*
X195884490Y-49622931D01*
X195884490Y-49622931D02*
X196034966Y-49680074D01*
X196034966Y-49680074D02*
X196110204Y-49680074D01*
X196110204Y-49680074D02*
X196260680Y-49622931D01*
X196260680Y-49622931D02*
X196335918Y-49565789D01*
X196335918Y-49565789D02*
X196411156Y-49451503D01*
X196411156Y-49451503D02*
X196411156Y-49222931D01*
X196411156Y-49222931D02*
X196486395Y-49108646D01*
X196486395Y-49108646D02*
X196561633Y-49051503D01*
X196561633Y-49051503D02*
X196712109Y-48994360D01*
X196712109Y-48994360D02*
X197013061Y-48994360D01*
X197013061Y-48994360D02*
X197163537Y-49051503D01*
X197163537Y-49051503D02*
X197238776Y-49108646D01*
X197238776Y-49108646D02*
X197314014Y-49222931D01*
X197314014Y-49222931D02*
X197314014Y-49451503D01*
X197314014Y-49451503D02*
X197238776Y-49565789D01*
X197238776Y-49565789D02*
X197163537Y-49622931D01*
X197163537Y-49622931D02*
X197013061Y-49680074D01*
X197013061Y-49680074D02*
X196712109Y-49680074D01*
X196712109Y-49680074D02*
X196561633Y-49622931D01*
X196561633Y-49622931D02*
X196486395Y-49565789D01*
X196486395Y-49565789D02*
X196411156Y-49451503D01*
X199707249Y-48537217D02*
X199782488Y-48480074D01*
X199782488Y-48480074D02*
X199857726Y-48308646D01*
X199857726Y-48308646D02*
X199857726Y-48194360D01*
X199857726Y-48194360D02*
X199782488Y-48022931D01*
X199782488Y-48022931D02*
X199632011Y-47908646D01*
X199632011Y-47908646D02*
X199481535Y-47851503D01*
X199481535Y-47851503D02*
X199180583Y-47794360D01*
X199180583Y-47794360D02*
X198954868Y-47794360D01*
X198954868Y-47794360D02*
X198653916Y-47851503D01*
X198653916Y-47851503D02*
X198503440Y-47908646D01*
X198503440Y-47908646D02*
X198352964Y-48022931D01*
X198352964Y-48022931D02*
X198277726Y-48194360D01*
X198277726Y-48194360D02*
X198277726Y-48308646D01*
X198277726Y-48308646D02*
X198352964Y-48480074D01*
X198352964Y-48480074D02*
X198428202Y-48537217D01*
X199857726Y-49108646D02*
X199857726Y-49337217D01*
X199857726Y-49337217D02*
X199782488Y-49451503D01*
X199782488Y-49451503D02*
X199707249Y-49508646D01*
X199707249Y-49508646D02*
X199481535Y-49622931D01*
X199481535Y-49622931D02*
X199180583Y-49680074D01*
X199180583Y-49680074D02*
X198578678Y-49680074D01*
X198578678Y-49680074D02*
X198428202Y-49622931D01*
X198428202Y-49622931D02*
X198352964Y-49565789D01*
X198352964Y-49565789D02*
X198277726Y-49451503D01*
X198277726Y-49451503D02*
X198277726Y-49222931D01*
X198277726Y-49222931D02*
X198352964Y-49108646D01*
X198352964Y-49108646D02*
X198428202Y-49051503D01*
X198428202Y-49051503D02*
X198578678Y-48994360D01*
X198578678Y-48994360D02*
X198954868Y-48994360D01*
X198954868Y-48994360D02*
X199105345Y-49051503D01*
X199105345Y-49051503D02*
X199180583Y-49108646D01*
X199180583Y-49108646D02*
X199255821Y-49222931D01*
X199255821Y-49222931D02*
X199255821Y-49451503D01*
X199255821Y-49451503D02*
X199180583Y-49565789D01*
X199180583Y-49565789D02*
X199105345Y-49622931D01*
X199105345Y-49622931D02*
X198954868Y-49680074D01*
X202250961Y-48537217D02*
X202326200Y-48480074D01*
X202326200Y-48480074D02*
X202401438Y-48308646D01*
X202401438Y-48308646D02*
X202401438Y-48194360D01*
X202401438Y-48194360D02*
X202326200Y-48022931D01*
X202326200Y-48022931D02*
X202175723Y-47908646D01*
X202175723Y-47908646D02*
X202025247Y-47851503D01*
X202025247Y-47851503D02*
X201724295Y-47794360D01*
X201724295Y-47794360D02*
X201498580Y-47794360D01*
X201498580Y-47794360D02*
X201197628Y-47851503D01*
X201197628Y-47851503D02*
X201047152Y-47908646D01*
X201047152Y-47908646D02*
X200896676Y-48022931D01*
X200896676Y-48022931D02*
X200821438Y-48194360D01*
X200821438Y-48194360D02*
X200821438Y-48308646D01*
X200821438Y-48308646D02*
X200896676Y-48480074D01*
X200896676Y-48480074D02*
X200971914Y-48537217D01*
X202401438Y-49680074D02*
X202401438Y-48994360D01*
X202401438Y-49337217D02*
X200821438Y-49337217D01*
X200821438Y-49337217D02*
X201047152Y-49222931D01*
X201047152Y-49222931D02*
X201197628Y-49108646D01*
X201197628Y-49108646D02*
X201272866Y-48994360D01*
X200821438Y-50422931D02*
X200821438Y-50537217D01*
X200821438Y-50537217D02*
X200896676Y-50651503D01*
X200896676Y-50651503D02*
X200971914Y-50708646D01*
X200971914Y-50708646D02*
X201122390Y-50765788D01*
X201122390Y-50765788D02*
X201423342Y-50822931D01*
X201423342Y-50822931D02*
X201799533Y-50822931D01*
X201799533Y-50822931D02*
X202100485Y-50765788D01*
X202100485Y-50765788D02*
X202250961Y-50708646D01*
X202250961Y-50708646D02*
X202326200Y-50651503D01*
X202326200Y-50651503D02*
X202401438Y-50537217D01*
X202401438Y-50537217D02*
X202401438Y-50422931D01*
X202401438Y-50422931D02*
X202326200Y-50308646D01*
X202326200Y-50308646D02*
X202250961Y-50251503D01*
X202250961Y-50251503D02*
X202100485Y-50194360D01*
X202100485Y-50194360D02*
X201799533Y-50137217D01*
X201799533Y-50137217D02*
X201423342Y-50137217D01*
X201423342Y-50137217D02*
X201122390Y-50194360D01*
X201122390Y-50194360D02*
X200971914Y-50251503D01*
X200971914Y-50251503D02*
X200896676Y-50308646D01*
X200896676Y-50308646D02*
X200821438Y-50422931D01*
X164195454Y-48437217D02*
X163443073Y-48037217D01*
X164195454Y-47751503D02*
X162615454Y-47751503D01*
X162615454Y-47751503D02*
X162615454Y-48208646D01*
X162615454Y-48208646D02*
X162690692Y-48322931D01*
X162690692Y-48322931D02*
X162765930Y-48380074D01*
X162765930Y-48380074D02*
X162916406Y-48437217D01*
X162916406Y-48437217D02*
X163142120Y-48437217D01*
X163142120Y-48437217D02*
X163292596Y-48380074D01*
X163292596Y-48380074D02*
X163367835Y-48322931D01*
X163367835Y-48322931D02*
X163443073Y-48208646D01*
X163443073Y-48208646D02*
X163443073Y-47751503D01*
X164195454Y-49580074D02*
X164195454Y-48894360D01*
X164195454Y-49237217D02*
X162615454Y-49237217D01*
X162615454Y-49237217D02*
X162841168Y-49122931D01*
X162841168Y-49122931D02*
X162991644Y-49008646D01*
X162991644Y-49008646D02*
X163066882Y-48894360D01*
X166739166Y-48437217D02*
X165986785Y-48037217D01*
X166739166Y-47751503D02*
X165159166Y-47751503D01*
X165159166Y-47751503D02*
X165159166Y-48208646D01*
X165159166Y-48208646D02*
X165234404Y-48322931D01*
X165234404Y-48322931D02*
X165309642Y-48380074D01*
X165309642Y-48380074D02*
X165460118Y-48437217D01*
X165460118Y-48437217D02*
X165685832Y-48437217D01*
X165685832Y-48437217D02*
X165836308Y-48380074D01*
X165836308Y-48380074D02*
X165911547Y-48322931D01*
X165911547Y-48322931D02*
X165986785Y-48208646D01*
X165986785Y-48208646D02*
X165986785Y-47751503D01*
X165309642Y-48894360D02*
X165234404Y-48951503D01*
X165234404Y-48951503D02*
X165159166Y-49065789D01*
X165159166Y-49065789D02*
X165159166Y-49351503D01*
X165159166Y-49351503D02*
X165234404Y-49465789D01*
X165234404Y-49465789D02*
X165309642Y-49522931D01*
X165309642Y-49522931D02*
X165460118Y-49580074D01*
X165460118Y-49580074D02*
X165610594Y-49580074D01*
X165610594Y-49580074D02*
X165836308Y-49522931D01*
X165836308Y-49522931D02*
X166739166Y-48837217D01*
X166739166Y-48837217D02*
X166739166Y-49580074D01*
X169282878Y-48437217D02*
X168530497Y-48037217D01*
X169282878Y-47751503D02*
X167702878Y-47751503D01*
X167702878Y-47751503D02*
X167702878Y-48208646D01*
X167702878Y-48208646D02*
X167778116Y-48322931D01*
X167778116Y-48322931D02*
X167853354Y-48380074D01*
X167853354Y-48380074D02*
X168003830Y-48437217D01*
X168003830Y-48437217D02*
X168229544Y-48437217D01*
X168229544Y-48437217D02*
X168380020Y-48380074D01*
X168380020Y-48380074D02*
X168455259Y-48322931D01*
X168455259Y-48322931D02*
X168530497Y-48208646D01*
X168530497Y-48208646D02*
X168530497Y-47751503D01*
X167702878Y-48837217D02*
X167702878Y-49580074D01*
X167702878Y-49580074D02*
X168304782Y-49180074D01*
X168304782Y-49180074D02*
X168304782Y-49351503D01*
X168304782Y-49351503D02*
X168380020Y-49465789D01*
X168380020Y-49465789D02*
X168455259Y-49522931D01*
X168455259Y-49522931D02*
X168605735Y-49580074D01*
X168605735Y-49580074D02*
X168981925Y-49580074D01*
X168981925Y-49580074D02*
X169132401Y-49522931D01*
X169132401Y-49522931D02*
X169207640Y-49465789D01*
X169207640Y-49465789D02*
X169282878Y-49351503D01*
X169282878Y-49351503D02*
X169282878Y-49008646D01*
X169282878Y-49008646D02*
X169207640Y-48894360D01*
X169207640Y-48894360D02*
X169132401Y-48837217D01*
X171826590Y-48437217D02*
X171074209Y-48037217D01*
X171826590Y-47751503D02*
X170246590Y-47751503D01*
X170246590Y-47751503D02*
X170246590Y-48208646D01*
X170246590Y-48208646D02*
X170321828Y-48322931D01*
X170321828Y-48322931D02*
X170397066Y-48380074D01*
X170397066Y-48380074D02*
X170547542Y-48437217D01*
X170547542Y-48437217D02*
X170773256Y-48437217D01*
X170773256Y-48437217D02*
X170923732Y-48380074D01*
X170923732Y-48380074D02*
X170998971Y-48322931D01*
X170998971Y-48322931D02*
X171074209Y-48208646D01*
X171074209Y-48208646D02*
X171074209Y-47751503D01*
X170773256Y-49465789D02*
X171826590Y-49465789D01*
X170171352Y-49180074D02*
X171299923Y-48894360D01*
X171299923Y-48894360D02*
X171299923Y-49637217D01*
X174370302Y-48437217D02*
X173617921Y-48037217D01*
X174370302Y-47751503D02*
X172790302Y-47751503D01*
X172790302Y-47751503D02*
X172790302Y-48208646D01*
X172790302Y-48208646D02*
X172865540Y-48322931D01*
X172865540Y-48322931D02*
X172940778Y-48380074D01*
X172940778Y-48380074D02*
X173091254Y-48437217D01*
X173091254Y-48437217D02*
X173316968Y-48437217D01*
X173316968Y-48437217D02*
X173467444Y-48380074D01*
X173467444Y-48380074D02*
X173542683Y-48322931D01*
X173542683Y-48322931D02*
X173617921Y-48208646D01*
X173617921Y-48208646D02*
X173617921Y-47751503D01*
X172790302Y-49522931D02*
X172790302Y-48951503D01*
X172790302Y-48951503D02*
X173542683Y-48894360D01*
X173542683Y-48894360D02*
X173467444Y-48951503D01*
X173467444Y-48951503D02*
X173392206Y-49065789D01*
X173392206Y-49065789D02*
X173392206Y-49351503D01*
X173392206Y-49351503D02*
X173467444Y-49465789D01*
X173467444Y-49465789D02*
X173542683Y-49522931D01*
X173542683Y-49522931D02*
X173693159Y-49580074D01*
X173693159Y-49580074D02*
X174069349Y-49580074D01*
X174069349Y-49580074D02*
X174219825Y-49522931D01*
X174219825Y-49522931D02*
X174295064Y-49465789D01*
X174295064Y-49465789D02*
X174370302Y-49351503D01*
X174370302Y-49351503D02*
X174370302Y-49065789D01*
X174370302Y-49065789D02*
X174295064Y-48951503D01*
X174295064Y-48951503D02*
X174219825Y-48894360D01*
X176914014Y-48437217D02*
X176161633Y-48037217D01*
X176914014Y-47751503D02*
X175334014Y-47751503D01*
X175334014Y-47751503D02*
X175334014Y-48208646D01*
X175334014Y-48208646D02*
X175409252Y-48322931D01*
X175409252Y-48322931D02*
X175484490Y-48380074D01*
X175484490Y-48380074D02*
X175634966Y-48437217D01*
X175634966Y-48437217D02*
X175860680Y-48437217D01*
X175860680Y-48437217D02*
X176011156Y-48380074D01*
X176011156Y-48380074D02*
X176086395Y-48322931D01*
X176086395Y-48322931D02*
X176161633Y-48208646D01*
X176161633Y-48208646D02*
X176161633Y-47751503D01*
X175334014Y-49465789D02*
X175334014Y-49237217D01*
X175334014Y-49237217D02*
X175409252Y-49122931D01*
X175409252Y-49122931D02*
X175484490Y-49065789D01*
X175484490Y-49065789D02*
X175710204Y-48951503D01*
X175710204Y-48951503D02*
X176011156Y-48894360D01*
X176011156Y-48894360D02*
X176613061Y-48894360D01*
X176613061Y-48894360D02*
X176763537Y-48951503D01*
X176763537Y-48951503D02*
X176838776Y-49008646D01*
X176838776Y-49008646D02*
X176914014Y-49122931D01*
X176914014Y-49122931D02*
X176914014Y-49351503D01*
X176914014Y-49351503D02*
X176838776Y-49465789D01*
X176838776Y-49465789D02*
X176763537Y-49522931D01*
X176763537Y-49522931D02*
X176613061Y-49580074D01*
X176613061Y-49580074D02*
X176236871Y-49580074D01*
X176236871Y-49580074D02*
X176086395Y-49522931D01*
X176086395Y-49522931D02*
X176011156Y-49465789D01*
X176011156Y-49465789D02*
X175935918Y-49351503D01*
X175935918Y-49351503D02*
X175935918Y-49122931D01*
X175935918Y-49122931D02*
X176011156Y-49008646D01*
X176011156Y-49008646D02*
X176086395Y-48951503D01*
X176086395Y-48951503D02*
X176236871Y-48894360D01*
X179307249Y-48437217D02*
X179382488Y-48380074D01*
X179382488Y-48380074D02*
X179457726Y-48208646D01*
X179457726Y-48208646D02*
X179457726Y-48094360D01*
X179457726Y-48094360D02*
X179382488Y-47922931D01*
X179382488Y-47922931D02*
X179232011Y-47808646D01*
X179232011Y-47808646D02*
X179081535Y-47751503D01*
X179081535Y-47751503D02*
X178780583Y-47694360D01*
X178780583Y-47694360D02*
X178554868Y-47694360D01*
X178554868Y-47694360D02*
X178253916Y-47751503D01*
X178253916Y-47751503D02*
X178103440Y-47808646D01*
X178103440Y-47808646D02*
X177952964Y-47922931D01*
X177952964Y-47922931D02*
X177877726Y-48094360D01*
X177877726Y-48094360D02*
X177877726Y-48208646D01*
X177877726Y-48208646D02*
X177952964Y-48380074D01*
X177952964Y-48380074D02*
X178028202Y-48437217D01*
X179457726Y-49580074D02*
X179457726Y-48894360D01*
X179457726Y-49237217D02*
X177877726Y-49237217D01*
X177877726Y-49237217D02*
X178103440Y-49122931D01*
X178103440Y-49122931D02*
X178253916Y-49008646D01*
X178253916Y-49008646D02*
X178329154Y-48894360D01*
X181850961Y-48437217D02*
X181926200Y-48380074D01*
X181926200Y-48380074D02*
X182001438Y-48208646D01*
X182001438Y-48208646D02*
X182001438Y-48094360D01*
X182001438Y-48094360D02*
X181926200Y-47922931D01*
X181926200Y-47922931D02*
X181775723Y-47808646D01*
X181775723Y-47808646D02*
X181625247Y-47751503D01*
X181625247Y-47751503D02*
X181324295Y-47694360D01*
X181324295Y-47694360D02*
X181098580Y-47694360D01*
X181098580Y-47694360D02*
X180797628Y-47751503D01*
X180797628Y-47751503D02*
X180647152Y-47808646D01*
X180647152Y-47808646D02*
X180496676Y-47922931D01*
X180496676Y-47922931D02*
X180421438Y-48094360D01*
X180421438Y-48094360D02*
X180421438Y-48208646D01*
X180421438Y-48208646D02*
X180496676Y-48380074D01*
X180496676Y-48380074D02*
X180571914Y-48437217D01*
X180571914Y-48894360D02*
X180496676Y-48951503D01*
X180496676Y-48951503D02*
X180421438Y-49065789D01*
X180421438Y-49065789D02*
X180421438Y-49351503D01*
X180421438Y-49351503D02*
X180496676Y-49465789D01*
X180496676Y-49465789D02*
X180571914Y-49522931D01*
X180571914Y-49522931D02*
X180722390Y-49580074D01*
X180722390Y-49580074D02*
X180872866Y-49580074D01*
X180872866Y-49580074D02*
X181098580Y-49522931D01*
X181098580Y-49522931D02*
X182001438Y-48837217D01*
X182001438Y-48837217D02*
X182001438Y-49580074D01*
D11*
X36678202Y-68379566D02*
X37478202Y-68379566D01*
X37078202Y-68379566D02*
X37078202Y-66979566D01*
X37078202Y-66979566D02*
X37211535Y-67179566D01*
X37211535Y-67179566D02*
X37344869Y-67312900D01*
X37344869Y-67312900D02*
X37478202Y-67379566D01*
X56438202Y-67112900D02*
X56371535Y-67046233D01*
X56371535Y-67046233D02*
X56238202Y-66979566D01*
X56238202Y-66979566D02*
X55904869Y-66979566D01*
X55904869Y-66979566D02*
X55771535Y-67046233D01*
X55771535Y-67046233D02*
X55704869Y-67112900D01*
X55704869Y-67112900D02*
X55638202Y-67246233D01*
X55638202Y-67246233D02*
X55638202Y-67379566D01*
X55638202Y-67379566D02*
X55704869Y-67579566D01*
X55704869Y-67579566D02*
X56504869Y-68379566D01*
X56504869Y-68379566D02*
X55638202Y-68379566D01*
X76094869Y-66979566D02*
X75228202Y-66979566D01*
X75228202Y-66979566D02*
X75694869Y-67512900D01*
X75694869Y-67512900D02*
X75494869Y-67512900D01*
X75494869Y-67512900D02*
X75361535Y-67579566D01*
X75361535Y-67579566D02*
X75294869Y-67646233D01*
X75294869Y-67646233D02*
X75228202Y-67779566D01*
X75228202Y-67779566D02*
X75228202Y-68112900D01*
X75228202Y-68112900D02*
X75294869Y-68246233D01*
X75294869Y-68246233D02*
X75361535Y-68312900D01*
X75361535Y-68312900D02*
X75494869Y-68379566D01*
X75494869Y-68379566D02*
X75894869Y-68379566D01*
X75894869Y-68379566D02*
X76028202Y-68312900D01*
X76028202Y-68312900D02*
X76094869Y-68246233D01*
X94121535Y-67446233D02*
X94121535Y-68379566D01*
X94454869Y-66912900D02*
X94788202Y-67912900D01*
X94788202Y-67912900D02*
X93921535Y-67912900D01*
X113234869Y-66979566D02*
X113901535Y-66979566D01*
X113901535Y-66979566D02*
X113968202Y-67646233D01*
X113968202Y-67646233D02*
X113901535Y-67579566D01*
X113901535Y-67579566D02*
X113768202Y-67512900D01*
X113768202Y-67512900D02*
X113434869Y-67512900D01*
X113434869Y-67512900D02*
X113301535Y-67579566D01*
X113301535Y-67579566D02*
X113234869Y-67646233D01*
X113234869Y-67646233D02*
X113168202Y-67779566D01*
X113168202Y-67779566D02*
X113168202Y-68112900D01*
X113168202Y-68112900D02*
X113234869Y-68246233D01*
X113234869Y-68246233D02*
X113301535Y-68312900D01*
X113301535Y-68312900D02*
X113434869Y-68379566D01*
X113434869Y-68379566D02*
X113768202Y-68379566D01*
X113768202Y-68379566D02*
X113901535Y-68312900D01*
X113901535Y-68312900D02*
X113968202Y-68246233D01*
X132131535Y-66979566D02*
X132398202Y-66979566D01*
X132398202Y-66979566D02*
X132531535Y-67046233D01*
X132531535Y-67046233D02*
X132598202Y-67112900D01*
X132598202Y-67112900D02*
X132731535Y-67312900D01*
X132731535Y-67312900D02*
X132798202Y-67579566D01*
X132798202Y-67579566D02*
X132798202Y-68112900D01*
X132798202Y-68112900D02*
X132731535Y-68246233D01*
X132731535Y-68246233D02*
X132664869Y-68312900D01*
X132664869Y-68312900D02*
X132531535Y-68379566D01*
X132531535Y-68379566D02*
X132264869Y-68379566D01*
X132264869Y-68379566D02*
X132131535Y-68312900D01*
X132131535Y-68312900D02*
X132064869Y-68246233D01*
X132064869Y-68246233D02*
X131998202Y-68112900D01*
X131998202Y-68112900D02*
X131998202Y-67779566D01*
X131998202Y-67779566D02*
X132064869Y-67646233D01*
X132064869Y-67646233D02*
X132131535Y-67579566D01*
X132131535Y-67579566D02*
X132264869Y-67512900D01*
X132264869Y-67512900D02*
X132531535Y-67512900D01*
X132531535Y-67512900D02*
X132664869Y-67579566D01*
X132664869Y-67579566D02*
X132731535Y-67646233D01*
X132731535Y-67646233D02*
X132798202Y-67779566D01*
X152174869Y-66979566D02*
X151241535Y-66979566D01*
X151241535Y-66979566D02*
X151841535Y-68379566D01*
X170741535Y-67579566D02*
X170874869Y-67512900D01*
X170874869Y-67512900D02*
X170941535Y-67446233D01*
X170941535Y-67446233D02*
X171008202Y-67312900D01*
X171008202Y-67312900D02*
X171008202Y-67246233D01*
X171008202Y-67246233D02*
X170941535Y-67112900D01*
X170941535Y-67112900D02*
X170874869Y-67046233D01*
X170874869Y-67046233D02*
X170741535Y-66979566D01*
X170741535Y-66979566D02*
X170474869Y-66979566D01*
X170474869Y-66979566D02*
X170341535Y-67046233D01*
X170341535Y-67046233D02*
X170274869Y-67112900D01*
X170274869Y-67112900D02*
X170208202Y-67246233D01*
X170208202Y-67246233D02*
X170208202Y-67312900D01*
X170208202Y-67312900D02*
X170274869Y-67446233D01*
X170274869Y-67446233D02*
X170341535Y-67512900D01*
X170341535Y-67512900D02*
X170474869Y-67579566D01*
X170474869Y-67579566D02*
X170741535Y-67579566D01*
X170741535Y-67579566D02*
X170874869Y-67646233D01*
X170874869Y-67646233D02*
X170941535Y-67712900D01*
X170941535Y-67712900D02*
X171008202Y-67846233D01*
X171008202Y-67846233D02*
X171008202Y-68112900D01*
X171008202Y-68112900D02*
X170941535Y-68246233D01*
X170941535Y-68246233D02*
X170874869Y-68312900D01*
X170874869Y-68312900D02*
X170741535Y-68379566D01*
X170741535Y-68379566D02*
X170474869Y-68379566D01*
X170474869Y-68379566D02*
X170341535Y-68312900D01*
X170341535Y-68312900D02*
X170274869Y-68246233D01*
X170274869Y-68246233D02*
X170208202Y-68112900D01*
X170208202Y-68112900D02*
X170208202Y-67846233D01*
X170208202Y-67846233D02*
X170274869Y-67712900D01*
X170274869Y-67712900D02*
X170341535Y-67646233D01*
X170341535Y-67646233D02*
X170474869Y-67579566D01*
X40766666Y-106466233D02*
X40833333Y-106532900D01*
X40833333Y-106532900D02*
X41033333Y-106599566D01*
X41033333Y-106599566D02*
X41166666Y-106599566D01*
X41166666Y-106599566D02*
X41366666Y-106532900D01*
X41366666Y-106532900D02*
X41500000Y-106399566D01*
X41500000Y-106399566D02*
X41566666Y-106266233D01*
X41566666Y-106266233D02*
X41633333Y-105999566D01*
X41633333Y-105999566D02*
X41633333Y-105799566D01*
X41633333Y-105799566D02*
X41566666Y-105532900D01*
X41566666Y-105532900D02*
X41500000Y-105399566D01*
X41500000Y-105399566D02*
X41366666Y-105266233D01*
X41366666Y-105266233D02*
X41166666Y-105199566D01*
X41166666Y-105199566D02*
X41033333Y-105199566D01*
X41033333Y-105199566D02*
X40833333Y-105266233D01*
X40833333Y-105266233D02*
X40766666Y-105332900D01*
X39900000Y-105199566D02*
X39633333Y-105199566D01*
X39633333Y-105199566D02*
X39500000Y-105266233D01*
X39500000Y-105266233D02*
X39366666Y-105399566D01*
X39366666Y-105399566D02*
X39300000Y-105666233D01*
X39300000Y-105666233D02*
X39300000Y-106132900D01*
X39300000Y-106132900D02*
X39366666Y-106399566D01*
X39366666Y-106399566D02*
X39500000Y-106532900D01*
X39500000Y-106532900D02*
X39633333Y-106599566D01*
X39633333Y-106599566D02*
X39900000Y-106599566D01*
X39900000Y-106599566D02*
X40033333Y-106532900D01*
X40033333Y-106532900D02*
X40166666Y-106399566D01*
X40166666Y-106399566D02*
X40233333Y-106132900D01*
X40233333Y-106132900D02*
X40233333Y-105666233D01*
X40233333Y-105666233D02*
X40166666Y-105399566D01*
X40166666Y-105399566D02*
X40033333Y-105266233D01*
X40033333Y-105266233D02*
X39900000Y-105199566D01*
X38699999Y-106599566D02*
X38699999Y-105199566D01*
X38699999Y-105199566D02*
X37899999Y-106599566D01*
X37899999Y-106599566D02*
X37899999Y-105199566D01*
X37433332Y-105199566D02*
X36633332Y-105199566D01*
X37033332Y-106599566D02*
X37033332Y-105199566D01*
X35366665Y-106599566D02*
X35833332Y-105932900D01*
X36166665Y-106599566D02*
X36166665Y-105199566D01*
X36166665Y-105199566D02*
X35633332Y-105199566D01*
X35633332Y-105199566D02*
X35499999Y-105266233D01*
X35499999Y-105266233D02*
X35433332Y-105332900D01*
X35433332Y-105332900D02*
X35366665Y-105466233D01*
X35366665Y-105466233D02*
X35366665Y-105666233D01*
X35366665Y-105666233D02*
X35433332Y-105799566D01*
X35433332Y-105799566D02*
X35499999Y-105866233D01*
X35499999Y-105866233D02*
X35633332Y-105932900D01*
X35633332Y-105932900D02*
X36166665Y-105932900D01*
X34499999Y-105199566D02*
X34233332Y-105199566D01*
X34233332Y-105199566D02*
X34099999Y-105266233D01*
X34099999Y-105266233D02*
X33966665Y-105399566D01*
X33966665Y-105399566D02*
X33899999Y-105666233D01*
X33899999Y-105666233D02*
X33899999Y-106132900D01*
X33899999Y-106132900D02*
X33966665Y-106399566D01*
X33966665Y-106399566D02*
X34099999Y-106532900D01*
X34099999Y-106532900D02*
X34233332Y-106599566D01*
X34233332Y-106599566D02*
X34499999Y-106599566D01*
X34499999Y-106599566D02*
X34633332Y-106532900D01*
X34633332Y-106532900D02*
X34766665Y-106399566D01*
X34766665Y-106399566D02*
X34833332Y-106132900D01*
X34833332Y-106132900D02*
X34833332Y-105666233D01*
X34833332Y-105666233D02*
X34766665Y-105399566D01*
X34766665Y-105399566D02*
X34633332Y-105266233D01*
X34633332Y-105266233D02*
X34499999Y-105199566D01*
X32633332Y-106599566D02*
X33299998Y-106599566D01*
X33299998Y-106599566D02*
X33299998Y-105199566D01*
X44626667Y-125399566D02*
X45293333Y-125399566D01*
X45293333Y-125399566D02*
X45293333Y-123999566D01*
X44160000Y-125266233D02*
X44093334Y-125332900D01*
X44093334Y-125332900D02*
X44160000Y-125399566D01*
X44160000Y-125399566D02*
X44226667Y-125332900D01*
X44226667Y-125332900D02*
X44160000Y-125266233D01*
X44160000Y-125266233D02*
X44160000Y-125399566D01*
X43560000Y-125332900D02*
X43360000Y-125399566D01*
X43360000Y-125399566D02*
X43026667Y-125399566D01*
X43026667Y-125399566D02*
X42893333Y-125332900D01*
X42893333Y-125332900D02*
X42826667Y-125266233D01*
X42826667Y-125266233D02*
X42760000Y-125132900D01*
X42760000Y-125132900D02*
X42760000Y-124999566D01*
X42760000Y-124999566D02*
X42826667Y-124866233D01*
X42826667Y-124866233D02*
X42893333Y-124799566D01*
X42893333Y-124799566D02*
X43026667Y-124732900D01*
X43026667Y-124732900D02*
X43293333Y-124666233D01*
X43293333Y-124666233D02*
X43426667Y-124599566D01*
X43426667Y-124599566D02*
X43493333Y-124532900D01*
X43493333Y-124532900D02*
X43560000Y-124399566D01*
X43560000Y-124399566D02*
X43560000Y-124266233D01*
X43560000Y-124266233D02*
X43493333Y-124132900D01*
X43493333Y-124132900D02*
X43426667Y-124066233D01*
X43426667Y-124066233D02*
X43293333Y-123999566D01*
X43293333Y-123999566D02*
X42960000Y-123999566D01*
X42960000Y-123999566D02*
X42760000Y-124066233D01*
X42160000Y-125399566D02*
X42160000Y-123999566D01*
X42160000Y-124666233D02*
X41360000Y-124666233D01*
X41360000Y-125399566D02*
X41360000Y-123999566D01*
X40693333Y-125399566D02*
X40693333Y-123999566D01*
X39560000Y-124666233D02*
X40026666Y-124666233D01*
X40026666Y-125399566D02*
X40026666Y-123999566D01*
X40026666Y-123999566D02*
X39360000Y-123999566D01*
X39026666Y-123999566D02*
X38226666Y-123999566D01*
X38626666Y-125399566D02*
X38626666Y-123999566D01*
X46176666Y-87772900D02*
X46309999Y-87706233D01*
X46309999Y-87706233D02*
X46443333Y-87572900D01*
X46443333Y-87572900D02*
X46643333Y-87372900D01*
X46643333Y-87372900D02*
X46776666Y-87306233D01*
X46776666Y-87306233D02*
X46909999Y-87306233D01*
X46843333Y-87639566D02*
X46976666Y-87572900D01*
X46976666Y-87572900D02*
X47109999Y-87439566D01*
X47109999Y-87439566D02*
X47176666Y-87172900D01*
X47176666Y-87172900D02*
X47176666Y-86706233D01*
X47176666Y-86706233D02*
X47109999Y-86439566D01*
X47109999Y-86439566D02*
X46976666Y-86306233D01*
X46976666Y-86306233D02*
X46843333Y-86239566D01*
X46843333Y-86239566D02*
X46576666Y-86239566D01*
X46576666Y-86239566D02*
X46443333Y-86306233D01*
X46443333Y-86306233D02*
X46309999Y-86439566D01*
X46309999Y-86439566D02*
X46243333Y-86706233D01*
X46243333Y-86706233D02*
X46243333Y-87172900D01*
X46243333Y-87172900D02*
X46309999Y-87439566D01*
X46309999Y-87439566D02*
X46443333Y-87572900D01*
X46443333Y-87572900D02*
X46576666Y-87639566D01*
X46576666Y-87639566D02*
X46843333Y-87639566D01*
X56723333Y-106199566D02*
X56056666Y-106199566D01*
X56856666Y-106599566D02*
X56390000Y-105199566D01*
X56390000Y-105199566D02*
X55923333Y-106599566D01*
X66196666Y-124149566D02*
X65263332Y-124149566D01*
X65263332Y-124149566D02*
X66196666Y-125549566D01*
X66196666Y-125549566D02*
X65263332Y-125549566D01*
X66350000Y-86239566D02*
X66016666Y-87639566D01*
X66016666Y-87639566D02*
X65750000Y-86639566D01*
X65750000Y-86639566D02*
X65483333Y-87639566D01*
X65483333Y-87639566D02*
X65150000Y-86239566D01*
X75889999Y-106532900D02*
X75689999Y-106599566D01*
X75689999Y-106599566D02*
X75356666Y-106599566D01*
X75356666Y-106599566D02*
X75223332Y-106532900D01*
X75223332Y-106532900D02*
X75156666Y-106466233D01*
X75156666Y-106466233D02*
X75089999Y-106332900D01*
X75089999Y-106332900D02*
X75089999Y-106199566D01*
X75089999Y-106199566D02*
X75156666Y-106066233D01*
X75156666Y-106066233D02*
X75223332Y-105999566D01*
X75223332Y-105999566D02*
X75356666Y-105932900D01*
X75356666Y-105932900D02*
X75623332Y-105866233D01*
X75623332Y-105866233D02*
X75756666Y-105799566D01*
X75756666Y-105799566D02*
X75823332Y-105732900D01*
X75823332Y-105732900D02*
X75889999Y-105599566D01*
X75889999Y-105599566D02*
X75889999Y-105466233D01*
X75889999Y-105466233D02*
X75823332Y-105332900D01*
X75823332Y-105332900D02*
X75756666Y-105266233D01*
X75756666Y-105266233D02*
X75623332Y-105199566D01*
X75623332Y-105199566D02*
X75289999Y-105199566D01*
X75289999Y-105199566D02*
X75089999Y-105266233D01*
X85089999Y-86906233D02*
X84623333Y-86906233D01*
X84423333Y-87639566D02*
X85089999Y-87639566D01*
X85089999Y-87639566D02*
X85089999Y-86239566D01*
X85089999Y-86239566D02*
X84423333Y-86239566D01*
X85326666Y-124159566D02*
X84393332Y-125559566D01*
X84393332Y-124159566D02*
X85326666Y-125559566D01*
X94966666Y-106599566D02*
X94966666Y-105199566D01*
X94966666Y-105199566D02*
X94633333Y-105199566D01*
X94633333Y-105199566D02*
X94433333Y-105266233D01*
X94433333Y-105266233D02*
X94300000Y-105399566D01*
X94300000Y-105399566D02*
X94233333Y-105532900D01*
X94233333Y-105532900D02*
X94166666Y-105799566D01*
X94166666Y-105799566D02*
X94166666Y-105999566D01*
X94166666Y-105999566D02*
X94233333Y-106266233D01*
X94233333Y-106266233D02*
X94300000Y-106399566D01*
X94300000Y-106399566D02*
X94433333Y-106532900D01*
X94433333Y-106532900D02*
X94633333Y-106599566D01*
X94633333Y-106599566D02*
X94966666Y-106599566D01*
X103186666Y-87639566D02*
X103653333Y-86972900D01*
X103986666Y-87639566D02*
X103986666Y-86239566D01*
X103986666Y-86239566D02*
X103453333Y-86239566D01*
X103453333Y-86239566D02*
X103320000Y-86306233D01*
X103320000Y-86306233D02*
X103253333Y-86372900D01*
X103253333Y-86372900D02*
X103186666Y-86506233D01*
X103186666Y-86506233D02*
X103186666Y-86706233D01*
X103186666Y-86706233D02*
X103253333Y-86839566D01*
X103253333Y-86839566D02*
X103320000Y-86906233D01*
X103320000Y-86906233D02*
X103453333Y-86972900D01*
X103453333Y-86972900D02*
X103986666Y-86972900D01*
X103186666Y-125426233D02*
X103253333Y-125492900D01*
X103253333Y-125492900D02*
X103453333Y-125559566D01*
X103453333Y-125559566D02*
X103586666Y-125559566D01*
X103586666Y-125559566D02*
X103786666Y-125492900D01*
X103786666Y-125492900D02*
X103920000Y-125359566D01*
X103920000Y-125359566D02*
X103986666Y-125226233D01*
X103986666Y-125226233D02*
X104053333Y-124959566D01*
X104053333Y-124959566D02*
X104053333Y-124759566D01*
X104053333Y-124759566D02*
X103986666Y-124492900D01*
X103986666Y-124492900D02*
X103920000Y-124359566D01*
X103920000Y-124359566D02*
X103786666Y-124226233D01*
X103786666Y-124226233D02*
X103586666Y-124159566D01*
X103586666Y-124159566D02*
X103453333Y-124159566D01*
X103453333Y-124159566D02*
X103253333Y-124226233D01*
X103253333Y-124226233D02*
X103186666Y-124292900D01*
X113500000Y-105866233D02*
X113966666Y-105866233D01*
X113966666Y-106599566D02*
X113966666Y-105199566D01*
X113966666Y-105199566D02*
X113300000Y-105199566D01*
X123256666Y-124159566D02*
X122790000Y-125559566D01*
X122790000Y-125559566D02*
X122323333Y-124159566D01*
X123329999Y-86239566D02*
X122529999Y-86239566D01*
X122929999Y-87639566D02*
X122929999Y-86239566D01*
X132233333Y-105266233D02*
X132366666Y-105199566D01*
X132366666Y-105199566D02*
X132566666Y-105199566D01*
X132566666Y-105199566D02*
X132766666Y-105266233D01*
X132766666Y-105266233D02*
X132900000Y-105399566D01*
X132900000Y-105399566D02*
X132966666Y-105532900D01*
X132966666Y-105532900D02*
X133033333Y-105799566D01*
X133033333Y-105799566D02*
X133033333Y-105999566D01*
X133033333Y-105999566D02*
X132966666Y-106266233D01*
X132966666Y-106266233D02*
X132900000Y-106399566D01*
X132900000Y-106399566D02*
X132766666Y-106532900D01*
X132766666Y-106532900D02*
X132566666Y-106599566D01*
X132566666Y-106599566D02*
X132433333Y-106599566D01*
X132433333Y-106599566D02*
X132233333Y-106532900D01*
X132233333Y-106532900D02*
X132166666Y-106466233D01*
X132166666Y-106466233D02*
X132166666Y-105999566D01*
X132166666Y-105999566D02*
X132433333Y-105999566D01*
X141510000Y-124826233D02*
X141310000Y-124892900D01*
X141310000Y-124892900D02*
X141243333Y-124959566D01*
X141243333Y-124959566D02*
X141176666Y-125092900D01*
X141176666Y-125092900D02*
X141176666Y-125292900D01*
X141176666Y-125292900D02*
X141243333Y-125426233D01*
X141243333Y-125426233D02*
X141310000Y-125492900D01*
X141310000Y-125492900D02*
X141443333Y-125559566D01*
X141443333Y-125559566D02*
X141976666Y-125559566D01*
X141976666Y-125559566D02*
X141976666Y-124159566D01*
X141976666Y-124159566D02*
X141510000Y-124159566D01*
X141510000Y-124159566D02*
X141376666Y-124226233D01*
X141376666Y-124226233D02*
X141310000Y-124292900D01*
X141310000Y-124292900D02*
X141243333Y-124426233D01*
X141243333Y-124426233D02*
X141243333Y-124559566D01*
X141243333Y-124559566D02*
X141310000Y-124692900D01*
X141310000Y-124692900D02*
X141376666Y-124759566D01*
X141376666Y-124759566D02*
X141510000Y-124826233D01*
X141510000Y-124826233D02*
X141976666Y-124826233D01*
X141830000Y-86972900D02*
X141830000Y-87639566D01*
X142296666Y-86239566D02*
X141830000Y-86972900D01*
X141830000Y-86972900D02*
X141363333Y-86239566D01*
X159526666Y-144099566D02*
X159793333Y-144099566D01*
X159793333Y-144099566D02*
X159926666Y-144166233D01*
X159926666Y-144166233D02*
X159993333Y-144232900D01*
X159993333Y-144232900D02*
X160126666Y-144432900D01*
X160126666Y-144432900D02*
X160193333Y-144699566D01*
X160193333Y-144699566D02*
X160193333Y-145232900D01*
X160193333Y-145232900D02*
X160126666Y-145366233D01*
X160126666Y-145366233D02*
X160060000Y-145432900D01*
X160060000Y-145432900D02*
X159926666Y-145499566D01*
X159926666Y-145499566D02*
X159660000Y-145499566D01*
X159660000Y-145499566D02*
X159526666Y-145432900D01*
X159526666Y-145432900D02*
X159460000Y-145366233D01*
X159460000Y-145366233D02*
X159393333Y-145232900D01*
X159393333Y-145232900D02*
X159393333Y-144899566D01*
X159393333Y-144899566D02*
X159460000Y-144766233D01*
X159460000Y-144766233D02*
X159526666Y-144699566D01*
X159526666Y-144699566D02*
X159660000Y-144632900D01*
X159660000Y-144632900D02*
X159926666Y-144632900D01*
X159926666Y-144632900D02*
X160060000Y-144699566D01*
X160060000Y-144699566D02*
X160126666Y-144766233D01*
X160126666Y-144766233D02*
X160193333Y-144899566D01*
X158793333Y-145366233D02*
X158726667Y-145432900D01*
X158726667Y-145432900D02*
X158793333Y-145499566D01*
X158793333Y-145499566D02*
X158860000Y-145432900D01*
X158860000Y-145432900D02*
X158793333Y-145366233D01*
X158793333Y-145366233D02*
X158793333Y-145499566D01*
X158193333Y-144232900D02*
X158126666Y-144166233D01*
X158126666Y-144166233D02*
X157993333Y-144099566D01*
X157993333Y-144099566D02*
X157660000Y-144099566D01*
X157660000Y-144099566D02*
X157526666Y-144166233D01*
X157526666Y-144166233D02*
X157460000Y-144232900D01*
X157460000Y-144232900D02*
X157393333Y-144366233D01*
X157393333Y-144366233D02*
X157393333Y-144499566D01*
X157393333Y-144499566D02*
X157460000Y-144699566D01*
X157460000Y-144699566D02*
X158260000Y-145499566D01*
X158260000Y-145499566D02*
X157393333Y-145499566D01*
X156126667Y-144099566D02*
X156793333Y-144099566D01*
X156793333Y-144099566D02*
X156860000Y-144766233D01*
X156860000Y-144766233D02*
X156793333Y-144699566D01*
X156793333Y-144699566D02*
X156660000Y-144632900D01*
X156660000Y-144632900D02*
X156326667Y-144632900D01*
X156326667Y-144632900D02*
X156193333Y-144699566D01*
X156193333Y-144699566D02*
X156126667Y-144766233D01*
X156126667Y-144766233D02*
X156060000Y-144899566D01*
X156060000Y-144899566D02*
X156060000Y-145232900D01*
X156060000Y-145232900D02*
X156126667Y-145366233D01*
X156126667Y-145366233D02*
X156193333Y-145432900D01*
X156193333Y-145432900D02*
X156326667Y-145499566D01*
X156326667Y-145499566D02*
X156660000Y-145499566D01*
X156660000Y-145499566D02*
X156793333Y-145432900D01*
X156793333Y-145432900D02*
X156860000Y-145366233D01*
X155460000Y-144099566D02*
X155460000Y-145232900D01*
X155460000Y-145232900D02*
X155393334Y-145366233D01*
X155393334Y-145366233D02*
X155326667Y-145432900D01*
X155326667Y-145432900D02*
X155193334Y-145499566D01*
X155193334Y-145499566D02*
X154926667Y-145499566D01*
X154926667Y-145499566D02*
X154793334Y-145432900D01*
X154793334Y-145432900D02*
X154726667Y-145366233D01*
X154726667Y-145366233D02*
X154660000Y-145232900D01*
X154660000Y-145232900D02*
X154660000Y-144099566D01*
X152993333Y-145432900D02*
X152793333Y-145499566D01*
X152793333Y-145499566D02*
X152460000Y-145499566D01*
X152460000Y-145499566D02*
X152326666Y-145432900D01*
X152326666Y-145432900D02*
X152260000Y-145366233D01*
X152260000Y-145366233D02*
X152193333Y-145232900D01*
X152193333Y-145232900D02*
X152193333Y-145099566D01*
X152193333Y-145099566D02*
X152260000Y-144966233D01*
X152260000Y-144966233D02*
X152326666Y-144899566D01*
X152326666Y-144899566D02*
X152460000Y-144832900D01*
X152460000Y-144832900D02*
X152726666Y-144766233D01*
X152726666Y-144766233D02*
X152860000Y-144699566D01*
X152860000Y-144699566D02*
X152926666Y-144632900D01*
X152926666Y-144632900D02*
X152993333Y-144499566D01*
X152993333Y-144499566D02*
X152993333Y-144366233D01*
X152993333Y-144366233D02*
X152926666Y-144232900D01*
X152926666Y-144232900D02*
X152860000Y-144166233D01*
X152860000Y-144166233D02*
X152726666Y-144099566D01*
X152726666Y-144099566D02*
X152393333Y-144099566D01*
X152393333Y-144099566D02*
X152193333Y-144166233D01*
X151593333Y-145499566D02*
X151593333Y-144099566D01*
X151593333Y-144099566D02*
X151060000Y-144099566D01*
X151060000Y-144099566D02*
X150926667Y-144166233D01*
X150926667Y-144166233D02*
X150860000Y-144232900D01*
X150860000Y-144232900D02*
X150793333Y-144366233D01*
X150793333Y-144366233D02*
X150793333Y-144566233D01*
X150793333Y-144566233D02*
X150860000Y-144699566D01*
X150860000Y-144699566D02*
X150926667Y-144766233D01*
X150926667Y-144766233D02*
X151060000Y-144832900D01*
X151060000Y-144832900D02*
X151593333Y-144832900D01*
X150260000Y-145099566D02*
X149593333Y-145099566D01*
X150393333Y-145499566D02*
X149926667Y-144099566D01*
X149926667Y-144099566D02*
X149460000Y-145499566D01*
X148193333Y-145366233D02*
X148260000Y-145432900D01*
X148260000Y-145432900D02*
X148460000Y-145499566D01*
X148460000Y-145499566D02*
X148593333Y-145499566D01*
X148593333Y-145499566D02*
X148793333Y-145432900D01*
X148793333Y-145432900D02*
X148926667Y-145299566D01*
X148926667Y-145299566D02*
X148993333Y-145166233D01*
X148993333Y-145166233D02*
X149060000Y-144899566D01*
X149060000Y-144899566D02*
X149060000Y-144699566D01*
X149060000Y-144699566D02*
X148993333Y-144432900D01*
X148993333Y-144432900D02*
X148926667Y-144299566D01*
X148926667Y-144299566D02*
X148793333Y-144166233D01*
X148793333Y-144166233D02*
X148593333Y-144099566D01*
X148593333Y-144099566D02*
X148460000Y-144099566D01*
X148460000Y-144099566D02*
X148260000Y-144166233D01*
X148260000Y-144166233D02*
X148193333Y-144232900D01*
X147593333Y-144766233D02*
X147126667Y-144766233D01*
X146926667Y-145499566D02*
X147593333Y-145499566D01*
X147593333Y-145499566D02*
X147593333Y-144099566D01*
X147593333Y-144099566D02*
X146926667Y-144099566D01*
X145860000Y-144766233D02*
X145660000Y-144832900D01*
X145660000Y-144832900D02*
X145593333Y-144899566D01*
X145593333Y-144899566D02*
X145526666Y-145032900D01*
X145526666Y-145032900D02*
X145526666Y-145232900D01*
X145526666Y-145232900D02*
X145593333Y-145366233D01*
X145593333Y-145366233D02*
X145660000Y-145432900D01*
X145660000Y-145432900D02*
X145793333Y-145499566D01*
X145793333Y-145499566D02*
X146326666Y-145499566D01*
X146326666Y-145499566D02*
X146326666Y-144099566D01*
X146326666Y-144099566D02*
X145860000Y-144099566D01*
X145860000Y-144099566D02*
X145726666Y-144166233D01*
X145726666Y-144166233D02*
X145660000Y-144232900D01*
X145660000Y-144232900D02*
X145593333Y-144366233D01*
X145593333Y-144366233D02*
X145593333Y-144499566D01*
X145593333Y-144499566D02*
X145660000Y-144632900D01*
X145660000Y-144632900D02*
X145726666Y-144699566D01*
X145726666Y-144699566D02*
X145860000Y-144766233D01*
X145860000Y-144766233D02*
X146326666Y-144766233D01*
X144993333Y-145099566D02*
X144326666Y-145099566D01*
X145126666Y-145499566D02*
X144660000Y-144099566D01*
X144660000Y-144099566D02*
X144193333Y-145499566D01*
X142926666Y-145499566D02*
X143393333Y-144832900D01*
X143726666Y-145499566D02*
X143726666Y-144099566D01*
X143726666Y-144099566D02*
X143193333Y-144099566D01*
X143193333Y-144099566D02*
X143060000Y-144166233D01*
X143060000Y-144166233D02*
X142993333Y-144232900D01*
X142993333Y-144232900D02*
X142926666Y-144366233D01*
X142926666Y-144366233D02*
X142926666Y-144566233D01*
X142926666Y-144566233D02*
X142993333Y-144699566D01*
X142993333Y-144699566D02*
X143060000Y-144766233D01*
X143060000Y-144766233D02*
X143193333Y-144832900D01*
X143193333Y-144832900D02*
X143726666Y-144832900D01*
X151969999Y-106599566D02*
X151969999Y-105199566D01*
X151969999Y-105866233D02*
X151169999Y-105866233D01*
X151169999Y-106599566D02*
X151169999Y-105199566D01*
X161149999Y-125559566D02*
X161149999Y-124159566D01*
X161149999Y-124159566D02*
X160349999Y-125559566D01*
X160349999Y-125559566D02*
X160349999Y-124159566D01*
X161339999Y-86239566D02*
X161339999Y-87372900D01*
X161339999Y-87372900D02*
X161273333Y-87506233D01*
X161273333Y-87506233D02*
X161206666Y-87572900D01*
X161206666Y-87572900D02*
X161073333Y-87639566D01*
X161073333Y-87639566D02*
X160806666Y-87639566D01*
X160806666Y-87639566D02*
X160673333Y-87572900D01*
X160673333Y-87572900D02*
X160606666Y-87506233D01*
X160606666Y-87506233D02*
X160539999Y-87372900D01*
X160539999Y-87372900D02*
X160539999Y-86239566D01*
X170409999Y-105199566D02*
X170409999Y-106199566D01*
X170409999Y-106199566D02*
X170476666Y-106399566D01*
X170476666Y-106399566D02*
X170609999Y-106532900D01*
X170609999Y-106532900D02*
X170809999Y-106599566D01*
X170809999Y-106599566D02*
X170943333Y-106599566D01*
X180226666Y-125559566D02*
X180226666Y-124159566D01*
X180226666Y-124159566D02*
X179760000Y-125159566D01*
X179760000Y-125159566D02*
X179293333Y-124159566D01*
X179293333Y-124159566D02*
X179293333Y-125559566D01*
X180179999Y-87639566D02*
X180179999Y-86239566D01*
X190086666Y-106599566D02*
X190086666Y-105199566D01*
X189286666Y-106599566D02*
X189886666Y-105799566D01*
X189286666Y-105199566D02*
X190086666Y-105999566D01*
X198833333Y-125492900D02*
X198833333Y-125559566D01*
X198833333Y-125559566D02*
X198899999Y-125692900D01*
X198899999Y-125692900D02*
X198966666Y-125759566D01*
X199143333Y-86239566D02*
X198876666Y-86239566D01*
X198876666Y-86239566D02*
X198743333Y-86306233D01*
X198743333Y-86306233D02*
X198609999Y-86439566D01*
X198609999Y-86439566D02*
X198543333Y-86706233D01*
X198543333Y-86706233D02*
X198543333Y-87172900D01*
X198543333Y-87172900D02*
X198609999Y-87439566D01*
X198609999Y-87439566D02*
X198743333Y-87572900D01*
X198743333Y-87572900D02*
X198876666Y-87639566D01*
X198876666Y-87639566D02*
X199143333Y-87639566D01*
X199143333Y-87639566D02*
X199276666Y-87572900D01*
X199276666Y-87572900D02*
X199409999Y-87439566D01*
X199409999Y-87439566D02*
X199476666Y-87172900D01*
X199476666Y-87172900D02*
X199476666Y-86706233D01*
X199476666Y-86706233D02*
X199409999Y-86439566D01*
X199409999Y-86439566D02*
X199276666Y-86306233D01*
X199276666Y-86306233D02*
X199143333Y-86239566D01*
X208186666Y-106599566D02*
X208853332Y-106599566D01*
X208853332Y-106599566D02*
X208853332Y-105199566D01*
X208846666Y-66979566D02*
X208713332Y-66979566D01*
X208713332Y-66979566D02*
X208579999Y-67046233D01*
X208579999Y-67046233D02*
X208513332Y-67112900D01*
X208513332Y-67112900D02*
X208446666Y-67246233D01*
X208446666Y-67246233D02*
X208379999Y-67512900D01*
X208379999Y-67512900D02*
X208379999Y-67846233D01*
X208379999Y-67846233D02*
X208446666Y-68112900D01*
X208446666Y-68112900D02*
X208513332Y-68246233D01*
X208513332Y-68246233D02*
X208579999Y-68312900D01*
X208579999Y-68312900D02*
X208713332Y-68379566D01*
X208713332Y-68379566D02*
X208846666Y-68379566D01*
X208846666Y-68379566D02*
X208979999Y-68312900D01*
X208979999Y-68312900D02*
X209046666Y-68246233D01*
X209046666Y-68246233D02*
X209113332Y-68112900D01*
X209113332Y-68112900D02*
X209179999Y-67846233D01*
X209179999Y-67846233D02*
X209179999Y-67512900D01*
X209179999Y-67512900D02*
X209113332Y-67246233D01*
X209113332Y-67246233D02*
X209046666Y-67112900D01*
X209046666Y-67112900D02*
X208979999Y-67046233D01*
X208979999Y-67046233D02*
X208846666Y-66979566D01*
X217759999Y-125426233D02*
X217693333Y-125492900D01*
X217693333Y-125492900D02*
X217759999Y-125559566D01*
X217759999Y-125559566D02*
X217826666Y-125492900D01*
X217826666Y-125492900D02*
X217759999Y-125426233D01*
X217759999Y-125426233D02*
X217759999Y-125559566D01*
X218416666Y-87639566D02*
X218416666Y-86239566D01*
X218416666Y-86239566D02*
X217883333Y-86239566D01*
X217883333Y-86239566D02*
X217750000Y-86306233D01*
X217750000Y-86306233D02*
X217683333Y-86372900D01*
X217683333Y-86372900D02*
X217616666Y-86506233D01*
X217616666Y-86506233D02*
X217616666Y-86706233D01*
X217616666Y-86706233D02*
X217683333Y-86839566D01*
X217683333Y-86839566D02*
X217750000Y-86906233D01*
X217750000Y-86906233D02*
X217883333Y-86972900D01*
X217883333Y-86972900D02*
X218416666Y-86972900D01*
X228153332Y-67846233D02*
X227086666Y-67846233D01*
X227356666Y-106466233D02*
X227423333Y-106532900D01*
X227423333Y-106532900D02*
X227623333Y-106599566D01*
X227623333Y-106599566D02*
X227756666Y-106599566D01*
X227756666Y-106599566D02*
X227956666Y-106532900D01*
X227956666Y-106532900D02*
X228090000Y-106399566D01*
X228090000Y-106399566D02*
X228156666Y-106266233D01*
X228156666Y-106266233D02*
X228223333Y-105999566D01*
X228223333Y-105999566D02*
X228223333Y-105799566D01*
X228223333Y-105799566D02*
X228156666Y-105532900D01*
X228156666Y-105532900D02*
X228090000Y-105399566D01*
X228090000Y-105399566D02*
X227956666Y-105266233D01*
X227956666Y-105266233D02*
X227756666Y-105199566D01*
X227756666Y-105199566D02*
X227623333Y-105199566D01*
X227623333Y-105199566D02*
X227423333Y-105266233D01*
X227423333Y-105266233D02*
X227356666Y-105332900D01*
X227556666Y-104666233D02*
X227756666Y-104866233D01*
X237619999Y-87572900D02*
X237419999Y-87639566D01*
X237419999Y-87639566D02*
X237086666Y-87639566D01*
X237086666Y-87639566D02*
X236953332Y-87572900D01*
X236953332Y-87572900D02*
X236886666Y-87506233D01*
X236886666Y-87506233D02*
X236819999Y-87372900D01*
X236819999Y-87372900D02*
X236819999Y-87239566D01*
X236819999Y-87239566D02*
X236886666Y-87106233D01*
X236886666Y-87106233D02*
X236953332Y-87039566D01*
X236953332Y-87039566D02*
X237086666Y-86972900D01*
X237086666Y-86972900D02*
X237353332Y-86906233D01*
X237353332Y-86906233D02*
X237486666Y-86839566D01*
X237486666Y-86839566D02*
X237553332Y-86772900D01*
X237553332Y-86772900D02*
X237619999Y-86639566D01*
X237619999Y-86639566D02*
X237619999Y-86506233D01*
X237619999Y-86506233D02*
X237553332Y-86372900D01*
X237553332Y-86372900D02*
X237486666Y-86306233D01*
X237486666Y-86306233D02*
X237353332Y-86239566D01*
X237353332Y-86239566D02*
X237019999Y-86239566D01*
X237019999Y-86239566D02*
X236819999Y-86306233D01*
X237486666Y-85706233D02*
X237219999Y-85906233D01*
X237219999Y-85906233D02*
X236953332Y-85706233D01*
X236779999Y-124092900D02*
X237979999Y-125892900D01*
X246536666Y-106466233D02*
X246603333Y-106532900D01*
X246603333Y-106532900D02*
X246803333Y-106599566D01*
X246803333Y-106599566D02*
X246936666Y-106599566D01*
X246936666Y-106599566D02*
X247136666Y-106532900D01*
X247136666Y-106532900D02*
X247270000Y-106399566D01*
X247270000Y-106399566D02*
X247336666Y-106266233D01*
X247336666Y-106266233D02*
X247403333Y-105999566D01*
X247403333Y-105999566D02*
X247403333Y-105799566D01*
X247403333Y-105799566D02*
X247336666Y-105532900D01*
X247336666Y-105532900D02*
X247270000Y-105399566D01*
X247270000Y-105399566D02*
X247136666Y-105266233D01*
X247136666Y-105266233D02*
X246936666Y-105199566D01*
X246936666Y-105199566D02*
X246803333Y-105199566D01*
X246803333Y-105199566D02*
X246603333Y-105266233D01*
X246603333Y-105266233D02*
X246536666Y-105332900D01*
X247136666Y-104666233D02*
X246870000Y-104866233D01*
X246870000Y-104866233D02*
X246603333Y-104666233D01*
X248196666Y-66979566D02*
X248196666Y-67312900D01*
X248530000Y-67179566D02*
X248196666Y-67312900D01*
X248196666Y-67312900D02*
X247863333Y-67179566D01*
X248396666Y-67579566D02*
X248196666Y-67312900D01*
X248196666Y-67312900D02*
X247996666Y-67579566D01*
X246329999Y-66912900D02*
X247529999Y-68712900D01*
X245863332Y-68246233D02*
X245796666Y-68312900D01*
X245796666Y-68312900D02*
X245863332Y-68379566D01*
X245863332Y-68379566D02*
X245929999Y-68312900D01*
X245929999Y-68312900D02*
X245863332Y-68246233D01*
X245863332Y-68246233D02*
X245863332Y-68379566D01*
X245863332Y-67512900D02*
X245796666Y-67579566D01*
X245796666Y-67579566D02*
X245863332Y-67646233D01*
X245863332Y-67646233D02*
X245929999Y-67579566D01*
X245929999Y-67579566D02*
X245863332Y-67512900D01*
X245863332Y-67512900D02*
X245863332Y-67646233D01*
X256486666Y-87639566D02*
X256486666Y-86239566D01*
X256486666Y-86239566D02*
X256153333Y-86239566D01*
X256153333Y-86239566D02*
X255953333Y-86306233D01*
X255953333Y-86306233D02*
X255820000Y-86439566D01*
X255820000Y-86439566D02*
X255753333Y-86572900D01*
X255753333Y-86572900D02*
X255686666Y-86839566D01*
X255686666Y-86839566D02*
X255686666Y-87039566D01*
X255686666Y-87039566D02*
X255753333Y-87306233D01*
X255753333Y-87306233D02*
X255820000Y-87439566D01*
X255820000Y-87439566D02*
X255953333Y-87572900D01*
X255953333Y-87572900D02*
X256153333Y-87639566D01*
X256153333Y-87639566D02*
X256486666Y-87639566D01*
X256686666Y-86906233D02*
X256153333Y-86906233D01*
X264269999Y-125559566D02*
X264736666Y-124892900D01*
X265069999Y-125559566D02*
X265069999Y-124159566D01*
X265069999Y-124159566D02*
X264536666Y-124159566D01*
X264536666Y-124159566D02*
X264403333Y-124226233D01*
X264403333Y-124226233D02*
X264336666Y-124292900D01*
X264336666Y-124292900D02*
X264269999Y-124426233D01*
X264269999Y-124426233D02*
X264269999Y-124626233D01*
X264269999Y-124626233D02*
X264336666Y-124759566D01*
X264336666Y-124759566D02*
X264403333Y-124826233D01*
X264403333Y-124826233D02*
X264536666Y-124892900D01*
X264536666Y-124892900D02*
X265069999Y-124892900D01*
X263669999Y-125026233D02*
X262603333Y-125026233D01*
X262003333Y-125492900D02*
X261803333Y-125559566D01*
X261803333Y-125559566D02*
X261470000Y-125559566D01*
X261470000Y-125559566D02*
X261336666Y-125492900D01*
X261336666Y-125492900D02*
X261270000Y-125426233D01*
X261270000Y-125426233D02*
X261203333Y-125292900D01*
X261203333Y-125292900D02*
X261203333Y-125159566D01*
X261203333Y-125159566D02*
X261270000Y-125026233D01*
X261270000Y-125026233D02*
X261336666Y-124959566D01*
X261336666Y-124959566D02*
X261470000Y-124892900D01*
X261470000Y-124892900D02*
X261736666Y-124826233D01*
X261736666Y-124826233D02*
X261870000Y-124759566D01*
X261870000Y-124759566D02*
X261936666Y-124692900D01*
X261936666Y-124692900D02*
X262003333Y-124559566D01*
X262003333Y-124559566D02*
X262003333Y-124426233D01*
X262003333Y-124426233D02*
X261936666Y-124292900D01*
X261936666Y-124292900D02*
X261870000Y-124226233D01*
X261870000Y-124226233D02*
X261736666Y-124159566D01*
X261736666Y-124159566D02*
X261403333Y-124159566D01*
X261403333Y-124159566D02*
X261203333Y-124226233D01*
X260603333Y-125559566D02*
X260603333Y-124159566D01*
X260603333Y-124826233D02*
X259803333Y-124826233D01*
X259803333Y-125559566D02*
X259803333Y-124159566D01*
X259136666Y-125559566D02*
X259136666Y-124159566D01*
X258003333Y-124826233D02*
X258469999Y-124826233D01*
X258469999Y-125559566D02*
X258469999Y-124159566D01*
X258469999Y-124159566D02*
X257803333Y-124159566D01*
X257469999Y-124159566D02*
X256669999Y-124159566D01*
X257069999Y-125559566D02*
X257069999Y-124159566D01*
X267839999Y-67846233D02*
X266773333Y-67846233D01*
X267306666Y-68379566D02*
X267306666Y-67312900D01*
X265106666Y-66912900D02*
X266306666Y-68712900D01*
X264573333Y-68312900D02*
X264573333Y-68379566D01*
X264573333Y-68379566D02*
X264639999Y-68512900D01*
X264639999Y-68512900D02*
X264706666Y-68579566D01*
X264639999Y-67512900D02*
X264573333Y-67579566D01*
X264573333Y-67579566D02*
X264639999Y-67646233D01*
X264639999Y-67646233D02*
X264706666Y-67579566D01*
X264706666Y-67579566D02*
X264639999Y-67512900D01*
X264639999Y-67512900D02*
X264639999Y-67646233D01*
X273950000Y-105866233D02*
X273483334Y-105866233D01*
X273283334Y-106599566D02*
X273950000Y-106599566D01*
X273950000Y-106599566D02*
X273950000Y-105199566D01*
X273950000Y-105199566D02*
X273283334Y-105199566D01*
X272683333Y-106599566D02*
X272683333Y-105199566D01*
X272683333Y-105199566D02*
X271883333Y-106599566D01*
X271883333Y-106599566D02*
X271883333Y-105199566D01*
X271416666Y-105199566D02*
X270616666Y-105199566D01*
X271016666Y-106599566D02*
X271016666Y-105199566D01*
X270149999Y-105866233D02*
X269683333Y-105866233D01*
X269483333Y-106599566D02*
X270149999Y-106599566D01*
X270149999Y-106599566D02*
X270149999Y-105199566D01*
X270149999Y-105199566D02*
X269483333Y-105199566D01*
X268083332Y-106599566D02*
X268549999Y-105932900D01*
X268883332Y-106599566D02*
X268883332Y-105199566D01*
X268883332Y-105199566D02*
X268349999Y-105199566D01*
X268349999Y-105199566D02*
X268216666Y-105266233D01*
X268216666Y-105266233D02*
X268149999Y-105332900D01*
X268149999Y-105332900D02*
X268083332Y-105466233D01*
X268083332Y-105466233D02*
X268083332Y-105666233D01*
X268083332Y-105666233D02*
X268149999Y-105799566D01*
X268149999Y-105799566D02*
X268216666Y-105866233D01*
X268216666Y-105866233D02*
X268349999Y-105932900D01*
X268349999Y-105932900D02*
X268883332Y-105932900D01*
X275426666Y-86372900D02*
X275160000Y-86172900D01*
X275160000Y-86172900D02*
X274893333Y-86372900D01*
X285196666Y-66979566D02*
X284263332Y-66979566D01*
X284263332Y-66979566D02*
X285196666Y-68379566D01*
X285196666Y-68379566D02*
X284263332Y-68379566D01*
X309086666Y-67636233D02*
X309553332Y-67636233D01*
X309553332Y-68369566D02*
X309553332Y-66969566D01*
X309553332Y-66969566D02*
X308886666Y-66969566D01*
X307619999Y-68369566D02*
X308419999Y-68369566D01*
X308019999Y-68369566D02*
X308019999Y-66969566D01*
X308019999Y-66969566D02*
X308153332Y-67169566D01*
X308153332Y-67169566D02*
X308286666Y-67302900D01*
X308286666Y-67302900D02*
X308419999Y-67369566D01*
X309186666Y-86786233D02*
X309653332Y-86786233D01*
X309653332Y-87519566D02*
X309653332Y-86119566D01*
X309653332Y-86119566D02*
X308986666Y-86119566D01*
X308586666Y-86119566D02*
X307719999Y-86119566D01*
X307719999Y-86119566D02*
X308186666Y-86652900D01*
X308186666Y-86652900D02*
X307986666Y-86652900D01*
X307986666Y-86652900D02*
X307853332Y-86719566D01*
X307853332Y-86719566D02*
X307786666Y-86786233D01*
X307786666Y-86786233D02*
X307719999Y-86919566D01*
X307719999Y-86919566D02*
X307719999Y-87252900D01*
X307719999Y-87252900D02*
X307786666Y-87386233D01*
X307786666Y-87386233D02*
X307853332Y-87452900D01*
X307853332Y-87452900D02*
X307986666Y-87519566D01*
X307986666Y-87519566D02*
X308386666Y-87519566D01*
X308386666Y-87519566D02*
X308519999Y-87452900D01*
X308519999Y-87452900D02*
X308586666Y-87386233D01*
X328046666Y-67636233D02*
X328513332Y-67636233D01*
X328513332Y-68369566D02*
X328513332Y-66969566D01*
X328513332Y-66969566D02*
X327846666Y-66969566D01*
X327379999Y-67102900D02*
X327313332Y-67036233D01*
X327313332Y-67036233D02*
X327179999Y-66969566D01*
X327179999Y-66969566D02*
X326846666Y-66969566D01*
X326846666Y-66969566D02*
X326713332Y-67036233D01*
X326713332Y-67036233D02*
X326646666Y-67102900D01*
X326646666Y-67102900D02*
X326579999Y-67236233D01*
X326579999Y-67236233D02*
X326579999Y-67369566D01*
X326579999Y-67369566D02*
X326646666Y-67569566D01*
X326646666Y-67569566D02*
X327446666Y-68369566D01*
X327446666Y-68369566D02*
X326579999Y-68369566D01*
X328426666Y-86786233D02*
X328893332Y-86786233D01*
X328893332Y-87519566D02*
X328893332Y-86119566D01*
X328893332Y-86119566D02*
X328226666Y-86119566D01*
X327093332Y-86586233D02*
X327093332Y-87519566D01*
X327426666Y-86052900D02*
X327759999Y-87052900D01*
X327759999Y-87052900D02*
X326893332Y-87052900D01*
M02*
