%TF.GenerationSoftware,KiCad,Pcbnew,10.0.1*%
%TF.CreationDate,2026-04-30T22:34:29-04:00*%
%TF.ProjectId,Orao Keyboard,4f72616f-204b-4657-9962-6f6172642e6b,1.2*%
%TF.SameCoordinates,Original*%
%TF.FileFunction,Soldermask,Top*%
%TF.FilePolarity,Negative*%
%FSLAX46Y46*%
G04 Gerber Fmt 4.6, Leading zero omitted, Abs format (unit mm)*
G04 Created by KiCad (PCBNEW 10.0.1) date 2026-04-30 22:34:29*
%MOMM*%
%LPD*%
G01*
G04 APERTURE LIST*
%ADD10C,1.750000*%
%ADD11C,4.000000*%
%ADD12C,2.500000*%
%ADD13C,3.987800*%
%ADD14C,3.048000*%
%ADD15R,1.700000X1.700000*%
%ADD16C,1.700000*%
%ADD17R,1.600000X2.400000*%
%ADD18O,1.600000X2.400000*%
G04 APERTURE END LIST*
D10*
%TO.C,S6*%
X32067500Y-64500000D03*
D11*
X37147500Y-64500000D03*
D10*
X42227500Y-64500000D03*
D12*
X33337500Y-61960000D03*
X39687500Y-59420000D03*
%TD*%
%TO.C,S29*%
X144420000Y-135560000D03*
X138070000Y-138100000D03*
D10*
X146960000Y-140640000D03*
D11*
X141880000Y-140640000D03*
D10*
X136800000Y-140640000D03*
%TD*%
%TO.C,S61*%
X36830000Y-121602500D03*
D11*
X41910000Y-121602500D03*
D10*
X46990000Y-121602500D03*
D12*
X38100000Y-119062500D03*
X44450000Y-116522500D03*
%TD*%
D13*
%TO.C,REF\u002A\u002A*%
X191960000Y-148865000D03*
D14*
X191960000Y-133655000D03*
D13*
X91960000Y-148865000D03*
D14*
X91960000Y-133655000D03*
%TD*%
D10*
%TO.C,S59*%
X255905000Y-121602500D03*
D11*
X260985000Y-121602500D03*
D10*
X266065000Y-121602500D03*
D12*
X257175000Y-119062500D03*
X263525000Y-116522500D03*
%TD*%
D10*
%TO.C,S30*%
X265430000Y-102552500D03*
D11*
X270510000Y-102552500D03*
D10*
X275590000Y-102552500D03*
D12*
X266700000Y-100012500D03*
X273050000Y-97472500D03*
%TD*%
D15*
%TO.C,J1*%
X163499800Y-45821600D03*
D16*
X166039800Y-45821600D03*
X168579800Y-45821600D03*
X171119800Y-45821600D03*
X173659800Y-45821600D03*
X176199800Y-45821600D03*
X178739800Y-45821600D03*
X181279800Y-45821600D03*
X183819800Y-45821600D03*
X186359800Y-45821600D03*
X188899800Y-45821600D03*
X191439800Y-45821600D03*
X193979800Y-45821600D03*
X196519800Y-45821600D03*
X199059800Y-45821600D03*
X201599800Y-45821600D03*
%TD*%
D17*
%TO.C,SW1*%
X163520000Y-50860000D03*
D18*
X166060000Y-50860000D03*
X168600000Y-50860000D03*
X171140000Y-50860000D03*
X173680000Y-50860000D03*
X176220000Y-50860000D03*
X178760000Y-50860000D03*
X181300000Y-50860000D03*
X181300000Y-43240000D03*
X178760000Y-43240000D03*
X176220000Y-43240000D03*
X173680000Y-43240000D03*
X171140000Y-43240000D03*
X168600000Y-43240000D03*
X166060000Y-43240000D03*
X163520000Y-43240000D03*
%TD*%
D12*
%TO.C,S28*%
X115887500Y-59372500D03*
X109537500Y-61912500D03*
D10*
X118427500Y-64452500D03*
D11*
X113347500Y-64452500D03*
D10*
X108267500Y-64452500D03*
%TD*%
D12*
%TO.C,S23*%
X144462500Y-116522500D03*
X138112500Y-119062500D03*
D10*
X147002500Y-121602500D03*
D11*
X141922500Y-121602500D03*
D10*
X136842500Y-121602500D03*
%TD*%
D12*
%TO.C,S35*%
X192087500Y-97472500D03*
X185737500Y-100012500D03*
D10*
X194627500Y-102552500D03*
D11*
X189547500Y-102552500D03*
D10*
X184467500Y-102552500D03*
%TD*%
D12*
%TO.C,S39*%
X311150000Y-78422500D03*
X304800000Y-80962500D03*
D10*
X313690000Y-83502500D03*
D11*
X308610000Y-83502500D03*
D10*
X303530000Y-83502500D03*
%TD*%
D12*
%TO.C,S45*%
X173037500Y-97472500D03*
X166687500Y-100012500D03*
D10*
X175577500Y-102552500D03*
D11*
X170497500Y-102552500D03*
D10*
X165417500Y-102552500D03*
%TD*%
D12*
%TO.C,S14*%
X96837500Y-97472500D03*
X90487500Y-100012500D03*
D10*
X99377500Y-102552500D03*
D11*
X94297500Y-102552500D03*
D10*
X89217500Y-102552500D03*
%TD*%
D12*
%TO.C,S33*%
X134937500Y-97472500D03*
X128587500Y-100012500D03*
D10*
X137477500Y-102552500D03*
D11*
X132397500Y-102552500D03*
D10*
X127317500Y-102552500D03*
%TD*%
D12*
%TO.C,S43*%
X153987500Y-97472500D03*
X147637500Y-100012500D03*
D10*
X156527500Y-102552500D03*
D11*
X151447500Y-102552500D03*
D10*
X146367500Y-102552500D03*
%TD*%
D12*
%TO.C,S1*%
X268287500Y-59372500D03*
X261937500Y-61912500D03*
D10*
X270827500Y-64452500D03*
D11*
X265747500Y-64452500D03*
D10*
X260667500Y-64452500D03*
%TD*%
D12*
%TO.C,S48*%
X68262500Y-116522500D03*
X61912500Y-119062500D03*
D10*
X70802500Y-121602500D03*
D11*
X65722500Y-121602500D03*
D10*
X60642500Y-121602500D03*
%TD*%
D12*
%TO.C,S22*%
X239712500Y-116522500D03*
X233362500Y-119062500D03*
D10*
X242252500Y-121602500D03*
D11*
X237172500Y-121602500D03*
D10*
X232092500Y-121602500D03*
%TD*%
D12*
%TO.C,S4*%
X144462500Y-78422500D03*
X138112500Y-80962500D03*
D10*
X147002500Y-83502500D03*
D11*
X141922500Y-83502500D03*
D10*
X136842500Y-83502500D03*
%TD*%
D12*
%TO.C,S21*%
X230187500Y-59372500D03*
X223837500Y-61912500D03*
D10*
X232727500Y-64452500D03*
D11*
X227647500Y-64452500D03*
D10*
X222567500Y-64452500D03*
%TD*%
D12*
%TO.C,S20*%
X291540000Y-135920000D03*
X285190000Y-138460000D03*
D10*
X294080000Y-141000000D03*
D11*
X289000000Y-141000000D03*
D10*
X283920000Y-141000000D03*
%TD*%
D12*
%TO.C,S10*%
X330540000Y-135920000D03*
X324190000Y-138460000D03*
D10*
X333080000Y-141000000D03*
D11*
X328000000Y-141000000D03*
D10*
X322920000Y-141000000D03*
%TD*%
D12*
%TO.C,S58*%
X96837500Y-59372500D03*
X90487500Y-61912500D03*
D10*
X99377500Y-64452500D03*
D11*
X94297500Y-64452500D03*
D10*
X89217500Y-64452500D03*
%TD*%
D12*
%TO.C,S51*%
X211140000Y-59420000D03*
X204790000Y-61960000D03*
D10*
X213680000Y-64500000D03*
D11*
X208600000Y-64500000D03*
D10*
X203520000Y-64500000D03*
%TD*%
D12*
%TO.C,S11*%
X220662500Y-78422500D03*
X214312500Y-80962500D03*
D10*
X223202500Y-83502500D03*
D11*
X218122500Y-83502500D03*
D10*
X213042500Y-83502500D03*
%TD*%
D12*
%TO.C,S42*%
X230187500Y-97472500D03*
X223837500Y-100012500D03*
D10*
X232727500Y-102552500D03*
D11*
X227647500Y-102552500D03*
D10*
X222567500Y-102552500D03*
%TD*%
D12*
%TO.C,S32*%
X287337500Y-59372500D03*
X280987500Y-61912500D03*
D10*
X289877500Y-64452500D03*
D11*
X284797500Y-64452500D03*
D10*
X279717500Y-64452500D03*
%TD*%
D12*
%TO.C,S40*%
X311150000Y-135920000D03*
X304800000Y-138460000D03*
D10*
X313690000Y-141000000D03*
D11*
X308610000Y-141000000D03*
D10*
X303530000Y-141000000D03*
%TD*%
D12*
%TO.C,S13*%
X115887500Y-97472500D03*
X109537500Y-100012500D03*
D10*
X118427500Y-102552500D03*
D11*
X113347500Y-102552500D03*
D10*
X108267500Y-102552500D03*
%TD*%
D12*
%TO.C,S44*%
X58737500Y-97472500D03*
X52387500Y-100012500D03*
D10*
X61277500Y-102552500D03*
D11*
X56197500Y-102552500D03*
D10*
X51117500Y-102552500D03*
%TD*%
D12*
%TO.C,S55*%
X220662500Y-116522500D03*
X214312500Y-119062500D03*
D10*
X223202500Y-121602500D03*
D11*
X218122500Y-121602500D03*
D10*
X213042500Y-121602500D03*
%TD*%
D12*
%TO.C,S41*%
X258762500Y-78422500D03*
X252412500Y-80962500D03*
D10*
X261302500Y-83502500D03*
D11*
X256222500Y-83502500D03*
D10*
X251142500Y-83502500D03*
%TD*%
D12*
%TO.C,S38*%
X125412500Y-78422500D03*
X119062500Y-80962500D03*
D10*
X127952500Y-83502500D03*
D11*
X122872500Y-83502500D03*
D10*
X117792500Y-83502500D03*
%TD*%
D12*
%TO.C,S53*%
X125412500Y-116522500D03*
X119062500Y-119062500D03*
D10*
X127952500Y-121602500D03*
D11*
X122872500Y-121602500D03*
D10*
X117792500Y-121602500D03*
%TD*%
D12*
%TO.C,S57*%
X192087500Y-59420000D03*
X185737500Y-61960000D03*
D10*
X194627500Y-64500000D03*
D11*
X189547500Y-64500000D03*
D10*
X184467500Y-64500000D03*
%TD*%
D12*
%TO.C,S12*%
X249237500Y-97472500D03*
X242887500Y-100012500D03*
D10*
X251777500Y-102552500D03*
D11*
X246697500Y-102552500D03*
D10*
X241617500Y-102552500D03*
%TD*%
D12*
%TO.C,S47*%
X182562500Y-78422500D03*
X176212500Y-80962500D03*
D10*
X185102500Y-83502500D03*
D11*
X180022500Y-83502500D03*
D10*
X174942500Y-83502500D03*
%TD*%
D12*
%TO.C,S27*%
X173037500Y-59420000D03*
X166687500Y-61960000D03*
D10*
X175577500Y-64500000D03*
D11*
X170497500Y-64500000D03*
D10*
X165417500Y-64500000D03*
%TD*%
D12*
%TO.C,S5*%
X182562500Y-116522500D03*
X176212500Y-119062500D03*
D10*
X185102500Y-121602500D03*
D11*
X180022500Y-121602500D03*
D10*
X174942500Y-121602500D03*
%TD*%
D12*
%TO.C,S37*%
X163512500Y-78422500D03*
X157162500Y-80962500D03*
D10*
X166052500Y-83502500D03*
D11*
X160972500Y-83502500D03*
D10*
X155892500Y-83502500D03*
%TD*%
D12*
%TO.C,S18*%
X106362500Y-78422500D03*
X100012500Y-80962500D03*
D10*
X108902500Y-83502500D03*
D11*
X103822500Y-83502500D03*
D10*
X98742500Y-83502500D03*
%TD*%
D12*
%TO.C,S34*%
X77787500Y-97472500D03*
X71437500Y-100012500D03*
D10*
X80327500Y-102552500D03*
D11*
X75247500Y-102552500D03*
D10*
X70167500Y-102552500D03*
%TD*%
D12*
%TO.C,S46*%
X49212500Y-78422500D03*
X42862500Y-80962500D03*
D10*
X51752500Y-83502500D03*
D11*
X46672500Y-83502500D03*
D10*
X41592500Y-83502500D03*
%TD*%
D12*
%TO.C,S54*%
X106362500Y-116522500D03*
X100012500Y-119062500D03*
D10*
X108902500Y-121602500D03*
D11*
X103822500Y-121602500D03*
D10*
X98742500Y-121602500D03*
%TD*%
D12*
%TO.C,S3*%
X163512500Y-116522500D03*
X157162500Y-119062500D03*
D10*
X166052500Y-121602500D03*
D11*
X160972500Y-121602500D03*
D10*
X155892500Y-121602500D03*
%TD*%
D12*
%TO.C,S52*%
X277812500Y-78422500D03*
X271462500Y-80962500D03*
D10*
X280352500Y-83502500D03*
D11*
X275272500Y-83502500D03*
D10*
X270192500Y-83502500D03*
%TD*%
D12*
%TO.C,S19*%
X311150000Y-59372500D03*
X304800000Y-61912500D03*
D10*
X313690000Y-64452500D03*
D11*
X308610000Y-64452500D03*
D10*
X303530000Y-64452500D03*
%TD*%
D12*
%TO.C,S17*%
X201612500Y-78422500D03*
X195262500Y-80962500D03*
D10*
X204152500Y-83502500D03*
D11*
X199072500Y-83502500D03*
D10*
X193992500Y-83502500D03*
%TD*%
D12*
%TO.C,S50*%
X311150000Y-116420000D03*
X304800000Y-118960000D03*
D10*
X313690000Y-121500000D03*
D11*
X308610000Y-121500000D03*
D10*
X303530000Y-121500000D03*
%TD*%
D12*
%TO.C,S9*%
X330200000Y-78422500D03*
X323850000Y-80962500D03*
D10*
X332740000Y-83502500D03*
D11*
X327660000Y-83502500D03*
D10*
X322580000Y-83502500D03*
%TD*%
D12*
%TO.C,S25*%
X201612500Y-116522500D03*
X195262500Y-119062500D03*
D10*
X204152500Y-121602500D03*
D11*
X199072500Y-121602500D03*
D10*
X193992500Y-121602500D03*
%TD*%
D12*
%TO.C,S31*%
X239712500Y-78422500D03*
X233362500Y-80962500D03*
D10*
X242252500Y-83502500D03*
D11*
X237172500Y-83502500D03*
D10*
X232092500Y-83502500D03*
%TD*%
D12*
%TO.C,S15*%
X211137500Y-97472500D03*
X204787500Y-100012500D03*
D10*
X213677500Y-102552500D03*
D11*
X208597500Y-102552500D03*
D10*
X203517500Y-102552500D03*
%TD*%
D12*
%TO.C,S36*%
X68262500Y-78422500D03*
X61912500Y-80962500D03*
D10*
X70802500Y-83502500D03*
D11*
X65722500Y-83502500D03*
D10*
X60642500Y-83502500D03*
%TD*%
D12*
%TO.C,S56*%
X77787500Y-59372500D03*
X71437500Y-61912500D03*
D10*
X80327500Y-64452500D03*
D11*
X75247500Y-64452500D03*
D10*
X70167500Y-64452500D03*
%TD*%
D12*
%TO.C,S16*%
X87312500Y-78422500D03*
X80962500Y-80962500D03*
D10*
X89852500Y-83502500D03*
D11*
X84772500Y-83502500D03*
D10*
X79692500Y-83502500D03*
%TD*%
D12*
%TO.C,S2*%
X249237500Y-59372500D03*
X242887500Y-61912500D03*
D10*
X251777500Y-64452500D03*
D11*
X246697500Y-64452500D03*
D10*
X241617500Y-64452500D03*
%TD*%
D12*
%TO.C,S7*%
X153987500Y-59408300D03*
X147637500Y-61948300D03*
D10*
X156527500Y-64488300D03*
D11*
X151447500Y-64488300D03*
D10*
X146367500Y-64488300D03*
%TD*%
D12*
%TO.C,S24*%
X87312500Y-116522500D03*
X80962500Y-119062500D03*
D10*
X89852500Y-121602500D03*
D11*
X84772500Y-121602500D03*
D10*
X79692500Y-121602500D03*
%TD*%
D12*
%TO.C,S26*%
X58737500Y-59420000D03*
X52387500Y-61960000D03*
D10*
X61277500Y-64500000D03*
D11*
X56197500Y-64500000D03*
D10*
X51117500Y-64500000D03*
%TD*%
D12*
%TO.C,S49*%
X330200000Y-59372500D03*
X323850000Y-61912500D03*
D10*
X332740000Y-64452500D03*
D11*
X327660000Y-64452500D03*
D10*
X322580000Y-64452500D03*
%TD*%
D12*
%TO.C,S60*%
X39687500Y-97472500D03*
X33337500Y-100012500D03*
D10*
X42227500Y-102552500D03*
D11*
X37147500Y-102552500D03*
D10*
X32067500Y-102552500D03*
%TD*%
D12*
%TO.C,S8*%
X134937500Y-59372500D03*
X128587500Y-61912500D03*
D10*
X137477500Y-64452500D03*
D11*
X132397500Y-64452500D03*
D10*
X127317500Y-64452500D03*
%TD*%
M02*
